<?xml version="1.0" encoding="UTF-8" standalone="no"?>
<!-- Created with Inkscape (http://www.inkscape.org/) -->

<svg
   xmlns:dc="http://purl.org/dc/elements/1.1/"
   xmlns:cc="http://creativecommons.org/ns#"
   xmlns:rdf="http://www.w3.org/1999/02/22-rdf-syntax-ns#"
   xmlns:svg="http://www.w3.org/2000/svg"
   xmlns="http://www.w3.org/2000/svg"
   xmlns:sodipodi="http://sodipodi.sourceforge.net/DTD/sodipodi-0.dtd"
   xmlns:inkscape="http://www.inkscape.org/namespaces/inkscape"
   width="64"
   height="64"
   viewBox="0 0 16.933333 16.933334"
   version="1.1"
   id="svg8"
   inkscape:version="0.92.5 (2060ec1f9f, 2020-04-08)"
   sodipodi:docname="fighter.svg">
  <defs
     id="defs2" />
  <sodipodi:namedview
     id="base"
     pagecolor="#000d50"
     bordercolor="#666666"
     borderopacity="1.0"
     inkscape:pageopacity="0"
     inkscape:pageshadow="2"
     inkscape:zoom="8"
     inkscape:cx="17.471262"
     inkscape:cy="35.02677"
     inkscape:document-units="px"
     inkscape:current-layer="layer1"
     showgrid="false"
     units="px"
     inkscape:window-width="1920"
     inkscape:window-height="1027"
     inkscape:window-x="0"
     inkscape:window-y="1080"
     inkscape:window-maximized="1" />
  <metadata
     id="metadata5">
    <rdf:RDF>
      <cc:Work
         rdf:about="">
        <dc:format>image/svg+xml</dc:format>
        <dc:type
           rdf:resource="http://purl.org/dc/dcmitype/StillImage" />
        <dc:title />
      </cc:Work>
    </rdf:RDF>
  </metadata>
  <g
     inkscape:label="Layer 1"
     inkscape:groupmode="layer"
     id="layer1"
     transform="translate(0,-280.06665)">
    <path
       style="fill:#ffffff;fill-opacity:0.99572646;stroke:none;stroke-width:0.5291667;stroke-linecap:round;stroke-linejoin:round;stroke-miterlimit:4;stroke-dasharray:none;stroke-opacity:0.97435895"
       id="path4540"
       d="m 2.634619,287.34397 c 0.077027,-0.0495 0.1626566,-0.0805 0.2516947,-0.0996 0.084345,-0.007 0.1666108,-0.0259 0.2507012,-0.0355 0.097463,-0.008 0.1953723,-0.009 0.29313,-0.009 0.1122567,-3.9e-4 0.224513,2e-5 0.3367697,3e-4 0.1285494,3.1e-4 0.257099,3.9e-4 0.3856487,4.5e-4 0.1388933,4e-5 0.2777855,3.4e-4 0.4166788,2.6e-4 0.1445869,1.3e-4 0.2891737,1.2e-4 0.4337608,-2e-5 0.1451134,6.9e-4 0.2896349,0.0172 0.434526,0.0251 0.1431915,0.007 0.2865769,0.007 0.4299011,0.008 0.1438106,4.2e-4 0.287622,10e-6 0.4314328,-1.9e-4 0.1396373,4.5e-4 0.2792741,-7e-5 0.4189108,-3.7e-4 0.122341,0.011 0.2445864,0.022 0.3672973,0.0279 0.1174702,0.005 0.2350516,0.005 0.3525927,0.005 0.120845,3e-5 0.2416903,-1.2e-4 0.3625356,-7e-5 0.1304705,0.003 0.2601502,-1.1e-4 0.3901392,-0.0106 0.1456743,-0.0109 0.2912975,-0.0167 0.4366752,-0.031 0.1518693,-0.009 0.3029099,-0.0248 0.4543399,-0.0388 0.1486114,-0.0134 0.2978783,-0.0158 0.4469855,-0.0178 0.1494438,0.008 0.2982728,0.0264 0.4480465,0.0222 0.1553255,-0.0108 0.3112485,-0.0111 0.4663885,-0.0239 0.157186,-0.0217 0.314529,-0.0195 0.472487,-0.0124 0.150375,0.01 0.301307,0.006 0.451504,0.0175 0.147711,0.0147 0.295916,0.0221 0.444255,0.0261 0.148895,0.001 0.298117,0.008 0.446789,-0.002 0.146431,-0.0139 0.293253,-0.021 0.440237,-0.0253 0.131032,-0.004 0.262107,-0.004 0.393176,-0.004 0.114722,0.005 0.228265,-0.0115 0.342182,-0.0221 0.101057,-0.0137 0.198081,-0.0453 0.298591,-0.0616 0.08322,-0.006 0.163679,-0.0275 0.246013,-0.0395 0.05696,-0.008 0.114347,-0.0104 0.171776,-0.0111 0.04327,-0.003 0.06454,-0.002 0.103495,0.0165 0.02637,0.0107 0.05301,0.0158 0.08131,0.0164 0.036,0.01 0.07596,0.0202 0.11085,0.0357 0.05592,0.0184 0.112064,0.0367 0.166758,0.0588 0.07205,0.0215 0.136905,0.0587 0.202953,0.0934 0.07258,0.0369 0.138737,0.0846 0.209749,0.12414 0.07746,0.0504 0.156997,0.0969 0.235269,0.14605 0.07592,0.0461 0.145874,0.10069 0.218961,0.15082 0.06749,0.0522 0.136715,0.10086 0.208167,0.14747 0.07369,0.0532 0.149705,0.10293 0.22102,0.15938 0.06706,0.0541 0.136281,0.10512 0.201408,0.16171 0.05404,0.0499 0.111226,0.0961 0.163293,0.14797 0.04335,0.0391 0.08874,0.0765 0.128808,0.11902 0.02861,0.0273 0.05662,0.0561 0.08272,0.0855 0.01163,0.0137 0.02303,0.0276 0.0331,0.0425 0.0032,0.006 0.01988,0.0278 0.0079,0.0262 -0.0047,0.0124 0.0049,0.0222 0.0042,0.0351 -3.17e-4,0.005 -0.0094,0.005 -0.01298,0.009 -0.02595,0.0353 -0.05739,0.0657 -0.08425,0.10027 -0.05488,0.0693 -0.109564,0.13876 -0.163548,0.20878 -0.07931,0.0946 -0.156324,0.191 -0.233957,0.28695 -0.08299,0.10789 -0.166677,0.2153 -0.247068,0.32516 -0.08227,0.10683 -0.162836,0.21492 -0.24063,0.32505 -0.06128,0.0863 -0.122669,0.17281 -0.187375,0.25662 -0.03711,0.0489 -0.08066,0.0921 -0.122221,0.13706 -0.02599,0.0222 -0.04879,0.0474 -0.07499,0.0693 -0.149193,0.11611 -0.200588,0.12732 -0.467605,0.2751 -0.04871,0.027 0.01187,-0.0252 -0.02828,0.0122 -0.158811,0.0693 -0.04334,0.0196 0.390294,-0.2263 0.006,-0.003 -0.011,0.008 -0.01664,0.0122 -0.01946,0.0136 -0.03889,0.027 -0.05797,0.0412 -0.275953,0.16945 -1.000307,0.57565 -0.135469,0.0812 -0.188399,0.073 -0.366726,0.25034 -0.576377,0.30411 -0.05835,0.0107 -0.117989,0.0104 -0.177109,0.0109 -0.07171,0.0174 -0.145318,0.0238 -0.218799,0.0277 -0.09375,0.003 -0.187936,0.009 -0.28131,-0.001 -0.109023,-0.0147 -0.218747,-0.0213 -0.328609,-0.0252 -0.128038,-0.0158 -0.256521,-0.0259 -0.385375,-0.0316 -0.141071,-0.005 -0.282261,-0.005 -0.423405,-0.005 -0.142413,-0.012 -0.284868,-0.0222 -0.427678,-0.0278 -0.148958,-0.005 -0.298021,-0.005 -0.447045,-0.005 -0.154752,0.005 -0.308722,-0.0116 -0.462969,-0.0211 -0.158879,-0.0109 -0.318307,-0.006 -0.477126,-0.0167 -0.169533,-0.0124 -0.339081,-0.0206 -0.508347,-0.0363 -0.1762554,-0.011 -0.3520472,-0.0265 -0.5280914,-0.0403 -0.1813624,-0.008 -0.3622,-0.0211 -0.5432523,-0.0341 -0.197336,-0.0133 -0.3951571,-0.0157 -0.5928622,-0.0174 -0.1951519,0.005 -0.3895553,-0.005 -0.5842506,-0.0166 -0.1861259,-0.0106 -0.3725444,-0.014 -0.5589315,-0.0156 -0.1836449,-0.001 -0.3672951,-0.001 -0.5509432,-0.001 -0.1821177,-0.005 -0.3636015,0.0111 -0.5452547,0.0213 -0.170965,0.009 -0.3421618,0.0107 -0.5133165,0.0121 -0.1580288,9.8e-4 -0.3160623,6.9e-4 -0.4740931,6.9e-4 -0.1499966,-0.002 -0.2993343,-10e-4 -0.4488419,0.011 -0.1462854,0.0121 -0.2929562,0.0176 -0.4396684,0.0206 -0.1301422,-0.0109 -0.2613052,-0.014 -0.3908222,-0.0309 -0.1116478,-0.0197 -0.2255689,-0.0194 -0.3374855,-0.0354 -0.099345,-0.0165 -0.1997033,-0.0238 -0.3002169,-0.0277 -0.085738,-0.009 -0.169186,0.003 -0.2537286,0.0152 -0.072816,0.009 -0.1368316,0.01 -0.2078511,0.029 -0.049614,0.0116 -0.1002855,0.0182 -0.1511591,0.0203 -0.027977,-0.005 -0.076567,-0.0405 -0.1019001,-0.0208 -0.020025,-0.004 -0.040595,-0.0121 -0.061275,-0.0114 -0.01152,-3.4e-4 -0.02304,-6.6e-4 -0.034558,-2.2e-4 -0.00395,-0.002 -0.00195,0.003 -0.00196,0.003 0,0 0.3984341,-0.29553 0.3984341,-0.29553 v 0 c 0.0019,0.002 0.00257,0.003 0.00544,0.003 0.011994,10e-4 0.024029,0.002 0.035956,0.004 0.017955,0.004 0.037417,0.009 0.055632,0.005 0.032275,0.0101 0.06644,0.0243 0.1005165,0.0211 0.049062,-0.005 0.09771,-0.0133 0.1455918,-0.0254 0.068925,-0.0132 0.1397071,-0.0123 0.2089192,-0.0242 0.085851,-0.0111 0.1714434,-0.0148 0.2579182,-0.007 0.1011497,0.006 0.2018308,0.0156 0.3019978,0.031 0.1119804,0.0119 0.2245054,0.0189 0.3359558,0.0359 0.1281607,0.0129 0.2569639,0.0224 0.3857019,0.0264 0.1460892,-0.004 0.2921035,-0.01 0.4377333,-0.0224 0.1499793,-0.0101 0.3000666,-0.008 0.4503285,-0.008 0.1577314,1.4e-4 0.3154635,2.4e-4 0.4731933,-5.3e-4 0.1704335,-10e-4 0.3409085,-0.004 0.51112,-0.0134 0.1820526,-0.0102 0.3640092,-0.024 0.5465194,-0.0189 0.1837706,10e-6 0.3675467,-1.2e-4 0.5513115,10e-4 0.1866003,0.003 0.3732069,0.006 0.5595109,0.0179 0.1938862,0.0111 0.3876694,0.0179 0.5819376,0.0155 0.1988344,0.002 0.3978172,0.005 0.596238,0.0187 0.1811962,0.0132 0.3623906,0.024 0.5437677,0.0343 0.1762268,0.0147 0.3525378,0.0272 0.5288778,0.0403 0.169136,0.0149 0.33867,0.0227 0.508043,0.0346 0.15925,0.007 0.318873,0.005 0.478001,0.0165 0.153624,0.0103 0.307201,0.0235 0.461357,0.0186 0.149634,5.8e-4 0.299306,8.7e-4 0.448854,0.007 0.142364,0.007 0.284319,0.0193 0.426663,0.0261 0.141743,5.3e-4 0.283525,0.001 0.425179,0.007 0.128955,0.007 0.25729,0.0197 0.385927,0.0306 0.110697,0.005 0.220936,0.0136 0.331071,0.0257 0.09268,0.004 0.185559,6.4e-4 0.278113,-0.005 0.0743,-0.007 0.147551,-0.0202 0.221751,-0.0268 0.057,-0.002 0.114945,-0.004 0.169311,-0.0228 0.176719,-0.0682 0.459917,-0.24172 -0.271113,0.17328 0.148247,-0.0849 0.292874,-0.17647 0.444742,-0.25472 0.135716,-0.0699 -0.264309,0.15288 -0.396231,0.22973 -0.0077,0.004 0.01604,-0.008 0.02351,-0.0126 0.02122,-0.0137 0.04029,-0.0312 0.06315,-0.0426 0.0278,-0.0132 0.04906,-0.0337 0.07547,-0.0491 0.1456,-0.0853 0.291229,-0.17057 0.437016,-0.25556 0.0052,-0.003 0.01053,-0.006 0.01581,-0.008 0.01022,-0.002 0.03838,-0.0168 0.02928,-0.0116 -1.014689,0.58342 -0.484084,0.30792 -0.377825,0.215 0.02988,-0.0188 0.05477,-0.0405 0.07952,-0.0648 0.04777,-0.0379 0.08663,-0.0875 0.127311,-0.13267 0.07162,-0.0782 0.127244,-0.17054 0.192466,-0.25399 0.07653,-0.11142 0.157664,-0.21963 0.240616,-0.32633 0.08088,-0.11005 0.16411,-0.21805 0.245879,-0.32737 0.07778,-0.0945 0.150692,-0.19305 0.232584,-0.28416 0.05136,-0.0707 0.105748,-0.13921 0.160161,-0.20753 0.02533,-0.0346 0.04983,-0.0688 0.08085,-0.0988 0.0034,-0.006 0.0022,-0.0208 0.0084,-0.0182 0.01431,0.006 0.01446,0.0309 0.01133,-7.7e-4 -7.94e-4,-0.004 -0.006,-0.0109 -0.0024,-0.0106 0.0028,1.9e-4 0.0094,0.0159 0.0097,0.0134 -0.0077,-0.0127 -0.01653,-0.0247 -0.0265,-0.0357 -0.02793,-0.0278 -0.05074,-0.06 -0.08094,-0.0857 -0.04082,-0.0411 -0.08424,-0.0796 -0.126874,-0.11873 -0.05187,-0.0503 -0.107437,-0.0966 -0.16022,-0.14599 -0.06513,-0.0553 -0.134045,-0.10569 -0.20015,-0.15981 -0.07086,-0.0546 -0.145066,-0.10475 -0.218425,-0.1559 -0.07231,-0.0465 -0.140759,-0.0975 -0.209777,-0.14869 -0.0711,-0.0513 -0.142175,-0.10242 -0.216617,-0.14891 -0.07843,-0.0479 -0.156387,-0.0964 -0.234737,-0.14435 -0.06985,-0.041 -0.137912,-0.0849 -0.209811,-0.12234 -0.0644,-0.0347 -0.130513,-0.0653 -0.200325,-0.0877 -0.05577,-0.0197 -0.111605,-0.0391 -0.167789,-0.0575 -0.03482,-0.01 -0.06878,-0.0238 -0.105176,-0.025 -0.03053,-0.006 -0.05961,-0.0156 -0.08848,-0.027 -0.02927,-0.007 -0.06128,9.2e-4 -0.09133,-0.002 -0.0556,0.002 -0.111154,0.006 -0.166085,0.0151 -0.08113,0.0141 -0.161998,0.029 -0.243742,0.0392 -0.09996,0.0204 -0.198535,0.0485 -0.300509,0.0577 -0.114271,0.0106 -0.228458,0.0227 -0.343458,0.0175 -0.130306,2.9e-4 -0.260635,5.2e-4 -0.390901,0.004 -0.146693,0.005 -0.293043,0.0147 -0.439389,0.0259 -0.149777,0.006 -0.299695,10e-4 -0.449511,-0.001 -0.148527,-0.005 -0.296825,-0.0142 -0.444844,-0.0277 -0.150189,-0.008 -0.300747,-0.008 -0.450948,-0.0166 -0.156631,-0.006 -0.312376,-0.002 -0.46825,0.0163 -0.1561688,0.0102 -0.3127243,0.0149 -0.4690537,0.0221 -0.1497986,-9.3e-4 -0.2985703,-0.0184 -0.4482864,-0.0219 -0.1482492,0.002 -0.2965768,0.006 -0.4442402,0.0206 -0.1514295,0.0146 -0.3028731,0.0274 -0.4545669,0.039 -0.1457354,0.0133 -0.2919442,0.0183 -0.4377502,0.0308 -0.1310378,0.01 -0.2621264,0.009 -0.3934894,0.008 -0.1209164,1.9e-4 -0.2418326,3.7e-4 -0.3627488,0 -0.1181074,-3.4e-4 -0.2362531,-9.8e-4 -0.3542374,-0.007 -0.121879,-0.007 -0.2432135,-0.0208 -0.3651676,-0.0263 -0.1394079,-2.5e-4 -0.2788158,-7.1e-4 -0.4182237,-10e-5 -0.1436114,-4e-5 -0.2872232,-9e-5 -0.430834,-5.9e-4 -0.1440429,-6e-4 -0.2881707,-0.002 -0.4320297,-0.01 -0.1441474,-0.009 -0.288136,-0.0251 -0.4327239,-0.0229 -0.1445729,-1.3e-4 -0.2891454,-1.5e-4 -0.4337183,-10e-6 -0.1391375,-6e-5 -0.2782737,2.4e-4 -0.4174112,2.4e-4 -0.1288129,1e-5 -0.2576261,1e-5 -0.3864393,1e-4 -0.112513,9e-5 -0.2250305,-3e-5 -0.3375398,9.2e-4 -0.097148,10e-4 -0.1945709,0.003 -0.2910858,0.015 -0.082707,0.0117 -0.1652686,0.0256 -0.2474444,0.0402 -0.087474,0.025 -0.1680107,0.0646 -0.2483263,0.10695 0,0 0.3852068,-0.30443 0.3852068,-0.30443 z"
       inkscape:connector-curvature="0" />
    <path
       style="fill:#ffffff;fill-opacity:0.99572646;stroke:none;stroke-width:0.5291667;stroke-linecap:round;stroke-linejoin:round;stroke-miterlimit:4;stroke-dasharray:none;stroke-opacity:0.97435895"
       id="path4542"
       d="m 2.2833903,287.7515 c -0.1077942,-0.006 -0.2119313,0.0293 -0.3108069,0.0685 -0.085807,0.0338 -0.1734916,0.0635 -0.2531196,0.11062 0.8370887,-0.53742 0.16835,-0.004 -0.1319678,0.0541 -0.012112,0.002 -0.024535,0.005 -0.035854,-2.9e-4 -0.1651079,-0.15908 0.4268965,-0.42869 0.4210225,-0.21987 -6.377e-4,0.1075 -0.00458,0.21457 -0.013066,0.32174 -0.012483,0.18981 -0.039687,0.37816 -0.061718,0.56698 -0.020188,0.15939 -0.045722,0.31815 -0.076162,0.4759 -0.015572,0.0908 -0.038385,0.17985 -0.061754,0.26886 -0.00751,0.0259 -0.012561,0.0524 -0.01668,0.079 -0.00354,0.0111 -0.045138,-0.0472 -0.013563,-0.0349 0.029934,0.0273 0.068667,0.0405 0.1036874,0.0604 0.073571,0.0433 0.1479599,0.0852 0.2201635,0.13093 0.076685,0.0547 0.1549476,0.10704 0.2285662,0.16588 0.063693,0.0544 0.1318058,0.10322 0.2005519,0.15092 0.05999,0.0388 0.1311953,0.0516 0.2012037,0.058 0.031475,-10e-4 0.061473,0.008 0.091622,0.0158 0,0 -0.4037507,0.27993 -0.4037507,0.27993 v 0 c -0.02931,-0.006 -0.058718,-0.01 -0.088538,-0.0124 -0.075389,-0.0125 -0.149984,-0.0334 -0.2130949,-0.0783 -0.06934,-0.0484 -0.1367277,-0.0995 -0.2015325,-0.15383 -0.072763,-0.0568 -0.1487031,-0.10963 -0.224991,-0.16157 -0.072514,-0.0441 -0.1461954,-0.0864 -0.2212298,-0.12602 -0.0072,-0.003 -0.081402,-0.0416 -0.086534,-0.04 -0.00229,7.4e-4 -0.00179,0.004 -0.00269,0.007 -0.011669,0.0224 -0.034841,-0.0257 -0.03394,-0.0422 0.00311,-0.0296 0.010676,-0.0585 0.017067,-0.0875 0.027325,-0.0883 0.052481,-0.17721 0.069205,-0.26827 0.033926,-0.15689 0.059834,-0.31554 0.082589,-0.4744 0.021542,-0.18763 0.050531,-0.3746 0.059245,-0.56349 0.00705,-0.10494 0.01162,-0.20957 0.0065,-0.31476 -0.00335,-0.20789 0.5888003,-0.0924 0.4201407,-0.2933 0.00588,-0.006 0.016477,-0.007 0.025385,-0.01 0.01712,-0.006 0.032713,-0.0122 0.048758,-0.0206 0.00684,-0.004 0.027113,-0.0147 0.020442,-0.0109 -0.2416572,0.14045 -0.868772,0.50169 0.052443,-0.0294 0.082835,-0.0398 0.1692045,-0.0715 0.2552842,-0.10349 0.1052455,-0.035 0.2120469,-0.0627 0.3241184,-0.0572 0,0 -0.3970054,0.28844 -0.3970054,0.28844 z"
       inkscape:connector-curvature="0" />
    <path
       style="fill:#ffffff;fill-opacity:0.99572646;stroke:none;stroke-width:0.5291667;stroke-linecap:round;stroke-linejoin:round;stroke-miterlimit:4;stroke-dasharray:none;stroke-opacity:0.97435895"
       id="path4544"
       d="m 2.9329955,287.49617 c 0.00897,0.16125 0.02904,0.3215 0.041328,0.48252 0.019103,0.23058 0.025712,0.46105 0.024085,0.69234 -0.00349,0.26129 -0.0067,0.52258 -0.00764,0.7839 0.0032,0.19357 -0.0055,0.38774 0.00638,0.58108 0.00637,0.0708 0.016269,0.14133 0.028493,0.21137 0.00233,0.0126 0.00124,0.007 0.00321,0.017 0,0 -0.4374946,0.2314 -0.4374946,0.2314 v 0 c -0.00125,-0.0108 -5.582e-4,-0.005 -0.00208,-0.0182 -0.00815,-0.073 -0.017008,-0.14597 -0.022364,-0.21926 -0.010069,-0.19581 0.00438,-0.39229 0.00114,-0.58827 0.00203,-0.26126 0.00413,-0.52252 0.00733,-0.78377 0.00121,-0.2294 -0.00515,-0.45781 -0.027202,-0.68628 -0.012401,-0.15928 -0.031666,-0.31778 -0.049308,-0.47651 0,0 0.4341204,-0.22728 0.4341204,-0.22728 z"
       inkscape:connector-curvature="0" />
    <path
       style="fill:#ffffff;fill-opacity:0.99572646;stroke:none;stroke-width:0.5291667;stroke-linecap:round;stroke-linejoin:round;stroke-miterlimit:4;stroke-dasharray:none;stroke-opacity:0.97435895"
       id="path4546"
       d="m 2.0179153,288.80592 c 0.1280461,0.0613 0.2577111,0.11954 0.3889765,0.17364 0.080885,0.0336 0.1612731,0.0686 0.2402338,0.10646 0,0 -0.406078,0.26809 -0.406078,0.26809 v 0 c -0.077734,-0.0374 -0.1561293,-0.0736 -0.235932,-0.10645 -0.1318028,-0.0568 -0.2629232,-0.11518 -0.3957705,-0.16946 0,0 0.4085702,-0.27228 0.4085702,-0.27228 z"
       inkscape:connector-curvature="0" />
    <path
       style="fill:#ffffff;fill-opacity:0.99572646;stroke:none;stroke-width:0.5291667;stroke-linecap:round;stroke-linejoin:round;stroke-miterlimit:4;stroke-dasharray:none;stroke-opacity:0.97435895"
       id="path4548"
       d="m 2.01785,288.19711 c 0.1520641,0.0221 0.3052223,0.0218 0.4583027,0.0158 0.085687,-0.005 0.1696638,-0.0232 0.253814,-0.0388 0,0 -0.3850011,0.2902 -0.3850011,0.2902 v 0 c -0.085048,0.0145 -0.1702009,0.0299 -0.256694,0.0325 -0.1572656,0.005 -0.3143897,7.4e-4 -0.4709491,-0.0162 0,0 0.4005275,-0.28346 0.4005275,-0.28346 z"
       inkscape:connector-curvature="0" />
    <path
       style="fill:#ffffff;fill-opacity:0.99572646;stroke:none;stroke-width:0.5291667;stroke-linecap:round;stroke-linejoin:round;stroke-miterlimit:4;stroke-dasharray:none;stroke-opacity:0.97435895"
       id="path4550"
       d="m 12.180047,288.39341 c -0.09318,0.0177 -0.184362,0.043 -0.276762,0.0641 -0.07304,0.0161 -0.14776,0.0198 -0.222269,0.0216 -0.07902,0.0161 -0.159134,0.0233 -0.23947,0.0284 -0.07374,0.0136 -0.146717,0.0268 -0.219086,0.0461 -0.04823,0.023 -0.107577,0.01 -0.154291,0.0327 -0.02361,0.0245 -0.06814,0.0103 -0.08668,0.0359 0.0094,-0.005 -0.03411,0.0185 -0.02571,0.0137 1.357508,-0.78358 -0.9901138,0.57477 0.359542,-0.20379 -0.04712,0.0278 -0.08598,0.0672 -0.126292,0.10374 -0.05727,0.0478 -0.103245,0.10702 -0.152456,0.16271 -0.04619,0.0512 -0.08776,0.10512 -0.123467,0.16406 -0.02315,0.0416 -0.04107,0.0861 -0.05949,0.12995 -0.01349,0.0344 -0.01613,0.0709 -0.01736,0.10739 -0.004,0.0326 0.01127,0.0618 0.02057,0.092 0.01335,0.0294 0.03022,0.0562 0.05007,0.0816 0.03491,0.0319 0.06939,0.0638 0.105902,0.094 0.04256,0.0329 0.091,0.0584 0.139653,0.0812 0.05058,0.033 0.105447,0.0603 0.162922,0.079 0.05509,0.02 0.113044,0.0329 0.168289,0.0526 0.05468,0.017 0.110149,0.0284 0.165152,0.0439 0.05147,0.0166 0.105549,0.019 0.15914,0.0209 0.05478,10e-4 0.109576,9.8e-4 0.164365,9.8e-4 0.06409,-4e-5 0.128177,-9e-5 0.192266,-1.1e-4 0.05989,-4.8e-4 0.117321,-0.0201 0.176897,-0.027 0.0502,-0.006 0.100967,-0.006 0.151497,-0.007 0.0556,0.003 0.109144,-0.0132 0.163588,-0.0231 0.05721,-0.009 0.115226,-0.009 0.172943,-0.009 0.06354,-0.0159 0.128399,-0.0241 0.193596,-0.029 0.05729,-0.006 0.1128,-0.0228 0.170151,-0.0318 0.04322,0.001 0.07935,-0.0199 0.119643,-0.032 0.0359,9.8e-4 0.05471,-0.0268 0.08886,-0.0339 -0.03564,0.009 0.0842,-0.0434 0.05329,-0.0255 -0.134516,0.0782 -0.534287,0.31844 -0.405762,0.23074 0.139855,-0.0954 0.292889,-0.16995 0.439859,-0.25401 0.134745,-0.0771 -0.268789,0.15535 -0.403183,0.23303 0.04442,-0.0364 0.09405,-0.0654 0.140853,-0.0985 0.05373,-0.0425 0.110141,-0.0821 0.160509,-0.12865 0.04152,-0.0406 0.07927,-0.0849 0.113928,-0.13149 0.01982,-0.0319 0.04879,-0.058 0.06142,-0.0937 0.0098,-0.0381 0.01136,-0.0785 0.008,-0.11758 -0.0068,-0.0546 -0.02383,-0.10645 -0.03915,-0.15896 -0.01783,-0.0559 -0.03823,-0.11029 -0.06194,-0.16391 -0.01754,-0.031 -0.03392,-0.0681 -0.06482,-0.088 -0.02707,-0.0269 -0.06074,-0.0467 -0.09496,-0.0633 -0.04169,-0.0258 -0.08928,-0.0407 -0.134959,-0.0582 -0.05668,-0.0156 -0.108776,-0.0447 -0.159115,-0.0745 -0.05481,-0.0302 -0.107873,-0.0641 -0.161207,-0.0971 -0.05919,-0.0301 -0.120193,-0.056 -0.185108,-0.0707 -0.08239,-0.0127 -0.166036,-0.0126 -0.249192,-0.0136 -0.122262,-8.8e-4 -0.244528,-5.9e-4 -0.366792,-4.8e-4 -0.08813,7e-5 -0.0439,0.002 -0.132688,-0.005 0,0 0.393931,-0.28268 0.393931,-0.28268 v 0 c 0.08721,0.004 0.0435,0.003 0.131109,0.003 0.123035,-2.6e-4 0.246071,-9e-4 0.369106,-3.9e-4 0.08649,10e-4 0.173899,10e-4 0.258526,0.0217 0.06712,0.0201 0.132036,0.0477 0.19299,0.0823 0.05365,0.0317 0.105422,0.0667 0.160661,0.0956 0.05034,0.0268 0.101157,0.0522 0.15611,0.0684 0.04695,0.0191 0.09547,0.0348 0.138648,0.0621 0.03598,0.0203 0.07082,0.0429 0.100853,0.0716 0.03258,0.0309 0.05602,0.0686 0.0758,0.10885 0.02305,0.0561 0.04476,0.11214 0.06434,0.16953 0.01538,0.0546 0.03457,0.10756 0.04256,0.16403 0.0094,0.0446 0.0062,0.09 0.0023,0.13522 -0.0086,0.0442 -0.02352,0.0769 -0.05523,0.11014 -0.03346,0.0499 -0.07123,0.0963 -0.112361,0.14017 -0.04803,0.051 -0.103312,0.0906 -0.157031,0.13535 -0.04566,0.034 -0.09287,0.0645 -0.139925,0.0962 -0.14567,0.0865 -0.303042,0.1558 -0.437009,0.25951 -0.122634,0.0949 0.541757,-0.30168 0.402726,-0.23297 -0.15164,0.075 -0.29363,0.16801 -0.440628,0.2517 -0.01748,0.01 -0.03595,0.0182 -0.05507,0.0245 -0.02913,0.0168 -0.05793,0.0236 -0.09024,0.0316 -0.04033,0.0132 -0.08018,0.0223 -0.122685,0.0258 -0.05701,0.0103 -0.112862,0.0272 -0.171279,0.0281 -0.06561,0.007 -0.130159,0.0219 -0.196005,0.0264 -0.05653,0.002 -0.113191,0.005 -0.16878,0.0158 -0.05603,0.01 -0.111559,0.0206 -0.168854,0.0171 -0.04923,10e-4 -0.09848,0.003 -0.147165,0.0113 -0.0598,0.0103 -0.119141,0.0252 -0.180422,0.021 -0.06423,8e-5 -0.128462,2.2e-4 -0.192693,4.2e-4 -0.05533,8e-5 -0.11072,5.1e-4 -0.165959,-0.003 -0.05614,-0.004 -0.111741,-0.0115 -0.165288,-0.0297 -0.05533,-0.0152 -0.11195,-0.0256 -0.166038,-0.0454 -0.05725,-0.0158 -0.112792,-0.036 -0.169235,-0.0544 -0.0576,-0.023 -0.112835,-0.0511 -0.165816,-0.0834 -0.05107,-0.0261 -0.103029,-0.0522 -0.146498,-0.0903 -0.03929,-0.0321 -0.07641,-0.0668 -0.112334,-0.10256 -0.02396,-0.0304 -0.04348,-0.063 -0.06048,-0.0978 -0.0089,-0.0352 -0.02843,-0.0687 -0.02711,-0.10561 0.001,-0.0404 5.03e-4,-0.0817 0.01136,-0.12085 0.01348,-0.049 0.04071,-0.092 0.05636,-0.14017 0.03686,-0.0611 0.07287,-0.12082 0.121819,-0.17323 0.04996,-0.0554 0.09539,-0.1151 0.148609,-0.1671 0.04152,-0.0366 0.08086,-0.0747 0.121442,-0.11182 1.429399,-0.82728 -0.9932333,0.57615 0.510814,-0.29597 0.0328,-0.002 0.05999,-0.0204 0.09183,-0.0273 0.05192,-0.005 0.102824,-0.0161 0.15306,-0.0303 0.07339,-0.0179 0.148498,-0.0294 0.223431,-0.0385 0.08093,-0.007 0.160846,-0.0202 0.241623,-0.0278 0.0724,-0.003 0.144658,-0.0104 0.215148,-0.0282 0.0925,-0.0225 0.18571,-0.042 0.277417,-0.0675 0,0 -0.389208,0.29967 -0.389208,0.29967 z"
       inkscape:connector-curvature="0" />
    <path
       style="fill:#ffffff;fill-opacity:0.99572646;stroke:none;stroke-width:0.5291667;stroke-linecap:round;stroke-linejoin:round;stroke-miterlimit:4;stroke-dasharray:none;stroke-opacity:0.97435895"
       id="path4562"
       d="m 3.7009822,288.84572 c 0.1166181,-0.006 0.2308839,-0.0305 0.3467048,-0.044 0.1096539,-0.0182 0.2181272,-0.0425 0.3279335,-0.0596 0.1194287,-0.0143 0.2377829,-0.0359 0.356153,-0.057 0.111033,-0.018 0.2232295,-0.0312 0.3329546,-0.0563 0.092782,-0.0199 0.1825255,-0.0497 0.2764758,-0.0646 0.060248,-0.003 0.1244402,-0.0204 0.1834748,-0.004 0.046356,0.0147 0.094176,0.0213 0.1425041,0.0244 0.046417,0.003 0.092931,0.002 0.1394018,0.002 0.046163,-2e-4 0.092326,-2.3e-4 0.1384893,-2.6e-4 0.05154,0.007 0.097142,-0.009 0.1465543,-0.0189 0.049044,-0.0112 0.099699,-0.0127 0.1498079,-0.0139 0.040869,-0.0155 0.082998,-0.0249 0.126107,-0.0312 0.025183,-0.003 0.050879,-0.004 0.07627,-0.003 0.015505,9e-5 0.031007,3.2e-4 0.046511,4e-4 0.016386,1.3e-4 0.03277,1.4e-4 0.049155,-1e-4 0.025765,-0.004 0.034987,0.006 0.054894,0.0208 0.015277,0.0128 0.036244,0.0124 0.055251,0.0132 0.010493,3.2e-4 0.021098,0.001 0.031466,-7.7e-4 0.00146,-0.003 5.821e-4,-0.003 -0.00177,-0.006 0,0 -0.3930902,0.3026 -0.3930902,0.3026 v 0 c -0.00209,-0.003 -0.00329,-0.005 -0.00643,-0.006 -0.011282,-0.002 -0.022728,-0.003 -0.033983,-0.005 -0.024217,-0.005 -0.046374,-0.0155 -0.066681,-0.0299 -0.010004,-0.004 -0.0258,0.007 -0.040245,0.002 -0.016314,-2.6e-4 -0.032626,-2.6e-4 -0.04894,-2.9e-4 -0.015182,-6e-5 -0.030372,-1.9e-4 -0.045549,2.6e-4 -0.023712,0.002 -0.047406,0.003 -0.070671,0.009 -0.042999,0.009 -0.084777,0.0247 -0.1290769,0.0256 -0.048704,0.003 -0.097101,0.008 -0.1445729,0.0201 -0.05078,0.0112 -0.1011147,0.0132 -0.1531009,0.0112 -0.046194,8e-5 -0.092389,3.1e-4 -0.1385818,10e-6 -0.047245,-2.7e-4 -0.094581,-10e-4 -0.1416074,-0.006 -0.048926,-0.006 -0.09646,-0.0173 -0.1447419,-0.0267 -0.057485,4.7e-4 -0.1149988,0.005 -0.1716281,0.0151 -0.09201,0.0184 -0.1814454,0.0472 -0.2737877,0.0641 -0.110605,0.0202 -0.2217848,0.0368 -0.3327691,0.0547 -0.1185727,0.0216 -0.2377741,0.0393 -0.3569814,0.057 -0.1095475,0.0198 -0.2186924,0.042 -0.328949,0.0578 -0.1167892,0.0155 -0.2330154,0.0349 -0.3502909,0.0467 0,0 0.3933545,-0.29333 0.3933545,-0.29333 z"
       inkscape:connector-curvature="0" />
    <path
       style="fill:#ffffff;fill-opacity:0.99572646;stroke:none;stroke-width:0.5291667;stroke-linecap:round;stroke-linejoin:round;stroke-miterlimit:4;stroke-dasharray:none;stroke-opacity:0.97435895"
       id="path4566"
       d="m 2.6231155,287.45821 c -0.00993,-0.12798 -0.01778,-0.25596 -0.032228,-0.38352 -0.00998,-0.12164 -0.036449,-0.24081 -0.067347,-0.35859 -0.030035,-0.11004 -0.063068,-0.2192 -0.096159,-0.32836 -0.037024,-0.1179 -0.062194,-0.23839 -0.085618,-0.35952 -0.0238,-0.10246 -0.035429,-0.20669 -0.041865,-0.31148 -0.00891,-0.0905 0.00219,-0.18007 0.013593,-0.26968 0.011962,-0.0724 0.031273,-0.14323 0.056218,-0.21218 0.025463,-0.0664 0.050245,-0.13295 0.078403,-0.19827 0.029376,-0.0648 0.058654,-0.12974 0.094169,-0.19141 0.029487,-0.0472 0.05474,-0.0968 0.083543,-0.14443 0.099079,-0.16012 0.3965116,-0.25914 0.4911422,-0.31274 -1.0866158,0.61966 0.017698,-0.0123 0.027045,-0.0176 0.067074,-0.0381 -0.042073,0.0266 0.033174,-0.0104 0.00519,-0.003 0.00861,-0.008 0.012922,-0.0116 0.00576,-0.003 0.011525,-0.005 0.01729,-0.008 0.1830245,-0.0897 -0.5511321,0.31807 -0.372967,0.2151 0.1964232,-0.11353 0.2984005,-0.20102 0.4695854,-0.26528 0.020492,-0.008 0.045113,0.002 0.06547,-0.003 0.011658,-0.003 0.021484,-0.0109 0.03282,-0.0149 0.034502,-0.013 0.071758,-0.0163 0.1083736,-0.0174 0.037409,-0.008 0.066598,0.0104 0.1010856,0.0206 0.045653,0.024 0.082815,0.0586 0.1218229,0.0918 0.063491,0.0721 0.098193,0.16111 0.1348899,0.24844 0.046965,0.11204 0.093247,0.2243 0.1412918,0.33588 0.04764,0.10366 0.1019667,0.20401 0.1512784,0.30694 0.062159,0.10822 0.1118595,0.22223 0.1640946,0.33531 0.053068,0.10985 0.1045273,0.22043 0.1571651,0.33048 0.039177,0.0872 0.07846,0.17428 0.1176272,0.26145 0.026902,0.0643 0.065222,0.12239 0.09925,0.18292 0.031216,0.0491 0.052237,0.10319 0.077166,0.15552 0.017222,0.0405 0.031802,0.0831 0.055895,0.12026 0.017677,0.0329 0.038822,0.0634 0.06258,0.0921 0.029185,0.0419 0.055238,0.0853 0.077812,0.13106 0.030471,0.0518 0.046451,0.10988 0.071823,0.16398 0.011441,0.0253 0.027471,0.0437 0.049668,0.0596 0,0 -0.4179133,0.26143 -0.4179133,0.26143 v 0 c -0.024831,-0.023 -0.045172,-0.0484 -0.059964,-0.0791 -0.024249,-0.0542 -0.039839,-0.11181 -0.070682,-0.16292 -0.021021,-0.0423 -0.045349,-0.0826 -0.073517,-0.12049 -0.024942,-0.0304 -0.046376,-0.0633 -0.065511,-0.0976 -0.024363,-0.0395 -0.041849,-0.0828 -0.057821,-0.12625 -0.023709,-0.0516 -0.045525,-0.10387 -0.074735,-0.15275 -0.034627,-0.062 -0.072967,-0.12185 -0.1002458,-0.18772 -0.037892,-0.0874 -0.076404,-0.17456 -0.115098,-0.2616 -0.051,-0.11098 -0.1027086,-0.22164 -0.1560343,-0.33153 -0.051757,-0.113 -0.1021334,-0.22625 -0.1643074,-0.33412 -0.050359,-0.10323 -0.1041794,-0.20467 -0.1526608,-0.30875 -0.047449,-0.11182 -0.092934,-0.22443 -0.1409714,-0.336 -0.034781,-0.0795 -0.066318,-0.16234 -0.1275363,-0.22609 -0.034911,-0.0286 -0.06854,-0.0606 -0.1125535,-0.0745 -0.030445,-0.01 -0.058644,-0.01 -0.09032,-0.005 -0.034831,0.005 -0.068568,0.0137 -0.101792,0.0255 -0.031817,0.008 -0.066739,0.004 -0.095642,0.0231 -0.00932,0.005 -0.036568,0.0198 -0.027578,0.0146 0.8633547,-0.50242 0.1781143,-0.0983 -0.066301,0.0378 -0.016338,0.009 -0.032931,0.014 -0.04936,0.0229 -0.00472,0.003 -0.018836,0.0102 -0.014195,0.008 0.4613108,-0.26685 0.6410682,-0.36796 -0.030395,0.0141 0.136724,-0.079 0.2734482,-0.15792 0.4101724,-0.23688 -0.00872,0.004 -0.018687,0.005 -0.02618,0.0108 -0.013547,0.0104 -0.016875,0.0315 -0.036147,0.0355 -0.031583,0.0462 -0.057246,0.0952 -0.086371,0.14282 -0.034591,0.0611 -0.068923,0.12177 -0.097226,0.18631 -0.026969,0.0656 -0.056298,0.13012 -0.07873,0.19753 -0.028797,0.0646 -0.04522,0.13272 -0.062011,0.20121 -0.01148,0.0872 -0.028557,0.17401 -0.019119,0.26247 0.00477,0.10294 0.014671,0.20553 0.036888,0.30637 0.02391,0.11932 0.045146,0.23899 0.083495,0.35491 0.034162,0.10943 0.066759,0.21937 0.096985,0.32994 0.032763,0.11981 0.058913,0.24164 0.069368,0.36563 0.014719,0.12664 0.021484,0.25378 0.037398,0.38025 0,0 -0.4343988,0.22819 -0.4343988,0.22819 z"
       inkscape:connector-curvature="0" />
    <path
       style="fill:#ffffff;fill-opacity:0.99572646;stroke:none;stroke-width:0.5291667;stroke-linecap:round;stroke-linejoin:round;stroke-miterlimit:4;stroke-dasharray:none;stroke-opacity:0.97435895"
       id="path4568"
       d="m 3.1645059,290.40658 c 0.011808,0.14788 0.019021,0.29598 0.022699,0.44426 0.00334,0.176 0.018994,0.35145 0.02728,0.52726 0.0044,0.14063 0.022974,0.28023 0.034913,0.42031 0.00421,0.0836 0.02149,0.16565 0.034407,0.24814 0.00781,0.052 0.010269,0.10446 0.010996,0.15694 0.00106,0.0434 4.233e-4,0.0868 6.35e-4,0.13017 0.00562,0.0317 0.018291,0.0614 0.025059,0.093 0.00311,0.0444 0.016523,0.0867 0.025215,0.13013 0.00523,0.0554 0.021482,0.10861 0.032435,0.16298 0.010525,0.0641 0.02771,0.12666 0.037486,0.19096 0.00451,0.0562 0.017404,0.11089 0.029233,0.16588 0.012967,0.04 0.026024,0.0805 0.046259,0.11752 0.012377,0.0237 0.026642,0.0412 0.050874,0.0521 0.032265,0.0213 0.065826,0.0381 0.094504,0.0645 0.032086,0.0296 0.068703,0.034 0.1103733,0.0373 0.00892,4.2e-4 0.017865,0.002 0.026763,0.001 0.030836,-0.003 0.131109,-0.0623 0.083851,-0.0355 -0.3886883,0.22051 -0.5132369,0.30342 -0.3542187,0.19887 0.097575,-0.0746 0.1792074,-0.16752 0.2550888,-0.26344 0.1068647,-0.14197 0.1837852,-0.30356 0.2615473,-0.46258 0.078741,-0.16807 0.1466014,-0.34089 0.2195888,-0.51147 0.05342,-0.12656 0.1239554,-0.24452 0.187261,-0.36613 0.051931,-0.0974 0.098701,-0.19754 0.1434615,-0.29842 0.036854,-0.091 0.072908,-0.18258 0.1051238,-0.27539 0.025104,-0.0576 0.042561,-0.11812 0.065645,-0.17644 0.014507,-0.0357 0.023783,-0.0723 0.041438,-0.1065 0.00598,-0.0117 0.1874106,-0.44425 0.1931596,-0.45605 0.1487549,-0.0667 0.1203978,0.28355 0.2708689,0.2208 0.0061,-0.003 4.498e-4,0.009 7.409e-4,0.0137 2.91e-4,0.004 0.00663,0.0157 0.00724,0.0113 7.144e-4,-0.005 0.1418738,-0.2796 -0.00206,-0.0159 0.094638,-0.15848 -0.037027,-0.17799 0.1439338,-0.2637 l -0.082853,0.28968 v 0 c -0.081551,0.15802 -0.2899072,0.31486 -0.4630854,0.26215 -0.1837839,-0.15904 0.270516,-0.26824 0.4021849,-0.2999 -0.00695,0.0117 -0.013507,0.0236 -0.02005,0.0355 -0.00718,0.0132 -0.019008,0.0264 -0.02536,0.0391 -0.00974,0.0194 -0.00641,0.0452 -0.020018,0.0634 -0.023466,0.0584 -0.040548,0.1187 -0.069307,0.17509 -0.03064,0.095 -0.070789,0.18655 -0.1050663,0.28024 -0.044286,0.10203 -0.090395,0.20363 -0.1430525,0.30156 -0.062547,0.12262 -0.1354034,0.2396 -0.1925759,0.36499 -0.074871,0.17074 -0.1435987,0.34406 -0.220354,0.51398 -0.076484,0.1606 -0.1530795,0.32329 -0.2542413,0.47001 -0.072928,0.0989 -0.152926,0.19188 -0.2444549,0.27414 -0.1646249,0.13343 -0.050504,0.0437 -0.4843529,0.28632 -0.038698,0.0216 -0.086566,0.0179 -0.1285193,0.0129 -0.048201,-0.009 -0.089943,-0.0261 -0.1264258,-0.0599 -0.028997,-0.0213 -0.060623,-0.0382 -0.091129,-0.0572 -0.027801,-0.0196 -0.049036,-0.0447 -0.064038,-0.0753 -0.022124,-0.0417 -0.036774,-0.0862 -0.052197,-0.13077 -0.010689,-0.0563 -0.02759,-0.11135 -0.029606,-0.16894 -0.0084,-0.0638 -0.025554,-0.12537 -0.03691,-0.18849 -0.010102,-0.0546 -0.029027,-0.10712 -0.032767,-0.16282 -0.00811,-0.0436 -0.024945,-0.085 -0.026872,-0.12952 -0.00547,-0.0351 -0.019129,-0.0675 -0.028823,-0.10149 3.969e-4,-0.0433 1.796e-4,-0.0866 5.292e-4,-0.12991 -6.086e-4,-0.0507 -0.00132,-0.10153 -0.00723,-0.15196 -0.010263,-0.0844 -0.029038,-0.16781 -0.031875,-0.25291 -0.00941,-0.14144 -0.027722,-0.28227 -0.030819,-0.42405 -0.00793,-0.17601 -0.023998,-0.35155 -0.028536,-0.52764 -0.00428,-0.14585 -0.00885,-0.29209 -0.028093,-0.43689 l 0.4341204,-0.22728 z"
       inkscape:connector-curvature="0"
       sodipodi:nodetypes="cccccccccccccccccccccccccccccccccccccccccccccccccccccccccccccccccc" />
    <path
       style="fill:#ffffff;fill-opacity:0.99572646;stroke:none;stroke-width:0.5291667;stroke-linecap:round;stroke-linejoin:round;stroke-miterlimit:4;stroke-dasharray:none;stroke-opacity:0.97435895"
       id="path4572"
       d="m 11.753776,287.25707 c 0.0027,-0.11088 0.0022,-0.22184 0.0018,-0.33275 7.3e-5,-0.1202 1.57e-4,-0.2404 8.73e-4,-0.36059 0.004,-0.12969 -0.0021,-0.25867 -0.01445,-0.3877 -0.0085,-0.11277 -0.02085,-0.22537 -0.04023,-0.33681 -0.0207,-0.11938 -0.03813,-0.2394 -0.05433,-0.35949 -0.01566,-0.13003 -0.03427,-0.25952 -0.04603,-0.39001 -0.0087,-0.11231 -0.01967,-0.22502 -0.0379,-0.33624 -0.01659,-0.10328 -0.03281,-0.2066 -0.04926,-0.30991 -0.02171,-0.0954 -0.03553,-0.19206 -0.0523,-0.28828 -0.01602,-0.0991 -0.03803,-0.1971 -0.05238,-0.29651 -0.0092,-0.11778 -0.02466,-0.23493 -0.03631,-0.35248 -0.01156,-0.11444 -0.0092,-0.22964 -0.01749,-0.34423 -0.0102,-0.10182 -0.03462,-0.20158 -0.05771,-0.30108 -0.02776,-0.10278 -0.05848,-0.20467 -0.08986,-0.30639 -0.0339,-0.0987 -0.06519,-0.19786 -0.09401,-0.29817 -0.03287,-0.11435 -0.05697,-0.23073 -0.08026,-0.34732 -0.01765,-0.12447 -0.04606,-0.24637 -0.08221,-0.36662 -0.02833,-0.0913 -0.0643,-0.17892 -0.105829,-0.2648 -0.03343,-0.0643 -0.06806,-0.12799 -0.100253,-0.19292 -0.02816,-0.0611 -0.06572,-0.11686 -0.09876,-0.17527 -0.02238,-0.0454 -0.05136,-0.0865 -0.08393,-0.12503 -0.03089,-0.0301 -0.05549,-0.0655 -0.08666,-0.0951 -0.02965,-0.02 -0.06014,-0.0394 -0.08959,-0.0603 -0.03362,-0.0121 -0.0639,-0.0281 -0.09655,-0.0427 -0.03513,-0.007 -0.06453,-0.0262 -0.09828,-0.0374 -0.04121,-10e-4 -0.07798,-0.0158 -0.117019,-0.0275 -0.04475,-0.0103 -0.09098,-0.0114 -0.1366992,-0.0125 -0.049898,-0.008 -0.084951,0.009 -0.1314027,0.0193 -0.021146,0.01 -0.046096,0.005 -0.067771,0.0103 -0.021505,0.006 -0.041663,0.0172 -0.063938,0.0227 -0.04263,0.0102 -0.090118,0.0191 -0.1254503,0.0462 0.033345,-0.009 -0.089812,0.0437 -0.057301,0.0248 0.8430452,-0.49071 0.227077,-0.10914 -0.048851,0.0298 0.1348388,-0.0775 0.2695863,-0.15524 0.4045159,-0.23262 0.00545,-0.003 -0.010644,0.007 -0.016084,0.01 -0.1460921,0.0847 -0.2937505,0.16684 -0.4385035,0.25386 -0.133627,0.0803 0.2696684,-0.15658 0.4051207,-0.23379 0.01142,-0.007 -0.021286,0.0154 -0.032213,0.0227 -0.038288,0.0237 -0.075108,0.0502 -0.1098658,0.0788 -0.043468,0.034 -0.083646,0.073 -0.1201462,0.11443 -0.043463,0.0552 -0.076781,0.11744 -0.108022,0.18013 -0.036106,0.0829 -0.072227,0.16573 -0.1094412,0.24814 -0.044819,0.10919 -0.070327,0.22541 -0.096641,0.34016 -0.036316,0.15197 -0.06206,0.30635 -0.08353,0.46105 -0.02168,0.16336 -0.051258,0.3254 -0.081188,0.48739 -0.034453,0.14874 -0.05593,0.29979 -0.077926,0.45073 -0.022257,0.16182 -0.039013,0.32447 -0.067612,0.48533 -0.024641,0.17595 -0.077472,0.34532 -0.1256522,0.51567 -0.04598,0.16082 -0.095102,0.32056 -0.139872,0.48172 -0.036305,0.12055 -0.050781,0.24535 -0.058647,0.37049 -2.037e-4,0.11415 -0.013234,0.22747 -0.02332,0.34102 -0.005,0.10314 -0.012957,0.20563 -0.025855,0.30808 -0.011943,0.10429 -0.031371,0.20758 -0.051104,0.31063 -0.014653,0.10207 -0.034995,0.20319 -0.051224,0.30499 -0.017436,0.0854 -0.031929,0.17142 -0.050454,0.25661 -0.013981,0.0721 -0.037459,0.14165 -0.051323,0.21375 -0.00401,0.042 -0.012594,0.0815 -0.027489,0.12083 -0.00386,0.0156 -0.013322,0.0224 -0.016129,0.0373 -6.33e-5,0.0388 -0.00365,0.0761 -0.014034,0.11356 -0.0092,0.034 -0.015245,0.0688 -0.018124,0.10386 -5.556e-4,0.0103 0.022226,0.42595 0.026396,0.43735 l -0.4895418,0.0537 v 0 c -0.00966,-0.0226 0.035079,-0.23386 0.021294,-0.27036 0.00298,-0.0378 0.00743,-0.0753 0.015544,-0.11245 0.00892,-0.0351 0.023214,-0.0665 0.016793,-0.10371 -8.467e-4,-0.0201 -0.00353,-0.0361 0.00909,-0.0531 0.017674,-0.0367 0.034584,-0.0706 0.034688,-0.11245 0.013883,-0.0731 0.034968,-0.14381 0.052449,-0.21594 0.019219,-0.0843 0.032375,-0.16961 0.052704,-0.25378 0.014126,-0.10304 0.03985,-0.20403 0.052047,-0.3074 0.018449,-0.10222 0.039291,-0.20424 0.050699,-0.30753 0.013922,-0.10205 0.024955,-0.20378 0.028232,-0.30683 0.00942,-0.11329 0.024879,-0.22609 0.024389,-0.33997 0.00648,-0.12849 0.019891,-0.25701 0.055887,-0.38105 0.046931,-0.16116 0.095496,-0.32171 0.1428472,-0.48275 0.045927,-0.1695 0.1036005,-0.33637 0.1265521,-0.51134 0.03004,-0.1599 0.046185,-0.32187 0.06758,-0.4831 0.02055,-0.15177 0.041017,-0.30378 0.077389,-0.45278 0.029767,-0.16141 0.060867,-0.32255 0.08258,-0.48531 0.019531,-0.15549 0.045026,-0.31068 0.079654,-0.46352 0.023686,-0.11724 0.051391,-0.23443 0.089234,-0.34791 0.036604,-0.0823 0.073881,-0.16404 0.1082058,-0.24726 0.02608,-0.0669 0.062658,-0.12997 0.1019945,-0.18989 0.031863,-0.0488 0.074752,-0.0846 0.1138195,-0.12708 0.037703,-0.0249 0.070575,-0.0556 0.1073878,-0.0822 0.00561,-0.003 0.02869,-0.0162 0.03377,-0.0192 1.4371572,-0.84429 -0.9799654,0.56879 0.4874588,-0.28753 0.1736364,-0.0953 -0.5395058,0.29591 -0.3884885,0.22468 0.1706464,-0.0805 0.3252433,-0.19393 0.4944319,-0.27854 0.043513,-0.0138 0.086526,-0.0281 0.131133,-0.0383 0.04367,-0.0143 0.08839,-0.0205 0.13301,-0.0313 0.04612,-0.0116 0.09198,-0.0123 0.139383,-0.008 0.04865,0.003 0.0976,0.007 0.144258,0.0223 0.0396,0.0119 0.08036,0.0165 0.119487,0.0298 0.03343,0.0139 0.06625,0.0285 0.100336,0.0407 0.0339,0.0164 0.06974,0.0288 0.101087,0.0501 0.03175,0.0221 0.06535,0.0416 0.09424,0.0676 0.0303,0.0322 0.05739,0.0671 0.08788,0.0991 0.03427,0.041 0.06431,0.0852 0.08744,0.1335 0.0334,0.0593 0.07088,0.11614 0.09959,0.17798 0.03195,0.0653 0.06725,0.12896 0.100244,0.19376 0.04133,0.0888 0.07715,0.17947 0.106327,0.27315 0.03568,0.12193 0.06708,0.24461 0.08367,0.37088 0.02294,0.11515 0.04751,0.22986 0.08013,0.34271 0.02908,0.1 0.0589,0.19939 0.09344,0.29771 0.03085,0.10296 0.06318,0.20545 0.09164,0.30911 0.02371,0.10169 0.04913,0.2036 0.06062,0.30753 0.01083,0.11434 0.0046,0.22968 0.01652,0.34409 0.01077,0.11687 0.02748,0.23303 0.03624,0.35008 0.01351,0.0989 0.03626,0.19579 0.05256,0.29417 0.01832,0.0964 0.02732,0.19464 0.05173,0.29005 0.01552,0.10322 0.0338,0.20593 0.04943,0.30912 0.0193,0.11249 0.02842,0.2272 0.03798,0.34083 0.0097,0.13003 0.02882,0.25864 0.04465,0.38796 0.01575,0.11933 0.03461,0.23831 0.05445,0.35699 0.02067,0.1126 0.03423,0.22657 0.04153,0.3408 0.01153,0.13064 0.02069,0.26086 0.01551,0.39217 7.14e-4,0.1199 7.94e-4,0.2398 8.73e-4,0.35971 -3.97e-4,0.11029 -9.53e-4,0.22063 0.0018,0.3309 l -0.43724,0.22278 z"
       inkscape:connector-curvature="0"
       sodipodi:nodetypes="ccccccccccccccccccccccccccccccccccccccccccccccccccccccccccccccccccccccccccccccccccccccccccccccccccccccccccccccccccccccccccc" />
    <path
       style="fill:#ffffff;fill-opacity:0.99572646;stroke:none;stroke-width:0.5291667;stroke-linecap:round;stroke-linejoin:round;stroke-miterlimit:4;stroke-dasharray:none;stroke-opacity:0.97435895"
       id="path4574"
       d="m 8.1989244,290.62125 c 0.058772,0.12483 0.1038548,0.2551 0.1437688,0.38697 0.049601,0.17299 0.084306,0.34949 0.1235339,0.52496 0.041408,0.20514 0.078369,0.41111 0.1169869,0.61679 0.031281,0.16957 0.054998,0.34065 0.075013,0.51192 0.00879,0.13674 0.034267,0.27106 0.061659,0.40499 0.017245,0.0911 0.047758,0.17819 0.082138,0.26398 0.033409,0.07 0.062952,0.14157 0.084806,0.21596 0.026729,0.0929 0.049794,0.18711 0.067907,0.28212 0.01774,0.10672 0.035227,0.21348 0.057115,0.31944 0.014314,0.0944 0.035558,0.18734 0.052717,0.28119 0.016632,0.0642 0.033239,0.12832 0.043423,0.19395 0.012166,0.0517 0.026556,0.10236 0.033695,0.15507 0.013946,0.0609 0.02595,0.12175 0.032759,0.18385 0.00612,0.0665 0.00658,0.13338 0.00701,0.20013 0.00543,0.0744 0.016497,0.14836 0.033474,0.22097 0.0113,0.062 0.028951,0.12238 0.050421,0.18161 0.020921,0.0533 0.045182,0.10514 0.068845,0.15727 0.020947,0.0565 0.051067,0.10905 0.077573,0.1631 0.026178,0.0486 0.047042,0.0994 0.073798,0.14781 0.028916,0.0474 0.061514,0.0925 0.088725,0.14093 0.026069,0.0451 0.051815,0.0907 0.074047,0.13786 0.01732,0.0316 0.036356,0.0608 0.058273,0.0888 0.021489,0.0225 0.043933,0.0454 0.068644,0.0651 0.028723,0.0228 0.055196,0.0459 0.091702,0.0542 0.029162,0.0206 0.06212,0.032 0.0974,0.0356 0.037878,0.003 0.075849,0.002 0.113787,0.002 0.04325,-0.0227 0.09289,-0.0255 0.140663,-0.0292 0.05911,-0.0181 0.120432,-0.0276 0.181826,-0.0336 0.05247,-0.0181 0.107216,-0.0285 0.162386,-0.0334 0.153021,-0.067 0.41397,-0.22962 -0.325367,0.19101 -0.0094,0.005 0.0186,-0.0109 0.02739,-0.0171 0.01027,-0.007 0.0198,-0.0155 0.0297,-0.0233 0.06935,-0.0705 0.113375,-0.16156 0.156553,-0.24943 0.04829,-0.0934 0.09895,-0.18559 0.14659,-0.27933 0.05529,-0.10429 0.102522,-0.21147 0.145432,-0.32134 0.05607,-0.13926 0.101526,-0.28264 0.145353,-0.42615 0.05079,-0.16717 0.112139,-0.33081 0.16817,-0.49624 0.07402,-0.22397 0.136385,-0.4516 0.198833,-0.679 0.06413,-0.23482 0.131614,-0.46859 0.188979,-0.70516 0.05329,-0.21108 0.107209,-0.42197 0.160887,-0.63295 0.04208,-0.17883 0.08364,-0.35788 0.117278,-0.53852 0.01752,-0.10495 0.03327,-0.21085 0.02322,-0.31723 -0.003,-0.0652 -0.02417,-0.12636 -0.04015,-0.1889 -0.0071,-0.0457 -0.02471,-0.0883 -0.03582,-0.13303 -0.01139,-0.0533 -0.01592,-0.10754 -0.0129,-0.16191 0.008,-0.0489 0.01892,-0.0971 0.02492,-0.14629 0.004,-0.0376 0.0034,-0.0754 0.0054,-0.1131 0.01129,-0.0328 0.02188,-0.0649 0.02736,-0.0993 4.5e-4,-0.0373 0.0092,-0.072 0.02087,-0.10705 0.0035,-0.0109 0.0079,-0.0215 0.0108,-0.0326 3.71e-4,-9.7e-4 -2.33e-4,-0.002 -3.44e-4,-0.003 0.14872,-0.0658 0.296405,-0.1339 0.446158,-0.19726 0.005,-0.002 0.0021,0.0108 0.0044,0.0158 0,0 -0.429734,0.24354 -0.429734,0.24354 v 0 c -0.08855,-0.18356 0.281841,-0.158 0.430455,-0.26539 -0.0062,0.009 -0.0097,0.0202 -0.01432,0.0303 -0.01297,0.0322 -0.02846,0.0615 -0.02671,0.0969 -0.0028,0.0364 -0.0062,0.0732 -0.02317,0.10609 -0.02092,0.0256 -9.53e-4,0.075 -0.01073,0.10583 -0.0036,0.0499 -0.01156,0.0994 -0.02506,0.1476 -0.0097,0.0482 -0.0014,0.098 0.0056,0.14627 0.01005,0.0451 0.03038,0.0867 0.03512,0.13302 0.01512,0.0651 0.03854,0.12833 0.04143,0.19589 0.01212,0.11181 -0.0027,0.22218 -0.02243,0.33262 -0.03561,0.18203 -0.07812,0.36256 -0.120091,0.5432 -0.05452,0.21109 -0.10794,0.42241 -0.163117,0.63333 -0.05757,0.23724 -0.124624,0.47173 -0.189756,0.707 -0.06136,0.22733 -0.123466,0.45459 -0.193444,0.67944 -0.05425,0.16485 -0.113585,0.3279 -0.165686,0.49345 -0.04268,0.14436 -0.08807,0.2884 -0.142221,0.42882 -0.04242,0.11043 -0.08339,0.22036 -0.140917,0.32407 -0.04566,0.0949 -0.09753,0.18672 -0.147298,0.27949 -0.04439,0.0905 -0.08713,0.18279 -0.147,0.26451 -0.148283,0.16489 -0.362418,0.28357 -0.57874,0.32928 -0.05459,0.009 -0.107703,0.0246 -0.162338,0.033 -0.061152,0.009 -0.121037,0.0233 -0.1819706,0.0331 -0.048807,0.007 -0.095936,0.0241 -0.1450736,0.0254 -0.040045,-3.9e-4 -0.080379,-10e-4 -0.119719,-0.01 -0.03565,-0.01 -0.068157,-0.0262 -0.1015455,-0.0419 -0.037307,-0.0177 -0.069628,-0.0424 -0.1010192,-0.0691 -0.025675,-0.0231 -0.052832,-0.0454 -0.074161,-0.0726 -0.025458,-0.0307 -0.042387,-0.0659 -0.063058,-0.1 -0.020958,-0.0464 -0.046536,-0.0908 -0.071826,-0.1349 -0.026717,-0.0487 -0.060259,-0.0931 -0.088362,-0.14091 -0.027925,-0.049 -0.048607,-0.10113 -0.075584,-0.1506 -0.025368,-0.055 -0.057212,-0.10695 -0.077322,-0.16423 -0.024186,-0.0531 -0.050574,-0.10512 -0.070717,-0.15996 -0.023656,-0.0607 -0.041078,-0.12359 -0.052427,-0.18772 -0.018066,-0.0761 -0.029155,-0.15294 -0.039245,-0.23049 -1.916e-4,-0.0653 -2.236e-4,-0.13073 -0.00495,-0.19592 -0.00563,-0.0618 -0.01574,-0.12275 -0.033157,-0.18243 -0.00574,-0.0527 -0.01842,-0.10365 -0.03326,-0.15448 -0.00785,-0.0658 -0.022836,-0.12996 -0.040672,-0.1937 -0.014634,-0.094 -0.037337,-0.18641 -0.050089,-0.28074 -0.021386,-0.10627 -0.040605,-0.21296 -0.057497,-0.32003 -0.017481,-0.0934 -0.040618,-0.18602 -0.067701,-0.27711 -0.020378,-0.0731 -0.050419,-0.14307 -0.082446,-0.21184 -0.034663,-0.089 -0.066307,-0.17887 -0.084197,-0.27309 -0.025038,-0.13602 -0.051917,-0.27184 -0.059635,-0.41032 -0.019222,-0.17064 -0.041745,-0.34112 -0.070603,-0.51038 -0.03844,-0.20515 -0.072553,-0.41111 -0.1158656,-0.61533 -0.040069,-0.17377 -0.076778,-0.34823 -0.1254056,-0.51992 -0.03954,-0.12779 -0.080625,-0.25595 -0.1451993,-0.37376 0,0 0.4250539,-0.24515 0.4250539,-0.24515 z"
       inkscape:connector-curvature="0" />
    <path
       style="fill:#adadad;fill-opacity:0.99572647;stroke:none;stroke-width:0.25;stroke-linecap:round;stroke-linejoin:round;stroke-miterlimit:4;stroke-dasharray:none;stroke-opacity:0.97435895"
       d="m 51.40733,39.552628 c -0.653125,-0.05719 -3.071875,-0.168171 -5.375,-0.246626 -2.303125,-0.07846 -5.70625,-0.248892 -7.5625,-0.378749 -4.597844,-0.321648 -10.304684,-0.41712 -16.0625,-0.268716 -4.14241,0.106768 -5.080879,0.09618 -6.739962,-0.07603 -1.528693,-0.15868 -2.149357,-0.172339 -3,-0.06602 -0.589896,0.07373 -1.100663,0.107064 -1.135038,0.07408 -0.03438,-0.03298 -0.09774,-2.06632 -0.140812,-4.518534 -0.04307,-2.452214 -0.121397,-4.810134 -0.174057,-5.239821 l -0.09575,-0.78125 1.861557,-0.0023 c 1.023856,-0.0013 5.067639,0.06451 8.986184,0.14614 5.743981,0.119656 7.548603,0.117149 9.312499,-0.01293 1.367239,-0.100831 5.165099,-0.172847 10.125374,-0.192 5.395916,-0.02084 8.127538,-0.07615 8.530995,-0.172762 1.504704,-0.360303 2.201774,-0.388154 3.074655,-0.122849 0.457517,0.139059 1.197475,0.450898 1.64435,0.692974 1.298659,0.703496 4.201806,2.76553 5.168476,3.67104 l 0.888367,0.832162 -0.559672,0.717458 c -0.307819,0.394602 -1.377132,1.794778 -2.376251,3.111503 -1.294393,1.705862 -1.941168,2.45508 -2.25,2.606377 -0.540935,0.265004 -2.471442,0.371269 -4.12092,0.226837 z m -3.607987,-2.551185 c 1.293631,-0.202667 2.158381,-0.579509 3.500988,-1.525671 1.048447,-0.73886 1.731999,-1.521623 1.731999,-1.983381 0,-0.454199 -0.359275,-1.512727 -0.630439,-1.857456 -0.14078,-0.178974 -0.886509,-0.63671 -1.657172,-1.017192 L 49.34351,29.925958 h -1.443465 c -1.384358,0 -1.463668,0.01446 -1.93684,0.353236 -0.369934,0.264857 -0.792518,0.404632 -1.688992,0.55866 -0.975554,0.167614 -1.384709,0.312556 -2.222963,0.787479 -0.56504,0.320131 -1.311503,0.870297 -1.658806,1.22259 -1.845541,1.872059 -1.407288,3.247848 1.327386,4.167002 0.821034,0.275958 1.002207,0.289827 2.9375,0.224868 1.134375,-0.03808 2.54828,-0.145334 3.142013,-0.23835 z M 15.290192,33.926032 c 1.267551,-0.206209 2.557763,-0.432599 2.867138,-0.50309 0.309375,-0.07049 1.4625,-0.156317 2.5625,-0.190725 3.443725,-0.107721 3.176808,-0.06569 3.905943,-0.615 0.840768,-0.633405 0.670147,-0.770014 -0.767983,-0.614888 -0.557128,0.06009 -1.68796,0.112952 -2.51296,0.117459 -1.178127,0.0064 -2.138144,0.120598 -4.473891,0.532015 l -2.973891,0.52382 -0.682359,0.515185 c -0.375297,0.283353 -0.682359,0.536553 -0.682359,0.562668 0,0.09844 0.518107,0.03693 2.757862,-0.327444 z"
       id="path4576"
       inkscape:connector-curvature="0"
       transform="matrix(0.26458334,0,0,0.26458334,0,280.06665)" />
    <path
       style="fill:#adadad;fill-opacity:0.99572646;stroke:none;stroke-width:0.25;stroke-linecap:round;stroke-linejoin:round;stroke-miterlimit:4;stroke-dasharray:none;stroke-opacity:0.97435895"
       d="m 11.486574,25.946306 c -0.04493,-0.538809 -0.280356,-1.677871 -0.523158,-2.53125 -0.59539,-2.092627 -0.682685,-3.317873 -0.31734,-4.454097 0.413494,-1.28597 0.760449,-1.839472 1.183659,-1.88831 0.39131,-0.04516 0.893009,0.335361 1.027519,0.77933 0.190877,0.63002 3.777303,8.072353 4.176939,8.667729 l 0.272687,0.40625 h -2.869303 -2.869303 z"
       id="path4578"
       inkscape:connector-curvature="0"
       transform="matrix(0.26458334,0,0,0.26458334,0,280.06665)" />
    <path
       style="fill:#adadad;fill-opacity:0.99572646;stroke:none;stroke-width:0.25;stroke-linecap:round;stroke-linejoin:round;stroke-miterlimit:4;stroke-dasharray:none;stroke-opacity:0.97435895"
       d="M 8.5126371,36.644708 C 7.9219834,36.21502 7.2613975,35.76677 7.0446685,35.648595 6.7050185,35.463396 6.6619361,35.385738 6.7326114,35.086095 6.8668926,34.516783 6.9766894,34.489856 7.7454924,34.83769 8.529438,35.192375 8.3954911,35.212358 9.34483,34.599082 l 0.3125,-0.201876 v 1.514376 c 0,0.832907 -0.015925,1.514376 -0.035388,1.514376 -0.019464,0 -0.5186506,-0.351563 -1.1093049,-0.78125 z"
       id="path4580"
       inkscape:connector-curvature="0"
       transform="matrix(0.26458334,0,0,0.26458334,0,280.06665)" />
    <path
       style="fill:#adadad;fill-opacity:0.99572646;stroke:none;stroke-width:0.25;stroke-linecap:round;stroke-linejoin:round;stroke-miterlimit:4;stroke-dasharray:none;stroke-opacity:0.97435895"
       d="m 8.5982929,33.4149 c -0.5670561,-0.245353 -0.977102,-0.350601 -1.1737026,-0.301257 -0.2889347,0.07252 -0.2987249,0.05502 -0.2235886,-0.399673 0.043217,-0.261532 0.079196,-0.538012 0.079953,-0.614401 7.823e-4,-0.07898 0.3326348,-0.168926 0.7693419,-0.208526 0.4947737,-0.04486 0.8931749,-0.162207 1.1199384,-0.329861 0.1935848,-0.143123 0.382375,-0.260224 0.4195338,-0.260224 0.037159,0 0.067562,0.5625 0.067562,1.25 0,0.6875 -0.042188,1.247983 -0.09375,1.245519 -0.051562,-0.0025 -0.4859417,-0.174175 -0.9652879,-0.381577 z"
       id="path4582"
       inkscape:connector-curvature="0"
       transform="matrix(0.26458334,0,0,0.26458334,0,280.06665)" />
    <path
       style="fill:#adadad;fill-opacity:0.99572646;stroke:none;stroke-width:0.25;stroke-linecap:round;stroke-linejoin:round;stroke-miterlimit:4;stroke-dasharray:none;stroke-opacity:0.97435895"
       d="m 7.480516,30.050958 c 0.045713,-0.378125 0.098378,-0.705119 0.1170337,-0.726653 0.018656,-0.02153 0.3107009,-0.112167 0.6489887,-0.201405 0.3382879,-0.08924 0.8587961,-0.338808 1.156685,-0.554597 0.3423932,-0.248029 0.6841486,-0.389547 0.9291116,-0.384739 0.368316,0.0072 0.354624,0.02417 -0.276636,0.342211 l -0.6641306,0.334606 0.085067,0.907788 0.085067,0.907789 -0.4834359,0.01249 c -0.2658899,0.0069 -0.7528572,0.02093 -1.0821499,0.03125 l -0.5987138,0.01876 z"
       id="path4584"
       inkscape:connector-curvature="0"
       transform="matrix(0.26458334,0,0,0.26458334,0,280.06665)" />
    <path
       style="fill:#adadad;fill-opacity:0.99572646;stroke:none;stroke-width:0.25;stroke-linecap:round;stroke-linejoin:round;stroke-miterlimit:4;stroke-dasharray:none;stroke-opacity:0.97435895"
       d="M 43.403193,35.892761 C 41.883848,35.42823 41.03233,34.769464 41.03233,34.058573 c 0,-0.357274 0.545527,-1.297675 0.971323,-1.674404 0.166763,-0.147546 0.674843,-0.292617 1.425165,-0.406925 2.149229,-0.327426 2.634009,-0.441349 2.986243,-0.701767 0.538646,-0.398238 1.359885,-0.232333 2.991709,0.604379 1.292478,0.662713 1.359058,0.716665 1.573795,1.275295 0.36951,0.961264 0.308543,1.323652 -0.329485,1.958463 l -0.55625,0.553446 -1.5,0.196717 c -0.825,0.108195 -2.11875,0.223756 -2.875,0.256801 -1.188933,0.05195 -1.502424,0.02112 -2.316637,-0.227817 z"
       id="path4586"
       inkscape:connector-curvature="0"
       transform="matrix(0.26458334,0,0,0.26458334,0,280.06665)" />
    <path
       style="fill:#adadad;fill-opacity:0.99572646;stroke:none;stroke-width:0.25;stroke-linecap:round;stroke-linejoin:round;stroke-miterlimit:4;stroke-dasharray:none;stroke-opacity:0.97435895"
       d="m 37.204703,62.062133 c -0.89063,-0.543086 -2.420549,-3.740603 -2.42351,-5.065113 -0.0018,-0.790782 -1.070114,-5.907686 -1.434644,-6.871307 -0.200567,-0.530189 -0.444032,-1.662484 -0.631619,-2.9375 -0.467297,-3.176171 -1.115321,-6.152844 -1.502461,-6.90149 -0.09908,-0.191593 -0.180139,-0.387129 -0.180139,-0.434525 0,-0.104495 2.954403,0.0244 6.1875,0.269941 1.30625,0.09921 3.66875,0.215637 5.25,0.258734 1.58125,0.0431 2.951657,0.118847 3.04535,0.168332 0.108747,0.05744 -0.03185,0.140888 -0.388789,0.230766 -0.307526,0.07744 -0.619842,0.213936 -0.694036,0.303333 -0.07419,0.0894 -0.203466,0.639003 -0.287275,1.221347 -0.126813,0.881154 -0.121611,1.21484 0.03101,1.988759 0.220791,1.119641 0.155642,1.720384 -0.461717,4.257548 -1.252846,5.148824 -2.721552,9.833507 -3.767552,12.01724 l -0.696815,1.45474 -0.692183,0.13901 c -0.894725,0.179686 -0.894752,0.179684 -1.353115,-0.09981 z"
       id="path4588"
       inkscape:connector-curvature="0"
       transform="matrix(0.26458334,0,0,0.26458334,0,280.06665)" />
    <path
       style="fill:#adadad;fill-opacity:0.99572646;stroke:none;stroke-width:0.08838835;stroke-linecap:round;stroke-linejoin:round;stroke-miterlimit:4;stroke-dasharray:none;stroke-opacity:0.97435895"
       d="m 13.565164,49.9078 c -0.36245,-0.244423 -0.468947,-0.437029 -0.581466,-1.051611 -0.04005,-0.218762 -0.17037,-0.877347 -0.289599,-1.463523 -0.15727,-0.773205 -0.216828,-1.167491 -0.216957,-1.43631 -9.7e-5,-0.203795 -0.03047,-0.557324 -0.0675,-0.785621 -0.142854,-0.880854 -0.283835,-2.756794 -0.35649,-4.743576 -0.02703,-0.739135 -0.02262,-0.830565 0.0412,-0.855057 0.08642,-0.03316 1.038634,0.03735 2.150728,0.159271 1.807076,0.198111 2.496053,0.221249 3.792639,0.127369 0.372323,-0.02696 0.68675,-0.03922 0.698727,-0.02724 0.01198,0.01198 -0.149963,0.426609 -0.359866,0.921406 -0.209903,0.494796 -0.487602,1.187996 -0.617111,1.540445 -0.433089,1.178625 -0.600489,1.562699 -1.130308,2.593326 -0.289649,0.563438 -0.737061,1.518033 -0.99425,2.121321 -0.48895,1.146933 -0.893775,1.965978 -1.224109,2.476622 -0.201732,0.311844 -0.462552,0.632137 -0.512805,0.629734 -0.01571,-7.52e-4 -0.16549,-0.0937 -0.33284,-0.206557 z"
       id="path4590"
       inkscape:connector-curvature="0"
       transform="matrix(0.26458334,0,0,0.26458334,0,280.06665)" />
    <path
       style="fill:#adadad;fill-opacity:0.99572646;stroke:none;stroke-width:0.08838835;stroke-linecap:round;stroke-linejoin:round;stroke-miterlimit:4;stroke-dasharray:none;stroke-opacity:0.97435895"
       d="m 31.328016,27.035594 c -0.01212,-0.05484 -0.03801,-0.427857 -0.05754,-0.828919 -0.03662,-0.752336 0.002,-1.197118 0.147758,-1.701476 0.171546,-0.5936 0.418328,-1.808732 0.677646,-3.33666 0.202641,-1.19399 0.291807,-2.032319 0.383094,-3.601825 0.04496,-0.772963 0.115254,-1.103322 0.565021,-2.655322 0.601976,-2.077227 0.595764,-2.048013 0.887941,-4.176103 0.08536,-0.621707 0.195808,-1.3277087 0.245446,-1.5688931 0.09259,-0.4499002 0.259275,-1.4268001 0.463159,-2.7145171 0.137162,-0.8663009 0.415713,-2.0501639 0.57999,-2.4650004 0.227117,-0.5735203 0.638207,-1.3975401 0.812138,-1.6279094 0.266667,-0.3531972 0.415238,-0.4446379 0.93225,-0.5737669 0.518526,-0.1295071 0.832058,-0.1246615 1.357458,0.020979 1.226069,0.3398661 1.522556,0.6278142 2.435403,2.3652636 0.48254,0.9184331 0.7339,1.6594058 0.909894,2.6822409 0.109686,0.6374656 0.303734,1.4065976 0.545324,2.1614553 0.54217,1.6940341 0.660054,2.2304981 0.713077,3.2450741 0.05674,1.085713 0.161261,1.987861 0.358785,3.09679 0.307914,1.72868 0.432135,2.546479 0.527057,3.46984 0.05119,0.497961 0.163232,1.392624 0.248982,1.98814 0.234836,1.630892 0.269769,1.912192 0.321366,2.587859 0.05783,0.757337 0.06194,3.375388 0.0054,3.464712 -0.03516,0.05558 -0.143951,0.057 -0.805866,0.0105 -1.507176,-0.105888 -3.153691,-0.150266 -3.720314,-0.100273 -1.253658,0.110609 -2.377165,0.142162 -3.1437,0.08829 -0.769579,-0.05409 -1.968271,-0.03353 -2.673747,0.04585 -0.206608,0.02325 -0.793286,0.07291 -1.303728,0.11037 -0.510443,0.03745 -1.032076,0.07821 -1.159185,0.09056 -0.212572,0.02066 -0.232875,0.01446 -0.253148,-0.07726 z"
       id="path4592"
       inkscape:connector-curvature="0"
       transform="matrix(0.26458334,0,0,0.26458334,0,280.06665)" />
  </g>
</svg>
