<?xml version="1.0" encoding="UTF-8" standalone="no"?>
<!-- Created with Inkscape (http://www.inkscape.org/) -->

<svg
   xmlns:dc="http://purl.org/dc/elements/1.1/"
   xmlns:cc="http://creativecommons.org/ns#"
   xmlns:rdf="http://www.w3.org/1999/02/22-rdf-syntax-ns#"
   xmlns:svg="http://www.w3.org/2000/svg"
   xmlns="http://www.w3.org/2000/svg"
   xmlns:sodipodi="http://sodipodi.sourceforge.net/DTD/sodipodi-0.dtd"
   xmlns:inkscape="http://www.inkscape.org/namespaces/inkscape"
   width="64"
   height="64"
   viewBox="0 0 16.933333 16.933334"
   version="1.1"
   id="svg8"
   inkscape:version="0.92.4 5da689c313, 2019-01-14"
   sodipodi:docname="kamikaze.svg">
  <defs
     id="defs2" />
  <sodipodi:namedview
     id="base"
     pagecolor="#000d50"
     bordercolor="#666666"
     borderopacity="1.0"
     inkscape:pageopacity="0"
     inkscape:pageshadow="2"
     inkscape:zoom="8"
     inkscape:cx="25.46983"
     inkscape:cy="35.999042"
     inkscape:document-units="px"
     inkscape:current-layer="layer1"
     showgrid="false"
     units="px"
     inkscape:window-width="1920"
     inkscape:window-height="1027"
     inkscape:window-x="0"
     inkscape:window-y="1080"
     inkscape:window-maximized="1" />
  <metadata
     id="metadata5">
    <rdf:RDF>
      <cc:Work
         rdf:about="">
        <dc:format>image/svg+xml</dc:format>
        <dc:type
           rdf:resource="http://purl.org/dc/dcmitype/StillImage" />
        <dc:title />
      </cc:Work>
    </rdf:RDF>
  </metadata>
  <g
     inkscape:label="Layer 1"
     inkscape:groupmode="layer"
     id="layer1"
     transform="translate(0,-280.06665)">
    <path
       style="fill:#ffffff;fill-opacity:1;stroke:none;stroke-width:0.39687502;stroke-linecap:round;stroke-linejoin:round;stroke-miterlimit:4;stroke-dasharray:none;stroke-opacity:0.99145298"
       id="path1420"
       d="m 1.6788736,286.43084 c 0.045302,0.18746 0.075464,0.37792 0.1011231,0.56891 0.04068,0.35368 0.057243,0.70921 0.067693,1.06486 0.00937,0.41958 0.010734,0.83929 0.012648,1.25896 -9.843e-4,0.29596 0.00205,0.59229 0.029524,0.88714 0.017676,0.10232 0.00758,0.0548 0.028996,0.14289 0,0 -0.4272932,0.22962 -0.4272932,0.22962 v 0 c -0.019042,-0.094 -0.010027,-0.0435 -0.025954,-0.15186 -0.022338,-0.29863 -0.019106,-0.59844 -0.017456,-0.8977 7.964e-4,-0.41945 0.00116,-0.839 -0.010765,-1.25832 -0.012453,-0.35239 -0.031237,-0.70458 -0.076724,-1.05452 -0.027403,-0.18727 -0.057453,-0.37539 -0.1132962,-0.55663 0,0 0.4315061,-0.23335 0.4315061,-0.23335 z"
       inkscape:connector-curvature="0" />
    <path
       style="fill:#ffffff;fill-opacity:1;stroke:none;stroke-width:0.39687502;stroke-linecap:round;stroke-linejoin:round;stroke-miterlimit:4;stroke-dasharray:none;stroke-opacity:0.99145298"
       id="path1422"
       d="m 1.6226192,286.28529 c 0.1263709,0.0165 0.2539834,0.019 0.3812343,0.0213 0.19626,-0.01 0.3923506,-0.0206 0.5883847,-0.0342 0.3081694,-0.0187 0.6160938,-0.0421 0.9237447,-0.068 0.4244991,-0.0318 0.8495356,-0.0551 1.2749459,-0.0703 0.4964351,-0.0203 0.9931379,-0.0206 1.4898937,-0.0197 0.5292267,8e-5 1.0583339,0.002 1.5874362,0.0134 0.4943933,0.0146 0.9879534,0.0463 1.4814723,0.0779 0.4154868,0.0245 0.831735,0.0407 1.247972,0.0354 0.304094,-0.005 0.607867,-0.0297 0.9118,-0.0114 0.03632,0.005 0.07264,0.009 0.108964,0.0139 0,0 -0.389963,0.27604 -0.389963,0.27604 v 0 c -0.03513,-0.004 -0.07026,-0.008 -0.105387,-0.0127 -0.300111,-0.017 -0.600255,0.005 -0.900569,0.007 -0.4151529,10e-4 -0.8301392,-0.016 -1.2444328,-0.0421 -0.4915625,-0.0335 -0.9833055,-0.0654 -1.4758993,-0.0794 -0.5289032,-0.012 -1.0578463,-0.0125 -1.5868743,-0.0126 -0.4978207,-2e-5 -0.9955795,0.003 -1.4930372,0.0241 -0.4273547,0.0167 -0.854298,0.0423 -1.2805646,0.0772 -0.310579,0.0269 -0.6212877,0.0528 -0.9323369,0.0736 -0.1988938,0.0148 -0.3979801,0.0288 -0.5973267,0.0353 -0.131307,-0.003 -0.2633904,-0.005 -0.3932729,-0.0262 0,0 0.4038159,-0.27854 0.4038159,-0.27854 z"
       inkscape:connector-curvature="0" />
    <path
       style="fill:#ffffff;fill-opacity:1;stroke:none;stroke-width:0.39687502;stroke-linecap:round;stroke-linejoin:round;stroke-miterlimit:4;stroke-dasharray:none;stroke-opacity:0.99145298"
       id="path1424"
       d="m 1.9420885,290.22765 c 0.129734,-0.0118 0.2599595,-0.0145 0.3901404,-0.0161 0.1960918,0.001 0.3918479,0.0176 0.5878671,0.0249 0.2795222,0.008 0.5592218,0.0129 0.8388033,0.007 0.3734797,-0.007 0.7465666,-0.0242 1.1197921,-0.0388 0.4032504,-0.0102 0.8061817,-0.029 1.2094049,-0.0402 0.4253881,-0.0103 0.850909,-0.0119 1.2763979,-0.0133 0.4194114,-0.007 0.8386043,-0.0216 1.2572886,-0.0475 0.3802214,-0.0244 0.7607012,-0.0456 1.1406267,-0.0743 0.2956565,-0.024 0.5920685,-0.0348 0.8879905,-0.0547 0.208842,-0.007 0.414978,-0.04 0.621522,-0.0684 0.103885,-0.0167 0.204778,-0.0403 0.303438,-0.0764 0.019,-0.007 0.038,-0.0147 0.05607,-0.024 0,0 -0.388268,0.30675 -0.388268,0.30675 v 0 c -0.01841,0.006 -0.03668,0.0127 -0.05521,0.0186 -0.09856,0.0307 -0.200107,0.0484 -0.302119,0.0637 -0.204914,0.0274 -0.410054,0.0536 -0.61694,0.0608 -0.2939893,0.0179 -0.5884078,0.0277 -0.8820908,0.0508 -0.3785,0.0257 -0.7572759,0.0474 -1.1359627,0.0702 -0.4192,0.0244 -0.8388482,0.0395 -1.2587359,0.0453 -0.4253473,10e-4 -0.8507484,0.003 -1.2759632,0.0145 -0.4036441,0.0124 -0.8070596,0.0309 -1.2107511,0.0418 -0.37489,0.0154 -0.7496942,0.0321 -1.1248041,0.0414 -0.2824514,0.006 -0.5650153,0.003 -0.8474375,-0.004 -0.1969239,-0.007 -0.3937551,-0.0225 -0.5908491,-0.0195 -0.1298914,0.003 -0.262163,0.003 -0.3894214,0.0314 0,0 0.3892083,-0.29967 0.3892083,-0.29967 z"
       inkscape:connector-curvature="0" />
    <path
       style="fill:#ffffff;fill-opacity:1;stroke:none;stroke-width:0.39687502;stroke-linecap:round;stroke-linejoin:round;stroke-miterlimit:4;stroke-dasharray:none;stroke-opacity:0.99145298"
       id="path1426"
       d="m 11.572337,286.16681 c 0.10549,-0.0116 0.211332,-0.0183 0.317327,-0.0229 0.09757,-0.01 0.193538,0.003 0.290248,0.014 0.111196,0.009 0.222258,0.0219 0.331883,0.0427 0.134306,0.0229 0.266888,0.0532 0.396542,0.0951 0.154979,0.0469 0.303851,0.10978 0.451737,0.17528 0.161494,0.0654 0.315194,0.14756 0.471939,0.22317 0.156587,0.0801 0.30675,0.17183 0.461677,0.25491 0.161406,0.0922 0.325238,0.1802 0.491154,0.264 0.164793,0.0886 0.333521,0.16895 0.497184,0.25959 0.140545,0.0724 0.272778,0.15863 0.402854,0.24814 0.09145,0.0624 0.173631,0.13643 0.254995,0.21108 0.04027,0.0407 0.08545,0.075 0.125178,0.11624 0.0092,0.01 0.0182,0.0195 0.02553,0.0306 0.0054,0.01 0.0088,0.0151 0.01083,0.0294 3.97e-4,0.003 -0.007,-0.006 -0.0077,-0.003 -0.0012,0.004 -8.21e-4,0.019 -8.47e-4,0.0215 0.0049,0.0482 -0.0085,0.0931 -0.02491,0.13788 -0.02807,0.0707 -0.06789,0.13625 -0.111391,0.19839 -0.06224,0.081 -0.139562,0.14953 -0.214242,0.21891 -0.104336,0.0955 -0.227434,0.1667 -0.347725,0.2398 -1.410315,0.81129 -0.105618,0.0613 -0.158555,0.0917 -0.164616,0.0946 -0.329153,0.18942 -0.493877,0.28387 -0.516478,0.29614 1.415835,-0.81227 -0.268488,0.15189 -0.19619,0.11273 -0.399909,0.21129 -0.609916,0.29528 -0.230515,0.0845 -0.470918,0.14077 -0.711385,0.18882 -0.257173,0.0521 -0.518598,0.0808 -0.779718,0.10457 -0.245979,0.0214 -0.493136,0.008 -0.738823,-0.01 -0.215649,-0.0147 -0.429706,-0.0463 -0.64608,-0.0483 -0.03199,0.004 -0.06398,0.007 -0.09597,0.0112 0,0 0.385332,-0.28537 0.385332,-0.28537 v 0 c 0.03299,-0.002 0.06599,-0.004 0.09898,-0.007 0.215831,0.007 0.429802,0.0375 0.645189,0.052 0.24364,0.0177 0.488749,0.0281 0.732462,0.005 0.260278,-0.0246 0.520664,-0.0547 0.776673,-0.10885 0.239396,-0.0509 0.479273,-0.1072 0.707514,-0.19694 0.208822,-0.0873 0.411669,-0.18771 0.607812,-0.30084 -0.105579,0.0615 -0.422918,0.24492 -0.316737,0.18448 0.167114,-0.0951 0.332903,-0.19259 0.499543,-0.28855 0.02884,-0.0166 0.115617,-0.066 0.0869,-0.0492 -0.108993,0.0639 -0.437183,0.25338 -0.327738,0.19029 0.242087,-0.13954 0.899523,-0.52179 0.157427,-0.0905 0.118314,-0.0721 0.240223,-0.14036 0.347036,-0.22924 0.0739,-0.0674 0.14786,-0.13565 0.215355,-0.20923 0.04476,-0.0577 0.08291,-0.11951 0.115436,-0.18483 0.01419,-0.0393 0.03543,-0.0773 0.0305,-0.12011 -0.001,-0.0176 -0.01726,-0.0771 0.0075,-0.0251 -0.0032,-0.005 -0.01192,-0.0167 -0.01734,-0.022 -0.03742,-0.0412 -0.08171,-0.0752 -0.119705,-0.11592 -0.07766,-0.0746 -0.159115,-0.14538 -0.247371,-0.20734 -0.128075,-0.0892 -0.259227,-0.17334 -0.397623,-0.24582 -0.162931,-0.0905 -0.330918,-0.171 -0.49531,-0.25874 -0.165937,-0.0848 -0.330441,-0.17251 -0.492553,-0.26447 -0.154064,-0.0834 -0.304194,-0.1741 -0.460702,-0.25304 -0.156264,-0.0759 -0.310441,-0.15627 -0.471786,-0.22121 -0.147042,-0.0645 -0.295814,-0.12451 -0.450004,-0.16994 -0.12944,-0.0391 -0.261663,-0.0664 -0.395039,-0.0885 -0.109909,-0.0174 -0.22026,-0.031 -0.331231,-0.0394 -0.09515,-0.0103 -0.190092,-0.0154 -0.285778,-0.008 -0.106194,0.005 -0.212335,0.0126 -0.317598,0.0279 0,0 0.393354,-0.29333 0.393354,-0.29333 z"
       inkscape:connector-curvature="0" />
    <path
       style="fill:#ffffff;fill-opacity:1;stroke:none;stroke-width:0.39687502;stroke-linecap:round;stroke-linejoin:round;stroke-miterlimit:4;stroke-dasharray:none;stroke-opacity:0.99145298"
       id="path1428"
       d="m 1.8319009,286.3641 c 0.00415,-0.14755 0.00379,-0.29519 0.00417,-0.44278 0.00687,-0.19721 -0.00374,-0.39381 -0.039816,-0.58782 -0.042375,-0.20656 -0.1133536,-0.40491 -0.1955213,-0.59854 -0.092764,-0.20454 -0.1816347,-0.41064 -0.2675966,-0.61812 -0.067019,-0.1679 -0.1370844,-0.33453 -0.2062209,-0.50155 -0.037119,-0.0893 -0.085299,-0.17318 -0.12727607,-0.26012 -0.00959,-0.0201 -0.0187378,-0.0404 -0.0272756,-0.0609 -0.073471,-0.15544 -0.0162846,-0.009 0.43884537,-0.22524 0.0039,-0.002 0.00652,0.006 0.010736,0.007 0.0067,-0.0178 0.045111,-0.0115 0.061136,-0.0117 0.068899,0.002 0.1347539,0.0338 0.1971672,0.0608 0.1465132,0.0769 0.2708162,0.18822 0.3913717,0.30001 0.1760411,0.15468 0.3307323,0.33052 0.4828111,0.50813 0.1608381,0.18597 0.3012538,0.38787 0.4461359,0.58611 0.124188,0.17016 0.245708,0.34224 0.3692766,0.51283 0.1107795,0.14359 0.2077223,0.29538 0.292798,0.45534 0.073234,0.14561 0.1360125,0.29647 0.1826934,0.45266 0.023569,0.0808 0.048895,0.1606 0.082773,0.23766 0.00697,0.0129 0.017018,0.0223 0.028404,0.0311 0,0 -0.4202785,0.25933 -0.4202785,0.25933 v 0 c -0.014248,-0.0153 -0.027595,-0.0311 -0.037039,-0.05 -0.031852,-0.0804 -0.05693,-0.16241 -0.079183,-0.24607 -0.042648,-0.15416 -0.102498,-0.30293 -0.1749764,-0.44553 -0.083537,-0.1583 -0.1801532,-0.30759 -0.2881601,-0.45043 C 2.8343882,285.1051 2.7139144,284.9325 2.5907664,284.7618 2.447844,284.56377 2.307701,284.36328 2.1474746,284.17854 c -0.1518465,-0.17572 -0.3064198,-0.34947 -0.4828889,-0.50131 -0.1191763,-0.10686 -0.242304,-0.21432 -0.3895107,-0.28086 -0.061154,-0.0232 -0.1235585,-0.0473 -0.1901624,-0.0412 -0.028331,0.001 -0.058102,0.007 -0.080891,-0.0137 -0.1499691,-0.16016 0.4761513,-0.12309 0.4033989,-0.28502 0.00357,0.0198 0.01314,0.0382 0.019813,0.0571 0.038218,0.0896 0.086002,0.17486 0.1216441,0.26567 0.066487,0.16828 0.1350981,0.33566 0.2013037,0.50407 0.084089,0.20806 0.1733193,0.41371 0.2669921,0.61764 0.084266,0.19633 0.1566036,0.39755 0.2019963,0.60679 0.03777,0.19614 0.050688,0.39515 0.045807,0.59483 3.757e-4,0.14618 -1.97e-5,0.29241 0.00417,0.43854 0,0 -0.4372399,0.22278 -0.4372399,0.22278 z"
       inkscape:connector-curvature="0" />
    <path
       style="fill:#ffffff;fill-opacity:1;stroke:none;stroke-width:0.39687502;stroke-linecap:round;stroke-linejoin:round;stroke-miterlimit:4;stroke-dasharray:none;stroke-opacity:0.99145298"
       id="path1430"
       d="m 2.3072591,290.30037 c 0.028702,0.13743 0.041073,0.27716 0.049518,0.41704 0.00935,0.17188 -0.00651,0.34384 -0.024412,0.51465 -0.022769,0.1698 -0.056129,0.3387 -0.111379,0.50101 -0.056819,0.15486 -0.1416395,0.29604 -0.2370293,0.42975 -0.1046528,0.13388 -0.2135163,0.26436 -0.3183246,0.39813 -0.079764,0.10915 -0.1573744,0.21971 -0.2432587,0.3242 -0.03889,0.0471 -0.080076,0.0921 -0.1215713,0.13686 -0.019018,0.0194 -0.00935,0.0257 -0.02736,-0.0113 0.0063,0.0118 0.00651,0.0243 0.00692,0.0372 -2.805e-4,0.003 5.9e-4,0.006 0.00155,0.008 -0.0068,-0.0133 -0.013596,-0.0267 -0.020394,-0.04 0,0 -0.39854388,0.29431 -0.39854388,0.29431 v 0 c -0.009385,-0.0131 -0.0187706,-0.0263 -0.0281559,-0.0394 4.5773e-4,-1.8e-4 0.002551,0.004 0.0025,-9.8e-4 8.1756e-4,-0.005 -1.8616e-4,-0.0209 0.006198,-0.0128 -0.0200387,-0.0405 -0.0212196,-0.0249 0.001352,-0.046 0.0450477,-0.0435 0.0879559,-0.0892 0.12941325,-0.13614 0.0892327,-0.10314 0.17053103,-0.21242 0.24846463,-0.32431 0.1035304,-0.13447 0.2120463,-0.26495 0.3188355,-0.39682 0.096848,-0.12926 0.1827357,-0.2665 0.2426025,-0.41718 0.060133,-0.15766 0.09155,-0.32455 0.1170427,-0.49098 0.018555,-0.1681 0.035207,-0.33753 0.026595,-0.50681 -0.00768,-0.13606 -0.017575,-0.27303 -0.052066,-0.40541 0,0 0.4315061,-0.23335 0.4315061,-0.23335 z"
       inkscape:connector-curvature="0" />
    <path
       style="fill:#ffffff;fill-opacity:1;stroke:none;stroke-width:0.39687502;stroke-linecap:round;stroke-linejoin:round;stroke-miterlimit:4;stroke-dasharray:none;stroke-opacity:0.99145298"
       id="path1432"
       d="m 4.0189513,290.41141 c -0.013359,0.12386 -0.036839,0.24561 -0.077141,0.36349 -0.038697,0.1197 -0.094259,0.23191 -0.1572975,0.34036 -0.077265,0.13501 -0.160651,0.26629 -0.2481548,0.39486 -0.1015018,0.15229 -0.2158963,0.29537 -0.3329032,0.43589 -0.1120058,0.12913 -0.23152,0.25099 -0.3632431,0.35995 -0.2537942,0.19791 -0.5407265,0.35108 -0.8243367,0.50117 -0.1501182,0.0776 -0.4539617,0.24617 0.2178034,-0.12972 0.021209,-0.0119 -0.041354,0.0256 -0.06181,0.0387 -0.054394,0.0349 -0.059127,0.039 -0.1109506,0.0753 -0.087147,0.0618 -0.1733478,0.12501 -0.2577879,0.19047 -0.180826,0.12589 -0.3644522,0.28437 -0.5885545,0.29394 -0.050732,-0.006 -0.096014,0.008 -0.1445304,0.0194 -0.042952,0.009 -0.0865268,0.0115 -0.13019862,0.0133 -0.0170468,6.4e-4 -0.0341002,0.001 -0.0511506,6.4e-4 -0.17704986,0.003 0.53444592,-0.35556 0.40305512,-0.22284 0,0 -0.45000152,0.20316 -0.45000152,0.20316 v 0 c 0.046806,-0.17073 0.27057082,-0.27209 0.44752842,-0.27116 0.015951,-6.1e-4 0.031917,-8.2e-4 0.047851,-0.002 0.04192,-0.003 0.083546,-0.009 0.124421,-0.0192 0.048907,-0.0109 0.098063,-0.0106 0.1478367,-0.0144 0.025493,-0.004 0.048912,-0.009 0.072872,-0.0191 0.00835,-0.003 0.032461,-0.0158 0.024678,-0.0112 -0.3269442,0.19306 -0.5283227,0.30221 -0.3584803,0.20982 0.088067,-0.0629 0.1715582,-0.13217 0.2613844,-0.19285 0.2451325,-0.17918 0.5135543,-0.32408 0.7820889,-0.46506 0.1867892,-0.10125 0.085643,-0.0473 -0.2725952,0.16107 -0.023671,0.0138 0.047622,-0.0271 0.071121,-0.0411 0.042044,-0.0252 0.098981,-0.0608 0.138729,-0.0896 0.02161,-0.0156 0.042107,-0.0328 0.06316,-0.0492 0.1350248,-0.10477 0.2550956,-0.22536 0.369404,-0.35225 0.1173832,-0.13857 0.231547,-0.28044 0.3332576,-0.43102 0.087949,-0.12646 0.1701803,-0.25687 0.2467951,-0.3905 0.062888,-0.1059 0.1217541,-0.21421 0.15982,-0.33198 0.044313,-0.11229 0.070854,-0.23027 0.078286,-0.35095 0,0 0.4390436,-0.21762 0.4390436,-0.21762 z"
       inkscape:connector-curvature="0" />
    <path
       style="fill:#ffffff;fill-opacity:1;stroke:none;stroke-width:0.39687502;stroke-linecap:round;stroke-linejoin:round;stroke-miterlimit:4;stroke-dasharray:none;stroke-opacity:0.99145298"
       id="path1438"
       d="m 4.8916073,280.84207 c 0.1019273,-0.0104 0.2040056,-0.019 0.3063946,-0.023 0.098932,-0.003 0.1979398,-0.003 0.2969136,-0.003 0.1095957,0.0104 0.2186429,0.0224 0.3272888,0.04 0.116178,0.0262 0.2273131,0.072 0.3373866,0.1169 0.1335352,0.0586 0.2670411,0.11737 0.3996336,0.17812 0.1534318,0.0712 0.3120464,0.13053 0.4650623,0.2025 0.171844,0.0774 0.3378232,0.1666 0.5041366,0.25502 0.179247,0.0988 0.3459218,0.21819 0.5105704,0.33922 0.1769147,0.13286 0.344002,0.27838 0.5159455,0.41763 0.1724189,0.1357 0.3461533,0.26972 0.5179637,0.40619 0.1798563,0.13871 0.3463213,0.29482 0.4997667,0.46208 0.1791679,0.19449 0.3438017,0.40118 0.5092503,0.60721 0.173878,0.22501 0.344911,0.4521 0.510151,0.68354 0.165004,0.23652 0.329965,0.47293 0.501767,0.70458 0.133505,0.18166 0.279149,0.35345 0.423544,0.52634 0.08868,0.10906 0.185538,0.21093 0.274957,0.31933 0.03998,0.053 0.08041,0.10542 0.116611,0.16114 0.0046,0.007 0.009,0.0144 0.0133,0.0218 0,0 -0.430132,0.24557 -0.430132,0.24557 v 0 c -0.0029,-0.007 -0.0062,-0.0133 -0.0098,-0.0197 -0.03153,-0.0559 -0.0703,-0.10667 -0.107712,-0.15866 -0.08738,-0.10945 -0.182288,-0.21247 -0.269186,-0.32234 -0.14259,-0.175 -0.28515,-0.35001 -0.418182,-0.53253 -0.170802,-0.23263 -0.335368,-0.46957 -0.501159,-0.70578 -0.164986,-0.23062 -0.3361763,-0.45653 -0.5101377,-0.68045 -0.1649791,-0.20517 -0.3297172,-0.41058 -0.5097333,-0.603 -0.1538174,-0.1641 -0.3192598,-0.31784 -0.4979488,-0.45472 -0.1716773,-0.13673 -0.345313,-0.27096 -0.5175401,-0.40699 -0.1712717,-0.13904 -0.338037,-0.28403 -0.5155287,-0.41511 -0.1635686,-0.11931 -0.3297196,-0.23613 -0.5080167,-0.33269 -0.1658879,-0.0881 -0.3324744,-0.17498 -0.5039323,-0.25194 -0.1542693,-0.0699 -0.3125497,-0.1306 -0.4665165,-0.20128 -0.1325902,-0.0602 -0.2661333,-0.11843 -0.4004104,-0.1748 -0.1083453,-0.0424 -0.2171795,-0.0875 -0.3323683,-0.10722 -0.1070396,-0.0167 -0.215092,-0.028 -0.3232917,-0.0333 -0.098645,1.6e-4 -0.1973268,7.4e-4 -0.2958979,0.005 -0.1024567,0.005 -0.2048925,0.013 -0.3064888,0.0278 0,0 0.3933545,-0.29333 0.3933545,-0.29333 z"
       inkscape:connector-curvature="0" />
    <path
       style="fill:#ffffff;fill-opacity:1;stroke:none;stroke-width:0.39687502;stroke-linecap:round;stroke-linejoin:round;stroke-miterlimit:4;stroke-dasharray:none;stroke-opacity:0.99145298"
       id="path1440"
       d="m 4.7611846,281.08853 c 0.071204,0.0865 0.1340168,0.17935 0.2010767,0.269 0.082685,0.1014 0.1664579,0.20174 0.2429794,0.30796 0.100997,0.13412 0.1907537,0.27606 0.280998,0.41747 0.1179071,0.17524 0.2158932,0.36183 0.3081872,0.55143 0.1125877,0.22558 0.1873587,0.46659 0.2573529,0.70795 0.067218,0.235 0.1251296,0.47247 0.1818407,0.71018 0.044083,0.1768 0.087097,0.3539 0.1321509,0.53047 0.032556,0.14892 0.071122,0.2965 0.1005409,0.44609 0.03013,0.13924 0.04869,0.28037 0.059628,0.42229 0.00748,0.10516 0.00842,0.21061 0.00902,0.31598 -0.00458,0.0791 -0.01415,0.15826 -0.032845,0.23529 -0.00955,0.0351 -0.00588,0.0188 -0.011658,0.0488 0,0 -0.4407464,0.21862 -0.4407464,0.21862 v 0 c 0.00175,-0.0378 -0.00119,-0.0189 0.00932,-0.0566 0.023257,-0.0729 0.031652,-0.14859 0.041068,-0.22438 2.646e-4,-0.10479 3.44e-4,-0.20964 -0.00496,-0.31433 -0.00881,-0.14043 -0.024265,-0.28039 -0.055895,-0.41775 -0.027596,-0.14919 -0.066009,-0.29605 -0.097787,-0.44437 -0.044192,-0.17749 -0.085188,-0.3558 -0.1286246,-0.53347 -0.053154,-0.23798 -0.1099082,-0.47531 -0.1769104,-0.70982 -0.069493,-0.23854 -0.1438955,-0.47662 -0.255632,-0.69944 -0.093029,-0.18715 -0.1912961,-0.37138 -0.3084579,-0.54484 -0.091369,-0.13977 -0.1817957,-0.28033 -0.2831954,-0.41316 -0.077159,-0.10564 -0.1623087,-0.20475 -0.2446938,-0.30629 -0.066052,-0.0894 -0.127992,-0.1825 -0.2035848,-0.26434 0,0 0.4208291,-0.25267 0.4208291,-0.25267 z"
       inkscape:connector-curvature="0" />
    <path
       style="fill:#ffffff;fill-opacity:1;stroke:none;stroke-width:0.39687502;stroke-linecap:round;stroke-linejoin:round;stroke-miterlimit:4;stroke-dasharray:none;stroke-opacity:0.99145298"
       id="path1442"
       d="m 13.045588,289.94728 c -0.02922,0.13624 -0.05936,0.27217 -0.09317,0.40743 -0.04246,0.16529 -0.101751,0.32547 -0.161882,0.48495 -0.06275,0.17571 -0.142305,0.34423 -0.229625,0.50886 -0.11857,0.208 -0.238635,0.41525 -0.36359,0.61949 -0.148477,0.24 -0.312831,0.46989 -0.479588,0.69743 -0.179042,0.24403 -0.3717,0.47714 -0.57808,0.69839 -0.199959,0.21368 -0.411556,0.41533 -0.629995,0.60986 -0.203295,0.17911 -0.428062,0.33019 -0.654807,0.47739 -0.036851,0.0219 -0.073421,0.0443 -0.1105524,0.0657 -0.051077,0.0295 -0.4444963,0.26448 -0.6263616,0.35323 -0.1096079,0.0535 -0.2235349,0.0978 -0.3362008,0.14431 -0.2372762,0.0884 -0.4741667,0.17768 -0.7108082,0.26775 -0.2437024,0.0926 -0.4881904,0.18166 -0.7374813,0.25818 -0.2725791,0.0787 -0.5490271,0.14263 -0.8249738,0.20811 -0.2798098,0.0588 -0.5621671,0.10461 -0.8463346,0.13594 -0.2318436,0.0221 -0.4633841,0.0457 -0.6960085,0.0579 -0.1253921,-0.004 -0.2551774,0.0254 -0.3797921,0.006 -0.00828,-0.005 -0.016563,-0.0104 -0.024844,-0.0157 0,0 0.411045,-0.27119 0.411045,-0.27119 v 0 c 0.00461,10e-4 0.00922,0.002 0.013824,0.003 0.1217464,0.007 0.244148,-0.003 0.365882,-0.005 0.230256,-0.0125 0.4596876,-0.0343 0.6891943,-0.0564 0.2826975,-0.033 0.5639922,-0.0783 0.8419812,-0.13974 0.2761332,-0.0656 0.5526498,-0.13048 0.824646,-0.21193 0.2485501,-0.0782 0.4924927,-0.16868 0.7361269,-0.26094 0.2366328,-0.0907 0.4746181,-0.1777 0.7108158,-0.26947 0.1122466,-0.0468 0.2247403,-0.0927 0.3334198,-0.14758 0.1528085,-0.0771 0.3003701,-0.17269 -0.1868456,0.1145 -0.036894,0.0217 0.074352,-0.0425 0.1115282,-0.0638 0.2273985,-0.14633 0.4540692,-0.29467 0.6594577,-0.4715 0.219088,-0.19377 0.432679,-0.39313 0.633037,-0.6065 0.20735,-0.21894 0.401031,-0.44969 0.579544,-0.69291 0.167076,-0.22549 0.329558,-0.45498 0.478825,-0.6927 0.124227,-0.20243 0.24171,-0.40887 0.359991,-0.61482 0.08751,-0.16236 0.16752,-0.32864 0.23035,-0.50228 0.05937,-0.15792 0.119539,-0.31586 0.16274,-0.47918 0.0332,-0.13376 0.06747,-0.26734 0.08612,-0.40409 0,0 0.442417,-0.21194 0.442417,-0.21194 z"
       inkscape:connector-curvature="0" />
    <path
       style="fill:#ffffff;fill-opacity:1;stroke:none;stroke-width:0.39687502;stroke-linecap:round;stroke-linejoin:round;stroke-miterlimit:4;stroke-dasharray:none;stroke-opacity:0.99145298"
       id="path1444"
       d="m 7.1410109,290.22965 c 0.05772,0.14125 0.096728,0.28891 0.1297769,0.43756 0.037509,0.18163 0.064778,0.36476 0.071943,0.55013 0.00419,0.19421 -0.016044,0.38743 -0.046113,0.57897 -0.041542,0.22114 -0.083987,0.442 -0.1432896,0.65914 -0.065086,0.23153 -0.1498783,0.45656 -0.2465684,0.67654 -0.1037717,0.23647 -0.2106279,0.47164 -0.3201437,0.70551 -0.1101913,0.22971 -0.2223416,0.45838 -0.3387405,0.68502 -0.1020279,0.19613 -0.2277322,0.37814 -0.3624771,0.5529 -0.1110361,0.1452 -0.246408,0.2683 -0.3817138,0.39013 -0.1083588,0.0962 -0.2323108,0.17182 -0.3541356,0.24928 -0.071922,0.0454 -0.036448,0.0228 -0.1064315,0.0676 0,0 -0.4524672,0.1763 -0.4524672,0.1763 v 0 c 0.070035,-0.0458 0.034415,-0.0231 0.1068914,-0.068 0.1217023,-0.0781 0.2478485,-0.15057 0.3594085,-0.24326 0.1372989,-0.11951 0.2741064,-0.2415 0.3886996,-0.38358 0.1368883,-0.17208 0.2637531,-0.35225 0.3686596,-0.54588 0.1177933,-0.22607 0.2305132,-0.45455 0.3412463,-0.68413 0.1094936,-0.23316 0.2160051,-0.4678 0.3190476,-0.70386 0.097089,-0.21789 0.1831882,-0.44041 0.2489473,-0.66997 0.060395,-0.21497 0.1014441,-0.43406 0.1433187,-0.65325 0.030793,-0.18847 0.050206,-0.37882 0.048376,-0.57004 -0.00342,-0.18277 -0.032528,-0.36271 -0.068061,-0.54181 -0.032303,-0.14403 -0.069573,-0.28848 -0.1320681,-0.42275 0,0 0.4258937,-0.2425 0.4258937,-0.2425 z"
       inkscape:connector-curvature="0" />
    <path
       style="fill:#b6b6b6;fill-opacity:1;stroke:none;stroke-width:0.1875;stroke-linecap:round;stroke-linejoin:round;stroke-miterlimit:4;stroke-dasharray:none;stroke-opacity:0.99145298"
       d="M 35.78233,23.169124 C 30.817892,22.88123 28.854763,22.800958 26.778572,22.800958 h -2.302554 l 0.121906,-0.320638 c 0.180379,-0.474432 0.147944,-2.247301 -0.06327,-3.458511 C 24.304153,17.700019 23.0832,12.807412 22.652037,11.477779 22.016996,9.5194334 20.795356,7.3771797 19.007275,5.0863766 18.22119,4.0792819 18.211571,4.0577938 18.512996,3.9821409 c 0.541658,-0.1359474 2.23868,0.1479226 3.206834,0.5364242 1.845152,0.7404239 4.419284,1.9221785 5.295688,2.4311898 1.126814,0.6544481 1.271732,0.7613463 4.141812,3.0551951 3.568826,2.852307 4.49439,3.877073 8.283211,9.171008 0.762659,1.065625 1.751107,2.3875 2.196553,2.9375 l 0.8099,1 -0.644831,0.08139 c -0.843884,0.106512 -3.969946,0.09315 -6.019833,-0.02572 z"
       id="path1450"
       inkscape:connector-curvature="0"
       transform="matrix(0.26458334,0,0,0.26458334,0,280.06665)" />
    <path
       style="fill:#b6b6b6;fill-opacity:1;stroke:none;stroke-width:0.1875;stroke-linecap:round;stroke-linejoin:round;stroke-miterlimit:4;stroke-dasharray:none;stroke-opacity:0.99145298"
       d="m 7.1709105,37.925958 c -0.040331,-0.240625 -0.074742,-1.928125 -0.07647,-3.75 C 7.0910905,30.643046 6.9353672,27.195047 6.711481,25.696545 6.636135,25.192244 6.5931275,24.76323 6.615909,24.743181 c 0.07546,-0.06641 6.870417,-0.566783 9.603921,-0.707225 3.02687,-0.155515 14.278615,-0.06169 16.3125,0.136021 2.064413,0.200682 10.009071,0.316559 10.113548,0.147511 0.11044,-0.178696 0.698952,-0.190595 0.698952,-0.01413 0,0.08284 0.101204,0.07511 0.28125,-0.02147 0.349094,-0.187259 1.092586,-0.159525 2.466925,0.09202 1.309361,0.239655 2.880385,0.837934 4.685953,1.78451 5.917161,3.102096 7.013524,3.74653 7.86309,4.621864 0.612097,0.630663 0.567266,0.871135 -0.346047,1.856179 -1.102107,1.188666 -3.801214,2.645623 -5.971124,3.223168 -2.425345,0.64553 -5.367353,0.845795 -8.273387,0.563175 -1.335875,-0.129918 -1.422142,-0.109635 -2.231507,0.524673 -0.458569,0.359384 -0.485129,0.363834 -3.25,0.544431 -1.533209,0.100148 -3.575153,0.239766 -4.537653,0.310265 -0.9625,0.0705 -4.365625,0.180613 -7.5625,0.244699 -3.196875,0.06408 -7.350601,0.178801 -9.230502,0.254924 -1.879901,0.07612 -4.897847,0.120687 -6.706545,0.09903 l -3.2885435,-0.03937 z"
       id="path1452"
       inkscape:connector-curvature="0"
       transform="matrix(0.26458334,0,0,0.26458334,0,280.06665)" />
    <path
       style="fill:#b6b6b6;fill-opacity:1;stroke:none;stroke-width:0.1875;stroke-linecap:round;stroke-linejoin:round;stroke-miterlimit:4;stroke-dasharray:none;stroke-opacity:0.99145298"
       d="m 20.40733,58.579137 c 0.70691,-0.520107 1.926659,-1.833174 2.522679,-2.715679 0.958522,-1.419251 3.373875,-6.550923 3.966823,-8.427935 0.844952,-2.674746 1.092917,-5.463278 0.649957,-7.309187 -0.113785,-0.474166 -0.191712,-0.875169 -0.173171,-0.891115 0.01854,-0.01595 1.299337,-0.09392 2.846212,-0.173276 8.782844,-0.450561 11.969046,-0.747795 12.470966,-1.163391 0.141277,-0.116979 0.802438,-0.160478 2.454942,-0.161513 1.243876,-7.79e-4 2.542842,-0.04408 2.886592,-0.09623 l 0.625,-0.09481 -0.523328,0.273267 c -0.502991,0.262647 -0.531493,0.309972 -0.733476,1.217842 -0.816157,3.668474 -3.975555,8.823216 -7.673771,12.520209 -1.678121,1.677566 -2.986415,2.717965 -4.194425,3.335546 -0.650569,0.332596 -3.374523,1.383471 -5.456443,2.105044 -2.450059,0.849165 -5.868982,1.575222 -8.168557,1.734711 -0.61875,0.04292 -1.321875,0.108707 -1.5625,0.146206 l -0.4375,0.06818 z"
       id="path1454"
       inkscape:connector-curvature="0"
       transform="matrix(0.26458334,0,0,0.26458334,0,280.06665)" />
    <path
       style="fill:#b6b6b6;fill-opacity:1;stroke:none;stroke-width:0.1875;stroke-linecap:round;stroke-linejoin:round;stroke-miterlimit:4;stroke-dasharray:none;stroke-opacity:0.99145298"
       d="m 5.4476047,48.457208 c 0.134639,-0.189063 0.7305285,-0.9625 1.3241988,-1.71875 1.6792434,-2.139113 2.0307369,-3.059601 2.1598703,-5.65625 l 0.07615,-1.53125 2.5122532,0.0085 c 1.767227,0.006 2.435978,0.0455 2.255052,0.133371 -0.178847,0.08686 -0.300903,0.333256 -0.400651,0.808807 -0.435927,2.078296 -3.135849,5.703717 -5.0782059,6.81895 -0.4889183,0.28072 -1.2303639,0.728653 -1.647657,0.995406 -0.4172932,0.266753 -0.9133109,0.485006 -1.1022618,0.485006 h -0.343547 z"
       id="path1456"
       inkscape:connector-curvature="0"
       transform="matrix(0.26458334,0,0,0.26458334,0,280.06665)" />
    <path
       style="fill:#b6b6b6;fill-opacity:1;stroke:none;stroke-width:0.1875;stroke-linecap:round;stroke-linejoin:round;stroke-miterlimit:4;stroke-dasharray:none;stroke-opacity:0.99145298"
       d="m 8.12608,23.280452 0.46875,-0.278633 v -1.642935 c 0,-2.029065 -0.202574,-2.893635 -1.2633523,-5.391887 -0.4211914,-0.991953 -0.7359689,-1.833385 -0.6995053,-1.869848 0.1241883,-0.124188 2.0836939,2.260564 3.6596106,4.453809 1.455944,2.026276 2.29473,3.462073 2.491971,4.265643 0.07784,0.317117 0.05817,0.330677 -0.58534,0.403526 -0.366236,0.04146 -1.284634,0.10696 -2.040884,0.145556 -0.75625,0.0386 -1.628125,0.0979 -1.9375,0.131789 l -0.5625,0.06161 z"
       id="path1458"
       inkscape:connector-curvature="0"
       transform="matrix(0.26458334,0,0,0.26458334,0,280.06665)" />
  </g>
</svg>
