<?xml version="1.0" encoding="UTF-8" standalone="no"?>
<!-- Created with Inkscape (http://www.inkscape.org/) -->

<svg
   xmlns:dc="http://purl.org/dc/elements/1.1/"
   xmlns:cc="http://creativecommons.org/ns#"
   xmlns:rdf="http://www.w3.org/1999/02/22-rdf-syntax-ns#"
   xmlns:svg="http://www.w3.org/2000/svg"
   xmlns="http://www.w3.org/2000/svg"
   xmlns:sodipodi="http://sodipodi.sourceforge.net/DTD/sodipodi-0.dtd"
   xmlns:inkscape="http://www.inkscape.org/namespaces/inkscape"
   width="64"
   height="64"
   viewBox="0 0 16.933333 16.933334"
   version="1.1"
   id="svg8"
   inkscape:version="0.92.5 (2060ec1f9f, 2020-04-08)"
   sodipodi:docname="player.svg">
  <defs
     id="defs2" />
  <sodipodi:namedview
     id="base"
     pagecolor="#000d50"
     bordercolor="#666666"
     borderopacity="1.0"
     inkscape:pageopacity="0"
     inkscape:pageshadow="2"
     inkscape:zoom="11.313708"
     inkscape:cx="15.987855"
     inkscape:cy="34.463157"
     inkscape:document-units="px"
     inkscape:current-layer="layer1"
     showgrid="false"
     units="px"
     inkscape:window-width="1920"
     inkscape:window-height="1027"
     inkscape:window-x="0"
     inkscape:window-y="1080"
     inkscape:window-maximized="1" />
  <metadata
     id="metadata5">
    <rdf:RDF>
      <cc:Work
         rdf:about="">
        <dc:format>image/svg+xml</dc:format>
        <dc:type
           rdf:resource="http://purl.org/dc/dcmitype/StillImage" />
        <dc:title></dc:title>
      </cc:Work>
    </rdf:RDF>
  </metadata>
  <g
     inkscape:label="Layer 1"
     inkscape:groupmode="layer"
     id="layer1"
     transform="translate(0,-280.06665)">
    <path
       style="fill:#ffffff;fill-opacity:0.99572646;stroke:none;stroke-width:0.5291667;stroke-linecap:round;stroke-linejoin:round;stroke-miterlimit:4;stroke-dasharray:none;stroke-opacity:0.97435895"
       id="path5246"
       d="m 16.446039,288.90178 c -0.01437,-0.0549 -0.02325,-0.11127 -0.04204,-0.16491 -0.0091,-0.0294 -0.01858,-0.0582 -0.03131,-0.0862 -0.01546,-0.025 -0.03171,-0.0495 -0.04779,-0.0742 -0.01998,-0.0286 -0.04101,-0.0563 -0.06161,-0.0845 -0.02773,-0.0338 -0.0527,-0.0698 -0.07614,-0.10676 -0.02811,-0.0536 -0.06388,-0.10249 -0.0979,-0.15237 -0.03416,-0.0545 -0.08243,-0.0952 -0.133192,-0.13343 -0.05672,-0.0405 -0.111687,-0.0834 -0.167343,-0.1253 -0.05694,-0.0493 -0.120564,-0.0881 -0.184979,-0.12646 -0.07121,-0.0367 -0.146204,-0.0646 -0.219288,-0.097 -0.07647,-0.0306 -0.151813,-0.0631 -0.229928,-0.0894 -0.08011,-0.0304 -0.161429,-0.0572 -0.242669,-0.0844 -0.09368,-0.0281 -0.189184,-0.049 -0.284181,-0.072 -0.112138,-0.027 -0.22754,-0.0331 -0.342335,-0.0375 -0.124059,-0.003 -0.248178,-0.003 -0.37227,-0.003 -0.124928,-0.008 -0.249798,-0.0151 -0.374895,-0.0192 -0.128047,-0.003 -0.256145,-0.004 -0.384228,-0.004 -0.13857,-2.1e-4 -0.27714,-1.3e-4 -0.41571,-9e-5 -0.135781,1e-5 -0.271563,2.6e-4 -0.407344,2.3e-4 -0.132964,-2e-4 -0.265597,-0.012 -0.398428,-0.0175 -0.136906,-0.005 -0.273919,-0.006 -0.410898,-0.006 -0.140249,-0.004 -0.280088,0.008 -0.420048,0.0147 -0.132701,0.006 -0.265542,0.008 -0.398366,0.009 -0.129589,7.4e-4 -0.258821,0.0125 -0.388297,0.0178 -0.128703,-0.003 -0.257234,-0.0103 -0.3859297,-0.0139 -0.1324423,-0.003 -0.2649308,-0.004 -0.3974058,-0.004 -0.1334492,0.002 -0.2665701,5.6e-4 -0.3997764,-0.007 -0.142013,-0.009 -0.2843007,-0.0129 -0.4265811,-0.0149 -0.1550041,-0.002 -0.3100229,-0.002 -0.4650349,-0.002 -0.1568662,8e-5 -0.3137321,1.3e-4 -0.470598,3.2e-4 -0.1502095,3e-5 -0.3004188,6e-5 -0.4506283,1.6e-4 -0.1481008,-0.008 -0.2961508,-0.0155 -0.4444047,-0.0197 -0.1497023,4.3e-4 -0.2989321,-0.0113 -0.4483638,-0.0185 -0.1453631,-0.007 -0.2908921,-0.008 -0.4363783,-0.008 -0.1373431,-0.004 -0.2738171,-0.0194 -0.4105945,-0.0313 -0.139169,-0.0114 -0.2788319,-0.0137 -0.4183864,-0.0152 -0.1347068,-8.8e-4 -0.2694186,-5.8e-4 -0.4041275,-5.6e-4 -0.1263203,4e-4 -0.2526408,2.9e-4 -0.3789614,4.8e-4 -0.120133,-1.1e-4 -0.2398956,-0.012 -0.3598863,-0.0175 -0.1150146,-7.9e-4 -0.2293278,-0.0133 -0.3440072,-0.0207 -0.1088459,-0.006 -0.2178855,-0.007 -0.3268806,-0.008 -0.1043374,-4.8e-4 -0.2086753,-2.7e-4 -0.3130129,-9e-5 -0.096552,0.004 -0.1924492,-0.008 -0.2885729,-0.0148 -0.093984,-0.003 -0.1870594,-0.0157 -0.2806885,-0.0232 -0.092855,-0.005 -0.1854827,-0.007 -0.2780394,-0.0161 -0.070499,-0.002 -0.1409048,0.003 -0.2113021,0.006 -0.031791,0.002 -0.063605,0.002 -0.095412,0.004 -6.879e-4,2.2e-4 -0.00137,4.3e-4 -0.00206,6.4e-4 0,0 0.2826907,-0.20715 0.2826907,-0.20715 v 0 c 5.98e-4,1.6e-4 0.0012,3.2e-4 0.00179,4.8e-4 0.030712,-1.1e-4 0.061409,-9.8e-4 0.092103,-0.002 0.070572,-0.003 0.1413363,-0.006 0.2118747,-9e-4 0.092309,0.009 0.1850055,0.008 0.2774062,0.016 0.093446,0.008 0.1866268,0.0195 0.2804502,0.0229 0.095423,0.007 0.1907667,0.0167 0.2866303,0.0131 0.1042704,6e-5 0.2085435,-6e-5 0.3128118,6.1e-4 0.1091989,10e-4 0.2184353,0.003 0.3274304,0.0101 0.1144717,0.008 0.2287264,0.0188 0.3435374,0.0203 0.1194525,0.006 0.238801,0.0176 0.3585003,0.0164 0.1260475,1.2e-4 0.2520953,-1.1e-4 0.3781431,9e-5 0.1346676,-1.3e-4 0.2693381,-2.9e-4 0.4040002,0.001 0.140112,0.002 0.2803186,0.005 0.41998,0.0172 0.1361803,0.0122 0.2722867,0.026 0.4091006,0.0289 0.1456108,0.001 0.2912494,0.003 0.4367337,0.01 0.1490538,0.008 0.297986,0.0182 0.44733,0.0184 0.1481881,0.004 0.2961413,0.0131 0.4442749,0.0186 0.1500873,10e-5 0.3001743,1.2e-4 0.4502616,9e-5 0.1566979,1.3e-4 0.3133957,5e-5 0.4700936,6e-5 0.1553803,-1.4e-4 0.310764,-1e-4 0.4661371,0.002 0.1428322,0.002 0.2856519,0.006 0.4282187,0.0154 0.132829,0.007 0.2656594,0.006 0.3986479,0.006 0.132842,2.9e-4 0.2657053,6.1e-4 0.3985033,0.004 0.128121,0.004 0.256192,0.0119 0.384395,0.0119 0.129721,-0.006 0.259304,-0.0171 0.389224,-0.017 0.132228,-10e-4 0.264483,-0.003 0.396574,-0.009 0.140315,-0.007 0.280591,-0.0172 0.421203,-0.0132 0.137403,5.8e-4 0.274841,10e-4 0.412155,0.007 0.132481,0.006 0.264816,0.0177 0.397507,0.0164 0.135626,-5e-5 0.271251,1.8e-4 0.406876,1e-4 0.138721,-7e-5 0.277441,-2e-4 0.416162,-1.4e-4 0.128473,2e-4 0.25698,2.4e-4 0.385398,0.005 0.124832,0.004 0.249397,0.0134 0.374202,0.0183 0.124443,-1.2e-4 0.248935,-4.4e-4 0.373319,0.004 0.116624,0.005 0.233618,0.0136 0.347288,0.042 0.09627,0.0224 0.192766,0.0444 0.287272,0.0735 0.08155,0.0268 0.162436,0.0555 0.243194,0.0846 0.07818,0.028 0.154709,0.0599 0.231421,0.0916 0.07465,0.0321 0.150661,0.0613 0.222133,0.10033 0.06541,0.039 0.128527,0.0806 0.187128,0.12951 0.05582,0.042 0.111555,0.0841 0.168117,0.12509 0.05293,0.0411 0.102851,0.0857 0.139214,0.14275 0.03409,0.0502 0.06966,0.0996 0.09947,0.15258 0.02326,0.0361 0.04829,0.0712 0.07547,0.1044 0.02135,0.0284 0.04289,0.0566 0.06301,0.0859 0.01739,0.0261 0.0349,0.0521 0.05126,0.0789 0.01264,0.0294 0.02387,0.0585 0.03145,0.0897 0.01804,0.0546 0.02622,0.11133 0.04311,0.16629 0,0 -0.304972,0.16623 -0.304972,0.16623 z"
       inkscape:connector-curvature="0" />
    <path
       style="fill:#ffffff;fill-opacity:0.99572646;stroke:none;stroke-width:0.5291667;stroke-linecap:round;stroke-linejoin:round;stroke-miterlimit:4;stroke-dasharray:none;stroke-opacity:0.97435895"
       id="path5248"
       d="m 16.681893,288.73863 c -0.03172,0.0441 -0.05618,0.0927 -0.08538,0.13838 -0.02339,0.0347 -0.04527,0.0703 -0.0655,0.10698 -0.02017,0.0396 -0.04662,0.0754 -0.07097,0.11233 -0.03291,0.0503 -0.07343,0.0948 -0.114317,0.13865 -0.04964,0.0542 -0.100753,0.10682 -0.153223,0.15826 -0.051,0.053 -0.107497,0.0999 -0.163197,0.14771 -0.05084,0.0435 -0.106178,0.0812 -0.162621,0.11691 -0.150508,0.0918 -0.301231,0.18824 -0.462785,0.26054 -0.05608,0.0275 -0.115275,0.0458 -0.17388,0.0665 -0.06073,0.0205 -0.122148,0.0387 -0.183978,0.0556 -0.06282,0.0126 -0.124834,0.0281 -0.188403,0.0369 -0.06514,0.003 -0.129285,0.0129 -0.19397,0.0205 -0.07094,0.006 -0.141679,0.009 -0.212315,0.0187 -0.07688,0.01 -0.154353,0.0126 -0.231753,0.0146 -0.07809,10e-4 -0.156195,10e-4 -0.234292,10e-4 -0.08342,-0.01 -0.166994,-0.0165 -0.250865,-0.0203 -0.09253,-0.005 -0.185322,-1.6e-4 -0.27768,-0.007 -0.09555,-0.0111 -0.191894,-0.0118 -0.28753,-0.0213 -0.100898,-0.01 -0.201898,-0.0167 -0.302687,-0.0277 -0.104056,-0.008 -0.207713,-0.0184 -0.311565,-0.0283 -0.107244,-0.01 -0.214947,-0.0112 -0.322538,-0.0126 -0.112435,0.003 -0.224311,-0.009 -0.33641,-0.0155 -0.117106,-0.005 -0.233993,-0.007 -0.350873,-0.0158 -0.12268,-0.01 -0.245723,-0.013 -0.368734,-0.015 -0.121528,-0.003 -0.243216,0.002 -0.364595,-0.005 -0.119515,-0.01 -0.239259,-0.0147 -0.359097,-0.0175 -0.123353,-0.002 -0.246737,-0.002 -0.370108,-0.003 -0.1267388,0.004 -0.2530252,-0.008 -0.3794481,-0.0147 -0.1219944,-0.002 -0.2433003,-0.0152 -0.364988,-0.023 -0.121453,-0.009 -0.2432259,-0.0169 -0.3643379,-0.0297 -0.123776,-0.0112 -0.2467964,-0.0286 -0.3706855,-0.0386 -0.1343657,-0.0101 -0.2684301,-0.0224 -0.4030845,-0.0285 -0.1398714,-0.005 -0.2798667,-0.006 -0.4198202,-0.006 -0.146703,0.008 -0.2933528,0.0155 -0.4402098,0.0193 -0.1531247,0.0149 -0.3063279,0.0157 -0.4599387,0.0123 -0.1506241,0.003 -0.3011519,0.009 -0.451771,0.0122 -0.1420524,-0.001 -0.2836069,0.006 -0.4253355,0.0145 -0.1404313,0.008 -0.281197,-0.002 -0.4216474,-0.006 -0.1318387,-0.005 -0.2639277,-8.5e-4 -0.3956455,-0.008 -0.1210828,-0.004 -0.2407803,-0.0213 -0.3602588,-0.0401 -0.1126357,-0.0214 -0.2245185,-0.0458 -0.3383761,-0.0598 -0.1074944,-0.0117 -0.2146105,-0.0248 -0.3226173,-0.0312 -0.098341,-0.0141 -0.1978272,-0.017 -0.296335,-0.0288 -0.08977,-0.0141 -0.1809176,-0.0139 -0.2709415,-0.0247 -0.076582,-0.009 -0.1531533,-0.0158 -0.2293932,-0.0276 -0.068673,-0.011 -0.1381845,-0.0142 -0.2075985,-0.016 -0.063506,6.8e-4 -0.1259583,-5.3e-4 -0.1888096,-0.009 -0.053026,-0.008 -0.1065302,-0.0118 -0.1601025,-0.0136 -0.047441,-0.003 -0.093157,-10e-4 -0.1395955,0.008 -0.044815,0.007 -0.089044,0.0109 -0.1327395,0.0232 -0.046302,0.0109 -0.093602,0.019 -0.1387745,0.0341 -0.060018,0.0128 -0.1198122,0.0275 -0.1804216,0.0374 -0.062583,0.006 -0.1241998,0.0159 -0.1862341,0.0255 -0.051532,0.009 -0.1018783,0.0123 -0.1531192,0.002 -0.035542,-0.003 -0.06552,-0.0336 -0.1016739,-0.0273 -0.1155656,0.0281 -0.2715744,0.14334 0.2471658,-0.14784 0.00768,-0.004 -0.014975,0.009 -0.021953,0.0147 -0.00819,0.007 -0.00395,0.007 -0.011646,0.005 0,0 -0.3168136,0.14818 -0.3168136,0.14818 v 0 c -7.487e-4,-0.016 -0.00315,-0.009 0.00603,-0.0209 0.094709,-0.10875 0.2347414,-0.20838 0.3804658,-0.20194 0.034555,0.009 0.06666,0.0261 0.1025326,0.03 0.048668,0.005 0.097284,-0.003 0.1454632,-0.01 0.06165,-0.01 0.1236193,-0.0163 0.1852897,-0.0259 0.060013,-0.0122 0.1202504,-0.0241 0.1792001,-0.0408 0.04672,-0.0116 0.093515,-0.0227 0.1404284,-0.0335 0.044297,-0.009 0.089579,-0.012 0.1339766,-0.0208 0.047716,-0.006 0.095749,-0.004 0.1437481,-0.002 0.053877,0.003 0.107502,0.009 0.1608955,0.0165 0.062047,0.007 0.1243684,0.005 0.1867022,0.007 0.070056,0.003 0.140095,0.008 0.2093163,0.0196 0.075641,0.0111 0.1518717,0.0168 0.2276513,0.0269 0.090143,0.008 0.1806302,0.0128 0.2703629,0.0253 0.098217,0.01 0.1966743,0.0169 0.294749,0.0281 0.1081886,0.008 0.2156666,0.021 0.323387,0.0334 0.1137549,0.0157 0.2257306,0.0409 0.3388315,0.0606 0.1183634,0.0188 0.2372775,0.0332 0.3571539,0.0378 0.1314241,0.005 0.2630318,0.003 0.3944723,0.008 0.139854,0.004 0.2800419,0.0131 0.4198599,0.004 0.1418352,-0.008 0.2836061,-0.0135 0.4257146,-0.0133 0.1507596,-0.003 0.3014525,-0.01 0.4522502,-0.0107 0.153303,0.003 0.3059948,-10e-4 0.4588912,-0.0137 0.1472946,-0.005 0.2943717,-0.0137 0.4416333,-0.019 0.1402939,5e-4 0.2806372,10e-4 0.4208237,0.007 0.1351106,0.007 0.2697327,0.0192 0.4046469,0.0289 0.1239348,0.0109 0.247215,0.0278 0.3711424,0.0389 0.1211776,0.0111 0.2425282,0.0213 0.3639847,0.0286 0.1213898,0.008 0.2425404,0.02 0.3642426,0.0231 0.1260228,0.007 0.2519598,0.0168 0.3783018,0.0133 0.123757,-10e-6 0.247528,5e-5 0.371261,0.003 0.119943,0.004 0.239759,0.01 0.359458,0.0181 0.121133,0.004 0.242388,0.001 0.363569,0.004 0.123484,0.002 0.246961,0.006 0.370101,0.0163 0.117004,0.008 0.23417,0.009 0.351258,0.0151 0.111751,0.007 0.22342,0.0164 0.335519,0.0141 0.108407,10e-4 0.216884,0.004 0.324868,0.0145 0.103826,0.0106 0.207738,0.0191 0.311661,0.0286 0.100693,0.0105 0.201754,0.0165 0.302453,0.027 0.09584,0.007 0.191931,0.0107 0.287614,0.0202 0.09251,0.004 0.1852,0.002 0.277706,0.007 0.08374,0.004 0.167063,0.0134 0.250737,0.0183 0.07791,1.2e-4 0.155833,4e-5 0.233721,-0.002 0.07689,-0.002 0.15374,-0.007 0.230009,-0.0174 0.07074,-0.008 0.141938,-0.01 0.212583,-0.019 0.0645,-0.009 0.129195,-0.0138 0.193778,-0.0216 0.06242,-0.0107 0.124293,-0.025 0.185763,-0.0401 0.0614,-0.0178 0.122626,-0.0361 0.182996,-0.0572 0.05875,-0.0194 0.115805,-0.0433 0.171776,-0.0697 0.02739,-0.0135 0.05489,-0.0268 0.08177,-0.0413 0.0097,-0.005 0.03832,-0.0216 0.02884,-0.016 -0.284482,0.16689 -0.350211,0.21352 -0.240247,0.13721 0.05628,-0.0357 0.112863,-0.0708 0.165116,-0.11239 0.05525,-0.0481 0.113251,-0.0931 0.164211,-0.14589 0.05243,-0.0509 0.104763,-0.10169 0.15288,-0.15662 0.0406,-0.0423 0.08136,-0.0849 0.115519,-0.13273 0.02418,-0.036 0.04787,-0.0722 0.07208,-0.10813 0.01777,-0.0393 0.04127,-0.0749 0.06396,-0.11149 0.03205,-0.0437 0.05619,-0.092 0.08506,-0.13779 0,0 0.318242,-0.13924 0.318242,-0.13924 z"
       inkscape:connector-curvature="0" />
    <path
       style="fill:#ffffff;fill-opacity:0.99572646;stroke:none;stroke-width:0.5291667;stroke-linecap:round;stroke-linejoin:round;stroke-miterlimit:4;stroke-dasharray:none;stroke-opacity:0.97435895"
       id="path5250"
       d="m 1.9183066,287.16675 c -0.052545,-0.04 -0.102654,-0.0816 -0.1492062,-0.12856 -0.048074,-0.0526 -0.1058695,-0.0945 -0.1615424,-0.13841 -0.061897,-0.0422 -0.1176454,-0.0924 -0.1773572,-0.13742 -0.044927,-0.0345 -0.09381,-0.064 -0.1445647,-0.0891 -0.037601,-0.0233 -0.07794,-0.0384 -0.1212969,-0.0459 -0.029385,0.003 -0.053403,-0.0139 -0.080531,-0.021 -0.014671,-0.005 -0.029979,-0.005 -0.045229,-0.005 -0.010926,2.4e-4 -0.021863,9.5e-4 -0.032793,7.9e-4 -0.0109997,1.7e-4 -0.0219956,-2e-5 -0.0329957,5e-5 -0.0105069,-0.0109 -0.0205015,-0.007 -0.031657,0.001 -0.0500991,0.10959 0.3299183,-0.29038 0.2863282,-0.15921 -0.010372,0.0237 -0.025099,0.0446 -0.035123,0.0686 -0.021501,0.0429 -0.035914,0.0884 -0.051208,0.13368 -0.018166,0.0515 -0.041008,0.10115 -0.060254,0.15227 -0.022439,0.0576 -0.041229,0.11575 -0.051636,0.17676 -0.00766,0.0613 -0.019639,0.12181 -0.026585,0.1832 -0.005332,0.058 -0.006226,0.11624 -0.006757,0.17442 -1.8738e-4,0.0527 1.4107e-4,0.10543 3.1221e-4,0.15814 5.371e-4,0.0363 4.2333e-4,0.0726 8.6783e-4,0.10882 -1.6298e-4,0.0284 1.5391e-4,0.0567 7.8e-5,0.085 0.001334,0.0216 -0.001725,0.0436 7.2496e-4,0.0651 0.00432,0.002 0.0119967,0.043 0.005381,0.0338 0.00318,-6.9e-4 0.043954,0.0892 -0.0032,-0.006 0.00171,-0.001 0.00342,-0.002 0.00502,-0.004 -0.006677,-0.016 0.016571,0.0196 0.016253,0.0321 -6.2e-6,10e-4 9.208e-4,0.005 -1.87e-5,0.004 -0.0019,-0.002 -0.00335,-0.01 -0.00152,-0.008 0.00605,0.006 0.010538,0.0159 0.015528,0.0231 0.011802,0.0199 0.027208,0.0368 0.039168,0.0567 0.00755,0.0125 0.010409,0.0258 0.021021,0.0361 0.00742,0.003 0.014679,0.0163 0.015584,0.0179 0.010208,0.0127 0.017414,0.0267 0.030461,0.0372 0.00984,0.007 0.019842,0.0146 0.031113,0.0194 0.00621,-0.002 -0.01783,-0.0375 0.013006,0.021 -0.00101,0.005 -2.088e-4,0.01 -5.556e-4,0.0146 -0.011708,-0.0192 -0.00744,-0.0168 0.00607,-0.0168 0.00384,2.9e-4 0.00194,-9.5e-4 0.00268,-0.002 0.010307,0.0143 0.020028,0.0334 0.011356,0.0561 -0.014059,0.0242 -0.02786,0.0484 -0.040386,0.0737 -0.014321,0.0419 -0.035639,0.0809 -0.051851,0.12204 -0.018875,0.0488 -0.033818,0.0989 -0.052327,0.14785 -0.020153,0.0524 -0.035699,0.10643 -0.052536,0.15995 -0.0158747,0.0537 -0.0325587,0.10737 -0.0452503,0.16197 -0.009811,0.0514 -0.022729,0.10187 -0.0296315,0.1538 -0.006667,0.0598 -0.007249,0.12017 -0.007617,0.18033 1.2467e-4,0.056 -2.067e-5,0.11194 1.2639e-4,0.16791 -0.001947,0.0484 3.9952e-4,0.0957 0.009734,0.14321 0.00285,0.0264 0.0150828,0.0491 0.0251997,0.073 0.005679,0.013 0.007503,0.0262 0.0178731,0.0363 0.007952,0.0129 0.0139584,0.0267 0.0175228,0.0414 8.2815e-4,0.0148 3.3603e-4,0.009 0.0112028,0.0265 0.00722,0.0147 0.01559,0.0288 0.023418,0.0433 0.00472,0.013 0.01031,0.0224 0.020882,0.0312 0.00799,0.0179 0.011819,0.022 0.021472,0.036 0.00608,0.0104 0.013684,0.0193 0.021842,0.0281 0.00736,0.006 0.013724,0.0162 0.016416,0.0213 0.005,0.004 0.010341,0.008 0.016121,0.0111 3.863e-4,-0.0182 0.016951,0.005 0.02235,0.0131 0.00755,-4.5e-4 0.014871,0.01 0.021379,0.005 0.010276,-7.1e-4 0.020575,-10e-4 0.030874,-10e-4 0.01346,-4e-5 0.026916,-1.1e-4 0.040376,-1.3e-4 0.013648,-2e-4 0.027294,9e-5 0.040942,9e-5 0.00341,3e-5 0.00703,0.001 0.010223,9e-5 0.00304,-10e-4 0.00438,-0.005 0.00714,-0.007 0.013454,-0.008 0.03025,-0.0106 0.045384,-0.0138 0.022878,-0.002 0.0459,-0.004 0.068907,-0.003 0.011342,-0.003 0.027976,0.005 0.038758,1.2e-4 0.00564,-0.003 0.00896,-0.009 0.01394,-0.0122 0.1035787,-0.0543 0.2148317,-0.12204 -0.2718528,0.15693 -0.00388,0.002 0.011068,-0.005 0.018547,-0.0159 0.020273,-0.0129 0.041373,-0.0237 0.05902,-0.0402 0.022981,-0.0115 0.039548,-0.0312 0.058362,-0.048 0.1027625,-0.0897 0.2158444,-0.13054 0.3489564,-0.20491 0.0031,-5.3e-4 0.012005,-0.003 0.00929,-0.002 -0.096909,0.0559 -0.1944474,0.11078 -0.2923442,0.16496 -0.00522,0.003 0.00791,-0.009 0.013096,-0.0122 0.1031329,-0.0588 0.2046094,-0.12071 0.3101242,-0.17512 0.099275,-0.0512 -0.1942595,0.1103 -0.2913892,0.16546 0.1027776,-0.0592 0.2054094,-0.11866 0.308333,-0.1776 0.00748,-0.004 0.030967,-0.0151 0.023503,-0.0108 -0.3347618,0.19321 -0.3874165,0.22473 -0.2846596,0.16334 0.018161,-0.007 0.023551,-0.0232 0.033333,-0.0392 0.013032,-0.02 0.022692,-0.0432 0.030033,-0.066 0.010242,-0.0361 0.010567,-0.0738 0.017513,-0.11058 0.00899,-0.0441 0.016182,-0.0887 0.014899,-0.13378 -0.00663,-0.0556 -0.012854,-0.11106 -0.016107,-0.16695 -0.00178,-0.0634 -0.012982,-0.12604 -0.019449,-0.18909 -0.00698,-0.0579 -0.02414,-0.11375 -0.038827,-0.17003 -0.00825,-0.0404 -0.022952,-0.079 -0.031285,-0.11939 -0.011329,-0.0307 -0.018784,-0.0624 -0.027757,-0.0938 -0.00961,-0.0303 -0.022395,-0.0595 -0.032662,-0.0896 -0.012898,-0.0336 -0.033803,-0.0627 -0.052458,-0.0931 -0.014916,-0.027 -0.037216,-0.0484 -0.056262,-0.0724 -0.018531,-0.0162 -0.035628,-0.034 -0.054752,-0.0495 -0.011406,-0.0126 -0.02764,-0.0142 -0.037954,-0.024 -0.00968,-0.01 -0.00489,-0.004 -0.01343,-0.0182 0,0 0.3022328,-0.17526 0.3022328,-0.17526 v 0 c 0.00258,0.004 8.281e-4,0.002 0.00583,0.005 0.014485,4.5e-4 0.027504,0.0215 0.039381,0.0279 0.019565,0.0181 0.040226,0.0351 0.057966,0.0551 0.019506,0.0251 0.042881,0.0475 0.05738,0.0762 0.020288,0.0326 0.042287,0.0641 0.056682,0.0999 0.00996,0.0304 0.024065,0.0592 0.033006,0.09 0.01103,0.0321 0.015785,0.0662 0.029562,0.0975 0.00693,0.0403 0.02175,0.0783 0.029438,0.11833 0.013317,0.0584 0.031902,0.11548 0.040293,0.17493 0.0056,0.0636 0.017225,0.1265 0.020307,0.19023 0.00281,0.0556 0.00798,0.11092 0.016719,0.16589 0.00526,0.0475 -0.00194,0.0952 -0.010475,0.14203 -0.00787,0.0375 -0.010611,0.0747 -0.01517,0.11277 -0.00682,0.0262 -0.016342,0.0496 -0.02494,0.0748 -0.00533,0.008 -0.012665,0.0161 -0.016792,0.0245 -0.00312,0.006 -0.00239,0.0143 -0.00573,0.0206 -0.00126,0.002 -0.00398,0.004 -0.00597,0.005 -0.02218,0.0205 -0.7945004,0.45889 -0.04611,0.0283 -1.0135446,0.57777 0.7055584,-0.40687 -0.3500953,0.19795 0.096449,-0.0557 0.1928983,-0.11137 0.2893474,-0.16706 -0.014011,0.008 -0.030322,0.0154 -0.038094,0.0302 -0.02306,0.0129 -0.038664,0.0323 -0.057722,0.0499 -0.022283,0.008 -0.034887,0.0322 -0.058594,0.0395 -0.013616,0.002 -0.00859,0.009 -0.019325,0.0154 -0.080127,0.0475 -0.2135196,0.13808 -0.3267946,0.18717 -0.01976,0.004 -0.040517,-10e-4 -0.060695,0.001 -0.021561,10e-4 -0.043341,0.003 -0.064016,0.009 -0.022959,0.007 -0.043657,0.0178 -0.068393,0.0136 -0.0137126,0 -0.0274227,2.9e-4 -0.0411348,1.5e-4 -0.0135408,5e-5 -0.0270801,1.3e-4 -0.0406218,1.4e-4 -0.0118338,-2.9e-4 -0.0237567,-6.6e-4 -0.0350749,-0.005 -0.0125534,-0.007 -0.0255868,-0.0142 -0.0350528,-0.0256 0.00468,0.0148 -0.0113025,0.001 -0.0168156,-0.003 -0.007563,-0.006 -0.0151241,-0.013 -0.0213574,-0.0208 -0.009187,-0.0136 -0.001511,-0.004 -0.0148204,-0.0191 -0.008828,-0.0101 -0.0174723,-0.0202 -0.0240035,-0.032 -0.006847,-0.01 -0.0159073,-0.0181 -0.0183348,-0.0301 -0.011221,-0.0122 -0.0210968,-0.0252 -0.0260988,-0.041 -0.00707,-0.014 -0.0158147,-0.0271 -0.022448,-0.041 -0.007482,-0.0124 -0.0197445,-0.0243 -0.0185473,-0.0394 0.001556,-0.008 -0.003787,-0.0166 -0.007136,-0.0234 -0.0115522,-0.0144 -0.0187195,-0.0292 -0.0231307,-0.0469 -0.0102098,-0.0264 -0.025124,-0.0507 -0.027032,-0.0797 -0.009596,-0.0497 -0.0151731,-0.0989 -0.0116562,-0.14968 -6.14e-6,-0.0561 -4.8683e-4,-0.11221 5.297e-5,-0.16832 4.7625e-4,-0.0612 6.2707e-4,-0.12254 0.005465,-0.18364 0.005809,-0.0531 0.0167304,-0.10459 0.0280212,-0.15659 0.0112892,-0.0561 0.0300858,-0.11005 0.0436607,-0.1656 0.0194908,-0.0531 0.0332726,-0.10825 0.0514782,-0.16182 0.0211664,-0.0475 0.0336361,-0.0978 0.0529584,-0.14604 0.0132064,-0.0433 0.0367834,-0.0809 0.0497813,-0.12425 0.006252,-0.0158 0.0161338,-0.0468 0.0265333,-0.0598 0.001987,-0.002 0.005863,-0.003 0.007592,-0.006 0.00199,-0.003 0.001995,-0.007 0.002993,-0.0106 0.0209815,-0.0236 -0.010519,0.009 0.0102203,-0.005 0.00232,-0.002 -0.002106,-0.0105 -3.2809e-4,-0.008 0.005701,0.007 0.0234352,0.0332 0.015136,0.0223 -0.001839,-0.002 -0.003434,-0.003 -0.005999,-0.003 -0.0160922,-0.004 -0.0238159,-0.009 -0.0322693,-0.0263 -2.7781e-4,-0.005 5.9002e-4,-0.0108 -1.0578e-4,-0.0163 0.0266948,0.0396 0.0149521,0.0188 0.006157,0.0124 -0.0117872,-0.008 -0.0235021,-0.017 -0.0341331,-0.0269 -0.0124918,-0.0128 -0.0227415,-0.0268 -0.0337351,-0.0407 -0.0195077,-0.0281 0.0115229,0.0139 -0.0145378,-0.0165 -0.0107966,-0.0131 -0.0178149,-0.0269 -0.0239916,-0.0425 -0.0110101,-0.019 -0.0263549,-0.0351 -0.0377082,-0.0539 -0.008519,-0.0114 -0.0233344,-0.0241 -0.0254182,-0.038 -3.863e-4,-0.0195 0.0274645,0.0324 0.0149172,0.0191 -0.003157,-9e-4 -0.006419,-0.002 -0.009436,-0.003 -0.0733258,-0.12205 0.0212897,0.0291 -0.0133281,-0.0204 -0.0169106,-0.0277 -2.884e-4,-0.0212 -0.009957,-0.0437 -0.008589,-0.0238 -0.004074,-0.0492 -0.004867,-0.0743 -7.527e-5,-0.0284 2.4419e-4,-0.0567 6.615e-5,-0.0851 4.1539e-4,-0.0365 2.5466e-4,-0.0731 6.7204e-4,-0.10957 1.741e-5,-0.0529 4.554e-5,-0.10585 2.7517e-4,-0.15877 2.9368e-4,-0.0592 7.9639e-4,-0.1184 0.005658,-0.17742 0.005353,-0.0622 0.0177591,-0.12321 0.0259363,-0.185 0.008879,-0.0631 0.0241459,-0.12357 0.0480023,-0.1827 0.0185986,-0.0511 0.0390905,-0.10113 0.0606165,-0.15108 0.0148212,-0.046 0.0282845,-0.0923 0.0478682,-0.13635 0.0114337,-0.0228 0.0166711,-0.0485 0.0343388,-0.0677 0.0621422,-0.10601 0.19161923,-0.23213 0.30985373,-0.19829 0.01201,9.8e-4 0.025985,0.007 0.035855,0.005 0.010981,3e-5 0.021958,-2.1e-4 0.03294,-1.8e-4 0.011462,-2.7e-4 0.022967,3.1e-4 0.034372,0.001 0.016918,0.002 0.033467,0.006 0.049402,0.0124 0.025249,0.01 0.050787,0.0147 0.077617,0.0186 0.044327,0.0119 0.085286,0.0315 0.1251038,0.0543 0.051326,0.0278 0.1015025,0.0581 0.1469212,0.095 0.058504,0.0466 0.1155271,0.0951 0.1768976,0.13804 0.056816,0.0447 0.1153632,0.0879 0.164543,0.14138 0.045344,0.0452 0.093815,0.0862 0.147266,0.12166 0,0 -0.2925412,0.18731 -0.2925412,0.18731 z"
       inkscape:connector-curvature="0" />
    <path
       style="fill:#ffffff;fill-opacity:0.99572646;stroke:none;stroke-width:0.5291667;stroke-linecap:round;stroke-linejoin:round;stroke-miterlimit:4;stroke-dasharray:none;stroke-opacity:0.97435895"
       id="path5252"
       d="m 1.5369665,288.0485 c 0.00948,-0.004 0.019085,-0.007 0.028428,-0.0108 0.042344,-0.0178 0.072057,-0.0361 0.067396,-0.0334 -0.4546132,0.2597 -0.2917677,0.18026 -0.1963896,0.096 0.066807,-0.0598 0.10903,-0.13641 0.1470051,-0.21611 0.040117,-0.0878 0.061088,-0.18215 0.082943,-0.27568 0.014986,-0.0613 0.022192,-0.12386 0.025864,-0.18673 -0.00138,-0.0418 -0.010736,-0.0829 -0.017423,-0.12408 -0.00545,-0.0217 -0.014748,-0.048 -0.034812,-0.0601 -0.011497,-0.0117 -0.022783,-0.0236 -0.033452,-0.036 -0.00646,-0.008 -0.00139,-10e-4 -0.00869,-0.0235 0,0 0.3187808,-0.1446 0.3187808,-0.1446 v 0 c -0.00363,-0.005 -0.00725,-0.009 -0.010879,-0.0136 3.942e-4,5.2e-4 7.911e-4,10e-4 0.00119,0.002 0.00878,0.0113 0.018371,0.0221 0.029141,0.0316 0.022474,0.0229 0.038321,0.0511 0.046577,0.0822 0.00543,0.0437 0.014629,0.0869 0.018543,0.13083 -0.00215,0.0653 -0.00983,0.13014 -0.025411,0.19368 -0.022719,0.0952 -0.043515,0.1913 -0.080474,0.28223 -0.037257,0.082 -0.07507,0.16386 -0.141114,0.22746 -0.133266,0.13782 -0.3132967,0.22626 -0.4924297,0.29089 0,0 0.2752118,-0.2119 0.2752118,-0.2119 z"
       inkscape:connector-curvature="0" />
    <path
       style="fill:#ffffff;fill-opacity:0.99572646;stroke:none;stroke-width:0.5291667;stroke-linecap:round;stroke-linejoin:round;stroke-miterlimit:4;stroke-dasharray:none;stroke-opacity:0.97435895"
       id="path5254"
       d="m 13.073782,288.14509 c -0.07107,-10e-4 -0.142155,-7.6e-4 -0.213229,-4.7e-4 -0.059,-8e-5 -0.117991,1.6e-4 -0.176986,2.9e-4 -0.05581,-0.004 -0.109976,0.01 -0.165105,0.0157 -0.05479,0.01 -0.107261,0.0274 -0.16109,0.0407 -0.04717,0.0177 -0.09583,0.0298 -0.141555,0.0513 -0.105248,0.0594 -0.259404,0.14493 0.230238,-0.13267 0.0067,-0.004 -0.01287,0.008 -0.01931,0.0124 -0.0266,0.0171 -0.01324,0.008 -0.03991,0.0267 -0.0349,0.0265 -0.06934,0.0536 -0.101657,0.0832 -0.03733,0.0298 -0.06677,0.0674 -0.09563,0.10507 -0.03245,0.0422 -0.05891,0.0884 -0.08432,0.13501 -0.01932,0.0379 -0.03717,0.0766 -0.05457,0.11543 -0.01018,0.0167 -0.0077,0.0293 4.5e-4,0.0462 0.01608,0.0226 0.03336,0.0449 0.05209,0.0654 0.0222,0.0315 0.05503,0.0521 0.08271,0.0783 0.03073,0.0294 0.06875,0.0458 0.106038,0.0644 0.04289,0.0141 0.08417,0.032 0.126076,0.0488 0.04891,0.0189 0.09878,0.0342 0.149055,0.0491 0.05416,0.0189 0.11104,0.0274 0.166148,0.0425 0.05082,0.0128 0.102047,0.0256 0.151269,0.0437 0.04962,0.0183 0.102651,0.0229 0.155024,0.0261 0.04862,0.002 0.09731,0.002 0.14596,0.002 0.04682,-1.6e-4 0.09363,-2.6e-4 0.140447,-3.2e-4 0.04331,1.1e-4 0.08661,-2.3e-4 0.129917,-2.4e-4 0.04041,-0.0174 0.08323,-0.001 0.124684,-0.009 0.03783,-0.008 0.07642,-0.0112 0.11495,-0.0133 0.03322,-10e-4 0.06646,-0.002 0.09971,-0.002 0.02994,-0.002 0.05734,-0.0156 0.08774,-0.0194 0.0058,-4.5e-4 0.0117,5e-5 0.01732,-0.001 0.01037,-0.003 0.01954,-0.009 0.0298,-0.0118 0.01839,-0.005 0.03724,-0.007 0.05617,-0.01 0.03917,-0.0103 0.07556,-0.0276 0.114537,-0.0382 0.03745,-0.0126 0.07506,-0.025 0.111234,-0.0413 0.03521,-0.0113 0.07041,-0.0233 0.103883,-0.0393 0.0096,-0.008 0.02278,-0.008 0.0335,-0.014 0.0049,-0.003 0.01811,-0.0127 0.01329,-0.01 -0.455479,0.25842 -0.35353,0.21196 -0.251632,0.14076 0.0297,-0.025 0.06161,-0.047 0.0885,-0.0751 0.0309,-0.0276 0.0578,-0.059 0.08054,-0.0936 0.0211,-0.0272 0.03107,-0.0583 0.0392,-0.0912 0.01119,-0.0336 0.01847,-0.0682 0.02211,-0.10339 0.0013,-0.0252 0.0061,-0.0512 -0.0012,-0.0758 -0.0071,-0.0265 -0.02622,-0.047 -0.04239,-0.0685 -0.02489,-0.028 -0.05438,-0.051 -0.08268,-0.0754 -0.03578,-0.0254 -0.07306,-0.0484 -0.114092,-0.0642 -0.04472,-0.0194 -0.09078,-0.0369 -0.137829,-0.05 -0.05031,-0.0144 -0.100791,-0.0258 -0.152915,-0.0318 -0.05538,-0.008 -0.111718,-0.0156 -0.16655,-0.0277 -0.06517,-0.0119 -0.129256,-0.0281 -0.194819,-0.038 -0.06033,-0.004 -0.119479,-0.0127 -0.179109,-0.0221 -0.04848,-0.008 -0.09754,-0.009 -0.146504,-0.0102 -0.0212,10e-4 -0.0405,-2.5e-4 -0.06106,-0.005 0,0 0.284106,-0.20003 0.284106,-0.20003 v 0 c 0.01937,0.001 0.03872,0.001 0.05811,0.002 0.04977,0.002 0.09949,0.006 0.148587,0.0143 0.05931,0.01 0.118952,0.0146 0.178476,0.0227 0.06545,0.0117 0.13017,0.0271 0.195652,0.0387 0.05519,0.009 0.110355,0.019 0.165907,0.0258 0.05303,0.008 0.104928,0.021 0.156434,0.0361 0.04742,0.0155 0.09448,0.0325 0.139984,0.0531 0.04262,0.0197 0.0834,0.0436 0.120413,0.0727 0.0304,0.0256 0.06076,0.0512 0.08678,0.0814 0.01898,0.0242 0.04014,0.0483 0.04905,0.0783 0.01023,0.0295 0.01061,0.0577 0.0073,0.0888 -0.0033,0.0371 -0.0079,0.074 -0.01928,0.10957 -0.01207,0.0334 -0.01214,0.0713 -0.03567,0.10027 -0.02254,0.0358 -0.0451,0.0725 -0.07723,0.10076 -0.02886,0.026 -0.05303,0.0573 -0.08757,0.0772 -0.01562,0.0159 -0.01065,0.0129 -0.02962,0.0242 -0.128837,0.0764 -0.23061,0.15256 -0.360478,0.20469 -0.03483,0.0127 -0.06907,0.0267 -0.103951,0.0393 -0.03716,0.0142 -0.07489,0.0271 -0.11296,0.0387 -0.03855,0.0137 -0.07712,0.0282 -0.117798,0.0343 -0.03474,0.007 -0.06794,0.0199 -0.103331,0.0239 -0.03025,0.008 -0.05969,0.0177 -0.09149,0.0143 -0.03267,2.6e-4 -0.06538,5.6e-4 -0.09797,0.003 -0.03835,0.003 -0.07633,0.009 -0.114604,0.0133 -0.0426,-7.1e-4 -0.0841,0.001 -0.126294,0.007 -0.04312,0 -0.08624,-3.2e-4 -0.129355,-1.2e-4 -0.04681,8e-5 -0.09363,2.3e-4 -0.140439,2.4e-4 -0.04908,-1.3e-4 -0.09824,-2.6e-4 -0.147194,-0.004 -0.05442,-0.005 -0.10874,-0.0135 -0.160115,-0.0331 -0.04935,-0.0154 -0.09892,-0.0299 -0.149231,-0.0418 -0.05616,-0.0129 -0.112057,-0.0264 -0.167035,-0.0438 -0.05098,-0.0157 -0.101995,-0.031 -0.151409,-0.0514 -0.0424,-0.0175 -0.08593,-0.032 -0.127969,-0.0503 -0.04035,-0.0192 -0.078,-0.0429 -0.111305,-0.0729 -0.02925,-0.0261 -0.06217,-0.0485 -0.08513,-0.0809 -0.02004,-0.0232 -0.04071,-0.0463 -0.05727,-0.0722 -0.01225,-0.0223 -0.02256,-0.0497 -0.01445,-0.0748 0.01854,-0.0397 0.0384,-0.0784 0.05533,-0.11875 0.02666,-0.0471 0.05082,-0.0955 0.08224,-0.13977 0.02967,-0.0382 0.05645,-0.0784 0.09193,-0.11176 0.03525,-0.0265 0.06494,-0.0598 0.101416,-0.0851 0.128068,-0.10179 0.27621,-0.1778 0.423124,-0.24907 0.04753,-0.0176 0.09582,-0.0331 0.14443,-0.0474 0.05387,-0.015 0.108026,-0.0291 0.163536,-0.0367 0.05579,-0.008 0.111397,-0.0158 0.167956,-0.0125 0.05873,1.3e-4 0.117455,3.7e-4 0.176182,2.9e-4 0.07152,2.9e-4 0.143043,8.4e-4 0.21455,-4.8e-4 0,0 -0.280725,0.20396 -0.280725,0.20396 z"
       inkscape:connector-curvature="0" />
    <path
       style="fill:#ffffff;fill-opacity:0.99572646;stroke:none;stroke-width:0.5291667;stroke-linecap:round;stroke-linejoin:round;stroke-miterlimit:4;stroke-dasharray:none;stroke-opacity:0.97435895"
       id="path5256"
       d="m 3.2112157,287.21274 c -0.00809,-0.0822 -0.02436,-0.16317 -0.033596,-0.24525 -0.015666,-0.0991 -0.023434,-0.19914 -0.033619,-0.2989 -0.011779,-0.1303 -0.026114,-0.26037 -0.042783,-0.39013 -0.013549,-0.11816 -0.030581,-0.23589 -0.047017,-0.35368 -0.01632,-0.14069 -0.028175,-0.28185 -0.036116,-0.42325 -0.010713,-0.1779 -0.027195,-0.35534 -0.052006,-0.53183 -0.019624,-0.16401 -0.056121,-0.32501 -0.097605,-0.48465 -0.036173,-0.15317 -0.075175,-0.30557 -0.1162843,-0.45748 -0.034391,-0.15067 -0.076603,-0.29933 -0.1149826,-0.44897 -0.035043,-0.13786 -0.071171,-0.27547 -0.1078864,-0.4129 -0.035946,-0.12104 -0.075726,-0.24094 -0.1152024,-0.36088 -0.037619,-0.10721 -0.066386,-0.21718 -0.1006335,-0.32544 -0.030038,-0.0922 -0.053461,-0.18608 -0.075813,-0.28032 -0.018912,-0.0693 -0.03837,-0.13856 -0.056464,-0.20814 -0.01457,-0.0575 -0.031746,-0.11425 -0.04755,-0.17142 -0.017005,-0.0538 -0.028053,-0.10914 -0.04276,-0.16358 -0.012441,-0.0406 -0.026113,-0.0811 -0.043096,-0.12004 -0.015501,-0.037 -0.029797,-0.0744 -0.046504,-0.1109 -0.015826,-0.0405 -0.026964,-0.0826 -0.040603,-0.12389 -0.018169,-0.0529 -0.035846,-0.10588 -0.051925,-0.15941 -0.013534,-0.0558 -0.03144,-0.11029 -0.054126,-0.16297 -0.020644,-0.0471 -0.037496,-0.0957 -0.055416,-0.1439 -0.013939,-0.0385 -0.023703,-0.0781 -0.041336,-0.11517 -0.00417,-0.009 -0.00868,-0.0169 -0.014247,-0.0245 0.055447,0.10002 0.1949796,-0.18367 0.3198836,-0.19085 0.021391,-4.4e-4 0.04279,-3.3e-4 0.064185,-2.9e-4 0.021117,-0.002 0.04352,0.003 0.064514,9e-5 0.011491,-0.002 0.022305,-0.007 0.033599,-0.009 0.043683,-0.007 0.086628,-0.0118 0.1296738,-0.0217 0.05502,-0.006 0.1075553,-0.0227 0.1623325,-0.03 0.060047,-0.009 0.1193304,-0.0213 0.180037,-0.0266 0.06047,-0.005 0.1211525,-0.005 0.1817741,-0.005 0.06188,0.003 0.1226973,-0.009 0.1839658,-0.0155 0.059111,-0.005 0.1184349,-0.007 0.177741,-0.008 0.05512,0.002 0.1089589,6.7e-4 0.1631871,-0.009 0.048055,-0.009 0.096846,-0.0121 0.1456163,-0.0138 0.045898,-0.003 0.087678,-0.002 0.1323155,0.008 0.031995,0.008 0.064491,0.0116 0.097258,0.0135 0.021841,6.9e-4 0.043701,6.9e-4 0.065547,2.2e-4 0.014192,-0.006 0.027261,0.018 0.032496,7.8e-4 -0.00225,-0.01 0.00904,-0.002 0.019272,-0.002 0.014065,-0.003 0.016584,0.017 0.02327,0.0221 0.013594,0.002 0.027369,0.003 0.041345,0.003 0.030234,2.4e-4 0.060468,2.1e-4 0.090703,2.7e-4 0.0056,-3e-5 0.011277,8e-4 0.016806,-10e-5 0.00524,-8.6e-4 0.00982,-0.004 0.015071,-0.005 0.024008,-0.003 0.052027,0.002 0.076242,0.003 0.035714,0.002 0.071463,0.002 0.1072055,0.002 0.038946,-0.004 0.075266,0.0106 0.1132093,0.0169 0.039202,0.008 0.079896,0.0168 0.1176531,0.0305 0.044008,0.0157 0.087341,0.0333 0.1312982,0.0493 0.040897,0.0171 0.083241,0.0308 0.1220491,0.0525 0.043856,0.0214 0.08591,0.0459 0.1265198,0.0729 0.04061,0.0256 0.084957,0.0448 0.125285,0.0707 0.040649,0.033 0.08257,0.0644 0.1224891,0.0984 0.045266,0.0393 0.082129,0.0872 0.1218708,0.13185 0.043053,0.0479 0.088205,0.0938 0.1334301,0.13958 0.04842,0.0451 0.084862,0.10054 0.1243812,0.15311 0.050308,0.0623 0.1024062,0.12316 0.1581613,0.18063 0.058409,0.0531 0.1069597,0.11562 0.1626317,0.17136 0.059403,0.0573 0.1173443,0.11601 0.1764094,0.17363 0.062169,0.0585 0.1293061,0.11132 0.1930818,0.16808 0.068687,0.0563 0.1354047,0.11485 0.2044276,0.17074 0.073792,0.0609 0.1487028,0.12018 0.2199217,0.18414 0.076455,0.069 0.1510975,0.13971 0.2234277,0.21305 0.076323,0.083 0.1488456,0.16953 0.2291905,0.24876 0.081239,0.0811 0.1667182,0.15785 0.2470116,0.23987 0.078123,0.0772 0.1540645,0.15698 0.2265791,0.23952 0.075611,0.0767 0.1426858,0.16051 0.2078294,0.246 0.065355,0.0896 0.1253083,0.18314 0.1844996,0.27691 0.064208,0.0936 0.1230114,0.19054 0.180899,0.28807 0.062376,0.0994 0.1250762,0.19865 0.1923945,0.29484 0.064182,0.10155 0.1293825,0.20234 0.196915,0.30171 0.067203,0.0962 0.1379948,0.18978 0.2076083,0.28422 0.066524,0.0926 0.1305861,0.18681 0.1946867,0.28106 0.056726,0.0842 0.1170303,0.16586 0.1780877,0.24698 0.053718,0.0735 0.1121272,0.14354 0.167831,0.21561 0.051775,0.0719 0.099842,0.14647 0.1476174,0.22108 0.044008,0.0745 0.091869,0.14653 0.1402448,0.21825 0.035783,0.059 0.074937,0.11585 0.1092721,0.17572 0.02829,0.0417 0.06003,0.0809 0.088596,0.12242 0.025532,0.038 0.053138,0.0743 0.079636,0.11157 0.023516,0.0313 0.051606,0.0588 0.073772,0.0912 0.021937,0.0268 0.041407,0.0556 0.063168,0.0826 0.01792,0.018 0.032331,0.0392 0.04943,0.0577 0.01706,0.0218 0.03027,0.0464 0.04726,0.0681 0.01375,0.018 0.02765,0.0356 0.0409,0.054 0.01657,0.0199 0.02842,0.043 0.04624,0.0619 0.01769,0.0241 0.0359,0.0477 0.05576,0.07 0.02046,0.0288 0.03569,0.0607 0.05822,0.088 0.0177,0.0224 0.02966,0.0479 0.04902,0.069 0.0109,0.0129 0.01637,0.01 0.01329,-0.007 0,0 -0.273379,0.21841 -0.273379,0.21841 v 0 c -0.01488,-0.009 -0.02905,-0.0168 -0.039,-0.0316 -0.018026,-0.0225 -0.031141,-0.0478 -0.048493,-0.0708 -0.021198,-0.0276 -0.037712,-0.058 -0.057839,-0.0864 -0.019373,-0.0226 -0.037728,-0.046 -0.055646,-0.0697 -0.017545,-0.0207 -0.031773,-0.0436 -0.048754,-0.0647 -0.012951,-0.0182 -0.026764,-0.0356 -0.039955,-0.0537 -0.015775,-0.0216 -0.029597,-0.0447 -0.046116,-0.0658 -0.016534,-0.0198 -0.033202,-0.0394 -0.049732,-0.0592 -0.022106,-0.0277 -0.04148,-0.0575 -0.064021,-0.0849 -0.022498,-0.0319 -0.050317,-0.0595 -0.073318,-0.091 -0.026486,-0.0374 -0.053367,-0.0745 -0.079065,-0.11243 -0.029266,-0.0422 -0.062291,-0.0819 -0.089624,-0.12543 -0.033131,-0.0595 -0.071425,-0.11581 -0.1060831,-0.1744 -0.048634,-0.0719 -0.095575,-0.14477 -0.140362,-0.21912 -0.047405,-0.0737 -0.094419,-0.1478 -0.1461346,-0.21857 -0.055393,-0.0725 -0.1141249,-0.14242 -0.1675879,-0.21635 -0.060549,-0.082 -0.1213919,-0.16386 -0.1774804,-0.24907 -0.063804,-0.0939 -0.1276803,-0.18776 -0.1937856,-0.28009 -0.069758,-0.0949 -0.1408446,-0.18878 -0.2081443,-0.28545 -0.067189,-0.0994 -0.1321377,-0.20015 -0.1967598,-0.30121 -0.067816,-0.0969 -0.1305462,-0.19703 -0.1935874,-0.29705 -0.057987,-0.0971 -0.1171538,-0.19357 -0.1810131,-0.28699 -0.058558,-0.0929 -0.1181301,-0.18552 -0.1829438,-0.27423 -0.065061,-0.0846 -0.1322191,-0.16732 -0.206847,-0.24385 -0.072311,-0.0819 -0.1475285,-0.16131 -0.2249773,-0.23832 -0.080521,-0.0816 -0.1658932,-0.15833 -0.2469645,-0.23941 -0.079849,-0.0799 -0.1527051,-0.16606 -0.2294842,-0.24882 -0.072558,-0.0722 -0.1472642,-0.14206 -0.2232155,-0.21073 -0.071528,-0.063 -0.1459288,-0.12232 -0.2198584,-0.18243 -0.069053,-0.0566 -0.1365822,-0.11495 -0.205372,-0.17186 -0.064287,-0.0569 -0.1321181,-0.10979 -0.1938436,-0.16952 -0.05924,-0.0578 -0.1180414,-0.11603 -0.1773944,-0.17372 -0.05525,-0.0563 -0.1046091,-0.11814 -0.1624311,-0.17201 -0.056429,-0.0588 -0.1097314,-0.12056 -0.1614757,-0.18355 -0.03863,-0.0513 -0.075155,-0.10478 -0.1221764,-0.14904 -0.045634,-0.0462 -0.091169,-0.0926 -0.1346616,-0.1409 -0.038728,-0.0434 -0.074785,-0.0899 -0.1195612,-0.12733 -0.039281,-0.0323 -0.079599,-0.0635 -0.1205172,-0.0936 -0.04161,-0.0243 -0.08517,-0.0453 -0.1257824,-0.0714 -0.040326,-0.0255 -0.081318,-0.0497 -0.1245124,-0.0701 -0.039026,-0.0183 -0.079832,-0.0328 -0.1196882,-0.0491 -0.043339,-0.0165 -0.086692,-0.0333 -0.1308481,-0.0474 -0.038227,-0.01 -0.076056,-0.0218 -0.1153494,-0.0269 -0.036549,-0.007 -0.072362,-0.0152 -0.1100124,-0.0119 -0.035896,-4.7e-4 -0.071778,-0.002 -0.1076513,-0.003 -0.036122,-0.001 -0.07137,0.003 -0.1073843,0.003 -0.031111,1.1e-4 -0.062286,5.4e-4 -0.093342,-0.002 -0.019955,-0.003 -0.039372,-0.008 -0.05486,-0.0215 -0.034159,-0.0348 0.015674,0.004 -0.00751,0.002 -0.014057,0.002 -0.00758,0.01 -0.017552,0.004 -0.016756,-0.008 -0.016626,-0.008 -0.035352,-0.006 -0.022183,-5.6e-4 -0.044399,-9e-4 -0.06649,-0.003 -0.033161,-0.004 -0.065851,-0.0104 -0.098515,-0.0172 -0.041966,-0.007 -0.084585,-0.003 -0.1268984,-0.002 -0.048024,0.003 -0.095766,0.008 -0.1431955,0.0164 -0.055083,0.007 -0.1104373,0.004 -0.1658217,0.005 -0.058496,10e-4 -0.1170565,0.003 -0.175209,0.01 -0.061939,0.007 -0.1237086,0.0156 -0.1862833,0.0127 -0.059887,5.5e-4 -0.1198651,0.002 -0.1794792,0.008 -0.060101,0.008 -0.1192847,0.02 -0.1792567,0.0284 -0.05405,0.0104 -0.10765,0.0229 -0.1619614,0.032 -0.04326,0.009 -0.087502,0.0114 -0.1304573,0.022 -0.034091,0.006 -0.068535,0.004 -0.103024,0.004 -0.021745,2.5e-4 -0.043485,7.1e-4 -0.065231,8.6e-4 -0.1449029,-0.008 0.2018953,-0.29487 0.2651009,-0.19259 0.00582,0.0101 0.01078,0.0206 0.015509,0.0312 0.016704,0.0385 0.027902,0.0782 0.040868,0.11799 0.018253,0.0475 0.033893,0.096 0.054228,0.14266 0.023552,0.0537 0.042098,0.10963 0.055683,0.16674 0.016016,0.053 0.033563,0.10556 0.052299,0.15769 0.014189,0.0399 0.024858,0.081 0.039573,0.12065 0.016646,0.0368 0.031413,0.0743 0.046793,0.11163 0.017149,0.0407 0.032615,0.0824 0.044536,0.1249 0.014505,0.0545 0.024987,0.10997 0.042723,0.16362 0.014898,0.0577 0.032312,0.1146 0.047228,0.17226 0.016792,0.0703 0.036543,0.1398 0.054756,0.2097 0.021305,0.0937 0.043795,0.1871 0.073254,0.27867 0.034199,0.10824 0.061298,0.21867 0.099383,0.32571 0.039459,0.12069 0.078536,0.24156 0.1148207,0.36323 0.036933,0.13761 0.071778,0.27578 0.1072245,0.41377 0.037507,0.14974 0.080331,0.29815 0.1138137,0.44891 0.041791,0.15185 0.08113,0.30432 0.1164831,0.45782 0.041996,0.16096 0.079095,0.32323 0.097894,0.4888 0.025731,0.17707 0.041691,0.35524 0.054471,0.53369 0.00861,0.14004 0.02259,0.27956 0.038496,0.41894 0.016587,0.11802 0.033333,0.23606 0.046442,0.35453 0.015957,0.12997 0.030693,0.2601 0.0436,0.39041 0.011081,0.0993 0.02036,0.1988 0.036361,0.29745 0.00835,0.0817 0.022625,0.16228 0.036214,0.2432 0,0 -0.3071662,0.16135 -0.3071662,0.16135 z"
       inkscape:connector-curvature="0" />
    <path
       style="fill:#ffffff;fill-opacity:0.99572646;stroke:none;stroke-width:0.5291667;stroke-linecap:round;stroke-linejoin:round;stroke-miterlimit:4;stroke-dasharray:none;stroke-opacity:0.97435895"
       id="path5258"
       d="m 3.6875808,289.57819 c 0.00891,0.0971 0.013483,0.1945 0.016407,0.29196 0.00183,0.12856 -0.00752,0.25729 -0.017436,0.38543 -0.010366,0.15212 -0.027621,0.30354 -0.045487,0.45491 -0.022297,0.16512 -0.042943,0.33049 -0.069984,0.49491 -0.026893,0.15911 -0.045467,0.31938 -0.064974,0.47949 -0.015335,0.13419 -0.028614,0.26863 -0.041404,0.40309 -0.010041,0.11678 -0.011478,0.23393 -0.020902,0.35073 -0.00921,0.10326 -0.013406,0.20684 -0.015687,0.31045 -5.821e-4,0.0949 -0.01197,0.1892 -0.017984,0.2838 -0.012211,0.0981 -0.018592,0.19682 -0.028138,0.2952 -0.011438,0.10087 -0.029079,0.20098 -0.04566,0.30111 -0.019661,0.10201 -0.037799,0.20436 -0.053783,0.30702 -0.011327,0.084 -0.026625,0.16728 -0.03475,0.25169 -0.01039,0.0732 -0.020794,0.14624 -0.026048,0.22001 -6.086e-4,0.0677 -0.010515,0.13454 -0.018026,0.20165 -0.00949,0.069 -0.022185,0.1373 -0.039997,0.20458 -0.019143,0.066 -0.039572,0.13165 -0.058454,0.19777 -0.020198,0.0686 -0.041917,0.1367 -0.064607,0.2045 -0.021003,0.0636 -0.045908,0.12571 -0.069573,0.18831 -0.025998,0.0653 -0.047646,0.13207 -0.067073,0.1996 -0.018201,0.0661 -0.033243,0.13296 -0.049835,0.19944 -0.010194,0.0493 -0.028608,0.096 -0.043051,0.14401 -0.010716,0.0377 -0.024397,0.0744 -0.040372,0.11011 -0.00631,0.0149 -0.011234,0.0302 -0.016203,0.0456 -0.00289,0.002 -0.0033,-0.002 -0.00301,0.005 6.614e-4,0.005 0.00209,0.009 0.00201,0.014 -6.59e-5,0.004 -0.0046,0.0129 -0.00855,0.0147 -0.3208384,0.14677 -0.2529183,0.24029 -0.3238955,0.13786 -0.063056,-0.10893 0.1104997,-0.0744 0.3050035,-0.16821 0.00439,-0.002 0.00734,0.018 0.00468,0.0139 -0.00172,-0.003 -0.00241,-0.006 -0.00361,-0.009 -9.63e-5,-0.002 -0.00177,-0.005 -2.91e-4,-0.005 0.00217,4.5e-4 0.00585,0.004 0.00401,0.005 -0.1006081,0.0673 -0.2021391,0.24687 -0.3091573,0.19036 0.099217,-0.0668 0.1984345,-0.13354 0.2976519,-0.2003 0.00588,-4.5e-4 0.013343,10e-4 0.018352,-0.002 -0.00697,-0.0144 0.011345,0.0211 0.01724,0.0316 0.00196,0.003 -0.00401,-0.007 -0.0053,-0.0107 -9.789e-4,-0.003 0.0059,0.004 0.00871,0.003 0.012345,0.002 0.024913,0.001 0.037429,0.001 0.0086,-4.5e-4 0.017198,-5.5e-4 0.025802,-7.7e-4 0.020283,-0.003 0.027782,0.004 0.045302,0.0126 0.02114,0.0102 0.045016,0.01 0.067975,0.0109 0.036729,-0.002 0.071314,0.003 0.1070287,0.0102 0.04916,0.008 0.096655,0.0217 0.1459767,0.0292 0.050526,0.0154 0.1021985,0.0246 0.1547543,0.0288 0.054247,-0.001 0.1067424,0.007 0.1600163,0.016 0.046917,0.007 0.094408,0.009 0.1417979,0.01 0.046623,6.3e-4 0.093253,4.8e-4 0.1398799,4e-4 0.048068,-0.004 0.094488,0.009 0.1417479,0.0161 0.047749,0.002 0.093419,0.0161 0.140507,0.0233 0.046933,0.008 0.092599,0.0203 0.1400492,0.026 0.047699,9.5e-4 0.093478,0.0143 0.1404927,0.0211 0.03842,0.005 0.077151,0.006 0.1158576,0.007 0.019812,-2e-5 0.039627,-2.1e-4 0.059437,-5.8e-4 0.00524,-8e-5 0.010478,-2.5e-4 0.015708,-5.5e-4 0.010803,6.1e-4 0.021661,4.5e-4 0.032486,5.8e-4 0.020757,-0.002 0.043656,0.005 0.061822,-0.006 0.00337,-0.002 0.00633,-0.005 0.010112,-0.005 0.014108,-0.002 0.059426,0.007 0.077301,0.009 0.037915,-0.0115 0.077629,-0.0148 0.1169696,-0.0176 0.049681,-0.006 0.098821,-0.0163 0.149057,-0.0211 0.05496,-0.002 0.1084003,-0.0141 0.1628863,-0.0208 0.051378,-0.006 0.1031078,-0.007 0.1547653,-0.008 0.047118,-3.4e-4 0.094238,-1.8e-4 0.1413571,-1.1e-4 0.040265,-1.5e-4 0.080533,6e-5 0.1207977,-1.7e-4 0.028666,-1.3e-4 0.057332,-1.1e-4 0.085997,-2.9e-4 0.027903,-0.005 0.042556,0.007 0.066943,0.0157 0.016002,0.006 0.033048,0.008 0.050181,0.008 0.019873,-0.006 0.039905,0.0331 0.027932,0.004 0.00303,0.006 0.015785,0.0259 0.026932,0.0193 0.012753,6e-5 0.025487,-3.2e-4 0.038249,-4.2e-4 0.010007,-3e-5 0.02001,-2.1e-4 0.030009,-6.1e-4 0.00451,-3.2e-4 0.00902,1.5e-4 0.013571,1.5e-4 0.00487,-1e-5 0.00972,-1.9e-4 0.014584,-1e-5 0.013063,7e-5 0.026125,2.6e-4 0.039188,2.6e-4 0.027672,0.002 0.050114,-0.0156 0.075341,-0.0256 0.00623,-0.003 0.012298,-0.007 0.018693,-0.0104 0.014102,-0.007 0.055874,-0.0287 0.042256,-0.0209 -0.921552,0.52989 0.690345,-0.3988 -0.2281714,0.13029 0.054027,-0.0334 0.1030364,-0.0743 0.1527349,-0.11373 0.071777,-0.0551 0.1334469,-0.12032 0.1911589,-0.18958 0.069541,-0.0895 0.1377376,-0.17991 0.2075,-0.26921 0.076083,-0.10057 0.1626849,-0.19228 0.2473732,-0.28547 0.097233,-0.10795 0.1896835,-0.22002 0.2854431,-0.32926 0.1020159,-0.1191 0.1999081,-0.24157 0.3029588,-0.35978 0.1084585,-0.12106 0.2066465,-0.25061 0.2989284,-0.38426 0.099645,-0.14942 0.1911778,-0.30408 0.2830652,-0.45834 0.09134,-0.15845 0.1861757,-0.31482 0.2803827,-0.47157 0.094415,-0.16009 0.1965635,-0.31537 0.2949488,-0.473 0.1013465,-0.16215 0.1925746,-0.32997 0.2796238,-0.50011 0.081892,-0.16082 0.1645801,-0.32133 0.242043,-0.48435 0.06531,-0.13308 0.1282398,-0.26724 0.1877147,-0.40303 0.048645,-0.11202 0.1061972,-0.21994 0.1612353,-0.32891 0.046479,-0.0945 0.094917,-0.1879 0.145366,-0.28031 0.039618,-0.0728 0.078628,-0.14569 0.1196697,-0.21767 0.03385,-0.0613 0.064026,-0.12449 0.092681,-0.18832 0.029372,-0.0622 0.05916,-0.12401 0.091321,-0.18479 0.02349,-0.0424 0.048742,-0.0839 0.075586,-0.12422 0.021751,-0.0355 0.047878,-0.0677 0.07326,-0.10063 0.019701,-0.0212 0.032619,-0.047 0.048301,-0.071 0.00566,-0.0136 0.015907,-0.0274 0.016298,-0.0426 -0.00209,-0.01 -0.00101,-0.002 0.00676,-0.0218 0,0 0.3247853,-0.1264 0.3247853,-0.1264 v 0 c -0.0051,-0.001 -0.01013,-0.003 -0.01519,-0.004 -4.76e-4,-1.4e-4 -9.52e-4,-2.9e-4 -0.0014,-4.2e-4 -0.0065,0.0161 -0.0019,0.0371 -0.01364,0.0522 -0.011,0.0276 -0.02971,0.0535 -0.04626,0.0778 -0.02628,0.032 -0.05374,0.0632 -0.07442,0.0991 -0.02926,0.0384 -0.0529,0.0806 -0.07879,0.12122 -0.03385,0.0596 -0.063032,0.12125 -0.093011,0.18271 -0.029487,0.0641 -0.057186,0.1291 -0.091849,0.19068 -0.038436,0.0738 -0.084086,0.1441 -0.1215406,0.21855 -0.050636,0.0925 -0.1011518,0.18502 -0.1471761,0.27996 -0.055335,0.10881 -0.112844,0.21671 -0.1633276,0.32783 -0.060312,0.13652 -0.1231627,0.27181 -0.1901785,0.4052 -0.077429,0.16375 -0.1609389,0.32459 -0.2432428,0.48593 -0.086575,0.17103 -0.1774643,0.33962 -0.2784401,0.50269 -0.097478,0.15785 -0.2000822,0.31247 -0.2944215,0.47225 -0.094363,0.15666 -0.189643,0.31278 -0.2805491,0.47148 -0.091949,0.15434 -0.1830644,0.30932 -0.2812918,0.45977 -0.090578,0.13521 -0.1883156,0.26567 -0.2962531,0.38762 -0.1038064,0.11747 -0.2018755,0.23965 -0.3027511,0.35961 -0.09514,0.10921 -0.1880116,0.22027 -0.283663,0.32903 -0.083177,0.0935 -0.1711841,0.18295 -0.2471169,0.28272 -0.069163,0.0895 -0.1389372,0.17841 -0.2059495,0.26954 -0.056771,0.0702 -0.1145276,0.13889 -0.1859259,0.19502 -0.049084,0.0402 -0.098927,0.0796 -0.1497476,0.11757 -0.1064357,0.0617 -0.2132263,0.12288 -0.3193068,0.18524 -0.090752,0.0533 0.3649218,-0.21008 0.2733204,-0.15821 -0.1069102,0.0605 -0.2125311,0.12334 -0.3192492,0.18422 -0.020169,0.0115 -0.042534,0.0195 -0.063462,0.0295 -0.02791,0.0118 -0.054493,0.0189 -0.084943,0.0159 -0.013314,0 -0.026624,2e-4 -0.039936,2.7e-4 -0.00484,1.6e-4 -0.00967,2e-5 -0.01451,-10e-6 -0.00458,10e-6 -0.00911,4.2e-4 -0.013666,2.5e-4 -0.00987,-2.6e-4 -0.019741,-4e-4 -0.029611,-5.8e-4 -0.014756,-4.8e-4 -0.029708,-0.001 -0.043646,-0.007 -0.00859,-0.005 -0.044112,-0.0347 -0.018299,-0.006 -0.018756,-0.0186 -0.00977,-0.0109 -0.032561,-0.0125 -0.019055,-0.003 -0.037467,-0.008 -0.055255,-0.0161 -0.019624,-0.008 -0.038588,-0.006 -0.059698,-0.006 -0.028403,-1.8e-4 -0.056808,-1.5e-4 -0.085212,-3.2e-4 -0.040013,-2.7e-4 -0.080028,-1.3e-4 -0.1200407,-4.2e-4 -0.046954,-6e-5 -0.093912,-2.2e-4 -0.140861,5.8e-4 -0.050737,10e-4 -0.1015185,0.003 -0.151833,0.0104 -0.054403,0.008 -0.1084622,0.0175 -0.1634725,0.0202 -0.050227,0.006 -0.099572,0.0181 -0.1501836,0.021 -0.040448,0.004 -0.080607,0.0146 -0.1213186,0.0135 -0.028207,-0.002 -0.054829,-0.005 -0.081516,0.005 -0.022349,-4.8e-4 -0.044696,-2.9e-4 -0.067048,-2.2e-4 -0.01111,1.4e-4 -0.022254,-3e-5 -0.033342,6.1e-4 -0.00501,-1.8e-4 -0.010028,-2.6e-4 -0.015044,-3.1e-4 -0.019571,-1.9e-4 -0.03914,-3.5e-4 -0.058697,-0.001 -0.039372,-0.002 -0.078667,-0.005 -0.1175629,-0.0112 -0.046588,-0.008 -0.092867,-0.0172 -0.1401405,-0.0206 -0.047155,-0.008 -0.093213,-0.0204 -0.1405853,-0.0268 -0.046586,-0.009 -0.092796,-0.0188 -0.1401236,-0.0228 -0.046082,-0.007 -0.091852,-0.0153 -0.1387859,-0.0118 -0.046834,10e-6 -0.093679,1.2e-4 -0.1404969,-0.001 -0.048274,-0.002 -0.096517,-0.005 -0.1441511,-0.0138 -0.052638,-0.009 -0.1053394,-0.0115 -0.1585468,-0.0145 -0.052872,-0.006 -0.1042271,-0.0189 -0.1560415,-0.0308 -0.04923,-0.009 -0.097736,-0.0215 -0.1472499,-0.0291 -0.034975,-0.006 -0.070189,-0.004 -0.1054319,-0.006 -0.026151,-0.003 -0.051387,-0.008 -0.075162,-0.0195 -0.011967,-0.004 -0.024728,6.7e-4 -0.038186,-5.5e-4 -0.00897,-1e-4 -0.017984,9e-5 -0.026891,-0.001 -0.01566,-0.002 -0.031205,-0.004 -0.044977,-0.0127 -0.019245,-0.0154 -0.048851,-0.0653 -0.011073,-0.008 -0.1096307,-0.0356 -0.4189235,0.30256 0.2553234,-0.20438 0.068415,-0.006 -0.2400294,0.24275 -0.2810277,0.19246 -0.072755,-0.10875 0.2711354,-0.25923 0.2932429,-0.1983 0.059707,0.10469 0.00352,0.003 -0.3045809,0.16488 -0.00414,0.002 0.00973,-0.004 0.013886,-0.002 0.00292,0.002 0.00499,0.004 0.00748,0.006 -2.4e-6,-0.005 -0.00302,-0.01 -0.00178,-0.0146 0.0044,-0.017 0.011044,-0.0334 0.016821,-0.05 0.013385,-0.0358 0.031948,-0.0695 0.042854,-0.10642 0.011738,-0.0495 0.034778,-0.0948 0.044682,-0.14488 0.019286,-0.0661 0.03202,-0.134 0.049964,-0.20047 0.020745,-0.0675 0.038365,-0.13596 0.065651,-0.20136 0.02259,-0.0629 0.049241,-0.12413 0.070297,-0.18755 0.022712,-0.0673 0.044844,-0.13475 0.065542,-0.20273 0.017322,-0.0667 0.03896,-0.13197 0.058112,-0.1981 0.020193,-0.0651 0.031264,-0.13209 0.04277,-0.19919 0.00642,-0.0669 0.018487,-0.1332 0.018614,-0.2006 0.00491,-0.0742 0.013348,-0.14788 0.026289,-0.22112 0.00793,-0.0854 0.022627,-0.16952 0.035137,-0.2543 0.016603,-0.10274 0.034114,-0.20539 0.054257,-0.30748 0.016364,-0.0996 0.033485,-0.19912 0.046353,-0.29919 0.010954,-0.0977 0.013827,-0.19622 0.02824,-0.2936 0.00553,-0.0943 0.017155,-0.18828 0.018883,-0.28275 0.00228,-0.10442 0.00652,-0.2088 0.015952,-0.31285 0.0096,-0.11716 0.012599,-0.23452 0.021971,-0.3517 0.012274,-0.13519 0.02705,-0.27019 0.042816,-0.40499 0.020614,-0.1606 0.03818,-0.32165 0.065629,-0.48131 0.027391,-0.16375 0.047497,-0.32852 0.069758,-0.49303 0.017661,-0.15079 0.034897,-0.30162 0.044922,-0.45316 0.010044,-0.12656 0.017238,-0.25392 0.016481,-0.38084 -0.00279,-0.0959 -0.00631,-0.19206 -0.019508,-0.28721 0,0 0.3069696,-0.16072 0.3069696,-0.16072 z"
       inkscape:connector-curvature="0" />
    <path
       style="fill:#ffffff;fill-opacity:0.99572646;stroke:none;stroke-width:0.5291667;stroke-linecap:round;stroke-linejoin:round;stroke-miterlimit:4;stroke-dasharray:none;stroke-opacity:0.97435895"
       id="path5260"
       d="m 12.477206,287.37307 c 0.02026,-0.0709 0.03464,-0.14352 0.04857,-0.21592 0.0134,-0.0765 0.01631,-0.15409 0.02509,-0.23112 0.01254,-0.1039 0.0155,-0.20858 0.01793,-0.3131 0.0057,-0.12024 -0.0049,-0.24008 -0.012,-0.35998 -0.01138,-0.0978 -0.01956,-0.19601 -0.0318,-0.29369 -0.0098,-0.0785 -0.02073,-0.1568 -0.03361,-0.23489 -0.0077,-0.0631 -0.02325,-0.12483 -0.03249,-0.18772 -0.0059,-0.0386 -0.0049,-0.0777 -0.01366,-0.1158 -0.009,-0.0345 -0.01308,-0.0699 -0.02155,-0.10454 -0.0053,-0.0321 -0.01983,-0.0611 -0.03063,-0.0914 -0.0061,-0.0244 -0.01243,-0.048 -0.02107,-0.0716 -0.0075,-0.0183 -0.0116,-0.0375 -0.01472,-0.057 -0.0017,-0.0103 -0.0016,-0.0207 -0.002,-0.0311 1.68e-4,-0.008 2.64e-4,-0.0155 1.52e-4,-0.0233 -2.9e-5,-0.007 1.87e-4,-0.0136 1.03e-4,-0.0204 -2.6e-5,-0.003 -1.4e-4,-0.006 -2.46e-4,-0.009 9.2e-5,-0.0122 -0.0034,-0.0218 0.0041,-0.0326 0.09334,-0.10916 0.242213,-0.22821 0.358322,-0.14779 0.03503,0.0182 0.06727,0.041 0.101256,0.0611 0.05309,0.0346 0.105794,0.07 0.152402,0.11311 0.07189,0.0622 0.130611,0.13747 0.192167,0.20946 0.08523,0.0944 0.161159,0.19655 0.239971,0.29621 0.09383,0.11472 0.173276,0.23983 0.253684,0.364 0.0637,0.0983 0.125918,0.19744 0.194177,0.29265 0.05237,0.0672 0.09979,0.13788 0.149327,0.20709 0.03297,0.0487 0.06497,0.0981 0.09798,0.14683 0.02202,0.0356 0.03882,0.0743 0.06484,0.10727 0.01916,0.0283 0.03577,0.0588 0.05062,0.0896 0.01294,0.026 0.02576,0.0511 0.03399,0.0792 0.0109,0.0264 0.01616,0.055 0.03068,0.0798 0.01269,0.0205 0.0166,0.0444 0.02682,0.066 0.01127,0.0202 0.02583,0.038 0.0388,0.0571 0.01354,0.0227 0.02465,0.0472 0.03542,0.0714 0.0076,0.0184 0.01957,0.0349 0.03007,0.0519 0.0025,0.004 0.005,0.008 0.0076,0.0122 0,0 -0.30411,0.17453 -0.30411,0.17453 v 0 c -0.002,-0.004 -0.0039,-0.008 -0.0061,-0.0118 -0.01034,-0.0187 -0.02337,-0.0362 -0.03117,-0.056 -0.0095,-0.0223 -0.02044,-0.0443 -0.03193,-0.0655 -0.01452,-0.0202 -0.0302,-0.0399 -0.04193,-0.0619 -0.01009,-0.021 -0.01505,-0.0431 -0.02547,-0.0639 -0.01536,-0.0279 -0.02235,-0.0583 -0.03482,-0.0875 -0.0064,-0.0266 -0.01917,-0.0492 -0.03077,-0.0738 -0.01335,-0.0289 -0.02882,-0.0573 -0.04648,-0.0837 -0.02522,-0.0345 -0.04392,-0.0728 -0.0651,-0.10974 -0.03158,-0.0492 -0.06416,-0.0977 -0.09586,-0.14679 -0.04864,-0.0697 -0.09496,-0.14099 -0.146906,-0.20836 -0.06801,-0.096 -0.128942,-0.19646 -0.191932,-0.2958 -0.07939,-0.12355 -0.158171,-0.24785 -0.252476,-0.36086 -0.07889,-0.0992 -0.155818,-0.2001 -0.241234,-0.29381 -0.06146,-0.0705 -0.120603,-0.14377 -0.192664,-0.20399 -0.04665,-0.0403 -0.09821,-0.0742 -0.150582,-0.10656 -0.03345,-0.0206 -0.06704,-0.0409 -0.102132,-0.0585 -0.0084,-0.003 -0.01929,-0.009 -0.02815,-0.009 -0.0015,2e-5 -0.0053,0.003 -0.004,0.002 0.296638,-0.16678 0.404209,-0.19541 0.291209,-0.16497 -0.0099,0.002 -0.01901,-0.01 -0.01707,0.002 -1.04e-4,0.003 -2.16e-4,0.006 -2.45e-4,0.009 -8.4e-5,0.007 1.46e-4,0.0136 6.1e-5,0.0205 -1.82e-4,0.008 -1.31e-4,0.0156 -1.34e-4,0.0234 -4.23e-4,0.009 -6.08e-4,0.0184 -4.23e-4,0.0276 0.0011,0.0172 0.0035,0.0342 0.0099,0.0504 0.0085,0.024 0.01785,0.0469 0.02117,0.0723 0.01014,0.0316 0.02633,0.061 0.0311,0.0943 0.0091,0.0347 0.01465,0.0695 0.02211,0.10452 0.0103,0.0396 0.01087,0.0791 0.01392,0.11986 0.0078,0.0631 0.02283,0.12477 0.03075,0.18778 0.01186,0.0787 0.02417,0.15716 0.03309,0.23626 0.01311,0.0986 0.01752,0.19838 0.03039,0.29711 0.0071,0.12065 0.01808,0.24128 0.01328,0.36227 -0.0013,0.105 -0.0035,0.21013 -0.01393,0.31471 -0.0087,0.0777 -0.01193,0.15576 -0.02341,0.23315 -0.01355,0.0728 -0.0294,0.14499 -0.04444,0.21744 0,0 -0.313748,0.14901 -0.313748,0.14901 z"
       inkscape:connector-curvature="0" />
    <path
       style="fill:#ffffff;fill-opacity:0.99572646;stroke:none;stroke-width:0.5291667;stroke-linecap:round;stroke-linejoin:round;stroke-miterlimit:4;stroke-dasharray:none;stroke-opacity:0.97435895"
       id="path5262"
       d="m 12.76148,289.94925 c 0.01681,0.10927 0.02795,0.21906 0.03453,0.3294 0.0065,0.1367 0.0067,0.27359 0.0071,0.41041 5.03e-4,0.12154 3.97e-4,0.24308 0.0013,0.36461 2.55e-4,0.0799 0.0011,0.15974 0.0011,0.23961 1.35e-4,0.0531 3.71e-4,0.10624 0.0012,0.15935 0.0028,0.0318 -0.0077,0.0616 -0.0151,0.092 -0.0095,0.0374 -0.02179,0.0742 -0.03542,0.11038 -0.01113,0.0373 -0.02094,0.0751 -0.03088,0.1128 -0.005,0.0189 -0.0091,0.0382 -0.01079,0.0576 -4.23e-4,0.006 -3.97e-4,0.0125 -4.76e-4,0.0188 1.93e-4,0.0115 3.2e-5,0.023 -1.57e-4,0.0346 0.0028,0.0204 -0.0055,0.0371 -0.01336,0.0551 -0.0055,0.0221 -0.01649,-0.0234 -0.01851,-0.0283 0,0 -0.272408,0.21995 -0.272408,0.21995 v 0 c -0.01204,-0.0103 -0.03892,-0.0293 -0.02743,-0.047 0.0047,-0.009 0.0085,-0.0224 0.01505,-0.0298 0.0013,-0.001 0.0046,-6.9e-4 0.0055,-0.003 0.0013,-0.003 -4e-6,-0.006 -5e-6,-0.009 -2.07e-4,-0.0109 -3.44e-4,-0.0219 -4.24e-4,-0.0328 -4.5e-4,-0.007 -1.87e-4,-0.0147 -1.2e-5,-0.0221 6.09e-4,-0.022 0.0038,-0.0435 0.0088,-0.065 0.01114,-0.0382 0.02281,-0.0761 0.03029,-0.11521 0.0118,-0.0354 0.02604,-0.0698 0.03685,-0.10555 0.0048,-0.0293 0.01745,-0.0568 0.01879,-0.0861 8.46e-4,-0.0535 0.0011,-0.10707 0.0012,-0.1606 5.5e-5,-0.0803 9.52e-4,-0.1606 0.0013,-0.2409 0.0011,-0.12198 0.0014,-0.24396 0.0016,-0.36594 -3.97e-4,-0.13609 -5.82e-4,-0.27224 -0.0072,-0.4082 -0.0066,-0.10873 -0.01502,-0.21783 -0.03968,-0.32422 0,0 0.307166,-0.16135 0.307166,-0.16135 z"
       inkscape:connector-curvature="0" />
    <path
       style="fill:#fdfdfd;fill-opacity:0.99572647;stroke:none;stroke-width:0.5291667;stroke-linecap:round;stroke-linejoin:round;stroke-miterlimit:4;stroke-dasharray:none;stroke-opacity:0.97435895"
       id="path5264"
       d="m 14.533721,289.976 c -0.0206,0.0734 -0.0427,0.14602 -0.07336,0.21585 -0.03679,0.0774 -0.0832,0.14965 -0.133007,0.21922 -0.06534,0.079 -0.124017,0.16302 -0.182376,0.24724 -0.05718,0.0922 -0.124862,0.17688 -0.189067,0.26407 -0.06154,0.0842 -0.125618,0.16637 -0.189546,0.24869 -0.06274,0.0771 -0.121829,0.15698 -0.183186,0.23514 -0.0534,0.0722 -0.111468,0.14027 -0.173226,0.20539 -0.04374,0.046 -0.08951,0.0902 -0.138203,0.13098 -0.03613,0.0281 -0.07381,0.0542 -0.110804,0.0812 -0.04231,0.0285 -0.07836,0.0653 -0.113005,0.1025 -0.03606,0.0397 -0.06519,0.0846 -0.0968,0.12771 -0.01757,0.021 -0.03305,0.0433 -0.0541,0.061 -0.10285,0.0585 -0.204944,0.11841 -0.30855,0.17559 -0.0045,0.002 -0.01788,-8.5e-4 -0.02279,-0.002 -0.0015,-4.3e-4 -0.0058,-8.8e-4 -0.0044,-0.002 0.09781,-0.0542 0.196766,-0.1064 0.295149,-0.1596 -0.09723,0.0836 -0.211804,0.19966 -0.340687,0.18407 -0.108855,-0.0258 0.400718,-0.23817 0.277335,-0.1521 -0.01339,0.003 -0.02232,-0.0318 -0.02552,-0.0374 -0.288909,0.19456 -0.311045,0.26965 -0.287677,0.0887 0.0068,-0.0594 0.0042,-0.0276 0.0072,-0.0955 0,0 0.30451,-0.1546 0.30451,-0.1546 v 0 c 0.001,0.0693 0.0022,0.037 -0.0024,0.097 -0.01807,0.17745 0.0043,0.0969 -0.298659,0.27933 -0.0011,-0.002 -0.03023,-0.0301 -0.02123,-0.0439 0.07831,-0.10024 0.254934,-0.0936 0.327946,-0.18981 0.13631,-0.0566 -0.388453,0.23644 -0.264355,0.15452 0.104421,-0.0582 0.208832,-0.11633 0.313263,-0.17447 0.0054,-0.003 0.02113,-0.0125 0.01581,-0.009 -0.09712,0.0556 -0.193966,0.11173 -0.290948,0.1676 0.02612,-0.011 0.04533,-0.0276 0.06055,-0.0518 0.03809,-0.0381 0.06068,-0.0888 0.09771,-0.1281 0.03208,-0.0407 0.07014,-0.0766 0.108798,-0.11098 0.03895,-0.0239 0.07333,-0.0545 0.112309,-0.0783 0.04996,-0.0398 0.09801,-0.0818 0.142078,-0.12814 0.06279,-0.0641 0.123333,-0.12985 0.17596,-0.20268 0.06111,-0.0784 0.120517,-0.15795 0.183428,-0.23495 0.06322,-0.0829 0.128957,-0.16385 0.190469,-0.24806 0.06302,-0.0879 0.133427,-0.1705 0.189521,-0.26329 0.0575,-0.0844 0.114299,-0.16971 0.180596,-0.24763 0.05052,-0.0672 0.09611,-0.1378 0.135098,-0.21237 0.03163,-0.0673 0.05686,-0.13692 0.07246,-0.20979 0,0 0.313748,-0.14901 0.313748,-0.14901 z"
       inkscape:connector-curvature="0" />
    <path
       style="fill:#c2c2c2;fill-opacity:0.99572646;stroke:none;stroke-width:0.17677669;stroke-linecap:round;stroke-linejoin:round;stroke-miterlimit:4;stroke-dasharray:none;stroke-opacity:0.97435895"
       d="m 52.417148,37.16661 c -0.697585,-0.03789 -1.990265,-0.130241 -2.872621,-0.205219 -1.859558,-0.158015 -4.944542,-0.294231 -8.277604,-0.365493 -2.85541,-0.06105 -4.751739,-0.167525 -7.247845,-0.40695 -1.836021,-0.176109 -2.061918,-0.178499 -6.67332,-0.07059 -5.058813,0.118376 -7.272272,0.08119 -8.352699,-0.140344 -0.812706,-0.166636 -5.278739,-0.629153 -6.850097,-0.709419 -0.994462,-0.0508 -1.256069,-0.0336 -1.944543,0.127819 -1.1095307,0.260142 -1.7972173,0.339474 -2.2052781,0.254402 -0.2453508,-0.05115 -0.464626,-0.03343 -0.7377145,0.05962 -0.3567009,0.12154 -0.3840209,0.120494 -0.3328928,-0.01274 0.1716024,-0.447188 0.2346491,-1.0323 0.1838322,-1.706075 -0.079084,-1.048569 -0.441459,-2.511272 -0.7635343,-3.081958 L 6.0735965,30.432599 6.4672333,30.06869 c 0.2165003,-0.20015 0.4808086,-0.536171 0.5873518,-0.746713 0.2237947,-0.442244 0.5363772,-1.600124 0.5363772,-1.986868 v -0.264268 l 0.994369,0.06162 c 1.4883317,0.09224 5.3592757,0.226198 9.0377087,0.312769 1.798703,0.04233 4.70226,0.137317 6.452349,0.211079 2.992889,0.126143 12.231332,0.293184 14.760854,0.266893 4.424301,-0.04599 11.869656,-0.01799 13.788582,0.05184 2.646752,0.09632 3.178162,0.197022 5.16125,0.978031 0.910087,0.358424 1.336566,0.586968 1.977052,1.059474 0.725779,0.535428 0.892086,0.714105 1.494586,1.605754 0.691633,1.02356 0.896202,1.514489 0.667633,1.602199 -0.06708,0.02574 -0.289142,0.328208 -0.493474,0.672149 -0.451466,0.75993 -1.074849,1.489284 -1.805471,2.11239 -0.75944,0.647684 -1.649875,0.927977 -3.54802,1.116853 -1.500191,0.149278 -1.69287,0.151631 -3.661233,0.04471 z m -1.367136,-2.464013 c 0.929733,-0.106912 1.922158,-0.446399 2.810457,-0.961396 1.170508,-0.678611 1.546776,-1.181699 1.548096,-2.069878 4.42e-4,-0.272056 -0.06415,-0.394293 -0.359755,-0.681164 -0.47082,-0.456915 -1.029492,-0.656161 -2.618896,-0.934009 -1.73571,-0.303424 -3.739278,-0.387246 -4.509529,-0.188662 -0.670363,0.17283 -1.479389,0.570095 -2.196402,1.078524 -0.597807,0.423901 -0.872373,0.746406 -1.220221,1.433279 -0.219361,0.433156 -0.226448,0.482086 -0.104103,0.718675 0.300665,0.581422 0.934764,0.936258 2.479924,1.387744 0.879439,0.256967 1.090422,0.284854 2.209709,0.292076 0.68059,0.0044 1.562914,-0.02944 1.96072,-0.07519 z"
       id="path5266"
       inkscape:connector-curvature="0"
       transform="matrix(0.26458334,0,0,0.26458334,0,280.06665)" />
    <path
       style="fill:#c2c2c2;fill-opacity:0.99572646;stroke:none;stroke-width:0.17677669;stroke-linecap:round;stroke-linejoin:round;stroke-miterlimit:4;stroke-dasharray:none;stroke-opacity:0.97435895"
       d="m 49.089292,33.955312 c -0.04861,-0.01927 -0.506024,-0.144599 -1.016466,-0.278518 -0.510443,-0.133919 -1.146839,-0.338697 -1.414214,-0.455062 -0.52742,-0.22954 -1.061157,-0.685171 -1.059831,-0.904737 0.0014,-0.231814 0.498385,-1.019785 0.822903,-1.304716 0.226389,-0.198772 0.456825,-0.295787 0.875929,-0.368771 1.038999,-0.180933 2.090263,-0.103063 4.610724,0.34153 1.453954,0.256468 2.266277,0.72957 2.261343,1.317022 -0.0028,0.335889 -0.303995,0.947366 -0.543079,1.102618 -0.475914,0.309041 -1.460555,0.487035 -2.96975,0.536845 -0.813544,0.02685 -1.518946,0.03306 -1.567559,0.01379 z"
       id="path5268"
       inkscape:connector-curvature="0"
       transform="matrix(0.26458334,0,0,0.26458334,0,280.06665)" />
    <path
       style="fill:#c2c2c2;fill-opacity:0.99572646;stroke:none;stroke-width:0.17677669;stroke-linecap:round;stroke-linejoin:round;stroke-miterlimit:4;stroke-dasharray:none;stroke-opacity:0.97435895"
       d="m 48.039255,44.754086 c 0.02798,-0.158648 0.129979,-0.5817 0.226661,-0.940115 0.161019,-0.596915 0.173287,-0.878072 0.146028,-3.346646 l -0.02976,-2.694984 0.561529,0.05757 c 0.698326,0.0716 3.504358,0.22261 4.189344,0.225454 0.605075,0.0025 0.630523,0.07613 0.263254,0.761502 -0.388283,0.724591 -2.752846,3.936676 -3.681531,5.001088 -0.463079,0.530758 -1.176988,1.091222 -1.485304,1.166057 -0.231793,0.05626 -0.239133,0.04739 -0.190222,-0.229931 z"
       id="path5270"
       inkscape:connector-curvature="0"
       transform="matrix(0.26458334,0,0,0.26458334,0,280.06665)" />
    <path
       style="fill:#c2c2c2;fill-opacity:0.99572646;stroke:none;stroke-width:0.17677669;stroke-linecap:round;stroke-linejoin:round;stroke-miterlimit:4;stroke-dasharray:none;stroke-opacity:0.97435895"
       d="m 50.73525,27.119464 -2.331517,-0.02512 0.05594,-0.329967 c 0.287083,-1.693409 0.279107,-3.740132 -0.0223,-5.721656 -0.08873,-0.583363 -0.14764,-1.076989 -0.130901,-1.096946 0.05588,-0.06663 0.398699,0.294481 0.9994,1.052752 0.855751,1.080222 3.144648,4.571991 3.366026,5.134956 0.103318,0.262737 0.267505,0.606972 0.364859,0.764966 0.09735,0.157995 0.143933,0.278008 0.103508,0.266698 -0.04042,-0.01131 -1.122683,-0.03187 -2.405017,-0.04568 z"
       id="path5272"
       inkscape:connector-curvature="0"
       transform="matrix(0.26458334,0,0,0.26458334,0,280.06665)" />
    <path
       style="fill:#c2c2c2;fill-opacity:0.99572646;stroke:none;stroke-width:0.17677669;stroke-linecap:round;stroke-linejoin:round;stroke-miterlimit:4;stroke-dasharray:none;stroke-opacity:0.97435895"
       d="m 31.013874,27.000348 c -2.454986,-0.03592 -5.358543,-0.110771 -6.452349,-0.166341 -1.093806,-0.05557 -3.460404,-0.135783 -5.259107,-0.17825 -1.798702,-0.04247 -3.873616,-0.105611 -4.610918,-0.140318 l -1.34055,-0.06311 -0.05012,-0.274127 C 13.20225,25.638993 12.708044,21.369918 12.583501,19.981719 12.3884,17.807048 12.303882,17.314035 11.735017,15.032315 11.013838,12.139661 10.834041,11.47592 10.286465,9.6848198 10.026376,8.8340819 9.6525566,7.5215149 9.4557539,6.7680043 9.2589512,6.0144936 8.860816,4.7226124 8.571009,3.8971571 8.2812021,3.0717018 8.0583073,2.3821092 8.0756874,2.3647291 8.2639713,2.1764453 12.458609,1.8784659 13.247817,1.9973106 c 0.267374,0.040263 0.805921,0.07611 1.196769,0.079659 1.775869,0.016125 3.247452,0.7670986 4.649095,2.3725118 1.364439,1.5627992 2.438422,2.6336368 3.744271,3.7333067 1.177385,0.991488 3.827785,3.5909919 4.82078,4.7282059 0.458558,0.525158 0.71417,0.899465 2.459471,3.601553 0.929985,1.43981 1.735225,2.595603 3.116728,4.473561 0.442002,0.600839 1.123452,1.595208 1.514332,2.209709 0.390882,0.614501 1.183158,1.743727 1.760615,2.509391 l 1.049921,1.392116 -1.041157,-0.01584 c -0.572636,-0.0087 -3.049781,-0.04522 -5.504768,-0.08114 z"
       id="path5274"
       inkscape:connector-curvature="0"
       transform="matrix(0.26458334,0,0,0.26458334,0,280.06665)" />
    <path
       style="fill:#c2c2c2;fill-opacity:0.99572646;stroke:none;stroke-width:0.17677669;stroke-linecap:round;stroke-linejoin:round;stroke-miterlimit:4;stroke-dasharray:none;stroke-opacity:0.97435895"
       d="m 16.429797,61.426854 c -0.996772,-0.179537 -1.955399,-0.30021 -2.740039,-0.344919 -0.510442,-0.02909 -1.206501,-0.107645 -1.546796,-0.174578 -0.340295,-0.06693 -0.861636,-0.147614 -1.158535,-0.179293 l -0.539817,-0.0576 0.26254,-0.854571 c 0.144397,-0.470014 0.47631,-1.510855 0.737584,-2.312979 0.544352,-1.671189 0.702253,-2.334566 0.780131,-3.277506 0.03044,-0.368528 0.114276,-1.044698 0.186309,-1.502602 0.40461,-2.572063 0.485957,-3.259414 0.572841,-4.840265 0.123493,-2.246945 0.30181,-4.078113 0.580949,-5.965858 0.279525,-1.890353 0.47416,-3.854695 0.476534,-4.80938 0.0017,-0.696808 0.01065,-0.729195 0.200688,-0.729007 0.502351,4.97e-4 2.918704,0.282024 3.892058,0.453459 0.979494,0.172517 1.385217,0.189814 4.368197,0.186225 1.808626,-0.0022 4.294548,-0.05183 5.524271,-0.110344 2.323309,-0.110549 2.910336,-0.08923 6.193044,0.224961 0.815269,0.07803 2.187499,0.168893 3.049398,0.201919 l 1.567089,0.06005 -0.640815,0.257032 c -0.352449,0.141368 -0.640816,0.295138 -0.640816,0.341711 0,0.04657 -0.135984,0.269926 -0.302185,0.496338 -0.323549,0.440763 -1.545673,2.744114 -2.490754,4.694356 -1.514594,3.125472 -2.374126,4.806452 -2.89251,5.656854 -0.311151,0.510442 -1.18195,1.947789 -1.935106,3.194105 -1.62593,2.690569 -2.335882,3.637287 -4.796441,6.39603 -0.346873,0.388909 -0.929645,1.084967 -1.29505,1.546797 -0.365405,0.461829 -0.816129,0.972655 -1.001608,1.135169 -0.294496,0.258032 -0.377668,0.287955 -0.656257,0.236094 -0.612958,-0.114105 -2.595519,-0.147446 -3.310465,-0.05567 -0.914156,0.117345 -2.157165,0.185216 -2.444439,0.133474 z"
       id="path5276"
       inkscape:connector-curvature="0"
       transform="matrix(0.26458334,0,0,0.26458334,0,280.06665)" />
    <path
       style="fill:#c2c2c2;fill-opacity:0.99572646;stroke:none;stroke-width:0.17677669;stroke-linecap:round;stroke-linejoin:round;stroke-miterlimit:4;stroke-dasharray:none;stroke-opacity:0.97435895"
       d="m 4.3662038,30.743344 c 0.2676201,-0.641556 0.2670421,-0.625312 0.031379,-0.881756 -0.5756623,-0.626426 -0.6073585,-0.723051 -0.6068076,-1.849831 2.816e-4,-0.575858 0.039275,-1.285664 0.086652,-1.577345 0.1158039,-0.712962 0.4338818,-1.546796 0.5900469,-1.546796 0.06893,0 0.2728978,0.07678 0.453262,0.170624 0.3946205,0.205321 1.7863429,1.301627 1.7863429,1.407162 0,0.04111 -0.1590991,0.146488 -0.3535534,0.234175 -0.3862822,0.174189 -0.4194681,0.233009 -0.2233098,0.395806 0.3370653,0.279739 0.2294315,1.517838 -0.2126387,2.445955 -0.2717327,0.570497 -0.3665729,0.668137 -1.0458842,1.076757 -0.5365312,0.322735 -0.5937869,0.336922 -0.5054891,0.125249 z"
       id="path5278"
       inkscape:connector-curvature="0"
       transform="matrix(0.26458334,0,0,0.26458334,0,280.06665)" />
    <path
       style="fill:#c2c2c2;fill-opacity:0.99572646;stroke:none;stroke-width:0.17677669;stroke-linecap:round;stroke-linejoin:round;stroke-miterlimit:4;stroke-dasharray:none;stroke-opacity:0.97435895"
       d="M 4.2555374,36.408324 C 4.1493328,36.318781 3.9518849,36.026757 3.8167642,35.759382 3.6091507,35.34856 3.5662633,35.14034 3.5399335,34.415361 c -0.017136,-0.471837 0.01257,-1.068459 0.066013,-1.325826 0.1768022,-0.851426 0.6495909,-2.191512 0.7731759,-2.191512 0.065036,0 0.2748174,0.15657 0.4661801,0.347932 0.3626739,0.362674 0.64868,1.087359 0.8917498,2.259524 0.1378574,0.664796 0.1474192,2.131419 0.015964,2.448544 -0.1906641,0.459959 -1.146744,0.750012 -1.4974789,0.454301 z"
       id="path5280"
       inkscape:connector-curvature="0"
       transform="matrix(0.26458334,0,0,0.26458334,0,280.06665)" />
  </g>
</svg>
