<?xml version="1.0" encoding="UTF-8" standalone="no"?>
<!-- Created with Inkscape (http://www.inkscape.org/) -->

<svg
   xmlns:dc="http://purl.org/dc/elements/1.1/"
   xmlns:cc="http://creativecommons.org/ns#"
   xmlns:rdf="http://www.w3.org/1999/02/22-rdf-syntax-ns#"
   xmlns:svg="http://www.w3.org/2000/svg"
   xmlns="http://www.w3.org/2000/svg"
   xmlns:sodipodi="http://sodipodi.sourceforge.net/DTD/sodipodi-0.dtd"
   xmlns:inkscape="http://www.inkscape.org/namespaces/inkscape"
   width="64"
   height="64"
   viewBox="0 0 16.933333 16.933334"
   version="1.1"
   id="svg8"
   inkscape:version="0.92.4 5da689c313, 2019-01-14"
   sodipodi:docname="sniper.svg">
  <defs
     id="defs2" />
  <sodipodi:namedview
     id="base"
     pagecolor="#000d50"
     bordercolor="#666666"
     borderopacity="1.0"
     inkscape:pageopacity="0"
     inkscape:pageshadow="2"
     inkscape:zoom="8"
     inkscape:cx="29.46983"
     inkscape:cy="24.499042"
     inkscape:document-units="px"
     inkscape:current-layer="layer1"
     showgrid="false"
     units="px"
     inkscape:window-width="1920"
     inkscape:window-height="1027"
     inkscape:window-x="0"
     inkscape:window-y="1080"
     inkscape:window-maximized="1" />
  <metadata
     id="metadata5">
    <rdf:RDF>
      <cc:Work
         rdf:about="">
        <dc:format>image/svg+xml</dc:format>
        <dc:type
           rdf:resource="http://purl.org/dc/dcmitype/StillImage" />
        <dc:title></dc:title>
      </cc:Work>
    </rdf:RDF>
  </metadata>
  <g
     inkscape:label="Layer 1"
     inkscape:groupmode="layer"
     id="layer1"
     transform="translate(0,-280.06665)">
    <path
       style="fill:#fcfcfc;fill-opacity:1;stroke:none;stroke-width:0.39687502;stroke-linecap:round;stroke-linejoin:round;stroke-miterlimit:4;stroke-dasharray:none;stroke-opacity:0.99145298"
       id="path1501"
       d="m 14.914903,286.87509 c -0.02806,0.26729 -0.04734,0.53559 -0.06707,0.80363 -0.03579,0.40386 -0.05515,0.80878 -0.06466,1.21403 -0.0027,0.2005 -0.0032,0.10402 7.41e-4,0.28944 0,0 -0.421372,0.21531 -0.421372,0.21531 v 0 c -3.44e-4,-0.18929 -0.0018,-0.0911 0.0051,-0.29459 0.01503,-0.40586 0.03471,-0.81151 0.06584,-1.2165 0.01551,-0.26449 0.03341,-0.52888 0.0424,-0.7937 0,0 0.439043,-0.21762 0.439043,-0.21762 z"
       inkscape:connector-curvature="0" />
    <path
       style="fill:#fcfcfc;fill-opacity:1;stroke:none;stroke-width:0.39687502;stroke-linecap:round;stroke-linejoin:round;stroke-miterlimit:4;stroke-dasharray:none;stroke-opacity:0.99145298"
       id="path1503"
       d="m 14.83552,286.81044 c 0.148287,0.018 0.297772,0.0225 0.446968,0.0262 0.169681,-10e-4 0.337625,-0.0222 0.50588,-0.0412 0.10795,-0.013 0.214832,-0.0253 0.322936,-0.0115 0,0 -0.398898,0.28344 -0.398898,0.28344 v 0 c -0.104126,-0.009 -0.207955,0.007 -0.311582,0.0163 -0.169028,0.0187 -0.33834,0.0361 -0.508679,0.035 -0.15227,-0.004 -0.304488,-0.0104 -0.45622,-0.0246 0,0 0.399595,-0.28362 0.399595,-0.28362 z"
       inkscape:connector-curvature="0" />
    <path
       style="fill:#fcfcfc;fill-opacity:1;stroke:none;stroke-width:0.39687502;stroke-linecap:round;stroke-linejoin:round;stroke-miterlimit:4;stroke-dasharray:none;stroke-opacity:0.99145298"
       id="path1505"
       d="m 16.276343,286.7049 c 0.0038,0.21263 -0.01702,0.4248 -0.04058,0.63585 -0.03134,0.29441 -0.0777,0.58675 -0.105949,0.88151 -0.01646,0.20496 -0.0315,0.411 -0.0069,0.61578 0.0045,0.0182 0.009,0.0365 0.01349,0.0547 0,0 -0.427737,0.23076 -0.427737,0.23076 v 0 c -0.0047,-0.0203 -0.0095,-0.0406 -0.01419,-0.0609 -0.02369,-0.20988 -0.0043,-0.42039 0.01287,-0.63018 0.02815,-0.29491 0.07568,-0.58719 0.10546,-0.88191 0.02144,-0.20519 0.04022,-0.4119 0.02938,-0.61836 0,0 0.43412,-0.22728 0.43412,-0.22728 z"
       inkscape:connector-curvature="0" />
    <path
       style="fill:#fcfcfc;fill-opacity:1;stroke:none;stroke-width:0.39687502;stroke-linecap:round;stroke-linejoin:round;stroke-miterlimit:4;stroke-dasharray:none;stroke-opacity:0.99145298"
       id="path1507"
       d="m 14.735945,289.17144 c 0.134067,0.0519 0.275407,0.0591 0.417293,0.0519 0.167862,-0.009 0.332243,-0.0457 0.497751,-0.0723 0.0959,-0.0123 0.190912,-0.0299 0.286782,-0.0426 0,0 -0.3879,0.29002 -0.3879,0.29002 v 0 c -0.09502,0.0136 -0.189678,0.0295 -0.284782,0.0426 -0.166142,0.0275 -0.332009,0.0612 -0.500836,0.0668 -0.148366,0.002 -0.294561,-0.0113 -0.435102,-0.0626 0,0 0.406794,-0.27381 0.406794,-0.27381 z"
       inkscape:connector-curvature="0" />
    <path
       style="fill:#fcfcfc;fill-opacity:1;stroke:none;stroke-width:0.39687502;stroke-linecap:round;stroke-linejoin:round;stroke-miterlimit:4;stroke-dasharray:none;stroke-opacity:0.99145298"
       id="path1509"
       d="m 14.204422,287.80677 c -0.0745,-0.0212 -0.150322,-0.0382 -0.227127,-0.0484 -0.04307,0.003 -0.07805,-0.0132 -0.11765,-0.0256 -0.03831,-0.0266 -0.08214,-0.0458 -0.126653,-0.0596 -0.07118,-0.0339 -0.150268,-0.0412 -0.227784,-0.0473 -0.110769,-0.006 -0.221777,-0.006 -0.332683,-0.006 -0.132415,-1.2e-4 -0.264829,-2.9e-4 -0.397245,-1.9e-4 -0.156108,-2.2e-4 -0.312217,-2.6e-4 -0.468326,-5.8e-4 -0.179152,0.0115 -0.358268,0.0219 -0.537723,0.0273 -0.202983,0.005 -0.406048,0.005 -0.609077,0.005 -0.22713,-0.002 -0.453909,-0.001 -0.680782,0.01 -0.248782,0.01 -0.4974571,0.0246 -0.7455884,0.0453 -0.279432,0.022 -0.5577486,0.0554 -0.8370793,0.0786 -0.3006315,0.031 -0.602498,0.046 -0.9039447,0.0665 -0.2736157,0.0215 -0.5482638,0.0194 -0.8221708,0.0336 -0.1050732,0.002 -0.2085856,0.0169 -0.3118151,0.0349 0,0 0.383931,-0.28816 0.383931,-0.28816 v 0 c 0.1031558,-0.0144 0.2065073,-0.026 0.3108368,-0.0276 0.2727304,-0.0105 0.5458965,-0.0113 0.818212,-0.0319 0.3013912,-0.02 0.603108,-0.0361 0.9036344,-0.0673 0.2801181,-0.0245 0.559291,-0.0586 0.8396711,-0.0803 0.24912,-0.0195 0.498557,-0.0353 0.748254,-0.0453 0.227715,-0.01 0.455422,-0.01 0.683333,-0.009 0.203383,-7.6e-4 0.406802,-0.001 0.610109,-0.007 0.180144,-0.007 0.359888,-0.0195 0.539973,-0.0269 0.156747,-3.4e-4 0.313495,-4e-4 0.470242,-8.5e-4 0.132986,-1.1e-4 0.265968,-7.4e-4 0.398954,-8.7e-4 0.112308,2.5e-4 0.224803,1.5e-4 0.336866,0.008 0.08128,0.009 0.161557,0.0227 0.237089,0.0555 0.04368,0.017 0.08561,0.0377 0.127693,0.0579 0.03638,0.0127 0.07397,0.0132 0.111798,0.0201 0.0774,0.0149 0.153868,0.0341 0.230329,0.0532 0,0 -0.405277,0.27755 -0.405277,0.27755 z"
       inkscape:connector-curvature="0" />
    <path
       style="fill:#fcfcfc;fill-opacity:1;stroke:none;stroke-width:0.39687502;stroke-linecap:round;stroke-linejoin:round;stroke-miterlimit:4;stroke-dasharray:none;stroke-opacity:0.99145298"
       id="path1511"
       d="m 14.235914,288.77279 c -0.100852,-0.0154 -0.200354,-0.0377 -0.301732,-0.0503 -0.108369,-0.007 -0.215526,-0.024 -0.323797,-0.0328 -0.157981,-0.008 -0.316445,0.007 -0.474443,0.0125 -0.199843,0.0154 -0.399783,0.0281 -0.599509,0.045 -0.227177,0.0193 -0.453932,0.0405 -0.681778,0.0507 -0.24786,0.004 -0.495146,0.0207 -0.742785,0.0307 -0.26014,0.0146 -0.519676,0.037 -0.77958,0.0549 -0.264487,0.0219 -0.5287751,0.0464 -0.7934678,0.0657 -0.2632012,0.0248 -0.5270303,0.0416 -0.7897784,0.0711 -0.2408002,0.0254 -0.4808683,0.0578 -0.7203199,0.0938 -0.2010011,0.0413 -0.4039402,0.0682 -0.6084406,0.0835 -0.095467,1.6e-4 -0.192754,0.003 -0.2846676,-0.0274 -0.019899,-0.007 -0.075669,-0.0315 -0.096295,-0.0405 -0.037823,-0.0204 -0.072175,-0.0459 -0.1041546,-0.0744 0,0 0.4189545,-0.25964 0.4189545,-0.25964 v 0 c 0.027448,0.0253 0.05732,0.0476 0.091335,0.0635 0.1159915,0.0492 0.2357983,0.063 0.3617945,0.0527 0.2025359,-0.016 0.4030451,-0.0459 0.6027248,-0.0834 0.239291,-0.0348 0.479125,-0.0664 0.719696,-0.091 0.2630612,-0.0271 0.5268273,-0.0458 0.790205,-0.0694 0.2646891,-0.0202 0.5290741,-0.0442 0.7936741,-0.0656 0.26036,-0.0187 0.520486,-0.0405 0.781179,-0.0544 0.247873,-0.0109 0.495539,-0.0259 0.743614,-0.0317 0.22797,-0.012 0.454982,-0.034 0.682411,-0.0533 0.201013,-0.0171 0.402279,-0.0305 0.603471,-0.0452 0.160099,-0.007 0.320808,-0.0216 0.480928,-0.01 0.109515,0.009 0.218591,0.0232 0.328049,0.0331 0.101186,0.0156 0.201119,0.0395 0.303239,0.0484 0,0 -0.400527,0.28346 -0.400527,0.28346 z"
       inkscape:connector-curvature="0" />
    <path
       style="fill:#fcfcfc;fill-opacity:1;stroke:none;stroke-width:0.39687502;stroke-linecap:round;stroke-linejoin:round;stroke-miterlimit:4;stroke-dasharray:none;stroke-opacity:0.99145298"
       id="path1513"
       d="m 7.214363,287.20099 c 0.013771,0.16068 0.016417,0.32196 0.025154,0.48291 0.016341,0.25565 0.0225,0.51176 0.026932,0.76784 0.00343,0.2382 0.00456,0.47642 0.00708,0.71463 5.819e-4,0.0803 -0.00146,0.16242 0.020309,0.24033 0,0 -0.4305381,0.23341 -0.4305381,0.23341 v 0 c -0.020606,-0.0835 -0.018717,-0.1703 -0.017269,-0.25589 0.00225,-0.23902 0.0027,-0.47808 -5.027e-4,-0.7171 -0.00433,-0.25451 -0.010779,-0.50912 -0.031741,-0.7629 -0.011443,-0.15862 -0.012065,-0.31814 -0.033549,-0.47595 0,0 0.4341203,-0.22728 0.4341203,-0.22728 z"
       inkscape:connector-curvature="0" />
    <path
       style="fill:#fcfcfc;fill-opacity:1;stroke:none;stroke-width:0.39687502;stroke-linecap:round;stroke-linejoin:round;stroke-miterlimit:4;stroke-dasharray:none;stroke-opacity:0.99145298"
       id="path1515"
       d="m 6.7630159,287.44296 c -0.089626,-0.0404 -0.1768714,-0.0859 -0.2611875,-0.13647 -0.089786,-0.0597 -0.1826005,-0.11304 -0.2686721,-0.17813 -0.1090182,-0.0741 -0.2115963,-0.15649 -0.3149953,-0.23805 -0.1209876,-0.0938 -0.2355583,-0.19539 -0.3545901,-0.2916 -0.1096738,-0.0937 -0.2272276,-0.17757 -0.3382743,-0.26941 -0.087834,-0.0764 -0.1738559,-0.1548 -0.2613541,-0.23151 -0.04745,-0.0408 -0.094364,-0.0822 -0.1417878,-0.12308 -0.036691,-0.0205 -0.031998,-0.0125 -0.054121,-0.0615 0.4558638,-0.20499 0.3304026,-0.31509 0.4615309,-0.19429 0,0 -0.4208669,0.257 -0.4208669,0.257 v 0 c -0.1245639,-0.13758 -0.021061,-0.0128 0.4212876,-0.24307 -0.026395,-0.0508 -0.034914,-0.058 0.011377,-0.0178 0.04483,0.0429 0.091334,0.084 0.1374246,0.12561 0.084521,0.0785 0.1706925,0.15505 0.2570914,0.23149 0.1115303,0.0909 0.2271392,0.17677 0.3368283,0.26999 0.1185429,0.0966 0.233552,0.19749 0.3550238,0.29048 0.1035039,0.0814 0.2077815,0.16128 0.3166126,0.23546 0.08564,0.0626 0.177696,0.11515 0.2662822,0.17344 0.082429,0.0475 0.1670354,0.0941 0.2576679,0.12391 0,0 -0.4052765,0.27755 -0.4052765,0.27755 z"
       inkscape:connector-curvature="0" />
    <path
       style="fill:#fcfcfc;fill-opacity:1;stroke:none;stroke-width:0.39687502;stroke-linecap:round;stroke-linejoin:round;stroke-miterlimit:4;stroke-dasharray:none;stroke-opacity:0.99145298"
       id="path1519"
       d="m 7.2622916,289.25945 c -0.089472,0.0901 -0.1858099,0.17257 -0.2863194,0.24996 -0.1002087,0.0821 -0.2092239,0.15171 -0.3165084,0.22387 -0.1282449,0.0931 -0.2575009,0.18538 -0.3803987,0.28554 -0.1521095,0.13111 -0.2961092,0.27094 -0.4411869,0.40966 -0.1417794,0.13875 -0.2921455,0.26824 -0.4411964,0.39902 -0.092055,0.0806 -0.1835091,0.16172 -0.2795339,0.23761 -0.035448,0.0254 -0.070967,0.0503 -0.1040657,0.0788 -0.019277,0.0182 -0.00669,-0.0307 -0.018365,0.0219 -0.031074,0.016 -0.047319,0.0477 -0.0671,0.0752 -0.00818,0.0115 -0.015039,0.0238 -0.022797,0.0356 -0.00119,0.002 -0.00167,-7.1e-4 -0.00238,-0.001 0,0 -0.4493279,0.21013 -0.4493279,0.21013 v 0 c -4.233e-4,-0.002 -0.00122,-0.003 -2.645e-4,-0.006 0.00643,-0.0144 0.014848,-0.0278 0.022939,-0.0413 0.019495,-0.0318 0.042284,-0.0589 0.059416,-0.0922 0.029113,0.0145 0.00587,0.002 0.020841,-0.0139 0.030764,-0.0341 0.066979,-0.0642 0.1071425,-0.0863 0.099357,-0.0753 0.1944458,-0.1552 0.2877119,-0.23795 0.1509316,-0.12958 0.3015994,-0.25981 0.4447747,-0.398 0.1448155,-0.13832 0.2876105,-0.27856 0.4375377,-0.41141 0.1189835,-0.10365 0.2494501,-0.19299 0.375228,-0.28811 0.1040852,-0.0759 0.2178475,-0.13814 0.316943,-0.22133 0.097589,-0.0772 0.1986843,-0.15072 0.2838365,-0.24251 0,0 0.4530706,-0.18766 0.4530706,-0.18766 z"
       inkscape:connector-curvature="0" />
    <path
       style="fill:#fcfcfc;fill-opacity:1;stroke:none;stroke-width:0.39687502;stroke-linecap:round;stroke-linejoin:round;stroke-miterlimit:4;stroke-dasharray:none;stroke-opacity:0.99145298"
       id="path1523"
       d="m 4.9129376,285.94137 c -0.086202,-0.001 -0.1723982,-0.003 -0.2586005,-0.005 -0.050134,0 -0.098391,0.0179 -0.1479587,0.0264 -0.047226,0.005 -0.094843,0.005 -0.1422934,0.006 -0.068886,-0.0165 -0.1386652,-0.0271 -0.2080316,-0.0415 -0.1106971,-0.0192 -0.2233982,-0.0262 -0.3355035,-0.0204 -0.1542079,0.008 -0.3069907,0.0305 -0.460874,0.0433 -0.1851443,0.0152 -0.3699454,0.0312 -0.5556173,0.0392 -0.2111034,0.008 -0.4223828,0.008 -0.6335969,0.009 -0.2007982,4e-5 -0.4011495,0.0169 -0.601733,0.0252 -0.1638417,0.002 -0.3274059,-0.0207 -0.4911121,-0.0132 -0.0844551,0.006 -0.16870875,0.0148 -0.25301775,0.0226 -0.026207,0.001 -0.052404,0.003 -0.0786502,0.004 -0.17645727,-0.021 0.2453042,-0.28798 0.41492855,-0.29161 0.1877981,-0.008 -0.24974575,0.28582 -0.41943512,0.29111 -0.0715521,-0.0223 0.34892272,-0.43365 0.43040102,-0.2262 0.00202,0.007 0.00405,0.0141 0.00607,0.0211 0,0 -0.43303617,0.23525 -0.43303617,0.23525 v 0 c -0.001347,-0.005 -0.002693,-0.0109 -0.00404,-0.0163 -0.066082,-0.17471 0.0467927,-0.23729 0.40150647,-0.30515 0.1854617,0.006 -0.21514215,0.29826 -0.38148165,0.29114 -0.17634312,-0.002 0.24202535,-0.26198 0.38511075,-0.29137 0.024748,-8.5e-4 0.049504,-0.002 0.074175,-0.004 0.083132,-0.006 0.1661057,-0.0143 0.2494679,-0.0163 0.1621935,10e-4 0.3239547,0.0193 0.4862932,0.0153 0.2003806,-0.009 0.4006407,-0.024 0.6012995,-0.0226 0.2109915,-6.1e-4 0.4220538,-10e-4 0.6328857,-0.0106 0.1860797,-0.01 0.3713409,-0.0277 0.5570276,-0.0426 0.1548781,-0.0142 0.3089508,-0.0372 0.4645426,-0.0427 0.1156928,-0.002 0.2317354,0.004 0.3454735,0.0272 0.067458,0.0134 0.1359911,0.0262 0.2044895,0.031 0.046115,-0.001 0.092514,-0.003 0.1377985,-0.0123 0.050579,-0.01 0.1003022,-0.0238 0.1525216,-0.0171 0.084679,0.003 0.1698939,0.007 0.2543465,-10e-4 0,0 -0.3933545,0.29334 -0.3933545,0.29334 z"
       inkscape:connector-curvature="0" />
    <path
       style="fill:#fcfcfc;fill-opacity:1;stroke:none;stroke-width:0.39687502;stroke-linecap:round;stroke-linejoin:round;stroke-miterlimit:4;stroke-dasharray:none;stroke-opacity:0.99145298"
       id="path1529"
       d="m 1.0931781,285.91355 c -0.00492,0.17989 -0.00481,0.35987 -0.00614,0.53982 -0.00636,0.30237 0.00768,0.60456 0.015548,0.90676 0.00745,0.37636 0.00829,0.75269 0.020463,1.12894 0.0065,0.36419 0.026894,0.72768 0.052542,1.09094 0.017207,0.29634 0.041501,0.59219 0.059811,0.88845 0.016507,0.19671 0.035136,0.39322 0.046602,0.59031 2.21e-4,0.0972 0.01224,0.19286 0.028376,0.28844 0.00649,0.0175 0.00932,0.0467 0.028123,0.0558 0,0 -0.42033085,0.25887 -0.42033085,0.25887 v 0 c -0.021219,-0.0249 -0.033455,-0.0533 -0.041351,-0.0852 -0.014192,-0.0984 -0.027287,-0.19668 -0.024176,-0.2965 -0.00773,-0.19836 -0.022696,-0.39622 -0.03855,-0.59408 -0.014761,-0.29728 -0.037859,-0.59404 -0.052919,-0.8913 -0.0247615,-0.36431 -0.0443236,-0.72882 -0.0504018,-1.094 -0.0117427,-0.37575 -0.0146744,-0.75156 -0.0237961,-1.12738 -0.00962,-0.30124 -0.0260689,-0.60234 -0.0242951,-0.90382 -0.001329,-0.17786 -0.001183,-0.35576 -0.006143,-0.53356 0,0 0.43664205,-0.22248 0.43664205,-0.22248 z"
       inkscape:connector-curvature="0" />
    <path
       style="fill:#fcfcfc;fill-opacity:1;stroke:none;stroke-width:0.39687502;stroke-linecap:round;stroke-linejoin:round;stroke-miterlimit:4;stroke-dasharray:none;stroke-opacity:0.99145298"
       id="path1531"
       d="m 1.305207,291.17615 c 0.1316682,0.0323 0.2669867,0.0447 0.4019181,0.0536 0.1632567,-0.001 0.3258956,-0.0138 0.4883173,-0.029 0.2001,-0.018 0.401087,-0.0227 0.6018772,-0.0255 0.2089198,-0.002 0.417856,-0.002 0.6267853,-0.003 0.1749853,-9.2e-4 0.3494645,0.016 0.5241843,0.0243 0.1379936,0.003 0.2766026,0.0136 0.4143686,0.002 0.1022841,-0.002 0.2045624,10e-4 0.3068326,0.002 0.070504,0.007 0.1371266,0.0286 0.2044887,0.0492 0.031226,0.0187 0.061709,0.0378 0.094886,0.0529 0.012864,0.005 0.00696,0.005 -0.00282,-0.0177 0,0 -0.3872875,0.30878 -0.3872875,0.30878 v 0 c -0.018854,-0.0179 -0.010298,-0.0124 -0.023236,-0.0197 -0.028834,-0.0164 -0.05607,-0.0362 -0.08729,-0.0477 -0.063459,-0.0199 -0.1281457,-0.0364 -0.1949813,-0.0391 -0.100517,-0.003 -0.201169,-0.006 -0.3016813,-0.001 -0.1384665,0.004 -0.2770518,-0.002 -0.4153879,-0.008 -0.1732122,-0.01 -0.3463306,-0.0263 -0.5199738,-0.0242 -0.2083752,-5.3e-4 -0.4167661,-5.8e-4 -0.6251249,0.002 -0.2009525,0.004 -0.4020531,0.01 -0.6021446,0.0302 -0.1643461,0.0154 -0.3294661,0.0279 -0.4946554,0.0238 -0.1374473,-0.0103 -0.2736674,-0.0287 -0.40960155,-0.0514 0,0 0.40052745,-0.28346 0.40052745,-0.28346 z"
       inkscape:connector-curvature="0" />
    <path
       style="fill:#fcfcfc;fill-opacity:1;stroke:none;stroke-width:0.39687502;stroke-linecap:round;stroke-linejoin:round;stroke-miterlimit:4;stroke-dasharray:none;stroke-opacity:0.99145298"
       id="path1537"
       d="m 4.5539013,285.74831 c -0.040892,-0.14565 -0.094545,-0.28736 -0.1444895,-0.43007 -0.066755,-0.18817 -0.1496327,-0.36938 -0.2133147,-0.55876 -0.062437,-0.19603 -0.1235938,-0.39246 -0.186634,-0.5883 -0.062781,-0.19858 -0.1429932,-0.39109 -0.219757,-0.58453 -0.061885,-0.14611 -0.124304,-0.29182 -0.1810075,-0.44007 -0.040132,-0.11502 -0.063616,-0.23541 -0.082885,-0.35549 -0.020143,-0.1089 -0.035662,-0.21865 -0.066589,-0.32517 -0.021455,-0.0676 -0.03965,-0.13714 -0.072317,-0.2004 -0.026801,-0.0514 -0.049613,-0.10452 -0.065192,-0.16038 -0.013224,-0.0528 -0.030859,-0.10421 -0.042029,-0.15756 -0.00934,-0.0372 -0.00803,-0.0758 -0.013179,-0.11345 -0.012496,-0.0604 -0.025474,-0.12061 -0.039194,-0.18081 -0.014176,-0.0526 -0.035495,-0.10293 -0.04906,-0.15568 -0.00204,-0.0175 -0.00731,-0.0292 -0.023193,-0.0362 -0.00628,0.004 4.498e-4,0.0103 0.00399,0.0155 -0.00803,-0.002 -0.03858,-0.0464 -0.042322,-0.0402 -0.00897,-5.4e-4 -0.017764,-0.002 -0.026733,-10e-4 -0.00404,0.0116 0.032322,0.0633 -0.02268,-0.0364 0,0 0.4440042,-0.2199 0.4440042,-0.2199 v 0 c -0.048956,-0.0717 -0.031033,-0.0365 -0.015804,-0.0287 0.01247,0.005 0.025204,0.009 0.036095,0.0169 0.022622,0.0221 0.019307,0.0308 0.019839,0.006 0.00657,0.008 0.013369,0.0157 0.021508,0.0222 0.019233,0.0184 0.036813,0.041 0.039304,0.0683 0.01057,0.0538 0.031088,0.10484 0.046689,0.15723 0.013166,0.0598 0.027854,0.11923 0.041448,0.17882 0.011324,0.0376 0.00556,0.0772 0.013234,0.1159 0.00917,0.0529 0.027029,0.10303 0.039532,0.15499 0.013377,0.0531 0.036045,0.10238 0.0607,0.15114 0.033186,0.0665 0.05227,0.13912 0.073608,0.21005 0.031861,0.10859 0.046267,0.22068 0.067833,0.33158 0.017981,0.11708 0.040539,0.23448 0.077318,0.34718 0.055452,0.14869 0.1138867,0.29605 0.175378,0.44236 0.076565,0.19464 0.1566265,0.38833 0.2207826,0.58749 0.063125,0.19558 0.1245399,0.3917 0.1868831,0.58752 0.063273,0.18923 0.1456272,0.37018 0.2137966,0.55753 0.051359,0.14267 0.1045456,0.28466 0.1557306,0.42738 0,0 -0.4312954,0.2351 -0.4312954,0.2351 z"
       inkscape:connector-curvature="0" />
    <path
       style="fill:#fcfcfc;fill-opacity:1;stroke:none;stroke-width:0.39687502;stroke-linecap:round;stroke-linejoin:round;stroke-miterlimit:4;stroke-dasharray:none;stroke-opacity:0.99145298"
       id="path1539"
       d="m 1.4079158,281.18805 c 0.1313669,0.0195 0.2631863,0.0218 0.3954507,0.0147 0.1457762,-0.0172 0.2847833,-0.0675 0.4271306,-0.10145 0.1587556,-0.0503 0.3215911,-0.0645 0.4868887,-0.0543 0.1630625,0.0199 0.3189531,0.0749 0.4768581,0.11786 0.1235838,0.0382 0.2493419,0.0732 0.3794408,0.0728 0,0 -0.3945385,0.28443 -0.3945385,0.28443 v 0 c -0.1313548,-0.01 -0.257819,-0.0446 -0.3831442,-0.0841 -0.1545386,-0.0439 -0.308678,-0.0966 -0.4697721,-0.10937 -0.163328,-0.004 -0.3226869,0.0173 -0.4792189,0.0659 -0.1431774,0.0372 -0.2852269,0.0857 -0.4339002,0.0945 -0.135373,0.005 -0.2700864,-0.003 -0.4047905,-0.0173 0,0 0.3995955,-0.28362 0.3995955,-0.28362 z"
       inkscape:connector-curvature="0" />
    <path
       style="fill:#fcfcfc;fill-opacity:1;stroke:none;stroke-width:0.39687502;stroke-linecap:round;stroke-linejoin:round;stroke-miterlimit:4;stroke-dasharray:none;stroke-opacity:0.99145298"
       id="path1541"
       d="m 1.4598145,281.3096 c 0.011301,0.11588 0.019485,0.23199 0.024332,0.3483 0.0058,0.11198 0.00106,0.22419 0.00773,0.3361 0.00873,0.13074 0.023784,0.26071 0.038806,0.39083 0.010461,0.13787 0.02177,0.27538 0.036236,0.41291 0.013317,0.12199 0.017397,0.24459 0.019419,0.36719 0.00177,0.12771 0.001,0.25544 8.467e-4,0.38316 0.00132,0.13303 -0.0036,0.26619 0.00308,0.39909 0.011426,0.11692 0.020739,0.23396 0.026533,0.35129 0.00387,0.0985 0.00482,0.19711 0.0048,0.29569 -0.00608,0.0991 -0.018068,0.19795 -0.034962,0.29582 -0.020277,0.0968 -0.048113,0.1919 -0.069552,0.28847 -0.02546,0.11237 -0.048967,0.22491 -0.077355,0.33659 -0.015686,0.086 -0.046835,0.16856 -0.063475,0.25428 -0.00234,-0.007 -0.00469,-0.0132 -0.00703,-0.0198 0,0 -0.41876765,0.26413 -0.41876765,0.26413 v 0 c -0.00542,-0.009 -0.010833,-0.0179 -0.016249,-0.0269 0.00924,-0.0894 0.056976,-0.17244 0.067821,-0.26208 0.027219,-0.11107 0.05172,-0.22231 0.076542,-0.33389 0.01818,-0.0969 0.045968,-0.19145 0.069999,-0.28699 0.016406,-0.0956 0.029138,-0.19144 0.038324,-0.28811 -3.519e-4,-0.0981 3.18e-5,-0.19626 -0.00308,-0.29434 -0.00417,-0.11746 -0.012724,-0.23461 -0.024199,-0.35158 -0.00907,-0.13367 -0.00263,-0.26777 -0.0044,-0.40167 2.1e-6,-0.12735 -1.707e-4,-0.2547 -0.00126,-0.38204 -0.00193,-0.12139 -0.00511,-0.24287 -0.0169,-0.36377 -0.013796,-0.1375 -0.025846,-0.27487 -0.035463,-0.41272 -0.014693,-0.13051 -0.03149,-0.26064 -0.041645,-0.39163 -0.00941,-0.11227 -0.00316,-0.22518 -0.00807,-0.33774 -0.00407,-0.11443 -0.00914,-0.22914 -0.02646,-0.34247 0,0 0.4343987,-0.22819 0.4343987,-0.22819 z"
       inkscape:connector-curvature="0" />
    <path
       style="fill:#fcfcfc;fill-opacity:1;stroke:none;stroke-width:0.39687502;stroke-linecap:round;stroke-linejoin:round;stroke-miterlimit:4;stroke-dasharray:none;stroke-opacity:0.99145298"
       id="path1545"
       d="m 4.7950373,291.43535 c -0.021333,0.14411 -0.042658,0.28821 -0.062951,0.43248 -0.023588,0.18188 -0.045797,0.36392 -0.068336,0.54594 -0.026212,0.18923 -0.059015,0.37743 -0.08947,0.566 -0.028759,0.17891 -0.062778,0.35686 -0.097375,0.53471 -0.027556,0.1557 -0.054369,0.31155 -0.085446,0.46659 -0.030645,0.15419 -0.061532,0.30841 -0.096154,0.46176 -0.030027,0.12957 -0.06189,0.25879 -0.097843,0.38685 -0.030278,0.10627 -0.062079,0.21171 -0.080744,0.32076 -0.00887,0.0826 -0.02656,0.16383 -0.037218,0.24619 -0.00657,0.055 -0.00809,0.11046 -0.0089,0.16583 -0.00127,0.0285 -0.00225,0.0549 0.014309,0.0791 0.016031,0.018 -0.00447,-0.0196 0.018053,0.0261 0.00262,0.0342 -0.016891,0.0645 -0.024125,0.0983 -0.00114,0.009 -0.00167,0.005 1.217e-4,0.0121 0,0 -0.4317555,0.24068 -0.4317555,0.24068 v 0 c -0.00931,-0.022 -0.00544,-0.0101 -0.010851,-0.0361 0.00198,-0.0178 0.00434,-0.0895 0.028784,-0.0833 0.022799,0.033 -0.00295,-0.002 -0.00765,-0.009 -0.01909,-0.0327 -0.030246,-0.0665 -0.025622,-0.10487 5.291e-4,-0.0573 0.00251,-0.11458 0.00844,-0.1716 0.00955,-0.0836 0.029186,-0.16522 0.038558,-0.2487 0.015883,-0.1118 0.0487,-0.21896 0.07991,-0.3272 0.037977,-0.12734 0.069508,-0.25651 0.100706,-0.38563 0.038101,-0.15226 0.066269,-0.30702 0.097444,-0.4608 0.032987,-0.15465 0.058153,-0.31085 0.086232,-0.46644 0.035355,-0.17777 0.071668,-0.35533 0.1005533,-0.53432 0.02949,-0.18811 0.062363,-0.37566 0.08934,-0.56417 0.023156,-0.18193 0.044088,-0.3641 0.06744,-0.546 0.018412,-0.14257 0.040286,-0.28487 0.054609,-0.42783 0,0 0.4399391,-0.21731 0.4399391,-0.21731 z"
       inkscape:connector-curvature="0" />
    <path
       style="fill:#fcfcfc;fill-opacity:1;stroke:none;stroke-width:0.39687502;stroke-linecap:round;stroke-linejoin:round;stroke-miterlimit:4;stroke-dasharray:none;stroke-opacity:0.99145298"
       id="path1549"
       d="m 1.2389746,291.46816 c 0.057856,0.0589 0.11556,0.1179 0.1740419,0.17616 0.024367,0.0285 0.047036,0.0564 0.067309,0.0879 0.018321,0.0304 0.035325,0.0623 0.050718,0.0943 0.02646,0.0372 0.046992,0.0779 0.069898,0.11726 0.029456,0.0549 0.048974,0.11418 0.070573,0.17238 0.021087,0.0558 0.040398,0.11282 0.065775,0.16684 0.024222,0.0527 0.046137,0.10619 0.066568,0.16044 0.029186,0.0721 0.051647,0.14648 0.075765,0.22038 0.022452,0.0762 0.039707,0.1541 0.063267,0.22997 0.013205,0.0494 0.033765,0.0958 0.05174,0.1434 0.016854,0.0498 0.036035,0.0978 0.046373,0.14971 0.016833,0.0524 0.029382,0.10591 0.045031,0.15865 0.015271,0.0666 0.035847,0.13188 0.048328,0.19912 0.011724,0.0787 0.02977,0.15593 0.039327,0.235 0.016108,0.0884 0.028531,0.17732 0.044489,0.26575 0.014214,0.0954 0.027675,0.19073 0.043076,0.28596 0.013293,0.0691 0.019033,0.13906 0.021721,0.20922 0.00197,0.057 0.00186,0.114 0.00163,0.17101 -0.00767,0.0706 -0.020688,0.14023 -0.027101,0.21105 -0.01,0.0615 0.00178,0.12103 0.011631,0.18146 0.00914,0.0497 0.012989,0.1002 0.01468,0.15067 -2.884e-4,0.042 -0.01472,0.082 -0.023767,0.12271 -0.00314,0.0413 -0.019634,0.0792 -0.03016,0.11872 -0.00919,0.0386 -0.02599,0.0745 -0.036007,0.11295 -0.00587,0.0274 -0.00749,0.0552 -0.00679,0.0831 -3.519e-4,0.0219 -0.016149,0.0198 -0.025603,0.0358 1.32e-4,0.005 -0.00533,0.006 -0.00604,0.007 -0.025256,-0.0314 -0.025475,-0.0603 0.00782,-0.0183 0.016041,0.013 0.030718,0.0157 0.050862,0.0157 0.040504,0.001 0.081065,0.001 0.1215923,0.001 0.082796,0.004 0.1641452,0 0.2460797,-0.0113 0.083103,-0.0106 0.1657922,-0.0168 0.2481282,-0.0322 0.079579,-0.0202 0.1611331,-0.0333 0.2410192,-0.0526 0.083399,-0.0221 0.1690926,-0.0292 0.2548965,-0.0337 0.073679,-0.003 0.1474406,-0.003 0.2211707,-0.003 0.065176,0.007 0.1067446,-0.004 0.1673003,-0.0199 0.048532,-0.0148 0.068282,-0.0145 0.1149715,0.002 0.038097,0.0104 0.074227,0.0162 0.1106448,0.0322 0.024424,0.0132 0.051274,0.0174 0.078504,0.0188 0.010628,2.2e-4 0.021479,10e-4 0.031911,-0.001 0.1705596,-4e-4 0.1177227,-0.0529 -0.3934573,0.22813 0.012787,-0.0188 0.0062,-0.009 0.01977,-0.0283 0,0 0.4471871,-0.20652 0.4471871,-0.20652 v 0 c -0.00656,0.0296 -6.35e-4,0.0173 -0.015139,0.038 -0.3267054,0.19431 -0.2762414,0.25872 -0.4593231,0.26028 -0.011404,-0.002 -0.023024,-0.003 -0.034445,-0.005 -0.029273,-0.006 -0.056919,-0.0173 -0.084229,-0.0293 -0.034977,-0.0118 -0.072498,-0.0146 -0.1074396,-0.027 -0.033683,-0.005 -0.067023,0.0112 -0.1000665,0.017 -0.056986,0.0131 -0.1146902,0.01 -0.172835,0.009 -0.072794,1e-4 -0.145645,2.5e-4 -0.2183284,0.005 -0.084385,0.006 -0.16789,0.0185 -0.2499916,0.0396 -0.081068,0.0166 -0.1613318,0.0367 -0.2428126,0.051 -0.082623,0.0132 -0.1662322,0.0179 -0.2490573,0.0298 -0.083678,0.009 -0.1674929,0.008 -0.2515731,0.008 -0.042951,1.8e-4 -0.086619,0.002 -0.1289458,-0.007 -0.024521,-0.008 -0.046023,-0.0195 -0.065792,-0.036 0.01342,0.0296 -0.034364,-0.004 -0.033401,-0.0255 -0.00128,-0.006 -2.513e-4,-0.0122 0.00163,-0.0184 0.00488,-0.0176 0.00257,-0.0417 0.024849,-0.0389 0.00289,1.9e-4 0.00682,0.003 0.00866,5.8e-4 0.00712,-0.009 -0.00407,-0.0607 0.00492,-0.0728 0.00519,-0.0397 0.016432,-0.0787 0.036216,-0.11368 0.00599,-0.041 0.023968,-0.0773 0.030346,-0.11721 0.00497,-0.0392 0.016092,-0.077 0.028961,-0.11437 -0.00116,-0.0487 -0.00299,-0.0974 -0.010818,-0.14551 -0.010026,-0.0642 -0.026603,-0.12715 -0.015888,-0.19258 0.00528,-0.0694 0.011851,-0.13886 0.027529,-0.2068 -3.68e-5,-0.0566 3.201e-4,-0.11319 -3.969e-4,-0.16979 -0.00173,-0.0686 -0.00562,-0.13715 -0.016667,-0.20499 -0.014562,-0.095 -0.029896,-0.18967 -0.042149,-0.28502 -0.01674,-0.0892 -0.029438,-0.17899 -0.047243,-0.26806 -0.00841,-0.0782 -0.026405,-0.15432 -0.038388,-0.23191 -0.011495,-0.0657 -0.032668,-0.12865 -0.046682,-0.19373 -0.016458,-0.0543 -0.02986,-0.10925 -0.047995,-0.16309 -0.00841,-0.0497 -0.026871,-0.0947 -0.043034,-0.14196 -0.017548,-0.0487 -0.039428,-0.0954 -0.051447,-0.14621 -0.024351,-0.0755 -0.037926,-0.15459 -0.062025,-0.23034 -0.02335,-0.0731 -0.046141,-0.14626 -0.075531,-0.21719 -0.021198,-0.0527 -0.04191,-0.10548 -0.065644,-0.15714 -0.025953,-0.0552 -0.045797,-0.11331 -0.066724,-0.17055 -0.021566,-0.0552 -0.039225,-0.11222 -0.067657,-0.16454 -0.024034,-0.0404 -0.045637,-0.0822 -0.073128,-0.12048 -0.014122,-0.0302 -0.030827,-0.0595 -0.047583,-0.0882 -0.01905,-0.0283 -0.039341,-0.0549 -0.0612481,-0.0812 -0.054336,-0.0596 -0.1096373,-0.1188 -0.1705525,-0.17181 0,0 0.41617885,-0.26025 0.41617885,-0.26025 z"
       inkscape:connector-curvature="0" />
    <path
       style="fill:#d8d8d8;fill-opacity:1;stroke:none;stroke-width:0.1875;stroke-linecap:round;stroke-linejoin:round;stroke-miterlimit:4;stroke-dasharray:none;stroke-opacity:0.99145298"
       d="M 5.93858,21.32951 C 5.6120175,21.30627 5.34483,21.26827 5.34483,21.24506 c 0,-0.02321 0.1800503,-0.765443 0.4001118,-1.649402 l 0.4001119,-1.607197 -0.028221,-3.125 C 6.1013108,13.144708 6.008775,10.754083 5.9111973,9.550958 5.8136197,8.347833 5.7069307,6.9285006 5.6741108,6.396886 L 5.6144381,5.4303141 6.0733841,5.3076668 C 7.6028051,4.8989491 8.3282564,4.7830807 8.90733,4.8550317 c 0.6398724,0.079505 2.995894,0.7126534 3.122321,0.8390803 0.03862,0.038619 0.153796,0.5070475 0.255949,1.0409522 0.102152,0.5339047 0.298346,1.2253185 0.435986,1.5364753 0.137639,0.3111567 0.364732,1.1414777 0.504652,1.8451575 0.158333,0.796289 0.535851,1.97696 0.999737,3.126639 0.409937,1.015971 0.91972,2.414873 1.132853,3.108671 0.213133,0.693798 0.662799,1.98351 0.999258,2.866027 0.336459,0.882516 0.611744,1.619565 0.611744,1.637884 0,0.01832 -0.520312,0.06655 -1.15625,0.10718 -0.635937,0.04063 -1.859375,0.130129 -2.71875,0.198889 -1.659889,0.132811 -6.1627422,0.23822 -7.15625,0.167523 z"
       id="path1587"
       inkscape:connector-curvature="0"
       transform="matrix(0.26458334,0,0,0.26458334,0,280.06665)" />
    <path
       style="fill:#d8d8d8;fill-opacity:1;stroke:none;stroke-width:0.1875;stroke-linecap:round;stroke-linejoin:round;stroke-miterlimit:4;stroke-dasharray:none;stroke-opacity:0.99145298"
       d="M 5.6798723,42.064612 C 5.3485205,42.015343 5.0361591,41.90828 4.9857357,41.826694 4.8720292,41.642713 4.485182,36.1392 4.3381284,32.613458 4.2779116,31.169708 4.2266604,28.322158 4.2242367,26.28557 l -0.00441,-3.702887 3.53125,-0.0851 c 1.9421875,-0.0468 4.1218753,-0.142472 4.8437503,-0.212596 0.76587,-0.0744 2.189498,-0.09075 3.418238,-0.03928 l 2.105737,0.08822 0.886149,0.764764 c 2.003415,1.728984 4.589757,3.732345 5.541882,4.292697 l 1.014508,0.597066 0.07835,0.6875 c 0.04309,0.378125 0.115726,2.018521 0.161414,3.645326 l 0.08307,2.957825 -0.36342,0.320696 c -0.199882,0.176383 -0.994467,0.773945 -1.765747,1.327915 -0.771279,0.553972 -2.036904,1.600282 -2.8125,2.325134 -0.775595,0.724853 -1.786329,1.636894 -2.246074,2.026759 l -0.8359,0.708845 -5.1641,0.0016 c -2.8402554,8.49e-4 -5.4453503,0.03814 -5.7891003,0.08286 -0.34375,0.04472 -0.896106,0.041 -1.2274577,-0.0083 z"
       id="path1589"
       inkscape:connector-curvature="0"
       transform="matrix(0.26458334,0,0,0.26458334,0,280.06665)" />
    <path
       style="fill:#d8d8d8;fill-opacity:1;stroke:none;stroke-width:0.1875;stroke-linecap:round;stroke-linejoin:round;stroke-miterlimit:4;stroke-dasharray:none;stroke-opacity:0.99145298"
       d="m 8.34483,58.952537 c 0,-0.143168 0.061123,-0.418654 0.135828,-0.612192 0.074706,-0.193538 0.1546524,-1.139387 0.1776598,-2.101887 0.033528,-1.402647 -0.018342,-2.122164 -0.2613293,-3.625 -0.507876,-3.141129 -1.805359,-7.098594 -2.8175222,-8.59375 -0.4637424,-0.685035 -0.4733549,-0.71875 -0.2049227,-0.71875 0.1549039,0 1.3225257,-0.05978 2.5947149,-0.132847 2.4517405,-0.140811 8.5418795,-0.0127 8.8621675,0.186424 0.136948,0.08514 0.108865,0.142413 -0.131611,0.268412 -0.277748,0.145527 -0.320273,0.283882 -0.464993,1.512843 -0.407907,3.463969 -1.247888,8.149095 -1.945739,10.852668 -0.230696,0.89375 -0.458098,1.864062 -0.505337,2.15625 l -0.08589,0.53125 -0.832763,0.0018 c -0.45802,0.001 -1.186401,0.08522 -1.618626,0.187125 -0.432225,0.101904 -1.2619127,0.22187 -1.8437504,0.266594 -1.0145435,0.07798 -1.0578866,0.07065 -1.0578866,-0.17899 z"
       id="path1591"
       inkscape:connector-curvature="0"
       transform="matrix(0.26458334,0,0,0.26458334,0,280.06665)" />
    <path
       style="fill:#d8d8d8;fill-opacity:1;stroke:none;stroke-width:0.1875;stroke-linecap:round;stroke-linejoin:round;stroke-miterlimit:4;stroke-dasharray:none;stroke-opacity:0.99145298"
       d="m 28.40733,33.231195 c -0.275,-0.106032 -0.584375,-0.209315 -0.6875,-0.229519 -0.153493,-0.03007 -0.193784,-0.342768 -0.222149,-1.724042 l -0.03465,-1.687306 1.97215,-0.08308 c 1.084682,-0.04569 3.519024,-0.222782 5.409649,-0.393531 2.405138,-0.217218 5.089279,-0.351794 8.9375,-0.448106 5.947142,-0.148843 7.559235,-0.09907 8.437128,0.260508 0.947213,0.387968 1.455687,0.423679 1.866583,0.131095 0.197935,-0.140942 0.379323,-0.256296 0.403085,-0.256343 0.03463,-6.8e-5 -0.01682,1.019463 -0.13177,2.611025 -0.01013,0.14021 -0.210401,0.157384 -1.045308,0.08964 -0.645895,-0.05241 -2.273096,0.0079 -4.34375,0.160981 -1.821033,0.13463 -4.070343,0.279263 -4.998468,0.321408 -3.435488,0.156002 -9.988801,0.74807 -12.4375,1.123684 -2.017459,0.309464 -2.584722,0.331897 -3.125,0.123584 z"
       id="path1593"
       inkscape:connector-curvature="0"
       transform="matrix(0.26458334,0,0,0.26458334,0,280.06665)" />
    <path
       style="fill:#d8d8d8;fill-opacity:1;stroke:none;stroke-width:0.1875;stroke-linecap:round;stroke-linejoin:round;stroke-miterlimit:4;stroke-dasharray:none;stroke-opacity:0.99145298"
       d="m 56.12608,34.468173 c -0.256082,-0.103331 -0.163233,-4.177 0.162341,-7.122592 l 0.07106,-0.642877 1.523927,-0.08968 c 0.838159,-0.04932 1.595598,-0.147731 1.683197,-0.218686 0.0876,-0.07095 0.196237,-0.09204 0.241419,-0.04686 0.04518,0.04518 -0.01614,0.96726 -0.136262,2.049063 -0.41884,3.771894 -0.476578,4.471518 -0.426485,5.167797 l 0.05043,0.700883 -0.944184,0.143693 c -0.962664,0.146505 -1.944423,0.172646 -2.225434,0.05926 z"
       id="path1595"
       inkscape:connector-curvature="0"
       transform="matrix(0.26458334,0,0,0.26458334,0,280.06665)" />
  </g>
</svg>
