<?xml version="1.0" encoding="UTF-8" standalone="no"?>
<!-- Created with Inkscape (http://www.inkscape.org/) -->

<svg
   xmlns:dc="http://purl.org/dc/elements/1.1/"
   xmlns:cc="http://creativecommons.org/ns#"
   xmlns:rdf="http://www.w3.org/1999/02/22-rdf-syntax-ns#"
   xmlns:svg="http://www.w3.org/2000/svg"
   xmlns="http://www.w3.org/2000/svg"
   xmlns:sodipodi="http://sodipodi.sourceforge.net/DTD/sodipodi-0.dtd"
   xmlns:inkscape="http://www.inkscape.org/namespaces/inkscape"
   width="100"
   height="100"
   viewBox="0 0 26.458333 26.458334"
   version="1.1"
   id="svg8"
   inkscape:version="0.92.5 (2060ec1f9f, 2020-04-08)"
   sodipodi:docname="asteroid-ore.svg">
  <defs
     id="defs2" />
  <sodipodi:namedview
     id="base"
     pagecolor="#000d50"
     bordercolor="#666666"
     borderopacity="1.0"
     inkscape:pageopacity="0"
     inkscape:pageshadow="2"
     inkscape:zoom="5.6568542"
     inkscape:cx="27.475219"
     inkscape:cy="49.374042"
     inkscape:document-units="px"
     inkscape:current-layer="layer2"
     showgrid="false"
     units="px"
     inkscape:window-width="1920"
     inkscape:window-height="1027"
     inkscape:window-x="0"
     inkscape:window-y="0"
     inkscape:window-maximized="1" />
  <metadata
     id="metadata5">
    <rdf:RDF>
      <cc:Work
         rdf:about="">
        <dc:format>image/svg+xml</dc:format>
        <dc:type
           rdf:resource="http://purl.org/dc/dcmitype/StillImage" />
        <dc:title></dc:title>
      </cc:Work>
    </rdf:RDF>
  </metadata>
  <g
     inkscape:groupmode="layer"
     id="layer2"
     inkscape:label="Layer 2">
    <path
       style="fill:#ffffff;fill-opacity:0.99572641;stroke:none;stroke-width:0.52916664;stroke-linecap:round;stroke-linejoin:round;stroke-miterlimit:4;stroke-dasharray:none;stroke-opacity:0.97435895"
       id="path859"
       d="M 8.1100863,9.8609646 C 9.1213497,9.3078209 8.6927528,9.488463 8.5134359,9.6492641 8.4487805,9.7072433 8.399319,9.7732891 8.3498303,9.8439879 8.2635748,9.9776271 8.2376432,10.134645 8.2064081,10.287556 c -0.033401,0.131787 -0.024088,0.265203 -0.012599,0.398832 0.00896,0.08635 0.014719,0.179202 0.058772,0.256028 0.017097,0.03982 0.053324,0.06317 0.085672,0.08975 0.052995,0.02737 0.1049063,0.0606 0.151406,0.09804 0.072244,0.06224 0.1490985,0.117946 0.2154351,0.18695 0.089623,0.09531 0.1544402,0.208896 0.1985629,0.331288 0.059049,0.162036 0.078048,0.33326 0.092298,0.503911 0.00114,0.141088 0.020608,0.280234 0.039104,0.41974 0.00375,0.0796 0.027154,0.154781 0.045375,0.231583 0.01833,0.06841 0.040643,0.134675 0.078058,0.195008 0.034461,0.06299 0.086153,0.116971 0.1437617,0.159364 0.060777,0.03737 0.1198626,0.07098 0.1904365,0.08576 0.06518,0.0096 0.1311965,0.0085 0.196891,0.0086 0.078742,6.6e-5 0.1574773,-7.41e-4 0.2362194,-8.21e-4 0.086289,0.009 0.1677263,-0.01172 0.2519383,-0.02562 0.09776,-0.02816 0.191925,-0.0645 0.278444,-0.118333 -0.0876,0.0699 0.258865,-0.139652 0.161676,-0.08386 -0.177258,0.101753 -0.7103129,0.404704 -0.53118,0.306291 0.938232,-0.515454 0.401247,-0.248924 0.715978,-0.404178 0.134876,-0.07456 0.281454,-0.126979 0.427206,-0.176225 0.142741,-0.03983 0.273964,-0.105216 0.406707,-0.169144 0.1724,-0.09546 -0.05136,0.02714 0.115272,-0.06017 0.01785,-0.0093 0.07019,-0.0396 0.0527,-0.02959 -0.932539,0.534152 -0.663097,0.394763 -0.463696,0.254993 0.06774,-0.05573 0.135784,-0.115864 0.184655,-0.189329 0.03521,-0.06719 0.06215,-0.136979 0.07738,-0.211238 0.01061,-0.09227 -0.01629,-0.176662 -0.0546,-0.258949 -0.05863,-0.118656 -0.154621,-0.211202 -0.230505,-0.317802 -0.09943,-0.143115 -0.150408,-0.308194 -0.194865,-0.474617 -0.03456,-0.161968 -0.05569,-0.326551 -0.09337,-0.487918 -0.02864,-0.112679 -0.07022,-0.222174 -0.114649,-0.329523 -0.04289,-0.09667 -0.105314,-0.178873 -0.183837,-0.248575 -0.06349,-0.05261 -0.134776,-0.06868 -0.214556,-0.075 -0.07864,0.003 -0.153121,-0.02152 -0.229826,-0.03553 -0.07214,-0.0072 -0.145901,-0.02239 -0.209979,-0.05722 C 10.007015,10.015395 9.9492712,9.9566845 9.8857841,9.9039134 9.8093555,9.8266341 9.7155457,9.7736005 9.6251545,9.7151842 9.5541445,9.6642713 9.4670098,9.637665 9.3965005,9.5874553 9.3637125,9.5606726 9.3263158,9.5433974 9.292687,9.5176045 9.2507526,9.5046796 9.2127294,9.4948001 9.1732493,9.4746592 9.1120316,9.4535454 9.0456826,9.4536857 8.9816142,9.4513864 c -0.081295,0.00306 -0.1694156,0.016222 -0.2458984,0.045915 -0.060606,0.022061 -0.1233996,0.03582 -0.186604,0.047924 -0.030497,0.00209 -0.060922,0.0013 -0.091414,6.615e-4 -0.00752,0.00414 -0.019198,-0.00551 -0.0264,-4.498e-4 -0.00466,0.00328 -0.012078,0.018309 -0.00708,0.015571 C 8.6197188,9.4539291 9.1832773,9.0960584 9.0057207,9.2308147 8.817063,9.3739966 8.5969096,9.4701118 8.3906385,9.5864946 8.1960095,9.6963083 8.7774075,9.3625129 8.9707923,9.2505222 c -0.029235,0.021995 -0.059739,0.049329 -0.079844,0.080222 -0.00206,0.00414 -0.00414,0.00828 -0.00622,0.01242 0,0 -0.6338512,0.2945407 -0.6338512,0.2945407 v 0 c 0.00161,-0.00556 0.00321,-0.01112 0.00482,-0.016679 0.014012,-0.043886 0.037004,-0.075445 0.067135,-0.1106043 0.2039692,-0.120428 0.4223492,-0.2192475 0.6119064,-0.3612827 0.1785472,-0.1337858 -0.7803186,0.431837 -0.5786641,0.336374 0.214902,-0.1017341 0.4099529,-0.2411264 0.6185395,-0.355251 0.00905,-0.00495 0.036936,0.012004 0.048676,0.0043 0.0277,-8.732e-4 0.055667,-0.00369 0.082414,-0.011171 0.061029,-0.013396 0.1204683,-0.03213 0.1802591,-0.050155 0.085475,-0.017452 0.1719148,-0.03553 0.2596665,-0.027099 0.071403,0.00493 0.1438762,0.010872 0.2090719,0.043185 0.043008,0.017291 0.090825,0.023175 0.1277282,0.054312 0.033035,0.022894 0.0697,0.040621 0.1000434,0.067585 0.075267,0.042786 0.152008,0.082989 0.225093,0.1296675 0.09303,0.059418 0.185333,0.1192252 0.266372,0.1948754 0.0593,0.048676 0.113126,0.1052502 0.182778,0.1395111 0.06539,0.022199 0.132115,0.034583 0.200406,0.044103 0.07514,0.015478 0.149793,0.029079 0.226659,0.032484 0.08949,0.015896 0.168174,0.049507 0.236643,0.1110546 0.0839,0.078244 0.149118,0.1712205 0.197627,0.2754975 0.04661,0.110552 0.09048,0.22354 0.119064,0.34017 0.03779,0.161079 0.05487,0.326271 0.08885,0.488132 0.04146,0.158581 0.08901,0.316002 0.185878,0.450866 0.07923,0.10908 0.176466,0.205628 0.238017,0.327203 0.04725,0.0942 0.07698,0.188879 0.07694,0.295541 -0.01095,0.08138 -0.032,0.157335 -0.06792,0.231307 -0.038,0.09004 -0.107243,0.149261 -0.173688,0.21888 -0.273289,0.207799 -0.582368,0.364713 -0.887859,0.520172 -0.132989,0.06434 -0.269846,0.117336 -0.410616,0.162329 -0.144393,0.05241 -0.287829,0.108368 -0.422079,0.1838 -0.02149,0.0112 -0.08537,0.04588 -0.06448,0.0336 0.176218,-0.103646 0.708437,-0.408448 0.530535,-0.307719 -0.271706,0.153841 -0.533861,0.321669 -0.8134209,0.459735 -0.093273,0.04556 -0.1911374,0.08246 -0.2937391,0.100542 -0.086325,0.0148 -0.1721109,0.02118 -0.2598087,0.01731 -0.07895,3.97e-4 -0.1578988,6.09e-4 -0.2368489,2.06e-4 -0.070074,-0.0011 -0.140662,-0.0029 -0.2083527,-0.02332 C 8.844776,13.611275 8.7778978,13.572859 8.7139993,13.52795 8.653093,13.476729 8.5956274,13.418837 8.557243,13.34841 8.5155473,13.281388 8.4908278,13.2084 8.4678567,13.133185 8.4507434,13.053504 8.4225446,12.976435 8.4225076,12.89379 8.4061775,12.752385 8.3850185,12.61164 8.3861753,12.468854 8.3751157,12.30406 8.3584464,12.138342 8.3001,11.982418 8.2603265,11.86883 8.1990797,11.764875 8.1142754,11.678579 8.0485188,11.613565 7.9727699,11.56097 7.9017864,11.50195 7.8510704,11.46696 7.797488,11.43653 7.7464318,11.40224 c -0.038477,-0.03253 -0.077492,-0.06551 -0.097874,-0.113139 -0.045464,-0.08712 -0.060353,-0.186686 -0.067964,-0.283852 -0.01111,-0.139322 -0.026448,-0.279137 0.00547,-0.417147 0.032312,-0.159265 0.057571,-0.323223 0.1344534,-0.46849 0.2361297,-0.3777442 0.4900818,-0.4505959 0.929047,-0.6951117 0,0 -0.5394809,0.4364654 -0.5394809,0.4364654 z"
       inkscape:connector-curvature="0" />
    <path
       style="fill:#ffffff;fill-opacity:0.99572641;stroke:none;stroke-width:0.52916664;stroke-linecap:round;stroke-linejoin:round;stroke-miterlimit:4;stroke-dasharray:none;stroke-opacity:0.97435895"
       id="path861"
       d="m 14.828699,14.875706 c -0.130338,-0.004 -0.260076,0.0231 -0.381803,0.06838 0.121953,-0.08424 -0.286682,0.160825 -0.149252,0.08192 0.960419,-0.551431 0.639727,-0.386646 0.442718,-0.242437 -0.104606,0.07755 -0.179289,0.186782 -0.251527,0.293457 -0.07066,0.107681 -0.132692,0.216983 -0.167667,0.341287 -0.02488,0.117971 -0.03287,0.23982 -0.02544,0.360061 0.0079,0.087 0.02459,0.172619 0.07243,0.246675 0.04444,0.05472 0.104989,0.09369 0.159674,0.137723 0.114616,0.09212 0.16573,0.234471 0.215213,0.36791 0.07184,0.214231 0.109817,0.435717 0.133394,0.659723 0.02804,0.257266 -0.0059,0.513484 -0.04573,0.767283 -0.03706,0.227504 -0.102242,0.448792 -0.157189,0.672241 -0.03627,0.130237 -0.06829,0.261368 -0.0878,0.395194 -0.0038,0.03187 -0.01974,0.128017 0.03931,0.103147 0.09799,-0.02618 0.195055,-0.05778 0.290841,-0.09171 0.136096,-0.05139 0.274127,-0.08948 0.418358,-0.108544 0.147029,-0.0207 0.293345,-0.01545 0.440241,-1.24e-4 0.16395,0.03533 0.329502,0.05745 0.496666,0.06921 0.173205,0.01774 0.340129,0.0092 0.507909,-0.03619 0.09296,-0.02996 0.184654,-0.06456 0.271157,-0.110284 0.03328,-0.01759 0.130629,-0.07489 0.09774,-0.05659 -0.506893,0.282065 -0.642262,0.384885 -0.395259,0.20694 0.162574,-0.12079 0.309322,-0.262377 0.434725,-0.421285 0.08038,-0.108085 0.136625,-0.22552 0.165499,-0.356605 0.02392,-0.136535 0.0021,-0.275296 -0.02263,-0.410077 -0.02409,-0.114613 -0.06709,-0.222194 -0.121315,-0.325359 -0.04366,-0.07193 -0.09133,-0.141494 -0.139348,-0.210627 -0.06233,-0.08397 -0.110746,-0.176594 -0.171304,-0.261895 -0.07766,-0.104543 -0.12657,-0.221218 -0.155853,-0.347156 -0.03131,-0.149099 -0.0018,-0.295609 0.03869,-0.439286 0.04704,-0.158953 0.116391,-0.309968 0.180113,-0.462667 0.05643,-0.112446 0.09583,-0.229184 0.116242,-0.353093 0.0212,-0.10044 0.0049,-0.189716 -0.03397,-0.282669 -0.04835,-0.0987 -0.110361,-0.188071 -0.179961,-0.272692 -0.07789,-0.104995 -0.185091,-0.176225 -0.289191,-0.251934 -0.08201,-0.06528 -0.171065,-0.119283 -0.260372,-0.173562 -0.08522,-0.03816 -0.170371,-0.08961 -0.265515,-0.09204 -0.126397,4.76e-4 -0.239097,0.06766 -0.344985,0.129915 -0.0213,0.01153 -0.08485,0.04673 -0.0639,0.03458 1.165244,-0.67555 0.165217,-0.06958 -0.237602,0.127139 -0.05558,-1.28e-4 -0.06766,-0.02839 -0.09431,-0.07331 0,0 0.602144,-0.349044 0.602144,-0.349044 v 0 c 0.0093,0.01403 0.02453,-0.0086 0.03593,-0.01222 0.02553,-0.0128 0.03921,-0.01953 0.06572,-0.03348 0.01596,-0.0084 0.06329,-0.03459 0.04772,-0.0255 -1.143327,0.667396 -0.214941,0.116163 0.180512,-0.100549 0.117828,-0.06059 0.239368,-0.117312 0.375519,-0.09744 0.09883,0.02339 0.192043,0.06649 0.280679,0.115626 0.091,0.05444 0.178354,0.113911 0.261387,0.179996 0.108631,0.07903 0.217033,0.158233 0.299248,0.266387 0.07361,0.08981 0.139073,0.184636 0.191034,0.288823 0.04504,0.102553 0.07246,0.204305 0.05105,0.316961 -0.01731,0.129282 -0.04759,0.255009 -0.111893,0.369919 -0.0629,0.151096 -0.134003,0.299107 -0.183532,0.45534 -0.03842,0.133457 -0.08009,0.26734 -0.05196,0.407847 0.02427,0.118227 0.06921,0.225706 0.142568,0.322719 0.06101,0.08558 0.111072,0.177875 0.174891,0.261402 0.04837,0.07232 0.09927,0.14301 0.142397,0.218637 0.05576,0.11006 0.100687,0.224191 0.127407,0.345151 0.02645,0.14182 0.05302,0.287642 0.03531,0.432075 -0.02211,0.142067 -0.07252,0.268164 -0.155227,0.386753 -0.120343,0.167987 -0.270665,0.312959 -0.431814,0.441752 -0.296349,0.222221 -0.100723,0.08061 -0.769938,0.472776 -0.119433,0.06999 -0.250133,0.119123 -0.383449,0.154929 -0.172724,0.03594 -0.345542,0.03645 -0.521035,0.01924 -0.167492,-0.01436 -0.332416,-0.04252 -0.498243,-0.06917 -0.143976,-0.01116 -0.288221,-0.0082 -0.431159,0.01454 -0.141197,0.02589 -0.276656,0.06977 -0.411598,0.118391 -0.10161,0.03344 -0.210806,0.08233 -0.319313,0.06474 -0.07475,-0.04131 -0.103412,-0.108698 -0.08856,-0.193671 0.01865,-0.137445 0.05226,-0.272067 0.0915,-0.405006 0.05633,-0.223037 0.126949,-0.44268 0.165667,-0.66992 0.04087,-0.248005 0.0776,-0.498312 0.05129,-0.750278 -0.02092,-0.218337 -0.05667,-0.43404 -0.128438,-0.642167 -0.04673,-0.121855 -0.09365,-0.251292 -0.203058,-0.331328 -0.06229,-0.04738 -0.127939,-0.09336 -0.173779,-0.157953 -0.0506,-0.08537 -0.07642,-0.178294 -0.08422,-0.27734 -0.01296,-0.126631 -0.003,-0.25473 0.01514,-0.380514 0.0301,-0.132073 0.08257,-0.249352 0.160022,-0.360972 0.06269,-0.111098 0.148768,-0.228447 0.240962,-0.315915 0.267438,-0.218213 0.576127,-0.387645 0.894427,-0.519154 0.129682,-0.03555 0.262207,-0.05648 0.397164,-0.05296 0,0 -0.56145,0.407918 -0.56145,0.407918 z"
       inkscape:connector-curvature="0" />
    <path
       style="fill:#ffffff;fill-opacity:0.99572641;stroke:none;stroke-width:0.52916664;stroke-linecap:round;stroke-linejoin:round;stroke-miterlimit:4;stroke-dasharray:none;stroke-opacity:0.97435895"
       id="path863"
       d="m 14.790846,5.07484 c -0.148879,0.159511 -0.259916,0.3481827 -0.372358,0.5337871 -0.09026,0.159027 -0.17832,0.3207311 -0.248795,0.4897088 -0.02849,0.1013656 -0.0405,0.073409 0.02704,0.1015437 0.104207,0.00214 0.208383,-0.00891 0.312056,0.00262 0.137767,0.010332 0.211768,0.06594 0.284709,0.1787002 0.07027,0.1239998 0.105679,0.2621833 0.145053,0.3979642 0.03528,0.1136664 0.0887,0.2200238 0.15633,0.3176112 0.06953,0.09586 0.17621,0.1554517 0.280118,0.2078278 0.110821,0.046754 0.224425,0.050696 0.34173,0.037547 0.0084,-0.00103 0.09472,-0.011314 0.106438,-0.014031 0.222135,-0.051527 0.697596,-0.3711718 -0.43375,0.2696308 0.0743,-0.044175 0.14324,-0.096352 0.213406,-0.146581 0.07017,-0.058955 0.138617,-0.1217038 0.201844,-0.1882974 0.07669,-0.080866 0.146122,-0.1679093 0.209639,-0.259389 0.07188,-0.1141717 0.138125,-0.2314919 0.204121,-0.3491047 0.06078,-0.1081559 0.110621,-0.2213404 0.157868,-0.335851 0.02773,-0.083147 0.06445,-0.1631307 0.08667,-0.2480178 0.01791,-0.071636 0.01819,-0.1458989 0.0194,-0.2192652 C 16.483211,5.7504724 16.483317,5.6497013 16.483,5.5489271 16.4741,5.4497781 16.45542,5.3519728 16.44544,5.2528811 16.43744,5.1801381 16.40404,5.118377 16.3642,5.0585835 16.31853,4.9970365 16.251158,4.9542628 16.187591,4.9128574 16.098611,4.8529904 16.020188,4.7793881 15.942337,4.7060834 15.863037,4.6324454 15.776819,4.5789501 15.67187,4.5528759 c -0.07823,-0.00392 -0.150563,-0.025313 -0.226012,-0.04295 -0.06926,-0.010462 -0.13637,-0.019502 -0.204575,-0.0359 -0.08654,-0.016018 -0.176048,-0.033031 -0.263554,-0.018243 -0.01433,0.00557 -0.02841,0.011803 -0.04298,0.016703 -0.01696,0.0057 -0.03512,0.00789 -0.05151,0.015073 -0.01795,0.00787 -0.06776,0.039404 -0.05072,0.029728 0.952289,-0.5406888 0.624833,-0.3788714 0.429405,-0.2286162 -0.104378,0.085985 -0.199458,0.18243 -0.29493,0.2779925 -0.09346,0.088374 -0.195821,0.1653159 -0.282517,0.2606775 -0.05114,0.059604 -0.09629,0.1239081 -0.141876,0.1877386 0,0 -0.631042,0.2738493 -0.631042,0.2738493 v 0 c 0.04562,-0.064468 0.08893,-0.1306481 0.138499,-0.1922111 0.07971,-0.1033013 0.176264,-0.1861021 0.279318,-0.2657959 0.09584,-0.096509 0.191141,-0.1937343 0.292323,-0.2847076 0.263609,-0.2266748 0.569243,-0.4414863 0.914226,-0.5022408 0.09307,0.00106 0.185444,0.012917 0.27611,0.034234 0.06859,0.014115 0.139205,0.015994 0.20655,0.036637 0.07476,0.019788 0.151265,0.026956 0.225941,0.047256 0.108822,0.038643 0.20182,0.101446 0.285886,0.1806837 0.07664,0.070415 0.154651,0.1398074 0.242548,0.196133 0.06946,0.049369 0.143272,0.096729 0.19172,0.1686211 0.0447,0.069914 0.08433,0.1411218 0.0957,0.2248445 0.0085,0.1013611 0.02523,0.2014085 0.03956,0.3020454 9.5e-5,0.1007192 0.0011,0.201427 0.0014,0.3021441 -1.36e-4,0.077754 0.0013,0.1561462 -0.01116,0.2331373 -0.02057,0.08934 -0.05559,0.171872 -0.08557,0.2582294 -0.04577,0.1180108 -0.09745,0.2331482 -0.156827,0.3449929 -0.06508,0.1182806 -0.130142,0.2363218 -0.201139,0.3511584 -0.05409,0.098951 -0.128483,0.185878 -0.202872,0.2702764 -0.06162,0.07156 -0.132648,0.1307994 -0.195562,0.2010481 -0.06977,0.052112 -0.139534,0.1026247 -0.211361,0.1518804 -0.354361,0.2026287 -0.5236,0.3848102 -0.876405,0.4054826 -0.126235,0.00517 -0.249687,-0.013002 -0.364197,-0.069432 C 14.685117,7.6213535 14.573117,7.5536311 14.49886,7.4473247 14.42724,7.3431929 14.370506,7.2301838 14.332672,7.1092764 14.296812,6.9799504 14.263702,6.8485467 14.197055,6.7308108 14.130045,6.6344988 14.063091,6.610467 13.946323,6.6051398 c -0.109726,-0.00295 -0.223643,0.013428 -0.329677,-0.020524 -0.08656,-0.042294 -0.104296,-0.1054407 -0.07492,-0.195517 0.06612,-0.1760276 0.168723,-0.3381989 0.254734,-0.5047951 0.10978,-0.184485 0.216033,-0.3738782 0.35549,-0.5380038 0,0 0.638895,-0.2714511 0.638895,-0.2714511 z"
       inkscape:connector-curvature="0" />
    <path
       style="fill:#ffffff;fill-opacity:0.99572641;stroke:none;stroke-width:0.52916664;stroke-linecap:round;stroke-linejoin:round;stroke-miterlimit:4;stroke-dasharray:none;stroke-opacity:0.97435895"
       id="path865"
       d="m 22.788886,10.219779 c -0.101103,0.125878 -0.195055,0.257798 -0.281325,0.394255 -0.08163,0.142432 -0.165334,0.283641 -0.240784,0.429472 -0.06804,0.121179 -0.125783,0.247683 -0.183922,0.373791 -0.04227,0.08509 -0.05334,0.179603 -0.07814,0.270086 -0.02222,0.06764 -0.03443,0.134226 -0.02652,0.205079 0.0076,0.08362 0.02565,0.16414 0.04722,0.244978 0.02899,0.08563 0.06335,0.169354 0.09696,0.253273 0.04086,0.10677 0.05947,0.219295 0.06873,0.332667 0.01458,0.136893 -0.01778,0.26878 -0.05778,0.398327 -0.05267,0.161865 -0.121767,0.317846 -0.187109,0.474899 -0.0657,0.162765 -0.150507,0.316575 -0.235662,0.46971 -0.05537,0.09734 -0.120072,0.189331 -0.172946,0.288073 -0.02659,0.04685 -0.03601,0.0981 -0.03982,0.151017 0.0145,0.09332 0.02776,0.1865 0.03424,0.280982 0.01601,0.16174 -0.01858,0.319773 -0.05631,0.475819 -0.04734,0.170349 -0.09868,0.339524 -0.146311,0.509794 -0.03305,0.122327 -0.05335,0.247727 -0.06239,0.374026 -0.0038,0.0587 -0.0041,0.117576 -0.0033,0.176375 0.0042,0.04928 -0.01058,0.09542 -0.02858,0.140522 -0.0089,0.02243 0.0085,0.05229 0.0166,0.07431 0.0098,0.02999 0.01171,0.06135 0.01332,0.09259 -3.44e-4,0.03679 0.01911,0.0705 0.02945,0.105571 0.01709,0.03453 0.03739,0.06473 0.06762,0.08887 0.04809,0.03869 0.109405,0.07201 0.170943,0.07926 0.08826,0.01018 0.168656,-0.01614 0.244595,-0.05918 -0.925491,0.558136 -0.506462,0.323367 -0.28401,0.04418 0.08194,-0.115658 0.155845,-0.236592 0.227933,-0.358524 0.04161,-0.07154 0.07626,-0.146859 0.113617,-0.220687 0.03546,-0.06061 0.06172,-0.126151 0.08466,-0.192346 0.02846,-0.113118 0.05275,-0.226897 0.06716,-0.342667 0.01176,-0.108243 0.01367,-0.217177 0.01466,-0.325946 1.61e-4,-0.09269 5.82e-4,-0.185391 -5.82e-4,-0.278076 -1.61e-4,-0.07428 -7.93e-4,-0.148564 -6.61e-4,-0.222847 -9.53e-4,-0.0952 -2.91e-4,-0.189861 0.01231,-0.284318 0.01831,-0.109852 0.02693,-0.220878 0.032,-0.332022 9.2e-5,-0.09875 0.02272,-0.195321 0.03567,-0.292792 0.0025,-0.07651 0.01779,-0.14992 0.03708,-0.223552 0.0091,-0.05393 0.02975,-0.101002 0.057,-0.148106 0.04725,-0.08425 0.100531,-0.164867 0.148773,-0.248602 0.0532,-0.08788 0.09477,-0.181308 0.134564,-0.275744 0.03555,-0.0922 0.06543,-0.186359 0.09822,-0.27953 0.028,-0.08205 0.0605,-0.162567 0.09241,-0.243191 0.03626,-0.09566 0.06584,-0.193357 0.09543,-0.29121 0.02847,-0.100901 0.05708,-0.201995 0.09163,-0.301016 0.02464,-0.07238 0.0586,-0.141114 0.09131,-0.210128 0.03527,-0.06183 0.04536,-0.130951 0.05207,-0.200575 0.0092,-0.07165 0.03008,-0.140921 0.04028,-0.21244 0.01053,-0.08009 0.01082,-0.161077 0.01155,-0.241718 -0.0044,-0.102172 0.0025,-0.202597 0.01851,-0.303391 0.01318,-0.07922 0.02161,-0.159065 0.02474,-0.239289 0.003,-0.07235 0.0026,-0.144761 0.0025,-0.217152 -0.0066,-0.0541 -0.026,-0.105398 -0.03651,-0.158835 -0.01272,-0.04467 -0.03487,-0.08453 -0.06131,-0.12231 -0.0224,-0.03173 -0.05267,-0.05901 -0.09279,-0.06232 -0.02129,0.0033 -0.04464,-0.0059 -0.06571,-0.0013 -0.02122,0.0047 -0.03949,0.01812 -0.05905,0.02758 0.184284,-0.1036711 0.368567,-0.2073417 0.552851,-0.3110126 -0.155488,0.098531 -0.264678,0.2491456 -0.368627,0.3974126 0,0 -0.619707,0.270842 -0.619707,0.270842 v 0 c 0.09823,-0.152363 0.201262,-0.302042 0.341955,-0.41902 0.164882,-0.093557 0.509971,-0.4476263 0.796294,-0.3562054 0.04707,0.024239 0.08698,0.056519 0.116673,0.1010357 0.0304,0.046891 0.05681,0.095036 0.07508,0.1481013 0.0086,0.057977 0.02834,0.1129984 0.0406,0.1702054 2e-5,0.07326 2.58e-4,0.146545 -0.0012,0.219795 -0.0036,0.08297 -0.0082,0.165784 -0.02308,0.2477 -0.01613,0.09789 -0.03188,0.193998 -0.02359,0.293845 -4e-6,0.08279 0.0022,0.165809 -0.0047,0.248393 -0.0091,0.07078 -0.02139,0.140689 -0.04253,0.209051 -0.0044,0.07613 -0.01041,0.154069 -0.04059,0.22499 -0.03521,0.06661 -0.06633,0.1356 -0.09578,0.204301 -0.03933,0.09645 -0.06754,0.197063 -0.09546,0.29725 -0.02887,0.09911 -0.05698,0.197885 -0.09149,0.295063 -0.02962,0.08132 -0.06264,0.16104 -0.09396,0.241556 -0.03194,0.09447 -0.06515,0.188307 -0.09692,0.282789 -0.03766,0.09786 -0.07945,0.193605 -0.130689,0.285181 -0.04867,0.08168 -0.09364,0.1654 -0.147352,0.243952 -0.02154,0.04671 -0.05564,0.08291 -0.06236,0.134373 -0.02017,0.0714 -0.0462,0.140345 -0.04433,0.215919 -0.0108,0.09657 -0.03461,0.191373 -0.03884,0.288281 -0.0046,0.113221 -0.0126,0.226301 -0.02886,0.338519 -0.0149,0.09125 -0.01864,0.181372 -0.0143,0.273875 1.87e-4,0.07439 -3.7e-4,0.148774 -2.14e-4,0.223163 -7.67e-4,0.09314 3.18e-4,0.186282 -3.7e-4,0.279422 -9.79e-4,0.111252 -0.003,0.222616 -0.01347,0.333455 -0.01234,0.118525 -0.03498,0.234418 -0.05972,0.35083 -0.0152,0.07259 -0.04453,0.140458 -0.07573,0.207548 -0.04579,0.07081 -0.07641,0.149922 -0.11596,0.224063 -0.07722,0.121562 -0.149625,0.246121 -0.229127,0.36632 -0.241003,0.336696 -0.47294,0.441708 -0.890519,0.658934 -0.08931,0.03238 -0.180764,0.04785 -0.274409,0.0227 -0.06936,-0.02528 -0.13653,-0.05597 -0.191428,-0.106734 -0.03641,-0.03626 -0.06608,-0.07575 -0.08787,-0.122594 -0.01028,-0.04111 -0.03206,-0.07895 -0.0386,-0.119851 5.5e-5,-0.02459 -7.4e-5,-0.04919 -0.0035,-0.07359 -0.01209,-0.03741 -0.02682,-0.07417 -0.03461,-0.11273 0.0083,-0.04307 0.03671,-0.08031 0.03769,-0.123076 4.5e-5,-0.06107 -4.5e-4,-0.122161 0.0037,-0.183135 0.01091,-0.131285 0.03074,-0.26148 0.06302,-0.389378 0.04763,-0.169737 0.09613,-0.339191 0.147842,-0.507721 0.03583,-0.149396 0.0767,-0.299674 0.06202,-0.455032 -0.0071,-0.09604 -0.01725,-0.191647 -0.04317,-0.284734 1.9e-4,-0.06133 0.0045,-0.121897 0.02822,-0.17939 0.05092,-0.102575 0.116958,-0.196352 0.177452,-0.293436 0.08826,-0.149947 0.173931,-0.302302 0.241428,-0.462907 0.06472,-0.154941 0.131351,-0.309298 0.187221,-0.467576 0.03725,-0.12211 0.0805,-0.243772 0.06688,-0.373985 -0.0076,-0.106389 -0.02038,-0.212982 -0.05969,-0.31306 -0.03582,-0.08619 -0.06963,-0.173215 -0.102694,-0.260497 -0.02156,-0.0836 -0.04338,-0.165864 -0.05091,-0.252326 -0.01293,-0.07889 -0.0153,-0.154174 0.01368,-0.230561 0.02668,-0.09363 0.04149,-0.189983 0.07683,-0.281099 0.05688,-0.128255 0.117108,-0.255819 0.185085,-0.378447 0.07655,-0.146779 0.158018,-0.290308 0.239716,-0.43437 0.08267,-0.138682 0.178682,-0.268306 0.270961,-0.400624 0,0 0.638896,-0.271452 0.638896,-0.271452 z"
       inkscape:connector-curvature="0" />
    <path
       style="fill:#ffffff;fill-opacity:0.99572641;stroke:none;stroke-width:0.52916664;stroke-linecap:round;stroke-linejoin:round;stroke-miterlimit:4;stroke-dasharray:none;stroke-opacity:0.97435895"
       id="path867"
       d="m 4.456386,18.589837 c -0.06376,0.01078 -0.1235167,0.03568 -0.1801399,0.0663 -0.019973,0.0108 -0.078297,0.04602 -0.058537,0.03484 0.5498123,-0.311215 0.6972678,-0.438494 0.4883605,-0.265061 -0.088697,0.09076 -0.1427893,0.206496 -0.1987055,0.318696 -0.060971,0.124384 -0.1207509,0.249801 -0.1650074,0.381185 -0.05357,0.160702 -0.086046,0.327213 -0.092067,0.496401 -9.525e-4,0.179192 0.024765,0.356384 0.067562,0.529956 0.037396,0.153201 0.085319,0.307433 0.1690968,0.442091 0.055133,0.08765 0.1353079,0.122309 0.2334445,0.137272 0.1015188,0.01721 0.1999253,-0.0034 0.299852,-0.01904 0.1279491,-0.03103 0.2472484,-0.0844 0.363102,-0.145953 0.1091475,-0.05609 0.2169626,-0.113349 0.3362569,-0.144685 0.096086,-0.02416 0.1847805,-2.3e-5 0.2706698,0.04396 0.095269,0.04379 0.1525992,0.121823 0.1961422,0.21395 0.052475,0.138739 0.071676,0.285482 0.095357,0.430903 0.021458,0.166562 0.066865,0.327587 0.1170464,0.487259 0.042898,0.138681 0.1084704,0.266383 0.2001539,0.378673 0.079922,0.0878 0.1762148,0.12826 0.2900801,0.150255 0.1334601,-0.0046 0.2663778,-0.0183 0.3997516,-0.0252 0.1568524,-0.0071 0.3138723,-0.0075 0.4708501,-0.0079 0.1730105,-0.0025 0.3332353,-0.04872 0.4902671,-0.117317 0.2132121,-0.111831 0.5868466,-0.326574 -0.3670647,0.215548 -0.024836,0.01412 0.049066,-0.02928 0.073355,-0.04432 0.075719,-0.04688 0.068657,-0.04347 0.1433428,-0.09534 0.1313659,-0.101302 0.2609199,-0.206669 0.377704,-0.324697 0.1006288,-0.108726 0.1882937,-0.22835 0.2768021,-0.346884 0.1098471,-0.141007 0.1772716,-0.306467 0.2517701,-0.467206 0.074266,-0.158408 0.1278001,-0.325029 0.1833795,-0.490553 0.03827,-0.117523 0.087237,-0.230878 0.1157105,-0.351377 0.010599,-0.06226 0.026075,-0.126115 0.01157,-0.188666 -0.022913,-0.06346 -0.070405,-0.112519 -0.1150696,-0.161378 -0.056595,-0.0714 -0.1205206,-0.131943 -0.1930144,-0.186698 -0.077504,-0.05389 -0.1685287,-0.06657 -0.2602452,-0.07319 -0.1117372,-0.01258 -0.2177584,0.0091 -0.32044,0.05226 -0.208593,0.116209 -0.540833,0.299143 0.4150063,-0.239636 0.020857,-0.01176 -0.040517,0.02555 -0.06029,0.03905 -0.049563,0.03385 -0.066105,0.04813 -0.1131168,0.0851 -0.2532208,0.222206 -0.5162799,0.34188 -0.8273497,0.520192 -0.064149,-0.0042 -0.1210733,-0.02647 -0.1786115,-0.05208 -0.056059,-0.03729 -0.097347,-0.08732 -0.1334228,-0.143115 -0.055905,-0.09349 -0.060893,-0.203496 -0.067598,-0.309425 -0.00634,-0.166887 -0.00486,-0.333962 -0.00459,-0.500937 2.645e-4,-0.170743 -2.07e-4,-0.341487 -1.937e-4,-0.512231 0.00643,-0.132036 0.024273,-0.263108 0.034966,-0.394845 0.011308,-0.08094 -0.010776,-0.15987 -0.022648,-0.239303 -0.0063,-0.06718 -0.030321,-0.129972 -0.055981,-0.191663 -0.031248,-0.0697 -0.076604,-0.131082 -0.1196875,-0.193555 -0.044225,-0.05549 -0.099454,-0.09371 -0.1681625,-0.110453 -0.066195,-0.02181 -0.12358,0.0013 -0.1873227,0.01684 -0.2397519,0.113098 -0.6373558,0.350095 0.3946327,-0.238582 -1.6511862,0.951059 -0.081494,0.04651 -0.061094,0.03493 0.010094,-0.0057 -0.018587,0.01391 -0.028025,0.02067 -0.03003,0.02149 -0.05995,0.04284 -0.089464,0.06506 -0.065055,0.05347 -0.123431,0.112857 -0.1961025,0.156105 -1.6999175,0.980599 -0.053211,0.0306 -0.070227,0.04076 -0.053045,0.03168 -0.4852188,0.350917 -0.7343174,0.39966 -0.054768,0.01041 -0.101423,0.04 -0.1557528,0.05326 -0.037395,0.0062 -0.083576,-0.02843 -0.1109302,-0.0544 -0.033192,-0.03789 -0.062398,-0.07793 -0.099104,-0.113176 C 5.7283307,17.591459 5.6618705,17.53808 5.5992712,17.480467 5.52535,17.403752 5.451607,17.328226 5.3698272,17.259895 5.2888165,17.191329 5.1989365,17.133618 5.1091935,17.077267 c -0.068559,-0.03783 -0.1354934,-0.07154 -0.2119971,-0.08908 -0.041394,-0.0094 -0.084048,-0.0086 -0.126211,-0.0078 -0.03424,-0.0086 -0.029301,0.01415 -0.050743,0.02857 -0.010171,0.0068 -0.02317,0.008 -0.034635,0.01235 -0.011819,0.01476 -0.038417,-0.0019 -0.051156,0.0076 -0.00483,0.0036 -0.012311,0.01951 -0.00706,0.01658 0.5188103,-0.288813 0.753524,-0.468604 0.5587267,-0.320299 -0.03031,0.01286 -0.054318,0.04012 -0.075413,0.0658 -0.016177,0.03051 -0.039213,0.05799 -0.057892,0.08826 -0.031118,0.06656 -0.04529,0.137328 -0.06008,0.208761 -0.034727,0.12443 -0.040115,0.253805 -0.054098,0.381467 -0.02323,0.153055 -0.036125,0.307217 -0.042776,0.461795 -0.00791,0.09987 0.00161,0.198485 0.022828,0.295907 0,0 -0.6055508,0.326738 -0.6055508,0.326738 v 0 c -0.02665,-0.102406 -0.039904,-0.206456 -0.032051,-0.312676 0.00652,-0.156023 0.015949,-0.311961 0.03969,-0.466492 0.017888,-0.128466 0.015798,-0.259568 0.046254,-0.386409 0.019749,-0.07026 0.018492,-0.146864 0.053898,-0.212336 0.00328,-0.01998 0.00816,-0.04604 0.019518,-0.06355 0.00592,-0.0091 0.020537,-0.01062 0.025572,-0.02026 0.00353,-0.0068 0.00246,-0.01503 0.00369,-0.02255 0.00842,-0.0139 0.018105,-0.03927 0.02959,-0.05001 0.00398,-0.0037 0.011438,-0.0016 0.015436,-0.0053 0.010398,-0.0096 0.00822,-0.02878 0.020312,-0.0373 0.2380475,-0.114171 -0.1330825,0.06447 0.6357734,-0.370962 0.00786,-0.0044 0.053793,-6.35e-4 0.062303,-0.01865 0.03595,-0.01862 0.062529,-0.02335 0.1038132,-0.01651 0.045558,0.0027 0.090802,0.0094 0.1342821,0.02379 0.078638,0.02597 0.1506276,0.06588 0.2217799,0.107922 0.089897,0.06073 0.1820923,0.118822 0.2637472,0.190702 0.081783,0.0695 0.1554745,0.146837 0.2323788,0.22157 0.064377,0.05704 0.1296916,0.112955 0.1919062,0.172439 0.034775,0.0335 0.062713,0.07268 0.097506,0.105656 0.029028,0.01541 0.043714,0.01542 0.072119,-1.04e-4 0.050877,-0.01899 0.1002615,-0.04124 0.1541722,-0.05133 0.036835,-0.01517 0.027135,-0.01001 0.062113,-0.02904 0.01062,-0.0058 0.042084,-0.02383 0.031632,-0.01775 -0.1857552,0.108024 -0.7417154,0.434293 -0.5575445,0.32359 0.1752666,-0.105351 1.4058662,-0.815323 0.069723,-0.04344 0.073284,-0.04147 0.1428105,-0.08043 0.1989278,-0.145825 0.3468338,-0.299069 1.4186535,-0.804425 0.1746872,-0.130226 0.160573,-0.09185 0.5361209,-0.357238 0.8081171,-0.432322 0.071113,-0.0146 0.1409232,-0.01249 0.2093717,0.01434 0.076162,0.03226 0.1415113,0.08158 0.1914713,0.148195 0.045912,0.0664 0.09261,0.132487 0.1271685,0.205831 0.028249,0.06661 0.05715,0.134785 0.064135,0.207524 0.011348,0.08447 0.03687,0.168566 0.027801,0.254284 -0.011621,0.130869 -0.028821,0.261126 -0.041875,0.391833 -2.64e-4,0.171003 -0.00127,0.342005 -0.0014,0.513008 1.637e-4,0.165058 -4.498e-4,0.33021 0.00645,0.495157 0.00566,0.09312 0.00622,0.192246 0.054871,0.274889 0.029825,0.04352 0.062532,0.08599 0.1121111,0.108245 0.045152,0.0177 0.099824,0.0338 0.1425453,0.0032 -1.0523752,0.609284 -0.5725589,0.361701 -0.3555188,0.172803 0.2806801,-0.237457 0.6067962,-0.420185 0.9431761,-0.566976 0.1116097,-0.0326 0.2240455,-0.04509 0.3399938,-0.02858 0.1018008,0.01362 0.1990889,0.04041 0.2819196,0.104351 0.075106,0.05779 0.1392341,0.124664 0.2007217,0.196557 0.052366,0.05739 0.1042072,0.116262 0.133481,0.189354 0.021569,0.07364 0.016243,0.144438 -1.755e-4,0.219552 -0.024278,0.125499 -0.072999,0.241608 -0.1166466,0.36123 -0.059609,0.166408 -0.1088929,0.336639 -0.1819444,0.498062 -0.077831,0.161144 -0.1380897,0.331895 -0.2440434,0.477886 -0.086541,0.121771 -0.177024,0.241124 -0.273965,0.354807 -0.1116142,0.126184 -0.245083,0.229869 -0.3742018,0.337519 -0.069056,0.0522 -0.1387827,0.101566 -0.2137095,0.145175 -0.2663208,0.155006 -0.5306742,0.328644 -0.8140054,0.456628 -0.1630177,0.06205 -0.330926,0.09745 -0.5062813,0.09652 -0.1568635,0.0013 -0.3138096,0.003 -0.4704548,0.01213 -0.1372859,0.0089 -0.2764068,0.02911 -0.4134138,0.0104 -0.123339,-0.03396 -0.229321,-0.09085 -0.3138646,-0.189537 -0.094654,-0.120215 -0.1637054,-0.256528 -0.2101536,-0.402461 -0.050778,-0.162584 -0.099455,-0.325813 -0.1214987,-0.49539 -0.024654,-0.138627 -0.040222,-0.279183 -0.091009,-0.411719 -0.037604,-0.079 -0.087447,-0.138399 -0.1707166,-0.171853 -0.081258,-0.02997 -0.1596657,-0.03374 -0.242067,-0.0031 -0.1129001,0.04073 -0.2183934,0.09702 -0.3253372,0.151106 -0.1203479,0.0587 -0.2464877,0.108076 -0.3791537,0.13026 -0.1051587,0.0151 -0.210874,0.02413 -0.3156445,-4.77e-4 C 4.0401216,21.09702 3.950766,21.04048 3.889304,20.940796 3.8056364,20.79806 3.7539183,20.638678 3.7150645,20.47842 c -0.046614,-0.178314 -0.07504,-0.36052 -0.077575,-0.545183 -5.821e-4,-0.174315 0.031383,-0.346943 0.082626,-0.513457 0.037969,-0.135473 0.096168,-0.263782 0.1583923,-0.389631 0.055172,-0.117803 0.1118362,-0.235953 0.189321,-0.341026 0.2096485,-0.235316 0.036862,-0.05172 0.6872923,-0.430849 0.077817,-0.04536 0.1658929,-0.06786 0.2516947,-0.09225 0,0 -0.5504236,0.4238 -0.5504236,0.4238 z"
       inkscape:connector-curvature="0" />
    <path
       style="fill:#ffffff;fill-opacity:0.99572641;stroke:none;stroke-width:0.52916664;stroke-linecap:round;stroke-linejoin:round;stroke-miterlimit:4;stroke-dasharray:none;stroke-opacity:0.97435895"
       id="path869"
       d="m 19.093885,22.146681 c -0.08487,0.09924 -0.151785,0.212923 -0.182519,0.340243 -0.01875,0.102218 0.01835,0.18036 0.09419,0.246342 0.09956,0.05336 0.214097,0.06236 0.32476,0.05329 0.148552,-0.01068 0.295436,-0.02862 0.439961,-0.06503 0.282459,-0.0578 0.80923,-0.400649 -0.228787,0.192551 0.09959,-0.05599 0.170871,-0.141451 0.23274,-0.235269 0.04377,-0.07687 0.08057,-0.156188 0.108161,-0.240122 0.0284,-0.07805 0.04966,-0.15926 0.0512,-0.242608 -0.0041,-0.08468 -0.03524,-0.162671 -0.06633,-0.240284 -0.03291,-0.08111 -0.09054,-0.145365 -0.154207,-0.203609 -0.05675,-0.038 -0.108099,-0.08436 -0.169341,-0.11551 -0.04705,-0.03641 -0.100127,-0.06286 -0.152265,-0.09055 -0.0032,-0.0011 -0.04795,-0.01692 -0.05185,-0.01705 -0.02848,-9e-4 -0.09245,0.02139 -0.118468,0.03194 0.04916,-0.05352 -0.187035,0.09488 -0.121446,0.05756 0.949244,-0.540048 0.65013,-0.391349 0.448254,-0.243153 -0.156769,0.114608 -0.264733,0.273707 -0.35616,0.441978 -0.09932,0.233619 -0.15854,0.492755 -0.144673,0.748196 0.0022,0.04124 0.01136,0.08182 0.01704,0.122733 0,0 -0.601403,0.31664 -0.601403,0.31664 v 0 c -0.0058,-0.04446 -0.01487,-0.08862 -0.01745,-0.133383 -0.01512,-0.262354 0.03769,-0.528791 0.126461,-0.774284 0.08384,-0.175106 0.185053,-0.339551 0.334147,-0.467351 0.267863,-0.1962 0.545383,-0.39983 0.866456,-0.492164 0.07332,-0.01159 0.137611,-0.0134 0.202906,0.02804 0.05114,0.02989 0.104445,0.05591 0.151986,0.09177 0.06194,0.03929 0.120847,0.08318 0.177284,0.130038 0.06841,0.06731 0.130191,0.140575 0.168102,0.229957 0.03402,0.08425 0.06999,0.16805 0.07854,0.25962 0.0097,0.09027 -0.01332,0.181373 -0.03998,0.26738 -0.01538,0.04102 -0.02383,0.08378 -0.04074,0.1242 -0.03095,0.07395 -0.0066,0.0068 -0.04244,0.07984 -0.0079,0.01607 -0.01376,0.03306 -0.02064,0.04959 -0.05596,0.102158 -0.125041,0.198532 -0.221144,0.266655 -0.334513,0.193181 -0.59789,0.399824 -0.96384,0.473785 -0.148163,0.0303 -0.298179,0.048 -0.449287,0.05519 -0.126571,-0.0026 -0.253117,-0.0179 -0.3573,-0.09651 -0.08527,-0.08467 -0.13989,-0.183382 -0.12624,-0.30756 0.01828,-0.137536 0.08524,-0.259786 0.165444,-0.371655 0,0 0.638896,-0.271451 0.638896,-0.271451 z"
       inkscape:connector-curvature="0" />
    <path
       style="fill:#e5e5e5;fill-opacity:0.99572641;stroke:none;stroke-width:0.35355338;stroke-linecap:round;stroke-linejoin:round;stroke-miterlimit:4;stroke-dasharray:none;stroke-opacity:0.97435895"
       d="m 57.854876,27.359477 c -0.653995,-0.345532 -0.999906,-0.911046 -1.638832,-2.679252 -0.363614,-1.006288 -0.594451,-1.211885 -1.49651,-1.332876 -0.470494,-0.06311 -0.671831,-0.168034 -0.6136,-0.319781 0.04767,-0.12422 0.0013,-0.278644 -0.103142,-0.343164 -0.206112,-0.127385 0.325373,-1.160972 1.34452,-2.614707 0.705935,-1.006962 0.716767,-1.066713 0.146266,-0.806775 -0.243479,0.110937 -0.490806,0.153586 -0.549615,0.09478 -0.167659,-0.16766 0.579942,-1.116083 1.426688,-1.809928 l 0.770603,-0.631451 1.171859,0.20407 c 1.000396,0.174212 1.3518,0.344866 2.401672,1.166334 1.395265,1.09172 1.473327,1.269384 1.476905,3.361343 0.0023,1.340877 -0.05038,1.552034 -0.728499,2.920539 -0.402034,0.811339 -1.018209,1.851346 -1.369278,2.311127 -0.726835,0.951907 -1.1669,1.046196 -2.239037,0.479744 z M 56.9118,23.031116 c -0.274753,-0.706272 -0.274967,-0.706393 -0.181833,-0.102831 0.05129,0.332351 0.152218,1.167621 0.224297,1.856155 l 0.131051,1.25188 0.05078,-1.149049 c 0.03233,-0.731667 -0.04914,-1.405899 -0.224295,-1.856155 z"
       id="path871"
       inkscape:connector-curvature="0"
       transform="scale(0.26458333)" />
    <path
       style="fill:#e5e5e5;fill-opacity:0.99572641;stroke:none;stroke-width:0.35355338;stroke-linecap:round;stroke-linejoin:round;stroke-miterlimit:4;stroke-dasharray:none;stroke-opacity:0.97435895"
       d="m 35.291718,49.713666 c -0.656632,-0.459923 -0.931463,-1.242046 -1.176381,-3.34778 -0.292969,-2.518858 -0.666134,-3.342255 -1.956105,-4.316193 -0.748559,-0.565168 -0.981357,-0.859047 -1.074718,-1.356707 -0.30207,-1.610172 0.415827,-3.707678 1.527709,-4.463558 0.490449,-0.333418 0.780726,-0.39967 1.498928,-0.34211 0.884983,0.07093 0.969217,0.116137 3.944446,2.117124 0.246038,0.165472 0.872915,0.354031 1.39306,0.419019 1.258771,0.157273 1.702146,0.731802 2.192578,2.84116 0.50401,2.167761 0.796744,2.939871 1.404603,3.704762 0.288227,0.362686 0.571996,0.850465 0.630598,1.083954 0.162306,0.646679 -0.159652,1.515819 -0.650437,1.755881 -0.240005,0.117397 -1.392458,0.656 -2.561006,1.196896 -1.982075,0.917461 -2.213696,0.983448 -3.452005,0.983448 -0.916726,0 -1.449233,-0.08535 -1.72127,-0.275896 z"
       id="path873"
       inkscape:connector-curvature="0"
       transform="scale(0.26458333)" />
    <path
       style="fill:#e5e5e5;fill-opacity:0.99572641;stroke:none;stroke-width:0.35355338;stroke-linecap:round;stroke-linejoin:round;stroke-miterlimit:4;stroke-dasharray:none;stroke-opacity:0.97435895"
       d="m 25.520092,83.339806 c -0.666815,-0.332443 -1.17518,-1.25603 -1.502374,-2.729481 -0.54741,-2.465155 -0.623544,-2.705226 -0.966745,-3.048427 -0.61913,-0.61913 -1.120971,-0.605167 -2.705198,0.07527 -1.596186,0.685576 -2.470537,0.79135 -3.070095,0.371403 -0.617791,-0.432717 -1.024308,-1.910321 -1.021303,-3.712215 0.0024,-1.415631 0.06461,-1.723054 0.564761,-2.789164 0.608063,-1.296131 1.833251,-2.575623 3.465396,-3.618992 0.494301,-0.315988 0.821804,-0.574524 0.727784,-0.574524 -0.09402,0 -0.58438,0.278423 -1.089689,0.618718 -0.505309,0.340296 -1.01339,0.618719 -1.129067,0.618719 -0.156436,0 -0.180313,-0.457944 -0.09319,-1.787341 0.06442,-0.983037 0.177609,-1.895408 0.251526,-2.027489 0.182084,-0.325368 0.725763,0.0411 2.31576,1.560944 l 1.234252,1.179795 0.851471,-0.284995 c 0.46831,-0.156747 1.399823,-0.636787 2.07003,-1.066755 0.866405,-0.555839 1.334308,-0.752709 1.619089,-0.681233 0.53069,0.133195 1.139828,1.409881 1.139828,2.388953 0,0.756137 -0.0027,0.75933 -0.397747,0.475891 -0.773327,-0.554802 -1.817486,-1.136783 -2.253903,-1.256253 -0.243068,-0.06654 0.15468,0.28297 0.883884,0.77669 0.729203,0.49372 1.425262,0.897875 1.546796,0.898121 0.167577,3.36e-4 0.22097,0.685831 0.22097,2.836911 0,2.775851 0.0093,2.845735 0.433907,3.270369 0.238648,0.238649 0.608864,0.433906 0.822701,0.433906 0.400304,0 2.533505,-1.111053 2.723529,-1.418519 0.05863,-0.09486 0.419867,-0.172471 0.802758,-0.172471 0.913871,0 2.111397,1.010206 2.111397,1.781127 0,0.661859 -1.077983,3.660266 -1.696679,4.719307 -0.683954,1.170746 -2.303362,2.8224 -2.963897,3.022914 -0.918232,0.278741 -4.416348,0.377927 -4.895949,0.138819 z M 21.613246,68.049557 c -0.209088,-0.03342 -0.5372,0.10488 -0.746821,0.314795 l -0.373886,0.374411 0.746822,-0.314795 c 0.589017,-0.248278 0.668019,-0.327392 0.373885,-0.374411 z"
       id="path875"
       inkscape:connector-curvature="0"
       transform="scale(0.26458333)" />
    <path
       style="fill:#e5e5e5;fill-opacity:0.99572641;stroke:none;stroke-width:0.35355338;stroke-linecap:round;stroke-linejoin:round;stroke-miterlimit:4;stroke-dasharray:none;stroke-opacity:0.97435895"
       d="m 55.22916,72.00289 c 0,-0.132821 0.215656,-1.103018 0.479236,-2.155993 0.384455,-1.535858 0.480601,-2.334048 0.486136,-4.035821 0.0085,-2.605834 -0.326305,-3.817417 -1.344809,-4.866916 -0.630706,-0.6499 -0.6811,-0.777318 -0.679564,-1.718218 0.002,-1.250382 0.814755,-2.872419 1.439212,-2.872419 0.205182,0 0.752955,-0.272928 1.217272,-0.606507 0.533216,-0.383077 0.971843,-0.573131 1.190667,-0.515907 0.198074,0.0518 0.790715,-0.146471 1.383763,-0.462939 1.363671,-0.727696 2.102647,-0.527739 3.838677,1.038694 1.346033,1.214536 1.480309,2.097229 0.62401,4.102074 -0.423865,0.99239 -0.561806,1.584251 -0.574524,2.465085 -0.01603,1.110424 0.02185,1.218154 0.901447,2.563262 1.128798,1.7262 1.291525,2.147053 1.291525,3.340195 0,0.768171 -0.105413,1.097653 -0.574524,1.795748 -0.315988,0.470229 -0.852948,1.044514 -1.193243,1.276189 -0.588038,0.40034 -0.701994,0.414296 -2.298097,0.281427 -2.643892,-0.220093 -4.040586,-0.152326 -5.170718,0.250884 -0.800113,0.285464 -1.016466,0.311254 -1.016466,0.121162 z m 0.0087,-13.721954 c 0.203213,-0.398331 0.339158,-0.754558 0.302099,-0.791617 -0.03706,-0.03706 -0.240448,0.288849 -0.451976,0.724238 -0.481769,0.991624 -0.351512,1.050183 0.149877,0.06738 z"
       id="path877"
       inkscape:connector-curvature="0"
       transform="scale(0.26458333)" />
    <path
       style="fill:#e5e5e5;fill-opacity:0.99572641;stroke:none;stroke-width:0.35355338;stroke-linecap:round;stroke-linejoin:round;stroke-miterlimit:4;stroke-dasharray:none;stroke-opacity:0.97435895"
       d="m 80.771688,63.422706 c -0.477598,-0.527738 -0.398718,-2.605297 0.178087,-4.690488 0.28725,-1.038432 0.438699,-2.046563 0.44014,-2.929823 0.002,-1.243689 0.05564,-1.439621 0.701429,-2.563262 1.068137,-1.858517 1.810264,-3.868162 1.802419,-4.880869 -0.0037,-0.478487 -0.179897,-1.390317 -0.391535,-2.02629 -0.471742,-1.417584 -0.389052,-2.273748 0.363608,-3.764757 0.535326,-1.060475 0.762692,-1.259939 0.959747,-0.841966 0.0573,0.121534 0.06074,-0.0045 0.0076,-0.279977 -0.06913,-0.358751 -0.03702,-0.464169 0.113113,-0.37138 0.151926,0.09389 0.176261,-0.0034 0.08839,-0.353554 -0.0794,-0.31635 -0.05779,-0.443895 0.06261,-0.369487 0.101124,0.0625 0.186392,-0.03027 0.189484,-0.206159 0.0068,-0.384491 0.400357,-0.938511 0.666755,-0.938511 0.105302,0 0.314556,-0.175746 0.465009,-0.390547 0.473536,-0.676067 0.673059,-0.158781 0.645645,1.67391 -0.01372,0.917082 -0.09541,2.097301 -0.18154,2.622709 -0.244238,1.489923 -1.919602,6.299523 -2.678218,7.688576 -0.792307,1.450741 -1.03165,2.717838 -1.048854,5.552692 -0.01752,2.88659 -0.235058,4.288528 -0.858744,5.534198 -0.301518,0.602211 -0.691722,1.278263 -0.86712,1.50234 l -0.318907,0.407412 z"
       id="path879"
       inkscape:connector-curvature="0"
       transform="scale(0.26458333)" />
    <path
       style="fill:#e5e5e5;fill-opacity:0.99572641;stroke:none;stroke-width:0.35355338;stroke-linecap:round;stroke-linejoin:round;stroke-miterlimit:4;stroke-dasharray:none;stroke-opacity:0.97435895"
       d="m 72.132529,85.909525 c -0.04843,-0.07837 -0.06167,-0.629279 -0.02943,-1.224253 0.06223,-1.148262 0.792659,-3.052682 1.170829,-3.052682 0.409419,0 1.413038,0.748591 1.670116,1.245725 0.543376,1.050772 0.08576,2.777838 -0.799781,3.018396 -0.634332,0.172318 -1.908143,0.180432 -2.011737,0.01281 z"
       id="path881"
       inkscape:connector-curvature="0"
       transform="scale(0.26458333)" />
  </g>
</svg>
