<?xml version="1.0" encoding="UTF-8" standalone="no"?>
<!-- Created with Inkscape (http://www.inkscape.org/) -->

<svg
   xmlns:dc="http://purl.org/dc/elements/1.1/"
   xmlns:cc="http://creativecommons.org/ns#"
   xmlns:rdf="http://www.w3.org/1999/02/22-rdf-syntax-ns#"
   xmlns:svg="http://www.w3.org/2000/svg"
   xmlns="http://www.w3.org/2000/svg"
   xmlns:sodipodi="http://sodipodi.sourceforge.net/DTD/sodipodi-0.dtd"
   xmlns:inkscape="http://www.inkscape.org/namespaces/inkscape"
   width="100"
   height="100"
   viewBox="0 0 26.458333 26.458334"
   version="1.1"
   id="svg8"
   inkscape:version="0.92.5 (2060ec1f9f, 2020-04-08)"
   sodipodi:docname="asteroid.svg">
  <defs
     id="defs2" />
  <sodipodi:namedview
     id="base"
     pagecolor="#000d50"
     bordercolor="#666666"
     borderopacity="1.0"
     inkscape:pageopacity="0"
     inkscape:pageshadow="2"
     inkscape:zoom="5.6568542"
     inkscape:cx="45.59483"
     inkscape:cy="49.374042"
     inkscape:document-units="px"
     inkscape:current-layer="layer1"
     showgrid="false"
     units="px"
     inkscape:window-width="1920"
     inkscape:window-height="1027"
     inkscape:window-x="0"
     inkscape:window-y="1080"
     inkscape:window-maximized="1" />
  <metadata
     id="metadata5">
    <rdf:RDF>
      <cc:Work
         rdf:about="">
        <dc:format>image/svg+xml</dc:format>
        <dc:type
           rdf:resource="http://purl.org/dc/dcmitype/StillImage" />
        <dc:title></dc:title>
      </cc:Work>
    </rdf:RDF>
  </metadata>
  <g
     inkscape:label="Layer 1"
     inkscape:groupmode="layer"
     id="layer1"
     transform="translate(0,-270.54165)">
    <path
       style="fill:#fdfdfd;fill-opacity:0.99572646;stroke:none;stroke-width:0.52916664;stroke-linecap:round;stroke-linejoin:round;stroke-miterlimit:4;stroke-dasharray:none;stroke-opacity:0.97435895"
       id="path812"
       d="m 15.763515,274.43364 c -0.104048,-0.0725 -0.20815,-0.14538 -0.315703,-0.2126 -0.123947,-0.075 -0.241223,-0.15818 -0.355747,-0.2466 -0.172572,-0.12633 -0.358304,-0.23336 -0.548748,-0.33021 -0.248265,-0.11797 -0.516267,-0.1878 -0.779373,-0.26447 -0.285508,-0.0827 -0.576983,-0.13115 -0.872585,-0.15661 -0.300211,-0.0269 -0.600852,-0.0117 -0.898658,0.0304 -0.319363,0.0562 -0.632512,0.14168 -0.948342,0.21451 -0.296294,0.0771 -0.598693,0.12647 -0.896623,0.19612 -0.2382878,0.0574 -0.4750531,0.118 -0.7011951,0.21355 -0.2139088,0.11647 -0.6162278,0.33068 0.3594631,-0.20798 0.021788,-0.012 -0.041169,0.028 -0.060913,0.0432 -0.045154,0.0347 -0.055443,0.0472 -0.095401,0.0866 -0.09532,0.0906 -0.1003771,0.19885 -0.09259,0.32291 0.017634,0.21735 0.054279,0.43236 0.08493,0.64808 0.03767,0.27382 0.089558,0.54515 0.1483011,0.81515 0.058947,0.23883 0.1237986,0.47662 0.202315,0.70983 0.070064,0.19642 0.1238259,0.39734 0.1698339,0.60055 0.03681,0.1728 0.05076,0.34909 0.05764,0.52526 9.53e-4,0.11702 0.01286,0.23465 -0.0043,0.35089 -0.01036,0.0523 -0.01738,0.10324 -0.04528,0.1489 -0.135049,0.23826 -0.4400537,0.39059 -0.7128854,0.38862 -0.075663,0.011 -0.1564344,0.0219 -0.2302677,0.0451 -0.1120142,0.0272 -0.2268423,0.0393 -0.3405097,0.0584 -0.164664,0.0247 -0.3286228,0.0541 -0.4928074,0.0822 -0.2121225,0.0261 -0.4204951,0.0731 -0.6300478,0.11364 -0.2570585,0.0512 -0.5122399,0.10826 -0.7649307,0.17809 -0.2824052,0.0747 -0.5555298,0.17635 -0.8256657,0.28649 -0.2666873,0.11438 -0.523558,0.24869 -0.7776879,0.38826 -0.2528678,0.12998 -1.1054151,0.61852 -0.033759,0.004 -0.2608511,0.15604 -0.5258647,0.3047 -0.7887404,0.45744 -0.1780852,0.10347 0.7157577,-0.4079 0.5353788,-0.30848 -0.050034,0.0276 -1.5202654,0.87073 -0.095265,0.0537 -0.2603656,0.1596 -0.5118481,0.33995 -0.7938294,0.45871 -0.017838,0.006 -0.03632,0.0171 -0.055421,0.014 -5.556e-4,-0.006 -0.018733,-0.009 -0.013541,-0.0114 0.197304,-0.10618 0.3935047,-0.21444 0.5921597,-0.31807 0.00658,-0.003 -0.00823,0.013 -0.014613,0.0168 -0.202716,0.12038 -0.4077887,0.23675 -0.6116833,0.35513 -0.046975,0.002 -0.099366,-0.0135 -0.1419227,0.009 -0.027198,0.0219 -0.066712,0.0152 -0.096475,0.0276 -0.01547,0.006 -0.027753,0.0191 -0.043046,0.0259 -0.020995,0.0162 -0.049332,0.0119 -0.072436,0.0217 -0.2641857,0.11199 0.7690651,-0.47593 0.5287555,-0.29617 -0.051241,0.0321 -0.085521,0.083 -0.1293101,0.12305 -0.033772,0.028 -0.047856,0.0632 -0.066177,0.10127 -0.027017,0.0405 -0.03484,0.087 -0.040084,0.13429 -0.00225,0.0289 -0.00277,0.0578 -0.00233,0.0868 4.762e-4,0.0144 -0.00608,-0.0129 5.027e-4,0.0155 0.00397,0.051 -0.00753,0.0994 -0.019875,0.1484 -0.021998,0.0913 -0.023421,0.1856 -0.033234,0.27858 -0.01951,0.15174 -0.045854,0.30254 -0.072673,0.45314 -0.032586,0.18181 -0.060638,0.36442 -0.092998,0.54626 -0.023114,0.11331 -0.043354,0.22712 -0.056478,0.34203 -0.00212,0.0143 -0.00254,0.0377 -0.00572,0.0495 -0.00363,-0.0328 -0.00151,0.0988 -0.00153,0.0998 -0.013782,0.11289 -0.031632,0.22484 -0.039977,0.33842 -0.00581,0.1332 -0.014245,0.26707 -0.00521,0.40026 0.00859,0.1144 0.039346,0.22434 0.074113,0.33305 0.035977,0.10857 0.068653,0.21799 0.1016926,0.32752 0.035252,0.11986 0.062715,0.24162 0.094634,0.36235 0.023162,0.11058 0.064154,0.21573 0.105216,0.32055 0.044055,0.11615 0.091981,0.23085 0.1319033,0.34855 0.024239,0.0784 0.03871,0.15939 0.050568,0.24045 0.00228,0.0381 0.017285,0.0847 -0.022654,0.10754 -0.2081877,0.11927 -0.4176589,0.23628 -0.6264881,0.35442 -0.1061199,0.0294 -0.2130626,0.058 -0.3175678,0.093 -0.1528945,0.0376 -0.2967526,0.10294 -0.4320246,0.18246 0.9501346,-0.55659 0.5597845,-0.33788 0.3681418,-0.18694 -0.077489,0.061 -0.1493004,0.12659 -0.2205744,0.19466 -0.1692312,0.17301 -0.2938272,0.38082 -0.4168692,0.58739 -0.1035444,0.20238 -0.1954872,0.41095 -0.2792549,0.62227 -0.050976,0.1413 -0.099855,0.28384 -0.1316535,0.4308 -0.016814,0.0822 -0.023551,0.16574 -0.024624,0.24949 7.885e-4,0.0402 -0.00208,0.0809 0.00179,0.12097 0.023326,0.0512 0.034196,0.10075 0.028858,0.15686 -0.018638,0.11252 -0.068828,0.21222 -0.1279053,0.30821 -0.1015823,0.14547 -0.237988,0.2631 -0.3719121,0.37795 -0.162634,0.13786 -0.329639,0.27041 -0.493334,0.40698 -0.065839,0.0635 -0.1409453,0.12366 -0.1913566,0.20128 -0.0066,0.008 -0.011486,0.0101 -0.00358,0.0223 0.00686,0.0106 0.048369,0.0483 0.051678,0.0517 0.012277,0.0125 0.084504,0.0909 0.092329,0.0994 0.1897421,0.2152 0.2904794,0.49045 0.3848219,0.75699 0.1302916,0.44266 0.2245073,0.89411 0.358593,1.33581 0.091958,0.26783 0.1935925,0.5389 0.3567689,0.77304 0.086963,0.12479 0.1354214,0.16641 0.2400547,0.27468 0.2647366,0.2397 0.6004312,0.35871 0.933558,0.46824 0.2968492,0.0888 0.5972603,0.16687 0.8974793,0.24379 0.2233002,0.0668 0.4528146,0.10285 0.6846737,0.12061 0.1828194,0.004 0.3620778,-0.0261 0.5417822,-0.0543 0.1384906,-0.0129 0.2728299,0.0101 0.3996508,0.0654 0.1106905,0.0464 0.2077529,0.1173 0.3161477,0.16859 0.111624,0.0614 0.2257367,0.11841 0.333484,0.18664 0.1262084,0.0895 0.2382443,0.19659 0.3636296,0.28731 0.1197977,0.0858 0.2461109,0.15621 0.386394,0.20124 0.163694,0.0435 0.3229957,0.10058 0.4841875,0.1523 0.1801429,0.0581 0.3563226,0.12721 0.5350878,0.18903 0.1663112,0.0646 0.3359782,0.12553 0.4935511,0.20978 0.1474504,0.0896 0.287189,0.18993 0.4377809,0.27429 0.1299477,0.0707 0.2709775,0.11296 0.412175,0.15421 0.1190398,0.029 0.2409709,0.0474 0.3583842,0.0829 0.09769,0.0197 0.179305,0.0782 0.270192,0.11474 0.06385,0.0389 0.134104,0.0656 0.203144,0.0935 0.08011,0.0233 0.169062,-8.2e-4 0.244518,-0.031 0.203115,-0.12274 0.528903,-0.27317 -0.429521,0.24252 -0.02307,0.0124 0.04135,-0.0322 0.06094,-0.0496 0.05712,-0.0507 0.08321,-0.0818 0.136376,-0.13901 0.19637,-0.23561 0.370693,-0.48847 0.556677,-0.73227 0.246002,-0.3185 0.535167,-0.5982 0.854343,-0.84209 0.342059,-0.22712 0.257103,-0.17544 0.864149,-0.5075 0.150278,-0.0822 0.311333,-0.10525 0.478855,-0.094 0.209996,0.0451 0.375818,0.1791 0.535407,0.31494 0.179756,0.14696 0.343223,0.31326 0.500148,0.48407 0.165239,0.19529 0.345905,0.37546 0.530441,0.55224 0.197996,0.18566 0.41699,0.34482 0.644538,0.49178 0.240255,0.15379 0.489878,0.29281 0.747446,0.41531 0.247393,0.10735 0.495903,0.21357 0.75119,0.30084 0.234288,0.0743 0.444551,0.0929 0.685701,0.0497 0.196293,-0.0417 0.371418,-0.13742 0.542825,-0.23749 -0.930763,0.55809 -0.555275,0.33064 -0.364921,0.18114 0.07404,-0.0582 0.144191,-0.12032 0.214184,-0.1832 0.154033,-0.14813 0.287759,-0.31528 0.429871,-0.47453 0.119534,-0.13961 0.248173,-0.2713 0.396311,-0.38041 0.31629,-0.22815 0.652086,-0.41843 1.021298,-0.53464 0.156628,-0.0592 0.322458,-0.0822 0.488407,-0.0949 0.176819,-0.0179 0.350925,0.004 0.522724,0.0449 0.212125,0.0418 0.412785,0.12373 0.619275,0.18518 0.241161,0.0746 0.48168,0.15053 0.727652,0.20776 0.271146,0.0593 0.547528,0.0648 0.823507,0.0558 0.283186,-0.0163 0.562273,-0.0663 0.841831,-0.11105 0.228827,-0.0391 0.454254,-0.094 0.68064,-0.14455 0.163741,-0.0478 0.330724,-0.0803 0.500196,-0.0984 0.0931,-0.008 0.184026,-0.0204 0.273626,0.01 0.0339,0.0107 0.06801,0.0208 0.101579,0.0325 0.203728,0.10026 -0.392463,0.22862 -0.592082,0.33683 -0.0025,-0.0657 -2.03e-4,-0.13152 3.71e-4,-0.19728 4.76e-4,-0.10459 8.99e-4,-0.20919 0.0016,-0.31378 -0.01038,-0.15271 -0.04047,-0.30355 -0.06665,-0.45423 -0.04733,-0.24114 -0.100321,-0.48106 -0.152077,-0.72128 -0.05885,-0.2966 -0.14187,-0.58663 -0.24344,-0.87115 -0.10146,-0.26064 -0.233078,-0.50678 -0.39119,-0.73705 -0.159192,-0.19883 -0.360962,-0.35372 -0.575889,-0.48725 -0.207853,-0.12369 -0.428597,-0.22257 -0.648657,-0.32195 -0.202459,-0.0937 -0.414565,-0.16266 -0.619129,-0.25124 -0.152371,-0.0572 -0.303217,-0.12109 -0.443277,-0.20438 -0.07673,-0.0465 -0.166178,-0.0802 -0.229167,-0.14575 -0.03624,-0.0402 -0.05285,-0.0813 -0.03205,-0.13317 0.03979,-0.0569 0.09661,-0.10107 0.156269,-0.13583 0.584955,-0.34084 0.452481,-0.26929 0.753001,-0.42868 0.03467,-0.0169 0.06952,-0.0335 0.104021,-0.0508 0.03836,-0.0192 0.07661,-0.0386 0.114562,-0.0586 0.04125,-0.0217 0.163382,-0.0899 0.123026,-0.0666 -0.148913,0.0862 -0.296335,0.17517 -0.448736,0.255 -0.04844,0.0254 0.09144,-0.06 0.136272,-0.0913 0.04881,-0.0341 0.09641,-0.0698 0.144608,-0.10475 0.325016,-0.24042 0.625727,-0.5101 0.89869,-0.80794 0.225415,-0.24901 0.402631,-0.5312 0.526086,-0.84273 0.07043,-0.20349 0.106241,-0.41582 0.146507,-0.62661 0.0275,-0.13854 0.03876,-0.27928 0.04377,-0.42019 0.0049,-0.10307 0.0055,-0.20483 -0.02067,-0.30508 -0.0175,-0.0675 -0.04849,-0.12302 -0.09566,-0.17338 -0.03613,-0.0283 -0.07843,-0.0299 -0.122238,-0.0315 -0.04605,9e-5 -0.09211,6.6e-4 -0.138156,10e-4 -0.05975,-8e-5 -0.119504,1.2e-4 -0.179256,-4e-5 -0.08267,0.0172 -0.161479,0.0458 -0.243338,0.0662 -0.08545,0.0373 -0.176892,0.057 -0.26904,0.0684 -0.05966,0.006 -0.11946,0.008 -0.179352,0.007 -0.08064,-0.0353 -0.108216,-0.12192 -0.126822,-0.20096 -0.03851,-0.18263 3.7e-4,-0.36149 0.04226,-0.53941 0.07816,-0.33459 0.199025,-0.6561 0.316049,-0.97838 0.165561,-0.46019 0.346538,-0.91453 0.521691,-1.37108 0.21636,-0.56897 0.405804,-1.1473 0.566806,-1.73422 0.134243,-0.49067 0.219831,-0.99305 0.25744,-1.50003 0.01568,-0.26998 -0.0053,-0.53552 -0.09382,-0.79125 -0.06546,-0.16961 -0.17885,-0.31261 -0.285674,-0.4576 -0.110433,-0.144 -0.230417,-0.28098 -0.362301,-0.40567 -0.135079,-0.10858 -0.289117,-0.18453 -0.4457,-0.25582 -0.157891,-0.0609 -0.323597,-0.0987 -0.490907,-0.12216 -0.159698,-0.0349 -0.32188,-0.0512 -0.484807,-0.0601 -0.168321,-8e-5 -0.329685,0.0437 -0.488683,0.0944 -0.02926,0.01 -0.05907,0.0182 -0.08777,0.0295 -0.03418,0.0135 -0.153185,0.0703 -0.184146,0.0871 -0.03197,0.0173 -0.125546,0.0733 -0.09391,0.0554 0.494232,-0.27948 0.640925,-0.38113 0.377322,-0.20489 -0.255248,0.18126 -0.479303,0.40055 -0.697074,0.62416 -0.250137,0.27155 -0.463364,0.5741 -0.675738,0.8753 -0.194334,0.27977 -0.406276,0.54593 -0.621907,0.80931 -0.150691,0.19053 -0.321183,0.36383 -0.502457,0.52507 -0.309358,0.23412 -0.647,0.43572 -1.001036,0.59449 -0.113686,0.0552 -0.231609,0.1033 -0.354864,0.13252 -0.09189,0.0182 -0.185769,0.0223 -0.279198,0.0232 -0.08508,0.003 -0.171218,-0.0117 -0.250063,-0.0439 -0.08807,-0.0296 -0.163256,-0.0866 -0.233217,-0.14618 -0.09736,-0.0867 -0.17444,-0.19215 -0.244149,-0.3015 -0.08425,-0.13757 -0.15646,-0.28153 -0.228385,-0.42576 -0.08314,-0.15836 -0.143246,-0.32692 -0.183451,-0.50088 -0.03826,-0.18804 -0.02573,-0.34363 0.04812,-0.51994 0.11739,-0.23182 0.297807,-0.42026 0.477131,-0.60476 0.238791,-0.23784 0.481507,-0.47162 0.716839,-0.7129 0.248052,-0.26234 0.485199,-0.53479 0.713415,-0.81449 0.199143,-0.24987 0.389923,-0.50609 0.576873,-0.76514 0.134584,-0.18262 0.24248,-0.38228 0.359484,-0.57604 0.08181,-0.1289 0.16063,-0.25946 0.210117,-0.40438 0.0287,-0.10622 0.05716,-0.21215 0.07193,-0.32129 0.01725,-0.11129 0.0098,-0.22137 -0.0052,-0.33214 -0.0083,-0.10056 -0.04189,-0.19527 -0.07685,-0.289 -0.03496,-0.0826 -0.07739,-0.16163 -0.116607,-0.24221 -0.04079,-0.0859 -0.08471,-0.16885 -0.148139,-0.24024 -0.05206,-0.054 -0.106394,-0.10605 -0.176706,-0.13452 -0.05547,-0.0405 -0.124327,-0.0442 -0.185227,-0.07 -0.07281,-0.0282 -0.151137,-0.0331 -0.228269,-0.0373 -0.102496,0.003 -0.209952,0.0146 -0.309255,0.0422 -0.11307,0.0157 -0.218751,0.0553 -0.325258,0.094 -0.23712,0.11411 -0.08901,0.0442 0.502466,-0.2898 0.01379,-0.008 -0.02709,0.0164 -0.04049,0.0249 -0.04096,0.0258 -0.08074,0.0534 -0.121624,0.0793 -0.09353,0.0622 -0.180053,0.13418 -0.269449,0.20212 -0.09186,0.0769 -0.187161,0.14949 -0.280717,0.22431 -0.08027,0.0642 -0.165488,0.1221 -0.250841,0.17929 -0.217424,0.14041 -0.22412,0.14541 -0.64851,0.37068 -0.19528,0.10366 0.7594,-0.45235 0.575821,-0.32915 -0.211571,0.14198 -0.417419,0.32024 -0.666377,0.37447 -0.05652,0.0307 -0.115548,0.055 -0.17563,0.0782 -0.05452,0.0332 -0.114325,0.0559 -0.176672,0.0683 -0.04322,0.007 -0.06932,0.016 -0.101586,-0.0166 -0.03023,-0.0173 -0.05532,-0.0347 -0.08547,-0.0511 -0.04644,-0.0179 -0.09544,-0.0217 -0.144666,-0.0235 -0.04512,-0.0164 -0.08905,-0.0401 -0.137395,-0.0451 -0.03956,0.003 -0.06164,-0.0177 -0.09177,-0.0401 -0.02848,-0.0268 -0.04767,-0.0634 -0.06941,-0.0963 -0.03165,-0.0515 -0.08451,-0.0801 -0.135505,-0.10968 -0.05695,-0.0225 -0.105578,-0.0632 -0.165763,-0.0782 -0.04192,-0.0192 -0.06212,-0.0579 -0.09314,-0.0884 -0.02683,-0.0167 -0.01116,-0.009 -0.04812,-0.021 0,0 0.578912,-0.38465 0.578912,-0.38465 v 0 c 0.0498,0.0265 0.0283,0.0118 0.06579,0.0422 0.02287,0.0254 0.03972,0.0524 0.07481,0.062 0.05885,0.0273 0.114221,0.0613 0.17195,0.0909 0.05731,0.0373 0.116439,0.0732 0.152386,0.13367 0.01738,0.0249 0.03172,0.0552 0.05714,0.0729 0.02405,0.0144 0.0495,0.009 0.07662,0.0189 0.04286,0.0141 0.08486,0.0346 0.130245,0.0378 0.05715,0.007 0.113406,0.0195 0.163642,0.0489 0.02761,0.0175 0.0577,0.031 0.08572,0.0483 -3.18e-4,-0.003 -0.0033,-0.008 -9.79e-4,-0.0101 0.01201,-0.0124 0.05665,-3.4e-4 0.07006,-0.0157 0.05855,-0.0201 0.112503,-0.0511 0.169855,-0.0741 0.05957,-0.0254 0.117407,-0.0546 0.177656,-0.0784 0.01348,-0.008 0.05424,-0.0318 0.04064,-0.0239 -0.190974,0.11072 -0.768454,0.4346 -0.572938,0.33212 0.03391,-0.0178 1.543668,-0.8905 0.04768,-0.026 -0.0091,0.005 0.01824,-0.0106 0.02736,-0.0159 0.08854,-0.0536 0.171816,-0.11442 0.257226,-0.17286 0.09184,-0.0773 0.190373,-0.14564 0.279694,-0.22591 0.08806,-0.0699 0.178705,-0.13598 0.265846,-0.20697 0.272326,-0.18076 0.547365,-0.3714 0.851236,-0.49224 0.107906,-0.0384 0.218589,-0.0654 0.330994,-0.0872 0.106344,-0.0177 0.214285,-0.036 0.322383,-0.0267 0.08208,0.008 0.163475,0.0204 0.240485,0.0514 0.06635,0.0185 0.129672,0.0426 0.189592,0.0771 0.07251,0.0418 0.134574,0.0969 0.190384,0.15921 0.0639,0.0782 0.113099,0.16464 0.15626,0.25575 0.04016,0.0829 0.08503,0.16337 0.120757,0.24836 0.03434,0.0989 0.07372,0.19731 0.08206,0.30278 0.01572,0.11584 0.03044,0.23087 0.0132,0.34775 -0.01178,0.1139 -0.0378,0.22321 -0.06759,0.33361 -0.04472,0.15264 -0.119845,0.28982 -0.207762,0.42211 -0.123093,0.19353 -0.228504,0.39812 -0.36447,0.58346 -0.188632,0.26102 -0.382373,0.5182 -0.581557,0.77127 -0.227097,0.28163 -0.464588,0.55472 -0.710766,0.81986 -0.233116,0.24135 -0.473766,0.47498 -0.711866,0.71136 -0.177076,0.17742 -0.35453,0.35939 -0.478083,0.57964 -0.08453,0.16446 -0.09917,0.29661 -0.06678,0.4792 0.03602,0.16945 0.09327,0.333 0.175688,0.48584 0.07143,0.14177 0.140968,0.28446 0.226589,0.41848 0.06642,0.10339 0.140597,0.20239 0.236172,0.28102 0.06692,0.0531 0.137282,0.10128 0.22068,0.12449 0.07753,0.0204 0.155692,0.0306 0.236025,0.0239 0.08984,-0.004 0.18004,-0.01 0.266945,-0.0348 0.119098,-0.0365 0.233713,-0.0861 0.345525,-0.1408 0.213438,-0.10654 0.554738,-0.30544 -0.393055,0.23775 -0.02364,0.0136 0.04548,-0.03 0.06833,-0.0448 0.129303,-0.0839 0.01841,-0.0101 0.15221,-0.10012 0.184978,-0.1583 0.361285,-0.32727 0.51391,-0.51762 0.217251,-0.26348 0.43561,-0.52594 0.629937,-0.8073 0.212372,-0.30254 0.424858,-0.60648 0.669748,-0.88402 0.215093,-0.22483 0.434994,-0.44615 0.684351,-0.63363 0.312757,-0.22152 0.100269,-0.0755 0.787075,-0.47313 0.119108,-0.069 0.246421,-0.1237 0.378362,-0.16274 0.164502,-0.0466 0.331612,-0.0855 0.504076,-0.0753 0.164029,0.0121 0.32662,0.0331 0.487975,0.0655 0.170983,0.0292 0.341314,0.0696 0.501174,0.13821 0.161965,0.0754 0.320667,0.15838 0.457321,0.27537 0.133483,0.12882 0.255893,0.26857 0.368543,0.41599 0.110133,0.15115 0.228665,0.29909 0.294089,0.47654 0.09123,0.26672 0.111407,0.54272 0.09152,0.82375 -0.04284,0.51331 -0.132417,1.02187 -0.268188,1.51904 -0.159851,0.58737 -0.346375,1.16674 -0.558669,1.73737 -0.171549,0.45453 -0.348518,0.907 -0.511113,1.36487 -0.113761,0.31807 -0.232052,0.63502 -0.306797,0.96524 -0.03833,0.1669 -0.08149,0.33491 -0.04613,0.50654 0.0093,0.0427 0.02036,0.12717 0.08085,0.11867 0.05722,-0.002 0.114595,-0.004 0.17112,-0.0138 0.09001,-0.0174 0.176557,-0.045 0.263509,-0.0736 0.08355,-0.0245 0.168284,-0.0512 0.256056,-0.0529 0.06018,-3.5e-4 0.120364,-4e-4 0.180539,-10e-4 0.04772,-2e-5 0.09569,-0.001 0.143089,0.006 0.05707,0.0105 0.10816,0.0319 0.149124,0.0746 0.05149,0.06 0.08842,0.1252 0.108331,0.20252 0.03198,0.10654 0.0364,0.21435 0.02876,0.32509 -0.0051,0.14478 -0.01451,0.28943 -0.04262,0.43189 -0.04378,0.21506 -0.08194,0.43164 -0.1495,0.64098 -0.119502,0.32161 -0.29899,0.61189 -0.5261,0.86974 -0.268237,0.30248 -0.567472,0.5741 -0.889433,0.81883 -0.04182,0.0312 -0.225804,0.17058 -0.274742,0.20006 -0.346704,0.20887 -0.693624,0.41432 -1.056199,0.5934 -0.259212,0.14066 -0.160028,0.0881 0.422877,-0.25034 0.01965,-0.0114 -0.03906,0.0232 -0.05833,0.0353 -0.01643,0.0103 -0.06191,0.0396 -0.07964,0.0538 -0.0074,0.006 -0.01381,0.013 -0.02071,0.0195 -0.03594,0.0239 -0.05118,-0.002 -0.01464,0.0457 0.06364,0.0559 0.143334,0.0901 0.214499,0.13488 0.138696,0.079 0.285332,0.14276 0.434001,0.20055 0.204634,0.0877 0.415333,0.1602 0.617446,0.25396 0.221797,0.10123 0.443918,0.20282 0.651949,0.33087 0.220651,0.14108 0.428321,0.30286 0.590271,0.51106 0.160144,0.23587 0.292612,0.48815 0.39635,0.75401 0.10297,0.28683 0.187689,0.57889 0.250122,0.87744 0.05309,0.24003 0.107112,0.4798 0.159548,0.71996 0.0293,0.15355 0.06044,0.30723 0.07742,0.46264 6.88e-4,0.1042 0.001,0.20841 9.53e-4,0.31261 2.54e-4,0.0642 0.0011,0.12844 0.0014,0.19266 -1.031224,0.63817 -0.427977,0.40222 -0.608479,0.3749 -0.03132,-0.0112 -0.06296,-0.0217 -0.09523,-0.0299 -0.08344,-0.0147 -0.169702,0.003 -0.253356,0.008 -0.166156,0.021 -0.328982,0.058 -0.490921,0.10047 -0.225182,0.0511 -0.450812,0.10034 -0.678759,0.13783 -0.280394,0.0454 -0.56144,0.0902 -0.84569,0.10273 -0.280539,0.006 -0.561607,-0.005 -0.836149,-0.0686 -0.246498,-0.0604 -0.488481,-0.13628 -0.731199,-0.21017 -0.205563,-0.0629 -0.407918,-0.13805 -0.619776,-0.17831 -0.169242,-0.0333 -0.340135,-0.0472 -0.512227,-0.0265 -0.163644,0.0176 -0.324847,0.0485 -0.479216,0.10752 -0.07603,0.0263 -0.151883,0.0526 -0.224481,0.0876 -0.02308,0.0111 -0.09016,0.0487 -0.0681,0.0357 0.783049,-0.46314 0.663359,-0.39058 0.45488,-0.26305 -0.155495,0.10537 -0.285466,0.22386 -0.407164,0.36784 -0.141564,0.16027 -0.279063,0.32387 -0.424988,0.4802 -0.306954,0.28584 -0.625904,0.50652 -1.016834,0.69292 -0.174799,0.0975 -0.356398,0.18375 -0.556083,0.21561 -0.239463,0.0285 -0.473963,10e-4 -0.70249,-0.0784 -0.255146,-0.0924 -0.505714,-0.19723 -0.753168,-0.30848 -0.258873,-0.12583 -0.510202,-0.26725 -0.752724,-0.42233 -0.229628,-0.15092 -0.452427,-0.31204 -0.651761,-0.50215 -0.185792,-0.17772 -0.368047,-0.35854 -0.534929,-0.55448 -0.155657,-0.16833 -0.318905,-0.33088 -0.496905,-0.47569 -0.151947,-0.1248 -0.309399,-0.25171 -0.511322,-0.27619 -0.09044,0.001 -0.110138,-0.004 -0.200985,0.019 -0.218372,0.0548 -0.676972,0.33537 0.185953,-0.15972 0.05133,-0.0295 -0.100336,0.0628 -0.150504,0.0942 -0.323448,0.2347 -0.614304,0.50956 -0.861318,0.82462 -0.183351,0.242 -0.356719,0.49109 -0.541905,0.73161 -0.04166,0.049 -0.131886,0.16663 -0.186256,0.20074 -0.215237,0.13505 -0.491281,0.33195 -0.759079,0.43458 -0.09232,0.0222 -0.18644,0.0338 -0.2757253,-0.007 -0.068348,-0.03 -0.1377741,-0.0575 -0.2025769,-0.095 -0.085891,-0.0405 -0.1686144,-0.0885 -0.2629191,-0.10782 -0.1188741,-0.03 -0.2395863,-0.0524 -0.3576539,-0.0854 -0.143822,-0.0454 -0.2876273,-0.0917 -0.4186735,-0.16826 -0.1484437,-0.0857 -0.2862416,-0.1877 -0.4353177,-0.27238 -0.1580014,-0.0776 -0.3229617,-0.1417 -0.4880972,-0.20237 -0.1773349,-0.0643 -0.3540538,-0.13018 -0.5337344,-0.18779 -0.1618877,-0.0533 -0.3246964,-0.10252 -0.4878917,-0.15149 -0.1431298,-0.0535 -0.2740231,-0.12871 -0.3972724,-0.21919 -0.1215128,-0.0928 -0.2345404,-0.19659 -0.3619235,-0.28137 -0.1075701,-0.0648 -0.2198899,-0.1215 -0.3306162,-0.18062 -0.1050129,-0.0537 -0.2028171,-0.12102 -0.3130595,-0.16404 -0.1214292,-0.043 -0.2477992,-0.0567 -0.3758594,-0.0375 -0.1816431,0.0272 -0.3643913,0.051 -0.5486006,0.0389 -0.2327833,-0.0231 -0.462086,-0.0666 -0.6865643,-0.13342 -0.298865,-0.0809 -0.5992549,-0.15736 -0.8942992,-0.25123 -0.3414737,-0.11576 -0.6830167,-0.24427 -0.9502831,-0.49633 -0.1070383,-0.11367 -0.1568545,-0.15769 -0.2455652,-0.28835 -0.1633206,-0.24054 -0.2652928,-0.51802 -0.3583932,-0.79113 -0.1337137,-0.43984 -0.2300974,-0.88906 -0.36487457,-1.32843 -0.094401,-0.25623 -0.19513526,-0.52229 -0.38715269,-0.72295 -0.0705184,-0.0714 -0.17144794,-0.13846 -0.18723041,-0.24347 0.0349738,-0.0966 0.121446,-0.16064 0.19064488,-0.23305 0.16350475,-0.1375 0.33239501,-0.26837 0.49455909,-0.40748 0.1332753,-0.10895 0.2626557,-0.22482 0.3747901,-0.35554 0.056011,-0.0889 0.1130134,-0.17493 0.1348919,-0.27967 0.011781,-0.0589 0.010104,-0.0739 -0.017143,-0.13031 -0.016349,-0.0452 -0.00965,-0.0924 -0.010087,-0.14007 0.00296,-0.0881 0.00545,-0.17663 0.024188,-0.26314 0.029741,-0.15228 0.079579,-0.29863 0.1323828,-0.44432 0.084493,-0.21502 0.180577,-0.42497 0.2790067,-0.63396 0.1224238,-0.2091 0.2443804,-0.41973 0.405634,-0.60209 0.3001871,-0.30063 0.624892,-0.50957 1.0202721,-0.70084 0.1408739,-0.0734 0.288023,-0.13208 0.4418116,-0.17277 0.1066458,-0.032 0.2150239,-0.061 0.3180688,-0.10329 -0.1899362,0.10971 -0.380392,0.21852 -0.5698085,0.32912 -0.00686,0.004 0.014028,-0.009 0.021963,-0.009 0.011147,-4.7e-4 0.025807,0.0162 0.032653,0.007 0.00682,-0.009 -0.00727,-0.0249 -2.048e-4,-0.0334 -0.00439,-0.0778 -0.01614,-0.15536 -0.037456,-0.23041 -0.03737,-0.11707 -0.086408,-0.22975 -0.1299395,-0.34455 -0.044075,-0.10676 -0.085525,-0.21515 -0.1086615,-0.32867 -0.03103,-0.12011 -0.060278,-0.2405 -0.094292,-0.35979 -0.032375,-0.10932 -0.066454,-0.21789 -0.1009705,-0.32647 -0.036166,-0.11358 -0.072199,-0.22736 -0.080801,-0.34711 -0.013457,-0.13614 -0.00206,-0.27324 0.00103,-0.40975 0.00658,-0.11126 0.014589,-0.2224 0.037032,-0.33184 -3.705e-4,-0.0306 0.0033,-0.0731 -0.0034,-0.0973 -0.00249,-0.02 0.00469,-0.0402 0.0061,-0.0601 0.017989,-0.11717 0.037466,-0.23416 0.063689,-0.34981 0.036957,-0.18071 0.060393,-0.36408 0.092948,-0.54563 0.027829,-0.1483 0.04974,-0.29777 0.070401,-0.44719 0.012459,-0.0941 0.00852,-0.18964 0.026419,-0.28324 0.00887,-0.0445 0.027567,-0.0847 0.023267,-0.13025 3.76e-5,-0.002 -0.00108,-0.0116 -0.00148,-0.0172 1.058e-4,-0.0312 0.00196,-0.0623 0.00317,-0.0935 0.00238,-0.0546 0.00568,-0.10941 0.026429,-0.16061 0.024088,-0.0387 0.030278,-0.0816 0.060673,-0.11654 0.050533,-0.0673 -0.015867,0.016 0.039549,-0.0386 0.030474,-0.03 0.052446,-0.0694 0.084784,-0.0977 0.2298742,-0.16652 0.474558,-0.31259 0.7375123,-0.415 0.046645,-0.0202 0.09933,-0.0282 0.1480656,-0.0428 0.043628,-1.3e-4 0.095952,0.005 0.1310172,-0.0255 -0.193992,0.11298 -0.3886478,0.22483 -0.5819765,0.33894 -0.00584,0.003 0.013258,-0.003 0.019193,-0.007 0.2092404,-0.11593 0.4165158,-0.23538 0.6260719,-0.35074 0.00204,-10e-4 0.00643,0.005 0.00648,0.003 1.085e-4,-0.005 -0.00709,-0.008 -0.0079,-0.0125 0.00889,-0.0129 0.030503,-0.0144 0.042791,-0.0238 0.2048652,-0.10666 0.4822822,-0.27241 -0.5119153,0.29962 -0.01202,0.007 0.022847,-0.0157 0.034318,-0.0235 0.049409,-0.0336 0.028059,-0.0199 0.079915,-0.05 0.2121318,-0.12318 0.4247846,-0.24547 0.6363954,-0.36954 0.1794777,-0.10524 -0.7210388,0.41553 -0.5399958,0.31302 2.1069509,-1.19308 -0.5155644,0.28394 0.2589747,-0.15033 0.3976751,-0.23051 0.7938519,-0.46172 1.2005622,-0.67571 0.2551655,-0.13826 0.5137968,-0.27025 0.7820591,-0.38161 0.2721669,-0.108 0.5476531,-0.20655 0.8312214,-0.2808 0.2545524,-0.0683 0.5116732,-0.12425 0.7700515,-0.17609 0.2109279,-0.0433 0.4220104,-0.0851 0.6352865,-0.11553 0.1652085,-0.0293 0.3306906,-0.0571 0.4961922,-0.0846 0.1137219,-0.0201 0.2291445,-0.0317 0.3402558,-0.0646 0.079546,-0.0152 0.1586999,-0.0342 0.2397916,-0.038 0.02233,-0.004 0.02449,-0.003 0.0442,-0.0113 0.0055,-0.002 0.02103,-0.0109 0.0159,-0.008 -1.0546212,0.61275 -0.7711524,0.38671 -0.5472544,0.32593 0.00728,-0.0107 0.012406,-0.0232 0.021754,-0.0322 0.00401,-0.004 0.011456,-0.003 0.014589,-0.008 0.016013,-0.0234 0.00951,-0.0622 0.022958,-0.0867 0.029717,-0.1109 0.017021,-0.22546 0.017529,-0.33929 -0.005,-0.17268 -0.014041,-0.34582 -0.048948,-0.5155 -0.043942,-0.20153 -0.095779,-0.40081 -0.1635366,-0.59579 -0.079064,-0.23591 -0.1435883,-0.47643 -0.2034101,-0.71785 -0.058269,-0.27154 -0.1100804,-0.54418 -0.1507455,-0.81894 -0.033072,-0.21551 -0.071588,-0.43021 -0.095109,-0.64708 -0.015486,-0.13284 -0.025495,-0.26683 0.065946,-0.37533 0.2583889,-0.28739 0.6269394,-0.44518 0.9718328,-0.61029 0.2285538,-0.0866 0.4650888,-0.14573 0.7028948,-0.20123 0.297638,-0.0651 0.597783,-0.11891 0.893262,-0.19391 0.317275,-0.0732 0.631682,-0.1613 0.953921,-0.21062 0.301501,-0.0367 0.605103,-0.0487 0.908017,-0.0186 0.298181,0.0289 0.591818,0.0832 0.879712,0.16739 0.26764,0.0772 0.539733,0.14871 0.790526,0.27254 0.194002,0.0998 0.384482,0.2082 0.56095,0.33688 0.11457,0.0862 0.233951,0.16436 0.355706,0.24007 0.106642,0.0703 0.212049,0.14256 0.319602,0.2115 0,0 -0.585083,0.37462 -0.585083,0.37462 z"
       inkscape:connector-curvature="0" />
    <path
       style="fill:#fdfdfd;fill-opacity:0.99572646;stroke:none;stroke-width:0.52916664;stroke-linecap:round;stroke-linejoin:round;stroke-miterlimit:4;stroke-dasharray:none;stroke-opacity:0.97435895"
       id="path816"
       d="m 23.633838,279.91958 c -0.08878,0.14806 -0.181888,0.29309 -0.285244,0.4314 -0.09379,0.11639 -0.20467,0.21682 -0.324966,0.30493 -0.288743,0.18169 -0.527598,0.391 -0.857222,0.41395 -0.01821,0.007 -0.03832,-0.004 -0.0566,10e-4 -0.0072,0.002 -0.02524,0.0156 -0.01876,0.012 0.19456,-0.10859 0.388388,-0.21849 0.583031,-0.32693 0.0078,-0.004 -0.01589,0.009 -0.02258,0.0147 -0.0083,0.007 -0.01473,0.0169 -0.02209,0.0253 -0.08891,0.20088 -0.121911,0.42282 -0.171642,0.63587 -0.05918,0.29568 -0.128938,0.58868 -0.215033,0.87766 -0.06345,0.2162 -0.145752,0.42523 -0.263621,0.61744 -0.205438,0.28043 -0.554213,0.56415 -0.905785,0.46755 -0.123038,-0.0462 -0.251719,-0.0991 -0.386326,-0.0813 -0.02909,0.004 -0.05707,0.0137 -0.0856,0.0206 -0.03097,0.0124 -0.06319,0.022 -0.0929,0.0372 -0.03343,0.0171 -0.128988,0.0768 -0.09583,0.0592 0.161282,-0.0857 0.314932,-0.18621 0.480381,-0.26359 0.04045,-0.0189 -0.0681,0.0578 -0.102145,0.0867 0,0 -0.628732,0.25591 -0.628732,0.25591 v 0 c 0.289135,-0.26605 0.09601,-0.10023 0.781504,-0.50726 0.03341,-0.0198 0.06853,-0.037 0.104687,-0.0512 0.03271,-0.0129 0.06746,-0.0198 0.101184,-0.0296 0.03131,-0.003 0.06244,-0.01 0.09393,-0.0103 0.138414,-0.003 0.265444,0.0537 0.396566,0.0881 0.04565,0.004 0.06223,0.0107 0.106134,-0.002 0.01651,-0.005 0.06195,-0.0299 0.04725,-0.0209 -0.967444,0.58974 -0.606999,0.41616 -0.44343,0.22751 0.127148,-0.18487 0.216066,-0.38906 0.280484,-0.60399 0.08852,-0.28733 0.162671,-0.57839 0.218056,-0.87407 0.04908,-0.21465 0.08435,-0.43286 0.146849,-0.644 0.08912,-0.27751 0.445742,-0.41753 0.729609,-0.42605 0.259107,-0.0364 0.665877,-0.34957 -0.344748,0.25281 0.12626,-0.0777 0.236108,-0.17713 0.336789,-0.2857 0.10507,-0.13278 0.200208,-0.27226 0.282992,-0.42013 0,0 0.633813,-0.28253 0.633813,-0.28253 z"
       inkscape:connector-curvature="0" />
    <path
       style="fill:#fdfdfd;fill-opacity:0.99572646;stroke:none;stroke-width:0.52916664;stroke-linecap:round;stroke-linejoin:round;stroke-miterlimit:4;stroke-dasharray:none;stroke-opacity:0.97435895"
       id="path818"
       d="m 21.105316,287.85272 c -0.03422,-0.1872 -0.105693,-0.35888 -0.228129,-0.50448 -0.137039,-0.13162 -0.312055,-0.16694 -0.493783,-0.18931 -0.219328,-0.0129 -0.437672,0.007 -0.657186,-0.0115 -0.216001,-0.0241 -0.415957,-0.0972 -0.595137,-0.21853 -0.174617,-0.12751 -0.299199,-0.30468 -0.418006,-0.48215 -0.08564,-0.14279 -0.176962,-0.25352 -0.327498,-0.32755 -0.132627,-0.0432 -0.272292,-0.0586 -0.407871,-0.0897 -0.08505,-0.0286 -0.04428,-0.014 -0.122406,-0.0433 0,0 0.573527,-0.38666 0.573527,-0.38666 v 0 c 0.07343,0.0263 0.03501,0.014 0.115438,0.0364 0.140919,0.0282 0.286065,0.0483 0.418681,0.10592 0.148475,0.0866 0.255552,0.2096 0.340794,0.35872 0.113523,0.17045 0.231746,0.3413 0.403384,0.45879 0.174395,0.10995 0.368059,0.17407 0.57437,0.19055 0.22044,0.0121 0.440958,-0.008 0.66064,0.0148 0.196297,0.0303 0.381969,0.082 0.523478,0.23089 0.125176,0.15595 0.200687,0.33579 0.249998,0.52921 0,0 -0.610294,0.32796 -0.610294,0.32796 z"
       inkscape:connector-curvature="0" />
    <path
       style="fill:#fdfdfd;fill-opacity:0.99572646;stroke:none;stroke-width:0.52916664;stroke-linecap:round;stroke-linejoin:round;stroke-miterlimit:4;stroke-dasharray:none;stroke-opacity:0.97435895"
       id="path820"
       d="m 17.223401,292.87079 c -0.05717,-0.20789 -0.117045,-0.415 -0.165797,-0.62505 -0.08795,-0.3991 -0.134773,-0.80544 -0.186874,-1.21029 -0.04366,-0.31226 -0.05713,-0.63059 -0.129937,-0.93822 -0.0053,-0.005 -0.01902,-0.10619 -0.05267,-0.0919 -0.0022,9.5e-4 -0.03317,0.0482 -0.02753,0.0451 0.190705,-0.10264 0.375806,-0.21537 0.563709,-0.32305 -0.234511,0.19545 -0.507424,0.55465 -0.824622,0.48306 -0.06204,-0.0482 -0.03336,-0.019 -0.08337,-0.0902 0,0 0.595102,-0.35388 0.595102,-0.35388 v 0 c 0.03167,0.0362 0.01328,0.0286 0.0493,0.0334 0.222298,-0.10501 0.04136,-0.0205 -0.529622,0.31285 -0.01299,0.008 0.02662,-0.0143 0.03876,-0.0231 0.04002,-0.0293 0.07716,-0.0651 0.110024,-0.10203 0.207942,-0.12439 0.412762,-0.25416 0.623825,-0.37318 0.01093,-0.006 0.02551,-0.003 0.03766,1.6e-4 0.06989,0.0182 0.09137,0.0979 0.104904,0.15793 0.06094,0.31446 0.0663,0.63755 0.11167,0.95427 0.05173,0.40122 0.10015,0.80385 0.195598,1.19766 0.0504,0.20713 0.111418,0.41207 0.179799,0.61394 0,0 -0.609944,0.33248 -0.609944,0.33248 z"
       inkscape:connector-curvature="0" />
    <path
       style="fill:#fdfdfd;fill-opacity:0.99572646;stroke:none;stroke-width:0.52916664;stroke-linecap:round;stroke-linejoin:round;stroke-miterlimit:4;stroke-dasharray:none;stroke-opacity:0.97435895"
       id="path822"
       d="m 9.0338835,291.9208 c 0.078596,0.0394 0.161336,0.0633 0.2501757,0.0576 0.2155452,-0.0138 0.6761943,-0.32292 -0.2470356,0.19048 0.3258428,-0.25008 0.5500441,-0.60555 0.7746632,-0.94379 0.1462735,-0.21098 0.2921712,-0.42842 0.4786092,-0.60714 0.10132,-0.0971 0.127944,-0.10812 0.240773,-0.18343 0.611516,-0.33935 0.727427,-0.53498 1.303911,-0.30411 0.143452,0.0697 0.279714,0.15177 0.427718,0.21176 0,0 -0.573429,0.38178 -0.573429,0.38178 v 0 c -0.142785,-0.0659 -0.276542,-0.14887 -0.420102,-0.21322 -0.11053,-0.0402 -0.213905,-0.0743 -0.333217,-0.075 -0.265165,-10e-4 -0.613439,0.23935 0.22647,-0.24614 -0.113228,0.0662 -0.15022,0.0808 -0.251661,0.1702 -0.19404,0.17097 -0.341463,0.39007 -0.490617,0.59869 -0.223075,0.34058 -0.446622,0.69247 -0.7517443,0.96604 -0.2357398,0.13587 -0.4674005,0.27909 -0.7072196,0.40763 -0.1599081,0.0857 -0.3517643,0.0369 -0.5062995,-0.0304 0,0 0.5790049,-0.38097 0.5790049,-0.38097 z"
       inkscape:connector-curvature="0" />
    <path
       style="fill:#fdfdfd;fill-opacity:0.99572646;stroke:none;stroke-width:0.52916664;stroke-linecap:round;stroke-linejoin:round;stroke-miterlimit:4;stroke-dasharray:none;stroke-opacity:0.97435895"
       id="path824"
       d="m 4.5728313,289.24442 c 0.1616482,-0.19158 0.3295152,-0.37661 0.5141756,-0.54622 0.038009,-0.0303 0.074497,-0.0627 0.1140264,-0.091 0.037864,-0.0271 0.077129,-0.0525 0.1178288,-0.0752 0.1790975,-0.0997 0.5283742,-0.38374 0.8267723,-0.40293 0.1099863,-0.007 0.148535,0.01 0.2544149,0.0344 0.2685357,0.0921 0.4913532,0.27376 0.7264228,0.4272 0.2216309,0.15184 0.4653177,0.22134 0.7234856,0.27883 0.3049204,0.0643 0.617541,0.0489 0.9269206,0.0436 0.1662573,8.5e-4 0.332031,-0.013 0.4977498,-0.0243 0,0 -0.5428488,0.39977 -0.5428488,0.39977 v 0 c -0.1659435,0.0101 -0.3319632,0.021 -0.4983165,0.0208 -0.3146951,0.006 -0.6322565,0.0165 -0.9416653,-0.0531 -0.2615951,-0.0605 -0.5132649,-0.14424 -0.735933,-0.29977 -0.2276001,-0.15099 -0.446986,-0.32823 -0.7138807,-0.40368 -0.104381,-0.0161 -0.1322149,-0.0286 -0.2383274,-0.0121 -0.039767,0.006 -0.149333,0.0543 -0.1167763,0.0307 0.1467149,-0.10663 0.3108651,-0.18698 0.4644822,-0.2834 0.03938,-0.0247 -0.082653,0.0429 -0.1216634,0.0682 -0.0407,0.0264 -0.077996,0.0577 -0.1169945,0.0865 -0.183093,0.16161 -0.3497101,0.33822 -0.5009774,0.53012 0,0 -0.6388957,0.27145 -0.6388957,0.27145 z"
       inkscape:connector-curvature="0" />
    <path
       style="fill:#fdfdfd;fill-opacity:0.99572646;stroke:none;stroke-width:0.52916664;stroke-linecap:round;stroke-linejoin:round;stroke-miterlimit:4;stroke-dasharray:none;stroke-opacity:0.97435895"
       id="path826"
       d="m 7.8991763,281.93761 c 0.1547,0.22765 0.2666614,0.47803 0.3753467,0.72974 0.1340445,0.3293 0.2641867,0.65902 0.4433051,0.96681 0.1544571,0.23464 0.3308802,0.33411 0.5917036,0.41712 0.2907048,0.0769 0.5830861,0.14221 0.8659593,0.24528 0.228162,0.0887 0.427156,0.23081 0.625725,0.37066 0,0 -0.56509,0.36003 -0.56509,0.36003 v 0 c -0.195654,-0.13599 -0.3928067,-0.27223 -0.619063,-0.3534 -0.2852391,-0.0987 -0.5799429,-0.15922 -0.8701389,-0.24103 -0.2727788,-0.0962 -0.4571204,-0.21024 -0.6148417,-0.461 -0.1739058,-0.31322 -0.3052918,-0.64491 -0.4414972,-0.97581 -0.1101805,-0.2464 -0.2223326,-0.49385 -0.3908213,-0.70716 0,0 0.5994124,-0.35124 0.5994124,-0.35124 z"
       inkscape:connector-curvature="0" />
    <path
       style="fill:#fdfdfd;fill-opacity:0.99572646;stroke:none;stroke-width:0.52916664;stroke-linecap:round;stroke-linejoin:round;stroke-miterlimit:4;stroke-dasharray:none;stroke-opacity:0.97435895"
       id="path828"
       d="m 15.259408,284.1842 c -0.09871,0.22231 -0.155822,0.45983 -0.225796,0.69207 -0.07592,0.25952 -0.174247,0.51079 -0.290317,0.75475 -0.126038,0.25532 -0.259757,0.50685 -0.400579,0.75432 -0.131878,0.22099 -0.298701,0.41416 -0.507043,0.56486 -0.330951,0.19528 -0.718001,0.55889 -1.132675,0.37946 -0.03928,-0.017 -0.07515,-0.041 -0.112729,-0.0615 -0.21849,-0.15501 -0.411424,-0.34188 -0.623324,-0.50549 -0.112021,-0.0846 -0.25644,-0.14965 -0.39366,-0.0802 -0.02636,0.0133 -0.04907,0.0329 -0.0736,0.0494 0.866709,-0.5294 0.503511,-0.31408 0.338094,-0.0903 -0.09159,0.12393 -0.164499,0.25667 -0.236468,0.39245 0,0 -0.615186,0.27727 -0.615186,0.27727 v 0 c 0.0698,-0.13784 0.1407,-0.27322 0.227599,-0.40133 0.01227,-0.0181 0.129822,-0.18263 0.153803,-0.19881 0.216218,-0.1459 0.444587,-0.27292 0.666881,-0.40938 0.02877,-0.012 0.05626,-0.0277 0.08632,-0.036 0.155953,-0.0428 0.30488,0.0414 0.423164,0.13371 0.205701,0.16421 0.392654,0.35295 0.615308,0.4948 0.106188,0.0497 0.201103,0.0886 0.321526,0.0788 0.235216,-0.0193 0.659698,-0.34077 -0.279578,0.2257 0.222291,-0.13937 0.379992,-0.31847 0.522568,-0.5379 0.143282,-0.24471 0.275014,-0.49598 0.40171,-0.74964 0.119644,-0.23955 0.217093,-0.48872 0.295098,-0.74497 0.06999,-0.23134 0.128415,-0.46613 0.209501,-0.69393 0,0 0.629388,-0.28821 0.629388,-0.28821 z"
       inkscape:connector-curvature="0" />
    <path
       style="fill:#fdfdfd;fill-opacity:0.99572646;stroke:none;stroke-width:0.52916664;stroke-linecap:round;stroke-linejoin:round;stroke-miterlimit:4;stroke-dasharray:none;stroke-opacity:0.97435895"
       id="path830"
       d="m 12.766137,283.2286 c -0.196487,-0.10407 -0.336922,-0.27274 -0.46527,-0.44933 -0.172967,-0.24294 -0.252984,-0.52516 -0.304274,-0.81465 -0.03854,-0.25096 -0.04964,-0.50531 -0.006,-0.75594 0.03647,-0.18053 0.159677,-0.30494 0.291401,-0.42339 0.187879,-0.1535 0.361647,-0.3188 0.511028,-0.51006 0.110237,-0.16186 0.223158,-0.3475 0.219864,-0.5509 -5.03e-4,-0.0316 -0.0069,-0.0629 -0.01037,-0.0943 -0.05031,-0.18373 -0.200769,-0.30424 -0.339666,-0.42304 -0.160179,-0.1309 -0.321613,-0.25951 -0.490956,-0.37849 0,0 0.57793,-0.36763 0.57793,-0.36763 v 0 c 0.169466,0.12172 0.331459,0.25264 0.493359,0.38413 0.153087,0.13018 0.308692,0.26582 0.365253,0.46657 0.01288,0.0903 0.024,0.12533 0.01167,0.21808 -0.02302,0.17312 -0.110184,0.33283 -0.20311,0.47709 -0.05952,0.0807 -0.09615,0.13448 -0.163452,0.20911 -0.1025,0.11366 -0.223399,0.20896 -0.336739,0.31115 -0.125969,0.10869 -0.260132,0.21719 -0.309596,0.38299 -0.05739,0.24228 -0.04813,0.49184 -0.01328,0.7373 0.04689,0.27968 0.122397,0.55255 0.29148,0.78568 0.126992,0.16926 0.264955,0.32894 0.462585,0.4174 0,0 -0.581812,0.3782 -0.581812,0.3782 z"
       inkscape:connector-curvature="0" />
    <path
       style="fill:#fdfdfd;fill-opacity:0.99572646;stroke:none;stroke-width:0.52916664;stroke-linecap:round;stroke-linejoin:round;stroke-miterlimit:4;stroke-dasharray:none;stroke-opacity:0.97435895"
       id="path832"
       d="m 12.710935,275.5984 c 0.03627,0.15402 0.107426,0.29337 0.214869,0.40896 0.139137,0.1192 0.306958,0.1187 0.479856,0.10066 0.280183,-0.0477 0.534925,-0.14613 0.817419,-0.19048 0.222893,-0.0224 0.460707,0.01 0.606507,0.20014 0.03166,0.0413 0.05258,0.0899 0.07888,0.13485 0.145623,0.39743 0.152693,0.829 0.193111,1.24648 0.03701,0.23953 0.04172,0.51912 0.200839,0.71885 0.02103,0.0264 0.04843,0.0471 0.07264,0.0706 0.09471,0.0716 0.203309,0.0788 0.316732,0.0925 0,0 -0.555425,0.39139 -0.555425,0.39139 v 0 c -0.12651,-0.0213 -0.243705,-0.0398 -0.344177,-0.12759 -0.02645,-0.0283 -0.05622,-0.0537 -0.07935,-0.0847 -0.15973,-0.21425 -0.167606,-0.50028 -0.201075,-0.75351 -0.03658,-0.40457 -0.04465,-0.83193 -0.188787,-1.21471 -0.02398,-0.0391 -0.04298,-0.0817 -0.07195,-0.11719 -0.139215,-0.17063 -0.368952,-0.17484 -0.568574,-0.15001 -0.278457,0.0523 -0.544646,0.15427 -0.826455,0.18919 -0.192046,0.009 -0.374132,-0.01 -0.518961,-0.14996 -0.11067,-0.1272 -0.187122,-0.27385 -0.236341,-0.43541 0,0 0.610242,-0.33001 0.610242,-0.33001 z"
       inkscape:connector-curvature="0" />
    <path
       style="fill:#dcdcdc;fill-opacity:0.99572647;stroke:none;stroke-width:0.35355338;stroke-linecap:round;stroke-linejoin:round;stroke-miterlimit:4;stroke-dasharray:none;stroke-opacity:0.97435895"
       d="m 64.758589,95.868914 c -1.45792,-0.404072 -4.033196,-1.579213 -5.687801,-2.595437 -1.141426,-0.70104 -2.234981,-1.634619 -4.224461,-3.606462 -3.01172,-2.985023 -4.090158,-3.724268 -5.153246,-3.532431 -0.774685,0.139793 -2.743385,1.122316 -4.098251,2.045322 -1.337303,0.91104 -2.828038,2.428972 -4.290376,4.368645 -0.678028,0.899352 -1.305807,1.635185 -1.39506,1.635185 -0.08925,0 -0.457422,-0.147241 -0.81815,-0.327202 C 38.730515,93.676574 37.878527,93.393576 37.197937,93.22765 36.460934,93.04797 35.28134,92.54291 34.281121,91.978775 33.292385,91.421116 31.52716,90.663299 29.988768,90.136053 26.99215,89.109037 26.85268,89.044894 25.844277,88.229989 25.433393,87.897949 24.43889,87.27607 23.634268,86.848035 L 22.171319,86.06979 19.873521,86.1011 C 17.840706,86.1288 17.371865,86.0755 15.807957,85.638902 11.638636,84.474944 10.450621,83.96504 9.3547089,82.869129 8.1735989,81.688019 7.5702731,80.266363 6.4444689,76.011537 5.7776886,73.491532 5.1832616,72.05385 4.4456959,71.177302 L 3.9845374,70.629247 4.7816235,69.899541 c 0.4383974,-0.40134 1.2988,-1.160733 1.9120058,-1.687544 1.318463,-1.1327 1.8070355,-2.052041 1.6601287,-3.123842 -0.1144648,-0.835113 0.2375635,-2.204147 1.0414138,-4.05005 1.0637342,-2.442681 2.2602122,-3.863461 3.5817812,-4.253256 1.370739,-0.404295 3.173193,-1.518932 3.243547,-2.005807 0.03244,-0.224528 -0.183435,-1.095703 -0.479732,-1.935944 -0.296297,-0.84024 -0.789307,-2.402756 -1.095577,-3.472255 -0.506499,-1.768702 -0.546594,-2.088413 -0.443398,-3.535533 0.0624,-0.875045 0.277865,-2.50581 0.478809,-3.623923 0.200944,-1.118112 0.458501,-2.823106 0.572348,-3.788874 l 0.206994,-1.755944 1.499832,-0.879931 c 6.658782,-3.906618 8.504463,-4.578607 16.132451,-5.873607 2.054238,-0.348749 3.948128,-0.744311 4.208645,-0.879031 0.260518,-0.134718 0.682019,-0.492551 0.936667,-0.795186 0.419076,-0.498042 0.46213,-0.687311 0.453839,-1.995087 -0.0059,-0.936426 -0.153544,-1.973586 -0.419478,-2.947446 -1.183911,-4.335537 -1.535907,-5.860695 -1.807445,-7.831464 -0.425118,-3.085441 -0.467786,-3.003237 1.837802,-3.540791 1.045486,-0.243758 3.014577,-0.708164 4.375758,-1.032014 2.240524,-0.533062 2.717593,-0.587441 5.038135,-0.574269 4.00462,0.02273 6.508351,0.81751 9.825104,3.118862 0.882743,0.612497 1.57804,1.194476 1.545104,1.293287 -0.03294,0.09881 0.199412,0.327668 0.516332,0.508572 0.31692,0.180905 0.814866,0.548253 1.106547,0.816329 0.291682,0.268077 0.806143,0.545528 1.143247,0.616559 0.337103,0.07103 0.739894,0.208447 0.89509,0.305368 0.208281,0.130074 0.656014,0.01422 1.709755,-0.442429 1.527125,-0.661787 2.473472,-1.253626 4.287351,-2.681279 l 1.141151,-0.898168 h 1.364322 c 1.670412,0 2.112331,0.268491 2.930938,1.780715 1.098403,2.029093 0.966427,3.599483 -0.508979,6.056397 -1.829116,3.045925 -3.566405,5.20159 -7.247272,8.992572 -1.529621,1.575378 -2.917045,3.126593 -3.083166,3.447146 -0.734389,1.41709 -0.602738,2.652285 0.518122,4.861166 0.834824,1.645189 1.539536,2.432909 2.507116,2.802431 1.042643,0.398189 1.97765,0.242292 3.783005,-0.630757 3.136512,-1.516783 4.274258,-2.586782 7.920445,-7.44882 2.597344,-3.463452 4.092218,-4.937236 5.354681,-5.279139 1.603994,-0.434397 4.797539,0.176612 6.261867,1.198059 0.964821,0.673014 2.53292,2.783206 2.846354,3.830334 0.354284,1.183605 0.327852,2.857035 -0.08298,5.25365 -0.498798,2.909767 -1.351631,5.697301 -3.524436,11.519807 -1.058853,2.837429 -2.064081,5.63626 -2.233842,6.219623 -0.419788,1.442554 -0.439681,2.991431 -0.04351,3.387602 0.285926,0.285925 0.375903,0.286054 1.589216,0.0023 0.70737,-0.165447 1.665957,-0.299794 2.130192,-0.298547 0.742411,0.002 0.864829,0.05688 1.016466,0.455716 0.415859,1.093791 -0.06788,4.29267 -0.908614,6.008454 -1.121229,2.288233 -3.674944,4.74594 -6.785547,6.53044 -1.957846,1.123185 -2.386486,1.445351 -2.386486,1.79369 0,0.354478 1.196876,1.040205 3.222732,1.846402 2.418642,0.962511 4.687605,2.147641 5.58918,2.919354 1.578227,1.350903 2.622005,3.777494 3.550417,8.254056 0.632137,3.048005 0.666609,3.59961 0.233011,3.728638 -0.847476,0.25219 -2.937613,0.674838 -4.491441,0.908218 -3.05306,0.458564 -4.329451,0.322648 -8.058212,-0.858079 -1.074682,-0.340302 -2.383077,-0.672344 -2.907544,-0.737871 -2.713112,-0.338982 -6.379544,1.428221 -8.805404,4.244163 -0.631977,0.7336 -1.427472,1.524868 -1.767767,1.758376 -0.797147,0.546995 -1.965497,0.68524 -3.110105,0.368003 z m 1.666723,-12.082209 c 0.874369,-0.455489 1.094566,-0.648983 1.004408,-0.882613 -0.567962,-1.471783 -1.14895,-4.561502 -1.51831,-8.074447 -0.314039,-2.986785 -0.414153,-3.107124 -1.897785,-2.281229 -2.592983,1.443442 -2.864065,1.76147 -1.477063,1.732873 0.844406,-0.01741 0.740421,-0.307247 1.178723,3.285437 0.448836,3.679017 1.160021,7.002983 1.467776,6.860154 0.06731,-0.03123 0.626317,-0.319313 1.242251,-0.640175 z M 35.315283,81.636082 c 1.460345,-0.867576 2.379952,-1.811196 3.879663,-3.980967 1.703397,-2.464465 1.687827,-2.450199 2.527564,-2.31592 0.395757,0.06328 1.117158,0.31654 1.603114,0.562792 l 0.883552,0.447731 1.044836,-0.673127 c 0.574656,-0.37022 1.045528,-0.731449 1.046378,-0.802731 0.0024,-0.202517 -1.658798,-0.993527 -2.468679,-1.175496 -0.938862,-0.210947 -1.608835,-0.02227 -3.220573,0.906964 -1.625234,0.937017 -2.220867,1.541972 -3.87808,3.938776 -1.530582,2.213663 -1.766623,2.454395 -2.254673,2.299493 -0.397152,-0.126051 -2.53586,1.109132 -2.436722,1.407296 0.0836,0.251428 1.003943,0.397614 1.562078,0.248117 0.259419,-0.06948 1.029612,-0.457802 1.711542,-0.862928 z M 34.03516,70.196399 c 0.621416,-0.456275 1.129845,-0.845893 1.129845,-0.865817 0,-0.01993 -1.093806,-0.02447 -2.43068,-0.01009 -3.405171,0.0366 -4.37453,-0.238028 -6.998255,-1.982687 -1.130994,-0.752061 -1.322008,-0.819613 -2.317592,-0.819613 -0.989424,0 -1.213671,0.07787 -2.545512,0.883884 -1.341096,0.811619 -3.729305,2.98562 -3.515104,3.199821 0.05014,0.05014 0.596964,-0.120933 1.21517,-0.380155 0.797458,-0.334386 1.355123,-0.728119 1.919507,-1.355246 l 0.795495,-0.883933 0.722393,0.194922 c 0.397316,0.107207 1.213565,0.512382 1.813888,0.90039 2.487471,1.607729 3.560113,1.912352 6.807893,1.933396 l 2.273108,0.01472 1.129844,-0.82959 z m 48.044985,-6.322921 c -0.209666,-0.70218 -0.870751,-1.747738 -1.306753,-2.066733 -0.558379,-0.408531 -1.983841,-0.679132 -3.603856,-0.684133 -1.624892,-0.005 -2.460175,-0.385867 -3.474413,-1.584171 -1.753344,-2.071543 -1.968564,-2.245751 -3.05243,-2.470761 l -1.022436,-0.212256 -1.050882,0.677127 c -0.577986,0.372419 -1.025903,0.754331 -0.995372,0.848691 0.03053,0.09436 0.367864,0.234434 0.749625,0.311275 1.258714,0.253357 1.657079,0.519881 2.461068,1.646571 1.413602,1.980986 2.166179,2.360229 5.038949,2.53925 2.563817,0.159771 3.000793,0.367438 3.547212,1.685771 l 0.403466,0.973435 1.206731,-0.651784 c 1.014603,-0.54801 1.189594,-0.709181 1.099091,-1.012282 z M 49.683139,63.54167 c 1.210447,-0.364291 3.271607,-1.813025 4.03658,-2.837202 1.049074,-1.404548 2.462566,-4.364522 3.2741,-6.856253 0.406208,-1.247214 0.670772,-2.267663 0.587922,-2.267663 -0.08285,0 -0.646997,0.225062 -1.253661,0.500137 l -1.103027,0.500135 -0.670738,2.170904 c -0.654473,2.118267 -2.064913,5.126993 -3.068145,6.544917 -0.765792,1.082335 -1.192842,0.957682 -3.609694,-1.053642 -0.7737,-0.643881 -1.212034,-0.884276 -1.612375,-0.884276 -0.711954,0 -3.197957,1.449841 -3.7489,2.186363 -0.501831,0.67087 -1.039973,1.707911 -0.938781,1.809105 0.04044,0.04044 0.587141,-0.159363 1.214896,-0.444 0.873356,-0.395999 1.22143,-0.666183 1.482311,-1.150611 0.187518,-0.3482 0.395278,-0.63309 0.461688,-0.63309 0.06641,0 0.761073,0.523098 1.543697,1.162439 1.195969,0.977013 1.88849,1.383071 2.513898,1.474017 0.05747,0.0084 0.45807,-0.09122 0.890229,-0.22128 z m -9.872214,-9.411482 c 0.556014,-0.347788 1.010934,-0.691133 1.010934,-0.762989 0,-0.07185 -0.497184,-0.425588 -1.104854,-0.786073 -1.02038,-0.605317 -1.600575,-0.816516 -4.418629,-1.608449 -1.363348,-0.38313 -2.040249,-1.028366 -2.818673,-2.686818 -0.358802,-0.764439 -1.049975,-2.245047 -1.535942,-3.290239 -0.485966,-1.045192 -0.969211,-1.900349 -1.073881,-1.900349 -0.242272,0 -2.097452,1.042574 -2.226379,1.251179 -0.05329,0.08623 0.100828,0.447749 0.342487,0.803383 0.241659,0.355632 0.930633,1.787075 1.531049,3.180982 1.555283,3.610687 1.679858,3.712692 6.015761,4.925918 0.54258,0.151817 1.417625,0.544636 1.944543,0.87293 0.526919,0.328294 1.040071,0.60499 1.140341,0.614883 0.100269,0.0099 0.637229,-0.266567 1.193243,-0.614358 z M 78.493111,48.39866 c 0.252865,-4.8e-5 0.712272,0.08794 1.020905,0.195529 0.795493,0.277312 1.623916,0.06893 2.556327,-0.64302 1.066161,-0.814074 1.900721,-2.542172 2.515824,-5.209452 0.826786,-3.585202 0.697437,-3.29289 1.757054,-3.970719 1.168413,-0.747424 2.156853,-1.743888 2.711007,-2.73301 l 0.414273,-0.739446 -0.679438,0.295052 c -0.37369,0.162278 -0.957861,0.413062 -1.298156,0.557298 -0.381481,0.161692 -0.822065,0.575479 -1.149049,1.07916 -0.41336,0.636735 -0.691727,0.86305 -1.262086,1.026088 -0.875678,0.250314 -1.605347,0.704235 -1.841575,1.145633 -0.09487,0.177263 -0.411499,1.379128 -0.703626,2.670809 -0.292127,1.291683 -0.699401,2.884681 -0.905053,3.539998 l -0.373914,1.191485 -0.638853,-0.10139 c -0.500558,-0.07944 -0.86846,0.01846 -1.699514,0.452237 -1.28091,0.668591 -2.739227,1.63601 -2.739697,1.817463 -1.77e-4,0.07252 0.417293,-0.02687 0.927736,-0.220881 0.510443,-0.194009 1.134968,-0.352784 1.387835,-0.352834 z m -29.092372,-1.07715 1.145594,-0.723506 -0.875858,-0.787471 c -0.481722,-0.43311 -1.076351,-1.201338 -1.321399,-1.707174 -0.556097,-1.147913 -0.89715,-3.166111 -0.727351,-4.304134 0.116321,-0.779606 0.26216,-0.988567 1.592359,-2.281552 2.059261,-2.001654 2.703028,-3.410055 2.156544,-4.717976 -0.230895,-0.552611 -2.10194,-2.316697 -2.954636,-2.785736 -0.189936,-0.104476 -0.615848,0.06849 -1.406505,0.571192 l -1.134072,0.721048 0.611009,0.458652 c 1.177765,0.884085 2.476191,2.200837 2.580663,2.617086 0.212066,0.844943 -0.450606,2.011519 -2.105828,3.707117 -1.862549,1.907982 -2.031808,2.375212 -1.71052,4.72177 0.219246,1.601283 0.546833,2.535321 1.257562,3.585649 0.402198,0.594376 1.478298,1.637694 1.698318,1.646583 0.02669,0.0011 0.564045,-0.323618 1.19412,-0.721548 z m 9.097436,-17.024092 0.970917,-0.711624 -0.613111,-0.125395 c -1.131165,-0.231347 -1.472885,-1.013151 -1.773554,-4.05764 -0.333304,-3.374927 -0.745475,-4.580934 -1.68808,-4.939312 -0.702777,-0.267195 -1.982269,-0.199718 -3.435556,0.181183 -0.729204,0.191122 -1.573633,0.348858 -1.876509,0.350524 -0.685735,0.0038 -1.447756,-0.578349 -1.771563,-1.353325 l -0.246469,-0.589887 -1.226229,0.617519 -1.226228,0.617518 0.188768,0.5415 c 0.103823,0.297824 0.447484,0.815818 0.763693,1.151097 0.529773,0.561724 0.656584,0.60936 1.614712,0.606568 0.571881,-0.0017 1.636408,-0.159401 2.365611,-0.350523 2.508738,-0.657532 3.217354,-0.375746 3.778632,1.502602 0.05811,0.194454 0.225214,1.487681 0.371352,2.873837 0.348154,3.302339 0.697794,4.090084 1.974012,4.447502 0.58176,0.162928 0.54863,0.176729 1.829602,-0.762144 z"
       id="path836"
       inkscape:connector-curvature="0"
       transform="matrix(0.26458333,0,0,0.26458333,0,270.54165)" />
  </g>
</svg>
