<?xml version="1.0" encoding="UTF-8" standalone="no"?>
<!-- Created with Inkscape (http://www.inkscape.org/) -->

<svg
   xmlns:dc="http://purl.org/dc/elements/1.1/"
   xmlns:cc="http://creativecommons.org/ns#"
   xmlns:rdf="http://www.w3.org/1999/02/22-rdf-syntax-ns#"
   xmlns:svg="http://www.w3.org/2000/svg"
   xmlns="http://www.w3.org/2000/svg"
   xmlns:sodipodi="http://sodipodi.sourceforge.net/DTD/sodipodi-0.dtd"
   xmlns:inkscape="http://www.inkscape.org/namespaces/inkscape"
   width="64"
   height="64"
   viewBox="0 0 16.933333 16.933334"
   version="1.1"
   id="svg8"
   inkscape:version="0.92.4 5da689c313, 2019-01-14"
   sodipodi:docname="fireball.svg">
  <defs
     id="defs2" />
  <sodipodi:namedview
     id="base"
     pagecolor="#000d50"
     bordercolor="#666666"
     borderopacity="1.0"
     inkscape:pageopacity="0"
     inkscape:pageshadow="2"
     inkscape:zoom="8"
     inkscape:cx="34.5"
     inkscape:cy="34.375"
     inkscape:document-units="px"
     inkscape:current-layer="layer1"
     showgrid="false"
     units="px"
     inkscape:window-width="1920"
     inkscape:window-height="1027"
     inkscape:window-x="0"
     inkscape:window-y="1080"
     inkscape:window-maximized="1" />
  <metadata
     id="metadata5">
    <rdf:RDF>
      <cc:Work
         rdf:about="">
        <dc:format>image/svg+xml</dc:format>
        <dc:type
           rdf:resource="http://purl.org/dc/dcmitype/StillImage" />
        <dc:title />
      </cc:Work>
    </rdf:RDF>
  </metadata>
  <g
     inkscape:label="Layer 1"
     inkscape:groupmode="layer"
     id="layer1"
     transform="translate(0,-280.06665)">
    <path
       style="fill:#ffffff;fill-opacity:0.99572646;stroke:none;stroke-width:0.5291667;stroke-linecap:round;stroke-linejoin:round;stroke-miterlimit:4;stroke-dasharray:none;stroke-opacity:0.97435895"
       id="path825"
       d="m 6.8539206,289.44049 c -0.049785,-0.25589 -0.010433,-0.51092 0.037074,-0.76356 0.1277308,-0.58474 0.3589121,-1.13931 0.5917476,-1.68835 0.3107047,-0.74406 0.7049013,-1.44689 1.1156188,-2.13913 0.3250107,-0.52888 0.6643222,-1.04897 1.0348545,-1.54716 0.083507,-0.10945 0.1690785,-0.21792 0.2635427,-0.31827 0.023598,-0.0251 0.044403,-0.0557 0.075464,-0.0705 0.1493558,-0.0714 0.3011868,-0.13752 0.4517808,-0.20628 0.0017,0.0227 0.008,0.0455 0.005,0.068 -0.01231,0.0932 -0.101443,0.28679 -0.135404,0.37198 -0.137028,0.34372 -0.02447,0.054 -0.171279,0.43695 -0.03387,0.091 -0.06777,0.18191 -0.101618,0.27287 -0.07568,0.20336 -0.169336,0.45188 -0.2393273,0.65544 -0.1402451,0.40788 -0.2609334,0.82097 -0.3790059,1.23567 -0.2502638,0.88076 -0.4414692,1.77645 -0.6634369,2.6644 -0.1067935,0.40909 -0.2237798,0.81687 -0.3794011,1.2105 -0.069572,0.17597 -0.09712,0.22648 -0.1762641,0.39151 -0.084869,0.15588 -0.1824831,0.30939 -0.3176624,0.42706 -0.1355556,0.11799 -0.5387095,0.31547 -0.5427909,0.31776 -0.021193,0.002 -0.042329,0.009 -0.063575,0.007 -0.1524402,-0.0128 -0.2330944,-0.19239 -0.2957068,-0.30638 -0.1629727,-0.34146 -0.3222532,-0.68396 -0.5014891,-1.01735 -0.1683253,-0.29319 -0.35012,-0.57906 -0.5577224,-0.8462 -0.1431041,-0.18414 -0.1754306,-0.21514 -0.3287702,-0.38834 -0.1999276,-0.21208 -0.417068,-0.40926 -0.6609982,-0.56982 -0.120042,-0.079 -0.1638348,-0.099 -0.2873867,-0.16494 -0.1613721,-0.0738 -0.3326538,-0.14854 -0.5134629,-0.14304 -0.010552,0.002 -0.022267,-4.5e-4 -0.031653,0.005 -0.00551,0.003 -0.013573,0.0201 -0.00822,0.0169 0.1394079,-0.0843 0.2726719,-0.1786 0.4128588,-0.26161 0.00482,-0.003 0.00951,0.006 0.014478,0.009 0.012861,0.007 0.025866,0.0131 0.038992,0.0193 0.021849,0.0103 0.043944,0.02 0.065917,0.03 0.2970885,0.10618 0.614712,0.1231 0.9269974,0.13561 0.5904307,0.0192 1.1789937,-0.0463 1.762447,-0.12947 0.7292253,-0.10803 1.4501874,-0.2618 2.1713074,-0.41299 0.5953553,-0.12509 1.1916703,-0.24559 1.7881873,-0.36501 0.299379,-0.0628 0.603549,-0.10108 0.902258,-0.16676 0.01402,-0.003 0.07762,-0.0184 0.09714,-0.0247 0.0071,-0.002 0.02673,-0.0132 0.02067,-0.009 -0.312667,0.22698 -0.277999,0.26881 -0.507383,0.31519 -0.308162,0.069 -0.59236,0.20829 -0.869778,0.35486 -0.610664,0.3464 -0.02027,0.007 -0.04673,0.037 -0.06299,0.0717 -0.157953,0.10724 -0.2351,0.16342 -0.256285,0.18666 -0.494135,0.39229 -0.7309449,0.6026 -0.4274328,0.39595 -0.82832,0.82384 -1.1711303,1.29593 -0.071211,0.0981 -0.1373651,0.19971 -0.2060477,0.29957 -0.3142832,0.49695 -0.5722202,1.03522 -0.7041161,1.61087 -0.023042,0.10056 -0.036769,0.20304 -0.055154,0.30456 -0.038363,0.32199 -0.043521,0.65191 0.053545,0.96476 0.044783,0.14434 0.069265,0.17665 0.137568,0.30459 0.1026991,0.16062 0.2429444,0.29933 0.425341,0.36543 0.026625,0.01 0.054712,0.0146 0.082069,0.022 0.067743,0.0148 0.1393081,0.0173 0.2048788,-0.01 0.017753,-0.007 0.066315,-0.0387 0.049425,-0.0296 -0.3844971,0.20807 -0.4587317,0.31463 -0.3322815,0.15503 0.118886,-0.23642 0.093434,-0.52133 0.080718,-0.77757 -0.032961,-0.56531 -0.1538105,-1.11912 -0.2897884,-1.6671 -0.1726742,-0.66079 -0.4161832,-1.29937 -0.6657935,-1.93403 -0.1708484,-0.40384 -0.3283408,-0.81743 -0.5643396,-1.18884 -0.023254,-0.0305 -0.046509,-0.061 -0.069763,-0.0914 0,0 0.4099796,-0.24247 0.4099796,-0.24247 v 0 c 0.022452,0.0324 0.044907,0.0648 0.06736,0.0972 0.2246765,0.38218 0.3760682,0.80104 0.5430496,1.21034 0.2444361,0.63862 0.4872834,1.27918 0.6660388,1.94004 0.1411841,0.54681 0.2681314,1.09925 0.3143131,1.66353 0.020392,0.26278 0.049284,0.54403 -0.047522,0.79544 -0.1167578,0.21574 -0.023963,0.0682 -0.4925016,0.34255 -0.080627,0.0472 -0.1869712,0.0277 -0.2713434,0.008 -0.2414429,-0.0822 -0.3822597,-0.20846 -0.5172909,-0.42589 -0.065812,-0.13097 -0.093402,-0.17225 -0.1362776,-0.31828 -0.094499,-0.32184 -0.085849,-0.66015 -0.045793,-0.98979 0.018931,-0.10323 0.033249,-0.2074 0.056794,-0.30967 0.1334304,-0.57954 0.389092,-1.12359 0.7027212,-1.62612 0.06808,-0.10042 0.1335601,-0.20265 0.2042401,-0.30125 0.3397041,-0.47392 0.738768,-0.90325 1.1633292,-1.30169 0.2339904,-0.21069 0.4690431,-0.41679 0.7221201,-0.60466 0.07586,-0.0563 0.151235,-0.11363 0.231135,-0.16404 0.200671,-0.12663 0.40583,-0.24601 0.610084,-0.36677 0.07068,-0.0418 0.143105,-0.0806 0.214657,-0.12082 0.286985,-0.14917 0.580969,-0.29017 0.898723,-0.36059 0.06695,-0.0138 0.123834,-0.0268 0.11175,-0.0162 -0.283561,0.24727 -0.261911,0.27677 -0.493026,0.31853 -0.292709,0.0535 -0.588198,0.0913 -0.880116,0.1497 -0.591415,0.11393 -1.1823426,0.23049 -1.7719666,0.35338 -0.722706,0.15014 -1.4451661,0.30329 -2.1755058,0.41265 -0.5907567,0.0844 -1.1863383,0.15219 -1.7842397,0.13547 -0.322298,-0.0118 -0.6504872,-0.0274 -0.9574076,-0.13612 -0.032599,-0.0139 -0.087898,-0.0345 -0.1191985,-0.057 -0.011033,-0.008 -0.039427,-0.0197 -0.029073,-0.0285 0.3885679,-0.32935 0.2446899,-0.28973 0.454364,-0.28581 0.1809509,0.0164 0.3503591,0.0908 0.5106741,0.17243 0.1243209,0.0705 0.1641401,0.0897 0.2849632,0.17312 0.2420696,0.16721 0.4587504,0.36816 0.6583122,0.58368 0.152577,0.17445 0.1861478,0.20771 0.329289,0.39231 0.2086205,0.26905 0.3932259,0.55569 0.5651434,0.84931 0.1828446,0.33063 0.3457083,0.67085 0.5180484,1.0069 0.055577,0.0947 0.1333222,0.26644 0.2707806,0.25134 0.019039,-0.002 0.036901,-0.0103 0.055352,-0.0154 -0.1171813,0.0702 -0.2338708,0.14114 -0.3515442,0.21047 -0.024344,0.0143 0.048988,-0.0285 0.071524,-0.0455 0.026921,-0.0204 0.052261,-0.0429 0.076437,-0.0664 0.1056855,-0.10297 0.1907691,-0.2237 0.2637574,-0.3515 0.082044,-0.16099 0.1157798,-0.22045 0.1879909,-0.39211 0.1657993,-0.39415 0.2900614,-0.80448 0.4032843,-1.21624 0.2322385,-0.88748 0.4277789,-1.78405 0.6705193,-2.66885 0.1139594,-0.41288 0.229943,-0.82467 0.3639362,-1.23162 0.067518,-0.20505 0.1546601,-0.44561 0.2273887,-0.65037 0.032023,-0.0902 0.063916,-0.18036 0.095874,-0.27054 0.070545,-0.19644 0.1452877,-0.39129 0.2155446,-0.58782 0.023037,-0.0644 0.041419,-0.13051 0.065119,-0.19471 0.0033,-0.009 0.00895,-0.0168 0.013425,-0.0253 0.14115,-0.077 0.282811,-0.15306 0.42345,-0.23098 0.01152,-0.006 -0.02515,0.009 -0.03597,0.0163 -0.127808,0.0886 -0.235232,0.25618 -0.338543,0.36817 -0.385781,0.49652 -0.7329168,1.02101 -1.0648432,1.55478 -0.4114437,0.68852 -0.8067675,1.38784 -1.1124184,2.13114 -0.2266556,0.54168 -0.4503664,1.08955 -0.5692132,1.66687 -0.043206,0.24287 -0.082743,0.49077 -0.022498,0.73469 0,0 -0.4315434,0.2319 -0.4315434,0.2319 z"
       inkscape:connector-curvature="0" />
    <path
       style="fill:#ffffff;fill-opacity:0.99572646;stroke:none;stroke-width:0.5291667;stroke-linecap:round;stroke-linejoin:round;stroke-miterlimit:4;stroke-dasharray:none;stroke-opacity:0.97435895"
       id="path827"
       d="m 9.6586074,289.16508 c -0.067104,-0.0804 -0.1415378,-0.15771 -0.2258134,-0.22022 -0.058086,-0.0255 -0.1119889,-0.0887 -0.1795912,-0.0835 0.1398384,-0.0747 0.2801726,-0.1484 0.4195148,-0.22398 0.00369,-0.002 -0.011081,-9.8e-4 -0.012229,0.003 -0.00291,0.0103 -3.73e-5,0.0215 0.0023,0.0319 0.00448,0.02 0.01115,0.0395 0.018042,0.0588 0.020304,0.0569 0.062804,0.15606 0.084024,0.20687 0.1558776,0.34038 0.3252624,0.67654 0.5234294,0.99458 0.05019,0.0806 0.104073,0.15874 0.15611,0.23811 0.297024,0.43996 0.680311,0.80607 1.081675,1.14881 0.233901,0.18872 0.476309,0.36585 0.691162,0.5766 0.06418,0.0763 0.153018,0.14714 0.171585,0.24983 -0.0039,0.0519 -0.03473,0.0893 -0.07948,0.11575 -0.372072,0.21999 -0.385419,0.25042 -0.685606,0.3405 -0.35195,0.083 -0.714058,0.10742 -1.073271,0.13898 -0.451295,0.0385 -0.9023014,0.077 -1.3514967,0.13567 -0.2801728,0.0304 -0.5578541,0.10849 -0.8409723,0.10503 -0.018082,-0.007 -0.038949,-0.0102 -0.054247,-0.0224 -0.1254958,-0.10009 0.085786,-0.3976 0.1365044,-0.48438 0.2816334,-0.44448 0.6264775,-0.8432 0.9772992,-1.23354 0.4489886,-0.4865 0.9314844,-0.9401 1.4077354,-1.39939 0.38212,-0.35961 0.741378,-0.7414 1.077677,-1.14391 0.260382,-0.30489 0.48008,-0.64078 0.723725,-0.95849 0.191707,-0.23726 0.520655,-0.64143 0.839632,-0.63233 0.01198,0.0143 0.02817,0.0259 0.03595,0.0428 0.06095,0.13278 -0.07893,0.40367 -0.134408,0.5188 -0.07156,0.13918 -0.163836,0.26536 -0.255763,0.39133 0,0 -0.431919,0.18638 -0.431919,0.18638 v 0 c 0.09293,-0.12312 0.186219,-0.24642 0.258786,-0.38319 0.05607,-0.11314 0.109985,-0.22393 0.136672,-0.34834 0.0026,-0.0122 0.0247,-0.10104 -0.0018,-0.11552 -0.157121,0.0517 -0.124265,0.0435 0.324602,-0.2023 0.02587,-0.0142 -0.04707,0.0357 -0.06907,0.0553 -0.10191,0.0911 -0.185786,0.1992 -0.273781,0.30313 -0.250195,0.31652 -0.469498,0.65642 -0.73178,0.96365 -0.339535,0.40653 -0.702304,0.79214 -1.089354,1.15409 -0.476648,0.45783 -0.960025,0.90948 -1.4079978,1.396 -0.3446137,0.38434 -0.6843564,0.77624 -0.9586921,1.21527 -0.058164,0.10094 -0.090907,0.15104 -0.1369134,0.25314 -0.00545,0.0121 -0.042767,0.0962 -0.039261,0.12586 0.00338,0.0286 0.039829,0.0293 0.057708,0.0343 0.2752122,0.001 0.5459008,-0.0684 0.8186108,-0.0965 0.4493545,-0.0553 0.9003635,-0.0924 1.3511875,-0.13339 0.362438,-0.0339 0.728705,-0.0618 1.081228,-0.15779 0.03704,-0.0125 0.07453,-0.0237 0.111132,-0.0374 0.172218,-0.0645 0.290425,-0.15947 -0.254402,0.16657 -0.02739,0.0164 0.125163,-0.0733 0.09551,-0.0671 0.0076,-0.0802 -0.103887,-0.16648 -0.14404,-0.2261 -0.207036,-0.21381 -0.443571,-0.39363 -0.670859,-0.58505 -0.398607,-0.35074 -0.779223,-0.72353 -1.079571,-1.16455 -0.05281,-0.0797 -0.1072131,-0.15833 -0.1584136,-0.23905 -0.2015612,-0.31778 -0.3785344,-0.65129 -0.5478968,-0.98702 -0.041435,-0.0878 -0.08785,-0.1756 -0.1202026,-0.26746 -0.010126,-0.0288 -0.024482,-0.0817 -0.01837,-0.0856 0.1420337,-0.0899 0.2955619,-0.16014 0.443343,-0.2402 0.068981,0.023 0.126846,0.0701 0.1882196,0.1076 0.085092,0.068 0.1612224,0.14702 0.2346944,0.22732 0,0 -0.4208288,0.25267 -0.4208288,0.25267 z"
       inkscape:connector-curvature="0" />
    <path
       style="fill:#ffffff;fill-opacity:0.99572646;stroke:none;stroke-width:0.5291667;stroke-linecap:round;stroke-linejoin:round;stroke-miterlimit:4;stroke-dasharray:none;stroke-opacity:0.97435895"
       id="path829"
       d="m 11.476335,284.79589 c 0.280891,-0.29187 0.580304,-0.56453 0.883021,-0.83336 0.384359,-0.33365 0.775992,-0.65882 1.167023,-0.98459 0,0 0.396648,-0.16011 0.396648,-0.16011 v 0 c -0.386957,0.32309 -0.774453,0.64568 -1.153847,0.97767 -0.290149,0.26025 -0.580088,0.52261 -0.84065,0.81309 0,0 -0.452195,0.1873 -0.452195,0.1873 z"
       inkscape:connector-curvature="0" />
    <path
       style="fill:#ffffff;fill-opacity:0.99572646;stroke:none;stroke-width:0.5291667;stroke-linecap:round;stroke-linejoin:round;stroke-miterlimit:4;stroke-dasharray:none;stroke-opacity:0.97435895"
       id="path831"
       d="M 4.7253764,284.50505 C 4.5407036,284.34799 4.3489701,284.19931 4.1594223,284.04819 3.796468,283.75867 3.4424504,283.45827 3.085554,283.1614 c -0.3003066,-0.24517 -0.1487654,-0.12169 -0.4546352,-0.37044 0,0 0.3773631,-0.23674 0.3773631,-0.23674 v 0 c 0.3078686,0.24777 0.1550641,0.12493 0.458407,0.36854 0.3608978,0.29433 0.7189568,0.59228 1.0877479,0.87678 0.194551,0.15011 0.3905134,0.29834 0.5866768,0.44634 0,0 -0.4157372,0.25917 -0.4157372,0.25917 z"
       inkscape:connector-curvature="0" />
    <path
       style="fill:#ffffff;fill-opacity:0.99572646;stroke:none;stroke-width:0.5291667;stroke-linecap:round;stroke-linejoin:round;stroke-miterlimit:4;stroke-dasharray:none;stroke-opacity:0.97435895"
       id="path833"
       d="m 4.4297247,290.45061 c -0.1600931,-0.0446 -0.3225917,-0.0604 -0.488073,-0.0646 -0.3058215,-6.6e-4 -0.5965031,0.0943 -0.8773366,0.20589 -0.2852859,0.12279 -0.5591745,0.27031 -0.8269898,0.42718 -0.054999,0.0322 0.2175334,-0.13212 0.1667166,-0.0936 -0.067945,0.0514 -0.1456402,0.0885 -0.2184603,0.13282 0,0 -0.4222542,0.16325 -0.4222542,0.16325 v 0 c 0.5399998,-0.3302 1.084789,-0.66052 1.6652181,-0.91558 0.2933989,-0.11304 0.5828245,-0.2037 0.900892,-0.1999 0.1704872,0.006 0.3378036,0.0273 0.504103,0.0661 0,0 -0.4038158,0.27854 -0.4038158,0.27854 z"
       inkscape:connector-curvature="0" />
    <path
       style="fill:#ffffff;fill-opacity:0.99572646;stroke:none;stroke-width:0.5291667;stroke-linecap:round;stroke-linejoin:round;stroke-miterlimit:4;stroke-dasharray:none;stroke-opacity:0.97435895"
       id="path835"
       d="m 2.0471135,295.54641 c 0.1859591,-0.20486 0.3819789,-0.40031 0.5767757,-0.5967 0.1857315,-0.17971 0.3746353,-0.3561 0.5625753,-0.53348 0,0 0.4150801,-0.17065 0.4150801,-0.17065 v 0 c -0.1841157,0.17543 -0.3689526,0.3501 -0.5514587,0.5272 -0.1868808,0.19134 -0.3754398,0.3815 -0.5518096,0.58268 0,0 -0.4511628,0.19095 -0.4511628,0.19095 z"
       inkscape:connector-curvature="0" />
    <path
       style="fill:#ffffff;fill-opacity:0.99572646;stroke:none;stroke-width:0.5291667;stroke-linecap:round;stroke-linejoin:round;stroke-miterlimit:4;stroke-dasharray:none;stroke-opacity:0.97435895"
       id="path837"
       d="m 8.8381347,290.04858 c -0.087088,0.10279 -0.1122576,0.23717 -0.1479724,0.36324 -0.042609,0.13872 -0.1167022,0.26418 -0.23461,0.35187 -0.027709,0.0206 -0.058146,0.0373 -0.087219,0.0559 -0.1701353,0.094 -0.3376686,0.1928 -0.5104061,0.28188 -0.040044,0.0207 -0.2033495,0.067 -0.2425134,0.0783 -0.1557507,0.0447 -0.3121877,0.0824 -0.4703257,0.11767 -0.3450056,0.0772 -0.6919754,0.15061 -1.0270046,0.26539 -0.072918,0.025 -0.1444842,0.0537 -0.2167263,0.0806 -0.297411,0.11181 -0.5818796,0.25394 -0.8588883,0.40882 -0.068292,0.0382 -0.152622,0.0574 -0.203639,0.11673 -0.048379,0.0563 0.1301441,-0.0713 0.195216,-0.10694 -0.3184218,0.19497 -0.6258759,0.4084 -0.9113147,0.64926 -0.1003319,0.10401 -0.2485634,0.19184 -0.2971769,0.33532 -3.36e-5,0.0102 -0.00259,0.0207 -1.013e-4,0.0306 0.012049,0.0478 0.066201,0.0976 0.095814,0.13248 0.096008,0.11294 0.031271,0.0341 0.1350666,0.16381 0.217542,0.28099 0.3399711,0.61687 0.4692174,0.94386 0.084698,0.19978 0.1674403,0.49197 0.359083,0.62015 0.029432,0.0197 0.064313,0.0297 0.096469,0.0445 0.038225,0.007 0.075898,0.0184 0.1146763,0.0208 0.2583746,0.016 0.5258612,-0.10666 0.7569391,-0.20569 0.1784744,-0.0661 0.4768918,-0.25139 0.6734693,-0.1806 0.030296,0.0109 0.054233,0.0347 0.081349,0.0521 0.018648,0.0314 0.042543,0.0602 0.055944,0.0941 0.078458,0.19868 0.02906,0.56167 0.0082,0.77339 -0.00802,0.11568 -0.03443,0.23197 -0.02908,0.34859 0.00379,0.0827 0.01986,0.0638 0.053894,0.017 0,0 -0.3836546,0.30197 -0.3836546,0.30197 v 0 c -0.019532,-9e-4 -0.040657,0.005 -0.058596,-0.003 -0.089674,-0.0389 -0.00482,-0.38564 -0.00183,-0.45667 0.021534,-0.19831 0.069547,-0.55414 -0.00374,-0.74097 -0.010435,-0.0266 -0.030065,-0.0486 -0.045098,-0.0729 -0.022733,-0.012 -0.043321,-0.0296 -0.068197,-0.0361 -0.1834047,-0.0482 -0.4805008,0.13078 -0.6484843,0.19156 -0.2383271,0.0987 -0.5165717,0.22066 -0.7816175,0.18824 -0.041866,-0.005 -0.081935,-0.0201 -0.1229022,-0.0301 -0.034352,-0.0189 -0.07165,-0.0331 -0.1030557,-0.0566 -0.192586,-0.14373 -0.2731251,-0.43267 -0.3589343,-0.64416 -0.126415,-0.32286 -0.2483075,-0.65441 -0.4725165,-0.92479 -0.025141,-0.0294 -0.049837,-0.0592 -0.075422,-0.0883 -0.055953,-0.0635 -0.1527704,-0.14485 -0.1815361,-0.22723 -0.00495,-0.0142 -0.00407,-0.0298 -0.00611,-0.0446 0.00259,-0.0157 0.00276,-0.0321 0.00779,-0.0472 0.040739,-0.12264 0.2075614,-0.23382 0.2930184,-0.32296 0.2880775,-0.24578 0.599934,-0.46226 0.9218999,-0.66127 0.5360022,-0.31543 1.0672305,-0.64875 1.6536996,-0.86479 0.07287,-0.0264 0.1451266,-0.0545 0.2186096,-0.0792 0.3386521,-0.11351 0.6886284,-0.18716 1.035993,-0.2679 0.1593411,-0.0377 0.3175254,-0.0769 0.4741251,-0.12494 0.042673,-0.0131 0.085411,-0.0261 0.1274654,-0.041 0.038462,-0.0137 0.1469462,-0.0689 0.1139653,-0.0448 -0.097515,0.0711 -0.2064705,0.12508 -0.3097059,0.18763 0.1737019,-0.0969 0.2662529,-0.18048 0.3319643,-0.37274 0.037012,-0.12845 0.059139,-0.26452 0.1327327,-0.37862 0,0 0.4517676,-0.19195 0.4517676,-0.19195 z"
       inkscape:connector-curvature="0" />
    <path
       style="fill:#ffffff;fill-opacity:0.99572646;stroke:none;stroke-width:0.5291667;stroke-linecap:round;stroke-linejoin:round;stroke-miterlimit:4;stroke-dasharray:none;stroke-opacity:0.97435895"
       id="path839"
       d="m 10.316011,291.08955 c 0.0847,0.18438 0.23621,0.26483 0.413773,0.34357 0.279033,0.10078 0.570853,0.16574 0.840997,0.29103 0.06823,0.0317 0.13369,0.0689 0.200536,0.10341 0.292041,0.17134 0.536708,0.40397 0.732493,0.67943 0.122717,0.17265 0.179826,0.28517 0.283738,0.46938 0.224482,0.43175 0.394526,0.88836 0.604924,1.32667 0,0 -0.401586,0.22738 -0.401586,0.22738 v 0 c -0.203077,-0.44083 -0.369329,-0.89816 -0.592973,-1.32958 -0.10414,-0.1841 -0.157802,-0.29088 -0.281691,-0.46258 -0.194389,-0.26941 -0.437878,-0.49537 -0.727623,-0.65908 -0.06676,-0.033 -0.132209,-0.0687 -0.200279,-0.0988 -0.275328,-0.12191 -0.57185,-0.18149 -0.853656,-0.2848 -0.198131,-0.0894 -0.3356558,-0.1689 -0.4445467,-0.36349 0,0 0.4258937,-0.2425 0.4258937,-0.2425 z"
       inkscape:connector-curvature="0" />
    <path
       style="fill:#ffffff;fill-opacity:0.99572646;stroke:none;stroke-width:0.5291667;stroke-linecap:round;stroke-linejoin:round;stroke-miterlimit:4;stroke-dasharray:none;stroke-opacity:0.97435895"
       id="path841"
       d="m 8.5712038,287.16553 c -0.050196,-0.14159 -0.1244256,-0.27388 -0.2063089,-0.39935 -0.1182098,-0.18769 -0.2619825,-0.35482 -0.4140031,-0.51541 -0.2330363,-0.24889 -0.4623874,-0.50143 -0.6847223,-0.75994 -0.2573925,-0.28593 -0.4879804,-0.59345 -0.715508,-0.90314 -0.1338509,-0.19066 -0.2782279,-0.37305 -0.430892,-0.54884 0,0 0.4011409,-0.24162 0.4011409,-0.24162 v 0 c 0.1511419,0.17835 0.2955663,0.3621 0.4293973,0.55394 0.2255534,0.30967 0.4558504,0.6158 0.713431,0.9 0.2232867,0.25741 0.4544904,0.50796 0.6909959,0.75328 0.1564315,0.16098 0.3039034,0.32936 0.4257334,0.51868 0.084254,0.1283 0.1580513,0.26346 0.2193838,0.40426 0,0 -0.428648,0.23814 -0.428648,0.23814 z"
       inkscape:connector-curvature="0" />
    <path
       style="fill:#ffffff;fill-opacity:0.99572646;stroke:none;stroke-width:0.5291667;stroke-linecap:round;stroke-linejoin:round;stroke-miterlimit:4;stroke-dasharray:none;stroke-opacity:0.97435895"
       id="path843"
       d="m 6.7796327,282.69054 c -0.1480944,-0.14447 -0.2515944,-0.32363 -0.3511169,-0.5029 0,0 0.4084762,-0.23553 0.4084762,-0.23553 v 0 c 0.1007372,0.17217 0.2032616,0.34888 0.3588195,0.47817 0,0 -0.4161788,0.26026 -0.4161788,0.26026 z"
       inkscape:connector-curvature="0" />
    <path
       style="fill:#ffffff;fill-opacity:0.99572646;stroke:none;stroke-width:0.5291667;stroke-linecap:round;stroke-linejoin:round;stroke-miterlimit:4;stroke-dasharray:none;stroke-opacity:0.97435895"
       id="path845"
       d="m 8.9401819,281.07073 c -0.00436,-0.0834 0.00602,-0.1664 0.014851,-0.24914 0,0 0.4291861,-0.21324 0.4291861,-0.21324 v 0 c -0.0075,0.0781 -0.017084,0.15654 -0.00992,0.2351 0,0 -0.4341204,0.22728 -0.4341207,0.22728 z"
       inkscape:connector-curvature="0" />
    <path
       style="fill:#ffffff;fill-opacity:0.99572646;stroke:none;stroke-width:0.5291667;stroke-linecap:round;stroke-linejoin:round;stroke-miterlimit:4;stroke-dasharray:none;stroke-opacity:0.97435895"
       id="path847"
       d="m 15.080071,286.71573 c 0.171268,0.0625 0.353931,0.0667 0.533915,0.0639 0.0502,-0.005 0.100397,-0.009 0.150595,-0.014 0,0 -0.377832,0.27962 -0.377832,0.27962 v 0 c -0.05177,0.004 -0.103536,0.009 -0.155303,0.013 -0.188259,0.002 -0.375592,-0.008 -0.556652,-0.0651 0,0 0.405277,-0.27756 0.405277,-0.27756 z"
       inkscape:connector-curvature="0" />
    <path
       style="fill:#ffffff;fill-opacity:0.99572646;stroke:none;stroke-width:0.5291667;stroke-linecap:round;stroke-linejoin:round;stroke-miterlimit:4;stroke-dasharray:none;stroke-opacity:0.97435895"
       id="path849"
       d="m 15.086617,290.88209 c 0.136521,0.0272 0.27452,0.0432 0.412863,0.0575 0,0 -0.385351,0.27413 -0.385351,0.27413 v 0 c -0.14378,-0.014 -0.287362,-0.0296 -0.430057,-0.0524 0,0 0.402545,-0.27922 0.402545,-0.27922 z"
       inkscape:connector-curvature="0" />
    <path
       style="fill:#ffffff;fill-opacity:0.99572646;stroke:none;stroke-width:0.5291667;stroke-linecap:round;stroke-linejoin:round;stroke-miterlimit:4;stroke-dasharray:none;stroke-opacity:0.97435895"
       id="path851"
       d="m 14.775644,294.29737 c 0.05044,0.15742 0.135799,0.30064 0.238346,0.42923 0.124379,0.14557 0.251861,0.21496 0.425378,0.28612 0,0 -0.397421,0.2652 -0.397421,0.2652 v 0 c -0.175969,-0.0761 -0.313375,-0.15674 -0.439066,-0.30583 -0.106022,-0.13421 -0.19355,-0.28105 -0.258533,-0.43963 0,0 0.431296,-0.23509 0.431296,-0.23509 z"
       inkscape:connector-curvature="0" />
    <path
       style="fill:#ffffff;fill-opacity:0.99572646;stroke:none;stroke-width:0.5291667;stroke-linecap:round;stroke-linejoin:round;stroke-miterlimit:4;stroke-dasharray:none;stroke-opacity:0.97435895"
       id="path853"
       d="m 9.4863293,294.36085 c 0.1236279,0.29858 0.2396008,0.60022 0.3628755,0.89894 0.033656,0.0763 0.067312,0.15264 0.1009687,0.22896 0,0 -0.3951444,0.22272 -0.3951444,0.22272 v 0 c -0.034489,-0.0762 -0.068978,-0.15244 -0.1034666,-0.22867 -0.1271477,-0.29549 -0.244829,-0.59579 -0.3933214,-0.88152 0,0 0.4280882,-0.24043 0.4280882,-0.24043 z"
       inkscape:connector-curvature="0" />
    <path
       style="fill:#ffffff;fill-opacity:0.99572646;stroke:none;stroke-width:0.5291667;stroke-linecap:round;stroke-linejoin:round;stroke-miterlimit:4;stroke-dasharray:none;stroke-opacity:0.97435895"
       id="path855"
       d="m 7.1058298,289.9751 c -0.2268474,-0.0636 -0.4689895,-0.021 -0.6957195,0.0206 -0.433963,0.10661 -0.8483465,0.27889 -1.2655164,0.43662 -0.4812504,0.18331 -0.9641438,0.36167 -1.437563,0.56457 -0.3279225,0.13967 -0.6415445,0.30755 -0.9492999,0.48646 0,0 0.3501385,-0.28351 0.3501385,-0.28351 v 0 c 0.3095596,-0.17719 0.6246765,-0.3439 0.953584,-0.48298 0.4747773,-0.20199 0.9588815,-0.37991 1.4405907,-0.56454 0.421423,-0.15961 0.8400171,-0.33511 1.2801179,-0.43715 0.2394625,-0.0419 0.4958927,-0.0863 0.7330861,-0.009 0,0 -0.4094184,0.26938 -0.4094184,0.26938 z"
       inkscape:connector-curvature="0" />
    <path
       style="fill:#ffffff;fill-opacity:0.99572646;stroke:none;stroke-width:0.5291667;stroke-linecap:round;stroke-linejoin:round;stroke-miterlimit:4;stroke-dasharray:none;stroke-opacity:0.97435895"
       id="path857"
       d="m 8.1023975,288.8891 c -0.1841219,-0.0995 -0.3647673,-0.20527 -0.5452377,-0.31122 -0.3011914,-0.17873 -0.6082123,-0.34811 -0.9326835,-0.4813 -0.085219,-0.035 -0.1720514,-0.0659 -0.2580773,-0.0989 -0.5170323,-0.17844 -1.0591916,-0.27153 -1.6042749,-0.30503 -0.1164185,-0.007 -0.2331074,-0.009 -0.3496611,-0.0133 -0.4261276,-0.0104 -0.851248,0.0213 -1.2756576,0.0543 0,0 0.3605363,-0.26593 0.3605363,-0.26593 v 0 c 0.4225235,-0.0281 0.8456245,-0.056 1.269406,-0.0436 0.1169329,0.005 0.23401,0.007 0.3507987,0.015 0.5505653,0.0361 1.0983068,0.12977 1.6213439,0.30809 0.087429,0.0329 0.1756042,0.0638 0.2622868,0.0986 0.3295369,0.13227 0.6426247,0.29957 0.9503317,0.47585 0.1835677,0.10345 0.3669774,0.20901 0.5594589,0.29513 0,0 -0.4085702,0.27228 -0.4085702,0.27228 z"
       inkscape:connector-curvature="0" />
    <path
       style="fill:#ffffff;fill-opacity:0.99572646;stroke:none;stroke-width:0.5291667;stroke-linecap:round;stroke-linejoin:round;stroke-miterlimit:4;stroke-dasharray:none;stroke-opacity:0.97435895"
       id="path859"
       d="m 7.6735259,288.06801 c -0.1330293,-0.20592 -0.304918,-0.38238 -0.4744794,-0.55794 -0.3358698,-0.32667 -0.6619333,-0.66308 -0.983797,-1.00349 -0.2624728,-0.2815 -0.5393111,-0.54836 -0.8253194,-0.80563 0,0 0.379412,-0.23521 0.379412,-0.23521 v 0 c 0.2864607,0.25879 0.565004,0.52591 0.8303358,0.80654 0.3252211,0.33867 0.6554039,0.67253 0.9974107,0.99436 0.1753894,0.17558 0.349086,0.35345 0.498679,0.55212 0,0 -0.4222417,0.24925 -0.4222417,0.24925 z"
       inkscape:connector-curvature="0" />
    <path
       style="fill:#ffffff;fill-opacity:0.99572646;stroke:none;stroke-width:0.5291667;stroke-linecap:round;stroke-linejoin:round;stroke-miterlimit:4;stroke-dasharray:none;stroke-opacity:0.97435895"
       id="path861"
       d="m 8.6955241,287.50207 c -0.1157558,-0.19466 -0.2043772,-0.40601 -0.2629223,-0.62487 -0.018426,-0.0689 -0.031925,-0.13898 -0.047888,-0.20848 -0.083099,-0.45692 -0.056065,-0.92561 0.056998,-1.37527 0.026979,-0.1073 0.062793,-0.21218 0.09419,-0.31827 0.1470065,-0.43409 0.3789193,-0.82829 0.6188729,-1.21569 0,0 0.4021029,-0.17734 0.4021029,-0.17734 v 0 c -0.241839,0.38324 -0.4748933,0.77354 -0.6231591,1.20458 -0.031095,0.10455 -0.066605,0.20788 -0.093285,0.31364 -0.111389,0.44156 -0.1370843,0.90191 -0.050656,1.34993 0.016613,0.0678 0.0307,0.13621 0.049837,0.20332 0.060354,0.21162 0.1490165,0.41886 0.2767639,0.59869 0,0 -0.4208544,0.24976 -0.4208543,0.24976 z"
       inkscape:connector-curvature="0" />
    <path
       style="fill:#ffffff;fill-opacity:0.99572646;stroke:none;stroke-width:0.5291667;stroke-linecap:round;stroke-linejoin:round;stroke-miterlimit:4;stroke-dasharray:none;stroke-opacity:0.97435895"
       id="path863"
       d="m 6.7547452,287.02159 c -0.025993,-0.20823 -0.020913,-0.42243 0.02508,-0.62779 0.014346,-0.0641 0.035055,-0.12653 0.052583,-0.1898 0.147451,-0.42372 0.3916617,-0.80625 0.6769733,-1.15033 0.071533,-0.0863 0.1483095,-0.16805 0.222464,-0.25208 0.506394,-0.5449 1.0977722,-0.99864 1.7053188,-1.42364 0.289433,-0.19683 0.5871087,-0.38121 0.8911877,-0.55448 0.217632,-0.12402 0.434911,-0.24871 0.654691,-0.36888 0.183567,-0.10037 0.320201,-0.15914 0.508526,-0.24538 0,0 -0.352989,0.28045 -0.352989,0.28045 v 0 c -0.08007,0.0369 -0.160884,0.0721 -0.240196,0.11062 -0.08742,0.0424 -0.17002,0.0951 -0.259907,0.13195 -0.03698,0.0152 0.135217,-0.0851 0.09994,-0.0663 -0.310394,0.16541 -0.603483,0.36239 -0.8982271,0.55339 -0.6068738,0.42067 -1.1975243,0.87029 -1.7033603,1.41162 -0.073342,0.0827 -0.1492486,0.16312 -0.2200275,0.24799 -0.2806613,0.33653 -0.5206913,0.71089 -0.6660912,1.126 -0.016957,0.0611 -0.037053,0.12145 -0.050872,0.18335 -0.043884,0.19658 -0.050357,0.40465 -0.013631,0.60264 0,0 -0.4314565,0.23067 -0.4314565,0.23067 z"
       inkscape:connector-curvature="0" />
    <path
       style="fill:#ffffff;fill-opacity:0.99572646;stroke:none;stroke-width:0.5291667;stroke-linecap:round;stroke-linejoin:round;stroke-miterlimit:4;stroke-dasharray:none;stroke-opacity:0.97435895"
       id="path865"
       d="m 8.1247233,287.3109 c 0.2481348,-0.10586 0.4865384,-0.23273 0.7233706,-0.3615 0.071964,-0.0414 0.1457884,-0.0796 0.2158924,-0.12404 0.046378,-0.0294 -0.1899463,0.10985 -0.1446142,0.0789 0.085344,-0.0583 0.1769899,-0.10685 0.2649697,-0.16112 0.094996,-0.0586 0.1896808,-0.11771 0.2839476,-0.17747 0.1868917,-0.11849 0.4290489,-0.27662 0.6135596,-0.39652 0.534343,-0.34511 1.067673,-0.69282 1.617777,-1.0126 0.223626,-0.13 0.448609,-0.25765 0.672914,-0.38648 0.09435,-0.0504 0.188703,-0.1008 0.283054,-0.15121 0,0 -0.344451,0.27708 -0.344451,0.27708 v 0 c -0.09292,0.0497 -0.18584,0.0995 -0.278761,0.14923 0.128064,-0.0792 0.305493,-0.18839 -0.243922,0.1427 -0.330717,0.19929 -0.656929,0.4059 -0.981432,0.61512 -0.107536,0.0693 -0.214678,0.13927 -0.322017,0.2089 -0.6534137,0.42681 -1.3102035,0.84859 -1.9943075,1.22544 -0.2462906,0.13393 -0.4942166,0.26548 -0.751187,0.37803 0,0 0.3852068,-0.30443 0.3852068,-0.30443 z"
       inkscape:connector-curvature="0" />
    <path
       style="fill:#ffffff;fill-opacity:0.99572646;stroke:none;stroke-width:0.5291667;stroke-linecap:round;stroke-linejoin:round;stroke-miterlimit:4;stroke-dasharray:none;stroke-opacity:0.97435895"
       id="path867"
       d="m 8.1361303,288.99478 c 0.3948399,-0.14079 0.7905547,-0.27831 1.1828561,-0.42624 0.7382026,-0.29115 1.4758236,-0.58347 2.2176246,-0.8654 0.474571,-0.18435 0.95972,-0.3387 1.44633,-0.48746 0,0 -0.345653,0.2671 -0.345653,0.2671 v 0 c -0.483192,0.14673 -0.964702,0.29964 -1.435606,0.48281 -0.746458,0.28389 -1.4881421,0.57958 -2.2300472,0.8751 -0.4055843,0.155 -0.815802,0.29733 -1.2197888,0.45628 0,0 0.3842843,-0.30219 0.3842843,-0.30219 z"
       inkscape:connector-curvature="0" />
    <path
       style="fill:#ffffff;fill-opacity:0.99572646;stroke:none;stroke-width:0.5291667;stroke-linecap:round;stroke-linejoin:round;stroke-miterlimit:4;stroke-dasharray:none;stroke-opacity:0.97435895"
       id="path869"
       d="m 7.7139265,288.67827 c 0.3183281,0.14321 0.6394831,0.27988 0.960931,0.41592 0.596121,0.24867 1.1873957,0.50865 1.7798855,0.76579 0.577632,0.25731 1.17173,0.47256 1.777628,0.65238 0.344793,0.0907 0.174082,0.0498 0.511972,0.12325 0,0 -0.372128,0.25803 -0.372128,0.25803 v 0 c -0.336306,-0.0777 -0.166368,-0.0349 -0.509655,-0.12883 -0.603541,-0.18556 -1.19561,-0.40445 -1.772383,-0.6621 -0.5946662,-0.25757 -1.1888322,-0.51646 -1.790286,-0.75794 -0.3305696,-0.13343 -0.660164,-0.2696 -0.9936493,-0.39559 0,0 0.4076848,-0.27091 0.4076848,-0.27091 z"
       inkscape:connector-curvature="0" />
    <path
       style="fill:#ffffff;fill-opacity:0.99572646;stroke:none;stroke-width:0.5291667;stroke-linecap:round;stroke-linejoin:round;stroke-miterlimit:4;stroke-dasharray:none;stroke-opacity:0.97435895"
       id="path871"
       d="m 8.1308699,289.3201 c 0.085033,0.32574 0.2651956,0.6155 0.4381712,0.9005 0.3406492,0.52858 0.7127676,1.03606 1.0851639,1.5425 0.3244522,0.43574 0.645287,0.87435 0.979056,1.30304 0.184662,0.2425 0.384491,0.47279 0.609279,0.6787 0,0 -0.400126,0.24699 -0.400126,0.24699 v 0 c -0.22123,-0.21202 -0.419731,-0.44562 -0.602199,-0.69182 -0.3280378,-0.43284 -0.6432163,-0.87527 -0.9660829,-1.31195 -0.3711001,-0.50921 -0.744782,-1.01692 -1.0966212,-1.53974 -0.1810176,-0.28511 -0.3665472,-0.57303 -0.4757896,-0.89496 0,0 0.4291486,-0.23326 0.4291486,-0.23326 z"
       inkscape:connector-curvature="0" />
    <path
       style="fill:#ffffff;fill-opacity:0.99572646;stroke:none;stroke-width:0.5291667;stroke-linecap:round;stroke-linejoin:round;stroke-miterlimit:4;stroke-dasharray:none;stroke-opacity:0.97435895"
       id="path873"
       d="m 8.2428222,290.08165 c -0.1914265,0.25195 -0.281904,0.56385 -0.3835175,0.85901 -0.029025,0.089 -0.058369,0.17786 -0.087075,0.26695 -0.05517,0.17122 -0.1310074,0.41581 -0.1886702,0.5848 -0.1065543,0.31227 -0.2272932,0.61756 -0.3541601,0.92199 -0.224345,0.52105 -0.4887963,1.02328 -0.7255174,1.5386 0,0 -0.4160939,0.18966 -0.4160939,0.18966 v 0 c 0.2435411,-0.51657 0.5145744,-1.01997 0.7419081,-1.54418 0.042628,-0.10136 0.087009,-0.20201 0.1278837,-0.3041 0.1911853,-0.47749 0.3409167,-0.96936 0.4910794,-1.46084 0.094298,-0.29328 0.1781853,-0.59628 0.3423949,-0.85994 0,0 0.4517676,-0.19195 0.451768,-0.19195 z"
       inkscape:connector-curvature="0" />
    <path
       style="fill:#ffffff;fill-opacity:0.99572646;stroke:none;stroke-width:0.5291667;stroke-linecap:round;stroke-linejoin:round;stroke-miterlimit:4;stroke-dasharray:none;stroke-opacity:0.97435895"
       id="path875"
       d="m 8.6942853,290.09331 c -0.231412,-0.0131 -0.4517882,0.0623 -0.6668458,0.13752 -0.4201689,0.16861 -0.837242,0.34497 -1.2556096,0.51805 -0.6034577,0.24505 -1.2021503,0.50143 -1.805825,0.74595 -0.2778606,0.1117 -0.5532676,0.22934 -0.8288869,0.34642 0,0 0.35281,-0.27852 0.35281,-0.27852 v 0 c 0.2731219,-0.11454 0.5460918,-0.22948 0.8210981,-0.33946 0.6066502,-0.24575 1.2080375,-0.50404 1.8135513,-0.75256 0.4234733,-0.1771 0.845211,-0.35876 1.2721082,-0.52741 0.2251033,-0.0769 0.4560293,-0.14923 0.6971951,-0.13361 0,0 -0.3995954,0.28362 -0.3995954,0.28362 z"
       inkscape:connector-curvature="0" />
    <path
       style="fill:#ffffff;fill-opacity:0.99572646;stroke:none;stroke-width:0.5291667;stroke-linecap:round;stroke-linejoin:round;stroke-miterlimit:4;stroke-dasharray:none;stroke-opacity:0.97435895"
       id="path877"
       d="m 10.713738,287.71063 c 0.247265,-0.17215 0.467311,-0.3795 0.686748,-0.58491 0.211176,-0.20261 0.420852,-0.40671 0.629467,-0.61195 0,0 0.408353,-0.16892 0.408353,-0.16892 v 0 c -0.204006,0.20352 -0.409437,0.40552 -0.615313,0.60715 -0.209466,0.20163 -0.419931,0.40421 -0.65322,0.5785 0,0 -0.456035,0.18013 -0.456035,0.18013 z"
       inkscape:connector-curvature="0" />
    <path
       style="fill:#ffffff;fill-opacity:0.99572646;stroke:none;stroke-width:0.5291667;stroke-linecap:round;stroke-linejoin:round;stroke-miterlimit:4;stroke-dasharray:none;stroke-opacity:0.97435895"
       id="path879"
       d="m 4.2183088,286.67475 c -0.1667838,-0.1649 -0.3511944,-0.31065 -0.5334661,-0.45774 0,0 0.3860173,-0.2428 0.3860173,-0.2428 v 0 c 0.1887196,0.14593 0.3775379,0.2918 0.5613971,0.44386 0,0 -0.4139483,0.25668 -0.4139483,0.25668 z"
       inkscape:connector-curvature="0" />
    <path
       style="fill:#ffffff;fill-opacity:0.99572646;stroke:none;stroke-width:0.5291667;stroke-linecap:round;stroke-linejoin:round;stroke-miterlimit:4;stroke-dasharray:none;stroke-opacity:0.97435895"
       id="path883"
       d="m 14.339206,282.55758 c 0.06869,0.0697 0.131098,0.14518 0.191142,0.22235 0,0 -0.412997,0.24662 -0.412997,0.24662 v 0 c -0.05982,-0.0739 -0.121298,-0.1473 -0.194324,-0.20872 0,0 0.416179,-0.26025 0.416179,-0.26025 z"
       inkscape:connector-curvature="0" />
    <path
       style="fill:#ffffff;fill-opacity:0.99572646;stroke:none;stroke-width:0.5291667;stroke-linecap:round;stroke-linejoin:round;stroke-miterlimit:4;stroke-dasharray:none;stroke-opacity:0.97435895"
       id="path885"
       d="m 1.8744912,283.66406 c 0.00601,0.1237 0.037786,0.24129 0.077462,0.35771 0,0 -0.4174771,0.23088 -0.4174771,0.23088 v 0 c -0.043029,-0.11795 -0.077441,-0.23715 -0.093763,-0.3621 0,0 0.4337785,-0.22649 0.4337781,-0.22649 z"
       inkscape:connector-curvature="0" />
    <path
       style="fill:#ffffff;fill-opacity:0.99572646;stroke:none;stroke-width:0.5291667;stroke-linecap:round;stroke-linejoin:round;stroke-miterlimit:4;stroke-dasharray:none;stroke-opacity:0.97435895"
       id="path889"
       d="m 7.4306789,289.85515 c 0.088253,-0.25484 0.1987227,-0.50069 0.3125068,-0.7449 0.1917094,-0.40469 0.3904499,-0.80597 0.5911501,-1.20626 0.1949722,-0.39656 0.4214294,-0.77528 0.668977,-1.14087 0.1175763,-0.16635 0.2413759,-0.32837 0.3798943,-0.47788 0.1142775,-0.13052 0.5287817,-0.41871 0.4860396,-0.18527 -0.014258,0.0681 -0.026869,0.13641 -0.042191,0.20431 -0.077859,0.27073 -0.1615151,0.53975 -0.2409902,0.81 -0.1639662,0.56808 -0.3155248,1.13973 -0.4507603,1.71532 -0.1222409,0.52705 -0.2259195,1.05846 -0.301562,1.59421 -0.025456,0.20079 -0.037598,0.40343 -0.0061,0.60398 -0.00345,0.004 0.027487,0.0738 0.034701,0.0498 -0.2636293,0.19108 -0.3458927,0.39296 -0.4929519,0.20536 -0.072621,-0.0962 -0.1234532,-0.20662 -0.17478,-0.31504 -0.1338157,-0.29281 -0.2647474,-0.58684 -0.4038738,-0.87718 -0.1229027,-0.25882 -0.2529628,-0.51402 -0.3901593,-0.76553 -0.055756,-0.0976 -0.1145485,-0.19616 -0.1971482,-0.27368 -0.1494944,-0.12358 -0.2940328,0.15517 0.3870079,-0.30106 0.08574,0.0169 0.1735402,0.0242 0.2612138,0.0294 0.2464293,0.003 0.4863415,-0.0581 0.7230243,-0.11962 0.3726953,-0.10733 0.7447534,-0.21771 1.1131809,-0.33898 0.2958926,-0.0972 0.5900701,-0.19995 0.8897611,-0.28518 0.150135,-0.0372 0.298844,-0.0792 0.451984,-0.10223 0.04382,0.006 0.11356,-0.006 0.147857,0.0297 0.125752,0.16717 -0.275251,0.20866 -0.415674,0.28808 -0.0038,0.002 -0.01196,0.001 -0.01615,-3e-5 -0.113473,-0.1133 -0.02325,-0.0211 0.410013,-0.22289 0.01347,-0.006 -0.01488,0.0258 -0.02325,0.038 -0.0459,0.0672 -0.09404,0.13301 -0.139713,0.20049 -0.182049,0.29043 -0.346895,0.59129 -0.518068,0.88818 -0.207357,0.36021 -0.419508,0.7176 -0.625979,1.07833 -0.085638,0.15467 -0.1727369,0.30866 -0.2475505,0.46896 -0.082369,0.18541 -0.052884,0.0577 -0.4645469,0.24699 8.466e-4,-0.007 7.672e-4,-0.0161 0.00212,-0.0231 -8.996e-4,-0.0266 0.013364,-0.0777 0.020325,-0.10801 0.061572,-0.26356 0.1231868,-0.52712 0.1861926,-0.79035 0.1124826,-0.46615 0.2071883,-0.93572 0.2709979,-1.41099 0.055048,-0.40523 0.075803,-0.81385 0.1095274,-1.22111 0.011689,-0.16053 0.030531,-0.32075 0.061396,-0.47878 0.016865,-0.18098 0.3303425,-0.38866 0.4656765,-0.25331 0.01988,0.0203 0.02104,0.0348 0.02525,0.064 -1.15086,0.66317 -0.03403,0.0196 -0.0272,0.0157 0.007,-0.004 -0.01398,0.008 -0.02062,0.013 -0.03792,0.0268 -0.07328,0.0578 -0.109467,0.0868 -0.2823053,0.23069 -0.6083717,0.39865 -0.9267951,0.57346 -0.3094305,0.16269 -0.6266413,0.30979 -0.9421347,0.46015 -0.3335319,0.16722 -0.6737538,0.31906 -1.0222876,0.45201 -0.2027304,0.0715 -0.4097441,0.13022 -0.6240828,0.15077 -0.060067,0.004 -0.1207971,0.007 -0.1808718,0.001 -0.00198,-0.001 -0.00802,-0.003 -0.00596,-0.004 0.442224,-0.27728 0.3760747,-0.38816 0.4915111,-0.11923 0.073273,0.1742 0.1665746,0.33723 0.2709839,0.49436 0.1671754,0.2417 0.3538606,0.46875 0.5283216,0.70511 0.1273239,0.18225 0.2337896,0.38273 0.2827917,0.60118 0.00874,0.039 0.013428,0.0787 0.020143,0.11809 0.022529,0.22519 -0.00821,0.40915 -0.1132639,0.60859 -0.1511871,0.2003 -0.3698904,0.27667 -0.6008248,0.40056 -0.025855,0.0139 -0.055429,0.0197 -0.084093,0.026 -0.077939,0.017 -0.1166945,0.0131 -0.1969749,0.0139 -0.2712368,-0.022 -0.5195321,-0.13785 -0.7587631,-0.25936 -0.2861964,-0.15778 -0.5555951,-0.34359 -0.8189799,-0.53644 -0.1687055,-0.1309 -0.3286768,-0.2747 -0.4658434,-0.43886 -0.072279,-0.0865 -0.1024626,-0.13327 -0.1661898,-0.22397 -0.087997,-0.14868 -0.1707756,-0.30515 -0.2105539,-0.47448 -0.032705,-0.22798 0.1848882,-0.18446 0.4482206,-0.32404 0,0 -0.3997341,0.2886 -0.3997341,0.2886 v 0 c 0.1367735,-0.0792 0.2757321,-0.15483 0.4103203,-0.23773 0.00544,-0.003 -0.013073,-0.006 -0.018875,-0.003 -0.013912,0.006 -0.00903,0.041 -0.00904,0.0469 0.022349,0.16657 0.1082982,0.319 0.187992,0.46393 0.062204,0.0913 0.088395,0.13418 0.1601793,0.22082 0.1343771,0.16219 0.292345,0.3033 0.4589076,0.43148 0.2619071,0.19139 0.5301295,0.37538 0.8165553,0.52862 0.2368735,0.11647 0.4834803,0.22798 0.7520509,0.23492 0.082523,-0.006 0.1119595,-0.003 0.1903217,-0.0269 0.027485,-0.008 0.104054,-0.0477 0.080058,-0.0319 -0.1093372,0.0719 -0.2248257,0.13407 -0.3372387,0.20111 0.022172,-0.0155 0.045821,-0.0292 0.066512,-0.0466 0.020471,-0.0173 0.03765,-0.0381 0.056475,-0.0572 0.015049,-0.0245 0.031932,-0.0479 0.04515,-0.0734 0.081028,-0.15635 0.099761,-0.33508 0.08686,-0.50831 -0.00569,-0.038 -0.00925,-0.0764 -0.017066,-0.11402 -0.044368,-0.21355 -0.1472272,-0.41016 -0.2701335,-0.58828 -0.1741453,-0.23762 -0.362194,-0.46447 -0.5327703,-0.70475 -0.1078482,-0.158 -0.2062475,-0.32105 -0.2860535,-0.49521 -0.1169855,-0.25022 -0.1220055,-0.10344 0.3411495,-0.40329 0.05604,0.003 0.1122228,0.002 0.1681475,-0.003 0.2071179,-0.0224 0.4075941,-0.0806 0.603368,-0.15078 0.346597,-0.13277 0.6840572,-0.28623 1.0161927,-0.45191 0.3179463,-0.15142 0.6371145,-0.30085 0.9472461,-0.46795 0.040796,-0.0229 0.1625537,-0.0925 0.1223881,-0.0686 -0.099486,0.0593 -0.1993196,0.11806 -0.3003762,0.17464 -0.031211,0.0175 0.060846,-0.0376 0.090751,-0.0573 0.060486,-0.0397 0.08603,-0.0588 0.1416379,-0.1017 0.017936,-0.0138 0.03555,-0.0281 0.053325,-0.0422 0.025614,-0.0214 0.052303,-0.0415 0.077794,-0.063 0.00114,-9.6e-4 0.037809,-0.0361 0.044119,-0.0398 0.088444,-0.0523 1.0407192,-0.60278 0.025609,-0.0157 0.020606,0.0241 0.029731,0.0349 0.014986,0.016 -0.1257353,-0.1183 -0.00869,-0.004 0.4150852,-0.24925 9.26e-4,-5.3e-4 -0.0021,-10e-4 -0.0031,-8.2e-4 -0.0094,0.005 -0.0086,0.0263 -0.01419,0.0324 -0.04609,0.157 -0.06845,0.32013 -0.08517,0.48251 -0.04167,0.40941 -0.06416,0.82075 -0.120377,1.22864 -0.064026,0.47477 -0.1566271,0.94427 -0.2621919,1.41152 -0.058279,0.25858 -0.113815,0.51782 -0.1638276,0.77812 -0.0057,0.0322 -0.013965,0.0664 -0.017126,0.0966 7.937e-4,0.009 -0.00159,0.0185 -0.0022,0.0278 -0.3752003,0.19402 -0.5234805,0.38042 -0.4237812,0.17481 0.083621,-0.16362 0.1760294,-0.32238 0.2676181,-0.48162 0.2109007,-0.36017 0.4256476,-0.71811 0.6320946,-1.08084 0.16743,-0.29376 0.327909,-0.5915 0.499016,-0.88313 0.02364,-0.0363 0.119526,-0.20423 0.154772,-0.22712 0.144016,-0.0935 0.292462,-0.18008 0.43777,-0.2716 9.79e-4,-6.1e-4 -0.0011,-0.002 -0.0016,-0.003 0.13787,-0.0733 -0.273882,0.15147 -0.401277,0.2418 -0.01039,0.007 0.01375,0.0215 0.01978,0.0327 7.94e-4,10e-4 -0.0026,-0.002 -0.0039,-0.003 0.0022,0.008 -0.02306,-10e-4 -0.02679,-0.002 -0.03099,-0.004 -0.06218,-0.005 -0.09323,-2.9e-4 -0.148061,0.0242 -0.293031,0.0627 -0.438413,0.0994 -0.2955876,0.0851 -0.5870122,0.18324 -0.8792035,0.27916 -0.3707945,0.11953 -0.7439771,0.23205 -1.1184578,0.33942 -0.2436021,0.0627 -0.4909185,0.12456 -0.7445311,0.11717 -0.090031,-0.005 -0.179088,-0.0163 -0.2687799,-0.0228 0.3477474,-0.25115 0.2862035,-0.39356 0.4327644,-0.24378 0.078579,0.0872 0.1382728,0.18887 0.1927482,0.29238 0.1317619,0.25534 0.2566744,0.51403 0.380094,0.77349 0.1388994,0.28979 0.2718203,0.58246 0.4156017,0.86988 0.053187,0.10333 0.1059545,0.20841 0.1801614,0.29868 0.1448451,0.16104 0.3082984,-0.11228 -0.3381102,0.32708 -0.031163,-0.0268 -0.049449,-0.0609 -0.057709,-0.10156 -0.023262,-0.20993 -0.00678,-0.42014 0.024892,-0.6286 0.087375,-0.53837 0.1930078,-1.07369 0.3157945,-1.60513 0.1344814,-0.57264 0.2836249,-1.14163 0.4349333,-1.71003 0.07225,-0.26517 0.1466955,-0.52973 0.2171162,-0.7954 0.01429,-0.0672 0.026334,-0.13456 0.037406,-0.2023 0.050661,-0.18465 0.6275928,-0.37454 0.4086009,-0.21589 -0.1508297,0.14603 -0.2807984,0.31095 -0.4052377,0.47968 -0.2530796,0.36361 -0.4848305,0.74082 -0.6802695,1.13899 -0.199177,0.39768 -0.3943757,0.79734 -0.582136,1.20056 -0.1090948,0.23826 -0.2173427,0.4776 -0.293842,0.72879 0,0 -0.4420666,0.20924 -0.4420666,0.20924 z"
       inkscape:connector-curvature="0" />
  </g>
</svg>
