<?xml version="1.0" encoding="UTF-8" standalone="no"?>
<!-- Created with Inkscape (http://www.inkscape.org/) -->

<svg
   xmlns:dc="http://purl.org/dc/elements/1.1/"
   xmlns:cc="http://creativecommons.org/ns#"
   xmlns:rdf="http://www.w3.org/1999/02/22-rdf-syntax-ns#"
   xmlns:svg="http://www.w3.org/2000/svg"
   xmlns="http://www.w3.org/2000/svg"
   xmlns:sodipodi="http://sodipodi.sourceforge.net/DTD/sodipodi-0.dtd"
   xmlns:inkscape="http://www.inkscape.org/namespaces/inkscape"
   width="16"
   height="16"
   viewBox="0 0 4.2333333 4.2333334"
   version="1.1"
   id="svg8"
   inkscape:version="0.92.4 5da689c313, 2019-01-14"
   sodipodi:docname="hit.svg">
  <defs
     id="defs2" />
  <sodipodi:namedview
     id="base"
     pagecolor="#000d50"
     bordercolor="#666666"
     borderopacity="1.0"
     inkscape:pageopacity="0"
     inkscape:pageshadow="2"
     inkscape:zoom="32"
     inkscape:cx="7.4375"
     inkscape:cy="8.03125"
     inkscape:document-units="px"
     inkscape:current-layer="layer1"
     showgrid="false"
     units="px"
     inkscape:window-width="1920"
     inkscape:window-height="1027"
     inkscape:window-x="0"
     inkscape:window-y="1080"
     inkscape:window-maximized="1" />
  <metadata
     id="metadata5">
    <rdf:RDF>
      <cc:Work
         rdf:about="">
        <dc:format>image/svg+xml</dc:format>
        <dc:type
           rdf:resource="http://purl.org/dc/dcmitype/StillImage" />
        <dc:title></dc:title>
      </cc:Work>
    </rdf:RDF>
  </metadata>
  <g
     inkscape:label="Layer 1"
     inkscape:groupmode="layer"
     id="layer1"
     transform="translate(0,-292.76665)">
    <path
       style="fill:#ffffff;fill-opacity:0.99572646;stroke:none;stroke-width:0.52916664;stroke-linecap:round;stroke-linejoin:round;stroke-miterlimit:4;stroke-dasharray:none;stroke-opacity:0.97435895"
       id="path857"
       d="m 1.9853154,294.85055 c -0.01852,-0.0352 -0.031608,-0.0729 -0.045839,-0.1099 -0.012227,-0.0342 -0.027193,-0.0672 -0.042205,-0.10015 0,0 0.1020868,-0.0577 0.1020868,-0.0577 v 0 c 0.015556,0.0329 0.031098,0.0658 0.044161,0.0998 0.014756,0.0358 0.028025,0.0725 0.047759,0.10589 0,0 -0.1059622,0.0621 -0.1059622,0.0621 z"
       inkscape:connector-curvature="0" />
    <path
       style="fill:#ffffff;fill-opacity:0.99572646;stroke:none;stroke-width:0.52916664;stroke-linecap:round;stroke-linejoin:round;stroke-miterlimit:4;stroke-dasharray:none;stroke-opacity:0.97435895"
       id="path859"
       d="m 1.993328,294.8313 c -0.018903,-0.0559 -0.00111,-0.11109 0.01849,-0.16394 0.027103,-0.0666 0.066583,-0.12655 0.107821,-0.18499 0,0 0.1070403,-0.0464 0.1070403,-0.0464 v 0 c -0.04139,0.0573 -0.080837,0.11626 -0.10819,0.18181 -0.018553,0.0488 -0.038067,0.10119 -0.018688,0.15293 0,0 -0.1064734,0.0606 -0.1064734,0.0606 z"
       inkscape:connector-curvature="0" />
    <path
       style="fill:#ffffff;fill-opacity:0.99572646;stroke:none;stroke-width:0.52916664;stroke-linecap:round;stroke-linejoin:round;stroke-miterlimit:4;stroke-dasharray:none;stroke-opacity:0.97435895"
       id="path861"
       d="m 1.9646483,294.86068 c 0.016957,-0.0409 0.043934,-0.076 0.0722,-0.1096 0.043106,-0.0508 0.093802,-0.0937 0.1467366,-0.13377 0.059019,-0.0396 0.1184542,-0.0831 0.187989,-0.1003 0,0 -0.095729,0.0736 -0.095729,0.0736 v 0 c -0.00591,0.002 -0.011945,0.003 -0.017718,0.006 -0.00686,0.003 -0.026327,0.0131 -0.020115,0.009 0.018093,-0.0115 0.1277715,-0.0763 0.055854,-0.0319 -0.053196,0.039 -0.104286,0.0809 -0.1473853,0.13117 -0.027589,0.0317 -0.054822,0.0652 -0.070298,0.10477 0,0 -0.1115334,0.0512 -0.1115334,0.0512 z"
       inkscape:connector-curvature="0" />
    <path
       style="fill:#ffffff;fill-opacity:0.99572646;stroke:none;stroke-width:0.52916664;stroke-linecap:round;stroke-linejoin:round;stroke-miterlimit:4;stroke-dasharray:none;stroke-opacity:0.97435895"
       id="path863"
       d="m 2.1257029,294.70655 c 0.047043,0.0395 0.089128,0.0846 0.1313694,0.12915 0.059091,0.0646 0.1215702,0.12602 0.1925079,0.17755 0.03587,0.0234 0.018217,0.0124 0.052881,0.0331 0,0 -0.1000096,0.0645 -0.1000096,0.0645 v 0 c -0.034302,-0.0217 -0.016831,-0.0102 -0.052329,-0.0347 -0.070102,-0.0534 -0.1322642,-0.11567 -0.1925268,-0.17979 -0.042838,-0.0436 -0.085511,-0.0884 -0.1353382,-0.1241 0,0 0.103445,-0.0658 0.103445,-0.0658 z"
       inkscape:connector-curvature="0" />
    <path
       style="fill:#ffffff;fill-opacity:0.99572646;stroke:none;stroke-width:0.52916664;stroke-linecap:round;stroke-linejoin:round;stroke-miterlimit:4;stroke-dasharray:none;stroke-opacity:0.97435895"
       id="path865"
       d="m 2.0746407,294.84438 c 0.020246,0.0575 0.012019,0.12013 0.00645,0.17948 -0.00663,0.057 -0.014514,0.11375 -0.020344,0.17079 0,0 -0.1049174,0.0521 -0.1049174,0.0521 v 0 c 0.00615,-0.057 0.014279,-0.11372 0.02056,-0.17069 0.00483,-0.0563 0.013352,-0.1172 -0.00822,-0.17104 0,0 0.1064734,-0.0606 0.1064735,-0.0606 z"
       inkscape:connector-curvature="0" />
    <path
       style="fill:#ffffff;fill-opacity:0.99572646;stroke:none;stroke-width:0.52916664;stroke-linecap:round;stroke-linejoin:round;stroke-miterlimit:4;stroke-dasharray:none;stroke-opacity:0.97435895"
       id="path867"
       d="m 1.9837936,294.83664 c -0.059056,0.007 -0.1113103,0.0362 -0.162169,0.0648 0.021168,-0.0119 0.041853,-0.0247 0.063504,-0.0357 0.013006,-0.007 -0.024992,0.0151 -0.037532,0.0225 -0.012423,0.007 -0.024812,0.0148 -0.037356,0.022 -0.082401,0.0472 -0.1293754,0.0779 -0.2089954,0.10957 0,0 0.092346,-0.0727 0.092346,-0.0727 v 0 c 0.011671,-0.005 0.023513,-0.009 0.035013,-0.0147 0.012136,-0.006 0.046677,-0.0256 0.035856,-0.0178 -0.019837,0.0143 -0.042185,0.0248 -0.063104,0.0375 -0.012365,0.008 0.025,-0.0146 0.037443,-0.0219 0.1525928,-0.0905 -0.2291415,0.13342 0.1739328,-0.1023 0.053197,-0.0292 0.1084726,-0.0588 0.1701765,-0.0633 0,0 -0.099116,0.072 -0.099116,0.072 z"
       inkscape:connector-curvature="0" />
    <path
       style="fill:#ffffff;fill-opacity:0.99572646;stroke:none;stroke-width:0.52916664;stroke-linecap:round;stroke-linejoin:round;stroke-miterlimit:4;stroke-dasharray:none;stroke-opacity:0.97435895"
       id="path869"
       d="m 1.8937193,294.79201 c -0.045879,-0.0135 -0.09102,-0.0287 -0.1355212,-0.0463 -0.055854,-0.0207 -0.1074375,-0.0493 -0.1566009,-0.0826 0,0 0.09939,-0.0636 0.09939,-0.0636 v 0 c 0.048844,0.0325 0.1001457,0.0602 0.1555894,0.08 0.045338,0.017 0.091332,0.0317 0.1384614,0.043 0,0 -0.1013192,0.0694 -0.1013192,0.0694 z"
       inkscape:connector-curvature="0" />
    <path
       style="fill:#ffffff;fill-opacity:0.99572646;stroke:none;stroke-width:0.52916664;stroke-linecap:round;stroke-linejoin:round;stroke-miterlimit:4;stroke-dasharray:none;stroke-opacity:0.97435895"
       id="path871"
       d="m 1.8933456,294.62152 c -0.042584,-0.0353 -0.070866,-0.077 -0.1002972,-0.12332 -0.067871,-0.11313 -0.120682,-0.23442 -0.1733784,-0.35511 -0.0108,-0.0254 -0.021599,-0.0509 -0.032399,-0.0763 0,0 0.095888,-0.0539 0.095888,-0.0539 v 0 c 0.01094,0.0253 0.02188,0.0506 0.03282,0.076 0.053458,0.11954 0.1072757,0.23972 0.1780648,0.35026 0.029516,0.0435 0.060126,0.0862 0.1033456,0.11733 0,0 -0.1040447,0.0651 -0.1040447,0.0651 z"
       inkscape:connector-curvature="0" />
    <path
       style="fill:#ffffff;fill-opacity:0.99572646;stroke:none;stroke-width:0.52916664;stroke-linecap:round;stroke-linejoin:round;stroke-miterlimit:4;stroke-dasharray:none;stroke-opacity:0.97435895"
       id="path873"
       d="m 1.3705917,294.487 c -0.059558,-0.0539 -0.1257197,-0.10007 -0.1895317,-0.14877 -0.066806,-0.0509 -0.1334071,-0.10204 -0.19991765,-0.1533 0,0 0.0954605,-0.0602 0.0954605,-0.0602 v 0 c 0.066802,0.0512 0.1337474,0.10215 0.2013215,0.15229 0.065423,0.0486 0.1323931,0.0951 0.1964669,0.14544 0,0 -0.1037995,0.0646 -0.1037995,0.0646 z"
       inkscape:connector-curvature="0" />
    <path
       style="fill:#ffffff;fill-opacity:0.99572646;stroke:none;stroke-width:0.52916664;stroke-linecap:round;stroke-linejoin:round;stroke-miterlimit:4;stroke-dasharray:none;stroke-opacity:0.97435895"
       id="path875"
       d="m 1.22194,294.85593 c -0.068935,0.0112 -0.1355506,0.0332 -0.2019121,0.0544 -0.0450111,0.0152 -0.0889232,0.0331 -0.13266145,0.0516 0,0 0.0910024,-0.0718 0.0910024,-0.0718 v 0 c 0.0440637,-0.0182 0.088261,-0.0361 0.13357245,-0.051 0.068312,-0.0218 0.1368889,-0.0436 0.2075112,-0.0567 0,0 -0.097512,0.0736 -0.097512,0.0736 z"
       inkscape:connector-curvature="0" />
    <path
       style="fill:#ffffff;fill-opacity:0.99572646;stroke:none;stroke-width:0.52916664;stroke-linecap:round;stroke-linejoin:round;stroke-miterlimit:4;stroke-dasharray:none;stroke-opacity:0.97435895"
       id="path877"
       d="m 1.3404762,295.42137 c -0.00522,0.002 -0.010589,0.004 -0.015661,0.007 -0.00721,0.004 -0.028295,0.0161 -0.021147,0.0122 0.02536,-0.0138 0.049129,-0.0309 0.075785,-0.0421 0.011848,-0.005 -0.020843,0.015 -0.030735,0.0232 -0.030072,0.0249 -0.040256,0.037 -0.06817,0.0656 -0.088542,0.0978 -0.1577308,0.21026 -0.2238521,0.32375 -0.04737,0.0848 -0.024169,0.0425 -0.0696308,0.1269 0,0 -0.10207996,0.0458 -0.10207996,0.0458 v 0 c 0.0457068,-0.0846 0.0224901,-0.0422 0.0696657,-0.12729 0.0653515,-0.11321 0.13303046,-0.2258 0.21927306,-0.32469 0.026455,-0.0284 0.061891,-0.0691 0.094934,-0.0901 0.041914,-0.0267 0.085166,-0.0512 0.1279904,-0.0764 0.017155,-0.0101 0.022811,-0.0123 0.039533,-0.0201 0,0 -0.095907,0.076 -0.095907,0.076 z"
       inkscape:connector-curvature="0" />
    <path
       style="fill:#ffffff;fill-opacity:0.99572646;stroke:none;stroke-width:0.52916664;stroke-linecap:round;stroke-linejoin:round;stroke-miterlimit:4;stroke-dasharray:none;stroke-opacity:0.97435895"
       id="path879"
       d="m 1.957609,295.72196 c 0.011996,0.0527 0.02314,0.10551 0.033215,0.15859 0.013267,0.0833 0.028898,0.16608 0.04774,0.24831 0.00343,0.013 0.00685,0.0261 0.010276,0.0391 0,0 -0.1029741,0.0558 -0.1029741,0.0558 v 0 c -0.00341,-0.0132 -0.00683,-0.0264 -0.010241,-0.0395 -0.018449,-0.0823 -0.034521,-0.16501 -0.04881,-0.24814 -0.010471,-0.0523 -0.02165,-0.10465 -0.037082,-0.1558 0,0 0.1078766,-0.0583 0.1078764,-0.0583 z"
       inkscape:connector-curvature="0" />
    <path
       style="fill:#ffffff;fill-opacity:0.99572646;stroke:none;stroke-width:0.52916664;stroke-linecap:round;stroke-linejoin:round;stroke-miterlimit:4;stroke-dasharray:none;stroke-opacity:0.97435895"
       id="path881"
       d="m 2.8352128,295.66161 c 0.034292,0.07 0.072398,0.13786 0.1117309,0.20509 0.04189,0.0658 0.020301,0.0334 0.064761,0.0972 0,0 -0.098328,0.0579 -0.098328,0.0579 v 0 c -0.044702,-0.0644 -0.02286,-0.0318 -0.065522,-0.0977 -0.040373,-0.0667 -0.078809,-0.13438 -0.1189056,-0.20119 0,0 0.1062636,-0.0613 0.1062637,-0.0613 z"
       inkscape:connector-curvature="0" />
    <path
       style="fill:#ffffff;fill-opacity:0.99572646;stroke:none;stroke-width:0.52916664;stroke-linecap:round;stroke-linejoin:round;stroke-miterlimit:4;stroke-dasharray:none;stroke-opacity:0.97435895"
       id="path883"
       d="m 3.2421189,295.08036 c 0.069547,0.008 0.1358038,-0.002 0.2037829,-0.0165 0.0732,-0.0205 0.036255,-0.009 0.1107869,-0.0338 0,0 -0.089933,0.0698 -0.089933,0.0698 v 0 c -0.075703,0.0245 -0.038102,0.0133 -0.1127611,0.0337 -0.016965,0.003 -0.033831,0.007 -0.050894,0.0103 -0.053073,0.009 -0.1072171,0.011 -0.160881,0.008 0,0 0.099899,-0.0709 0.099899,-0.0709 z"
       inkscape:connector-curvature="0" />
    <path
       style="fill:#ffffff;fill-opacity:0.99572646;stroke:none;stroke-width:0.52916664;stroke-linecap:round;stroke-linejoin:round;stroke-miterlimit:4;stroke-dasharray:none;stroke-opacity:0.97435895"
       id="path885"
       d="m 2.891424,294.43008 c 0.043961,-0.0691 0.084883,-0.13998 0.1255647,-0.21102 0.051709,-0.0917 0.1010406,-0.18472 0.1514038,-0.27717 0,0 0.099978,-0.0448 0.099978,-0.0448 v 0 c -0.049527,0.0918 -0.098058,0.18415 -0.1478931,0.27579 -0.038455,0.0694 -0.077114,0.1387 -0.1170104,0.20728 0,0 -0.1120434,0.0499 -0.1120434,0.0499 z"
       inkscape:connector-curvature="0" />
    <path
       style="fill:#ffffff;fill-opacity:0.99572646;stroke:none;stroke-width:0.52916664;stroke-linecap:round;stroke-linejoin:round;stroke-miterlimit:4;stroke-dasharray:none;stroke-opacity:0.97435895"
       id="path887"
       d="m 2.4321888,294.02047 c -0.018432,-0.0443 -0.035039,-0.089 -0.047363,-0.1354 -0.022582,-0.10102 -0.00754,-0.20459 0.00604,-0.30572 0,0 0.1011692,-0.0499 0.1011692,-0.0499 v 0 c -0.012262,0.099 -0.02605,0.20056 -0.00308,0.29907 0.012627,0.0458 0.029406,0.0898 0.050395,0.13244 0,0 -0.1071621,0.0595 -0.1071621,0.0595 z"
       inkscape:connector-curvature="0" />
    <path
       style="fill:#ffffff;fill-opacity:0.99572646;stroke:none;stroke-width:0.52916664;stroke-linecap:round;stroke-linejoin:round;stroke-miterlimit:4;stroke-dasharray:none;stroke-opacity:0.97435895"
       id="path889"
       d="m 0.982708,293.48623 c -0.0150833,-0.0177 -0.0332939,-0.0322 -0.0508758,-0.0472 0,0 0.1009913,-0.0632 0.1009913,-0.0632 v 0 c 0.018469,0.015 0.037172,0.0298 0.054216,0.0465 0,0 -0.10433142,0.0639 -0.1043315,0.0639 z"
       inkscape:connector-curvature="0" />
    <path
       style="fill:#ffffff;fill-opacity:0.99572646;stroke:none;stroke-width:0.52916664;stroke-linecap:round;stroke-linejoin:round;stroke-miterlimit:4;stroke-dasharray:none;stroke-opacity:0.97435895"
       id="path891"
       d="m 2.2886576,294.81079 c 0.07543,-0.0462 0.1518878,-0.0909 0.2300343,-0.13232 0.06241,-0.0339 0.1279844,-0.0605 0.1956055,-0.0819 0,0 -0.092322,0.0716 -0.092322,0.0716 v 0 c -0.067446,0.0223 -0.1328046,0.0497 -0.1950441,0.0842 -0.049838,0.0271 -0.062051,0.0341 0.041608,-0.0255 0.00765,-0.004 -0.015145,0.009 -0.022722,0.0136 -0.010953,0.007 -0.022021,0.0129 -0.032957,0.0195 -0.00332,0.002 -0.00655,0.004 -0.00983,0.006 0,0 -0.1143707,0.0448 -0.1143707,0.0448 z"
       inkscape:connector-curvature="0" />
    <path
       style="fill:#ffffff;fill-opacity:0.99572646;stroke:none;stroke-width:0.52916664;stroke-linecap:round;stroke-linejoin:round;stroke-miterlimit:4;stroke-dasharray:none;stroke-opacity:0.97435895"
       id="path893"
       d="m 1.9568884,294.7921 c 0.022166,-0.0593 0.042675,-0.11915 0.066692,-0.17772 0.029869,-0.0685 0.062686,-0.13574 0.096233,-0.20253 0.016613,-0.0341 0.033595,-0.068 0.050887,-0.10173 0,0 0.1088812,-0.0491 0.1088812,-0.0491 v 0 c -0.017769,0.0337 -0.034716,0.0679 -0.051761,0.102 -0.034133,0.0666 -0.067725,0.13354 -0.097677,0.20217 -0.023705,0.0572 -0.043473,0.11576 -0.062738,0.17455 0,0 -0.1105166,0.0523 -0.1105166,0.0523 z"
       inkscape:connector-curvature="0" />
    <path
       style="fill:#ffffff;fill-opacity:0.99572646;stroke:none;stroke-width:0.52916664;stroke-linecap:round;stroke-linejoin:round;stroke-miterlimit:4;stroke-dasharray:none;stroke-opacity:0.97435895"
       id="path895"
       d="m 2.1018105,294.57079 c 0.02967,0.0126 0.059329,0.0259 0.090132,0.0356 0.026995,0.008 0.047801,0.0125 0.075674,0.0188 0.099101,0.018 0.1999638,0.0143 0.2999279,0.008 0,0 -0.093124,0.0685 -0.093124,0.0685 v 0 c -0.1009816,0.006 -0.2028387,0.009 -0.3028411,-0.01 -0.031823,-0.007 -0.047357,-0.01 -0.077894,-0.019 -0.031554,-0.01 -0.061865,-0.023 -0.093188,-0.0333 0,0 0.1013134,-0.0687 0.1013134,-0.0687 z"
       inkscape:connector-curvature="0" />
    <path
       style="fill:#ffffff;fill-opacity:0.99572646;stroke:none;stroke-width:0.52916664;stroke-linecap:round;stroke-linejoin:round;stroke-miterlimit:4;stroke-dasharray:none;stroke-opacity:0.97435895"
       id="path897"
       d="m 2.1243665,294.96263 c 0.017584,0.0528 0.040491,0.10345 0.06367,0.15394 0,0 -0.1013861,0.0574 -0.1013861,0.0574 v 0 c -0.024061,-0.0501 -0.047309,-0.10055 -0.06899,-0.15174 0,0 0.1067063,-0.0596 0.1067061,-0.0596 z"
       inkscape:connector-curvature="0" />
    <path
       style="fill:#ffffff;fill-opacity:0.99572646;stroke:none;stroke-width:0.52916664;stroke-linecap:round;stroke-linejoin:round;stroke-miterlimit:4;stroke-dasharray:none;stroke-opacity:0.97435895"
       id="path899"
       d="m 2.3379414,295.30259 c 0.010055,0.0694 0.019078,0.13897 0.02891,0.20842 0.00603,0.0474 0.015606,0.0942 0.025194,0.14101 0,0 -0.1023617,0.0548 -0.1023617,0.0548 v 0 c -0.00942,-0.047 -0.018997,-0.094 -0.025446,-0.14157 -0.0106,-0.0684 -0.019622,-0.13727 -0.034161,-0.20495 0,0 0.1078641,-0.0577 0.1078643,-0.0577 z"
       inkscape:connector-curvature="0" />
    <path
       style="fill:#ffffff;fill-opacity:0.99572646;stroke:none;stroke-width:0.52916664;stroke-linecap:round;stroke-linejoin:round;stroke-miterlimit:4;stroke-dasharray:none;stroke-opacity:0.97435895"
       id="path901"
       d="m 1.8061886,295.20373 c -0.021126,0.0862 -0.030768,0.1747 -0.043233,0.2624 -0.012779,0.09 -0.0064,0.0454 -0.01914,0.1339 0,0 -0.1011743,0.0497 -0.1011743,0.0497 v 0 c 0.013175,-0.0885 0.00679,-0.0439 0.019142,-0.13377 0.011129,-0.0864 0.019855,-0.1732 0.033801,-0.25925 0,0 0.1106042,-0.053 0.1106041,-0.053 z"
       inkscape:connector-curvature="0" />
    <path
       style="fill:#ffffff;fill-opacity:0.99572646;stroke:none;stroke-width:0.52916664;stroke-linecap:round;stroke-linejoin:round;stroke-miterlimit:4;stroke-dasharray:none;stroke-opacity:0.97435895"
       id="path903"
       d="m 1.7876384,294.89099 c -0.00468,0.002 -0.018568,0.01 -0.014025,0.007 0.027439,-0.0157 0.054062,-0.033 0.08273,-0.0463 0.010165,-0.005 -0.018138,0.0132 -0.026762,0.0203 -0.037799,0.0314 -0.070242,0.0676 -0.1030249,0.10394 0,0 -0.1056633,0.0445 -0.1056633,0.0445 v 0 c 0.079473,-0.0913 0.1441017,-0.15722 0.2632743,-0.20511 0,0 -0.096529,0.0756 -0.096529,0.0756 z"
       inkscape:connector-curvature="0" />
    <path
       style="fill:#ffffff;fill-opacity:0.99572646;stroke:none;stroke-width:0.52916664;stroke-linecap:round;stroke-linejoin:round;stroke-miterlimit:4;stroke-dasharray:none;stroke-opacity:0.97435895"
       id="path905"
       d="m 1.6782743,294.97873 c -0.059227,0.009 -0.1191112,0.01 -0.1788166,0.008 -0.096821,-0.006 -0.193111,-0.0176 -0.2897501,-0.0255 -0.05004,-0.005 -0.099976,-0.002 -0.1499531,9.5e-4 0,0 0.093265,-0.0686 0.093265,-0.0686 v 0 c 0.050183,-0.003 0.1003256,-0.004 0.1504871,6.8e-4 0.096955,0.008 0.1936621,0.0195 0.2909129,0.0239 0.060982,9.6e-4 0.1219719,-10e-4 0.18216,-0.012 0,0 -0.098305,0.0731 -0.098305,0.0731 z"
       inkscape:connector-curvature="0" />
    <path
       style="fill:#ffffff;fill-opacity:0.99572646;stroke:none;stroke-width:0.52916664;stroke-linecap:round;stroke-linejoin:round;stroke-miterlimit:4;stroke-dasharray:none;stroke-opacity:0.97435895"
       id="path907"
       d="m 1.6374382,294.64438 c -0.035248,-0.0453 -0.054579,-0.0999 -0.074918,-0.15288 -0.021767,-0.0617 -0.049285,-0.12082 -0.077687,-0.17961 0,0 0.100177,-0.0569 0.100177,-0.0569 v 0 c 0.028827,0.0588 0.056765,0.11806 0.079706,0.17951 0.020722,0.0513 0.040323,0.10503 0.077929,0.14672 0,0 -0.1052073,0.0632 -0.1052073,0.0632 z"
       inkscape:connector-curvature="0" />
    <path
       style="fill:#ffffff;fill-opacity:0.99572646;stroke:none;stroke-width:0.52916664;stroke-linecap:round;stroke-linejoin:round;stroke-miterlimit:4;stroke-dasharray:none;stroke-opacity:0.97435895"
       id="path909"
       d="m 1.9863955,294.63545 c -0.01336,-0.0842 -0.020806,-0.16903 -0.024822,-0.25413 -0.00433,-0.12616 9.75e-5,-0.2524 0.00577,-0.37844 0,0 0.098504,-0.0496 0.098504,-0.0496 v 0 c -0.00557,0.1252 -0.00926,0.25066 -0.0033,0.37593 0.00516,0.0836 0.013054,0.16727 0.031608,0.2491 0,0 -0.107758,0.0572 -0.107758,0.0572 z"
       inkscape:connector-curvature="0" />
    <path
       style="fill:#ffffff;fill-opacity:0.99572646;stroke:none;stroke-width:0.52916664;stroke-linecap:round;stroke-linejoin:round;stroke-miterlimit:4;stroke-dasharray:none;stroke-opacity:0.97435895"
       id="path911"
       d="m 2.1221016,294.76815 c 0.024424,-0.068 0.055171,-0.13347 0.088028,-0.19778 0.051533,-0.0989 0.115312,-0.19097 0.1872061,-0.27611 0.015219,-0.018 0.031289,-0.0353 0.046934,-0.053 0,0 0.1032569,-0.0435 0.1032569,-0.0435 v 0 c -0.015772,0.0175 -0.032003,0.0346 -0.047316,0.0525 -0.071528,0.0837 -0.1348453,0.17457 -0.1851059,0.27258 -0.031486,0.0625 -0.061335,0.12619 -0.082184,0.19315 0,0 -0.1108194,0.0521 -0.1108194,0.0521 z"
       inkscape:connector-curvature="0" />
    <path
       style="fill:#ffffff;fill-opacity:0.99572646;stroke:none;stroke-width:0.52916664;stroke-linecap:round;stroke-linejoin:round;stroke-miterlimit:4;stroke-dasharray:none;stroke-opacity:0.97435895"
       id="path913"
       d="m 1.8630957,294.56773 c 0.072328,0.0125 0.1449812,0.0224 0.2178575,0.031 0.1255513,0.0178 0.2521991,0.0208 0.3787696,0.0217 0.082852,-5.7e-4 0.1656958,9.1e-4 0.2484916,0.004 0,0 -0.092425,0.0667 -0.092425,0.0667 v 0 c -0.082442,-0.003 -0.164922,-0.005 -0.2474212,-0.004 -0.1273754,-0.001 -0.2547569,-0.005 -0.3812391,-0.0214 -0.07462,-0.008 -0.1489416,-0.0183 -0.2235181,-0.0267 0,0 0.099485,-0.0709 0.099485,-0.0709 z"
       inkscape:connector-curvature="0" />
    <path
       style="fill:#ffffff;fill-opacity:0.99572646;stroke:none;stroke-width:0.52916664;stroke-linecap:round;stroke-linejoin:round;stroke-miterlimit:4;stroke-dasharray:none;stroke-opacity:0.97435895"
       id="path915"
       d="m 2.1340869,294.7363 c 0.064479,0.0314 0.125911,0.0683 0.1868658,0.10595 0.064641,0.0402 0.032002,0.0198 0.097913,0.0611 0,0 -0.095821,0.0618 -0.095821,0.0618 v 0 c -0.066366,-0.041 -0.03343,-0.0209 -0.098798,-0.0604 -0.061957,-0.0369 -0.1245353,-0.0737 -0.1918579,-0.10001 0,0 0.1016984,-0.0684 0.1016984,-0.0684 z"
       inkscape:connector-curvature="0" />
    <path
       style="fill:#ffffff;fill-opacity:0.99572646;stroke:none;stroke-width:0.52916664;stroke-linecap:round;stroke-linejoin:round;stroke-miterlimit:4;stroke-dasharray:none;stroke-opacity:0.97435895"
       id="path917"
       d="m 1.9850101,294.73473 c -0.042413,0.0578 -0.06623,0.12684 -0.091671,0.1932 -0.035334,0.0928 -0.069093,0.18623 -0.1061859,0.27837 0,0 -0.1034815,0.0478 -0.1034815,0.0478 v 0 c 0.037552,-0.0916 0.071224,-0.1846 0.1051918,-0.27756 0.024007,-0.0659 0.046437,-0.13362 0.08379,-0.19338 0,0 0.1123572,-0.0484 0.1123572,-0.0484 z"
       inkscape:connector-curvature="0" />
    <path
       style="fill:#ffffff;fill-opacity:0.99572646;stroke:none;stroke-width:0.52916664;stroke-linecap:round;stroke-linejoin:round;stroke-miterlimit:4;stroke-dasharray:none;stroke-opacity:0.97435895"
       id="path919"
       d="m 1.6538782,294.77354 c -0.065014,0.0142 -0.1267194,0.041 -0.1889727,0.064 -0.047249,0.0178 -0.094993,0.0342 -0.142964,0.0499 0,0 0.091037,-0.0707 0.091037,-0.0707 v 0 c 0.048091,-0.0161 0.095995,-0.0327 0.1433775,-0.0508 0.064214,-0.0242 0.1279668,-0.0511 0.1950101,-0.0666 0,0 -0.097488,0.0741 -0.097488,0.0741 z"
       inkscape:connector-curvature="0" />
    <path
       style="fill:#ffffff;fill-opacity:0.99572646;stroke:none;stroke-width:0.52916664;stroke-linecap:round;stroke-linejoin:round;stroke-miterlimit:4;stroke-dasharray:none;stroke-opacity:0.97435895"
       id="path921"
       d="m 1.6299314,294.97328 c -0.047114,0.0498 -0.087188,0.10586 -0.1281147,0.1607 -0.032399,0.0431 -0.06592,0.0853 -0.099459,0.12747 0,0 -0.1053316,0.0451 -0.1053316,0.0451 v 0 c 0.033202,-0.0419 0.066436,-0.0838 0.098452,-0.1266 0.039413,-0.0539 0.078485,-0.10831 0.1211863,-0.1597 0,0 0.1132676,-0.0469 0.1132676,-0.0469 z"
       inkscape:connector-curvature="0" />
    <path
       style="fill:#ffffff;fill-opacity:0.99572646;stroke:none;stroke-width:0.52916664;stroke-linecap:round;stroke-linejoin:round;stroke-miterlimit:4;stroke-dasharray:none;stroke-opacity:0.97435895"
       id="path923"
       d="m 2.2677465,294.83834 c 0.067924,0.0421 0.1354772,0.0845 0.204911,0.12411 0.017913,0.009 0.035827,0.019 0.05374,0.0285 0,0 -0.095066,0.0623 -0.095066,0.0623 v 0 c -0.018182,-0.009 -0.036364,-0.0189 -0.054546,-0.0283 -0.07092,-0.0392 -0.1396794,-0.0823 -0.2114949,-0.11977 0,0 0.1024563,-0.0668 0.1024563,-0.0668 z"
       inkscape:connector-curvature="0" />
    <path
       style="fill:#ffffff;fill-opacity:0.99572646;stroke:none;stroke-width:0.52916664;stroke-linecap:round;stroke-linejoin:round;stroke-miterlimit:4;stroke-dasharray:none;stroke-opacity:0.97435895"
       id="path925"
       d="m 2.1023819,294.87968 c 0.064854,0.0414 0.1081438,0.10752 0.1517921,0.16914 0,0 -0.098419,0.0582 -0.098419,0.0582 v 0 c -0.044282,-0.0596 -0.088634,-0.12489 -0.155829,-0.16057 0,0 0.1024563,-0.0668 0.1024563,-0.0668 z"
       inkscape:connector-curvature="0" />
    <path
       style="fill:#ffffff;fill-opacity:0.99572646;stroke:none;stroke-width:0.52916664;stroke-linecap:round;stroke-linejoin:round;stroke-miterlimit:4;stroke-dasharray:none;stroke-opacity:0.97435895"
       id="path927"
       d="m 2.4892079,295.03575 c 0.069508,0.0449 0.13367,0.0974 0.1984539,0.14873 0.076648,0.0623 0.1602163,0.11449 0.2455048,0.16387 0,0 -0.093307,0.0606 -0.093307,0.0606 v 0 c -0.085711,-0.05 -0.1696037,-0.10284 -0.2478334,-0.16414 -0.066287,-0.0504 -0.1321125,-0.10263 -0.2056694,-0.14216 0,0 0.1028508,-0.0668 0.1028508,-0.0668 z"
       inkscape:connector-curvature="0" />
    <path
       style="fill:#ffffff;fill-opacity:0.99572646;stroke:none;stroke-width:0.52916664;stroke-linecap:round;stroke-linejoin:round;stroke-miterlimit:4;stroke-dasharray:none;stroke-opacity:0.97435895"
       id="path929"
       d="m 2.5573065,294.83087 c 0.0062,5.5e-4 0.012401,10e-4 0.018601,0.002 0,0 -0.098098,0.0705 -0.098098,0.0705 v 0 c -0.00645,-1.1e-4 -0.012898,-2.2e-4 -0.019347,-3.3e-4 0,0 0.098844,-0.0718 0.098844,-0.0718 z"
       inkscape:connector-curvature="0" />
    <path
       style="fill:#ffffff;fill-opacity:0.99572646;stroke:none;stroke-width:0.52916664;stroke-linecap:round;stroke-linejoin:round;stroke-miterlimit:4;stroke-dasharray:none;stroke-opacity:0.97435895"
       id="path931"
       d="m 2.6976318,294.81726 c 0.024514,0.006 0.049197,0.0109 0.073848,0.0161 0,0 -0.097345,0.0678 -0.097345,0.0678 v 0 c -0.025588,-0.005 -0.051158,-0.01 -0.076856,-0.014 0,0 0.1003529,-0.0699 0.100353,-0.0699 z"
       inkscape:connector-curvature="0" />
    <path
       style="fill:#ffffff;fill-opacity:0.99572646;stroke:none;stroke-width:0.52916664;stroke-linecap:round;stroke-linejoin:round;stroke-miterlimit:4;stroke-dasharray:none;stroke-opacity:0.97435895"
       id="path933"
       d="m 2.8071958,294.80617 c 0.071714,0.003 0.1434227,4.4e-4 0.2150427,-0.003 0.015052,-8.6e-4 0.030103,-0.002 0.045154,-0.003 0,0 -0.093729,0.0689 -0.093729,0.0689 v 0 c -0.015089,8.7e-4 -0.030176,0.002 -0.045264,0.003 -0.073218,0.004 -0.1464641,0.005 -0.2197767,0.006 0,0 0.098573,-0.0716 0.098573,-0.0716 z"
       inkscape:connector-curvature="0" />
    <path
       style="fill:#ffffff;fill-opacity:0.99572646;stroke:none;stroke-width:0.52916664;stroke-linecap:round;stroke-linejoin:round;stroke-miterlimit:4;stroke-dasharray:none;stroke-opacity:0.97435895"
       id="path935"
       d="m 1.6667416,293.86658 c 0.00852,-0.035 0.016103,-0.0702 0.023829,-0.10533 0,0 0.1065454,-0.0515 0.1065454,-0.0515 v 0 c -0.00714,0.0344 -0.014159,0.0689 -0.020318,0.10346 0,0 -0.1100563,0.0534 -0.1100562,0.0534 z"
       inkscape:connector-curvature="0" />
    <path
       style="fill:#ffffff;fill-opacity:0.99572646;stroke:none;stroke-width:0.52916664;stroke-linecap:round;stroke-linejoin:round;stroke-miterlimit:4;stroke-dasharray:none;stroke-opacity:0.97435895"
       id="path937"
       d="m 0.62917516,294.5515 c -0.009903,-0.0176 -0.0230338,-0.0321 -0.0396165,-0.0434 0,0 0.10313099,-0.0654 0.10313099,-0.0654 v 0 c 0.0170312,0.0133 0.0310525,0.0293 0.042749,0.0475 0,0 -0.10626352,0.0613 -0.10626349,0.0613 z"
       inkscape:connector-curvature="0" />
    <path
       style="fill:#ffffff;fill-opacity:0.99572646;stroke:none;stroke-width:0.52916664;stroke-linecap:round;stroke-linejoin:round;stroke-miterlimit:4;stroke-dasharray:none;stroke-opacity:0.97435895"
       id="path939"
       d="m 2.0602838,296.63277 c 0.01564,0.0103 0.031547,0.0201 0.047512,0.0299 0,0 -0.1010238,0.0653 -0.1010238,0.0653 v 0 c -0.016409,-0.01 -0.032773,-0.0196 -0.049409,-0.0289 0,0 0.1029203,-0.0663 0.1029208,-0.0663 z"
       inkscape:connector-curvature="0" />
    <path
       style="fill:#ffffff;fill-opacity:0.99572646;stroke:none;stroke-width:0.52916664;stroke-linecap:round;stroke-linejoin:round;stroke-miterlimit:4;stroke-dasharray:none;stroke-opacity:0.97435895"
       id="path941"
       d="m 2.7368844,296.7423 c 0.017396,2.1e-4 0.00815,1.3e-4 0.027751,1.8e-4 0,0 -0.098176,0.0713 -0.098176,0.0713 v 0 c -0.020659,-2e-5 -0.010758,2.3e-4 -0.029706,-6e-4 0,0 0.1001319,-0.0709 0.1001319,-0.0709 z"
       inkscape:connector-curvature="0" />
    <path
       style="fill:#ffffff;fill-opacity:0.99572646;stroke:none;stroke-width:0.52916664;stroke-linecap:round;stroke-linejoin:round;stroke-miterlimit:4;stroke-dasharray:none;stroke-opacity:0.97435895"
       id="path943"
       d="m 3.8117324,296.00501 c 0.020196,0.018 0.040412,0.0257 0.067227,0.0265 0,0 -0.098869,0.0704 -0.098869,0.0704 v 0 c -0.026969,-0.004 -0.051262,-0.0141 -0.072403,-0.0318 0,0 0.1040447,-0.0651 0.104045,-0.0651 z"
       inkscape:connector-curvature="0" />
    <path
       style="fill:#ffffff;fill-opacity:0.99572646;stroke:none;stroke-width:0.52916664;stroke-linecap:round;stroke-linejoin:round;stroke-miterlimit:4;stroke-dasharray:none;stroke-opacity:0.97435895"
       id="path945"
       d="m 3.3319794,295.6916 c -0.015264,-0.01 -0.02647,-0.0234 -0.03789,-0.0372 0,0 0.1031587,-0.0622 0.1031587,-0.0622 v 0 c 0.011025,0.0122 0.021532,0.0244 0.036874,0.0313 0,0 -0.1021426,0.0681 -0.1021427,0.0681 z"
       inkscape:connector-curvature="0" />
    <path
       style="fill:#ffffff;fill-opacity:0.99572646;stroke:none;stroke-width:0.52916664;stroke-linecap:round;stroke-linejoin:round;stroke-miterlimit:4;stroke-dasharray:none;stroke-opacity:0.97435895"
       id="path947"
       d="m 3.7054962,294.45042 c -0.013163,-0.0424 -0.015028,-0.0864 -0.014073,-0.1304 0,0 0.106681,-0.054 0.106681,-0.054 v 0 c -0.00127,0.0421 -1.616e-4,0.0848 0.014555,0.12487 0,0 -0.107162,0.0595 -0.107162,0.0595 z"
       inkscape:connector-curvature="0" />
    <path
       style="fill:#ffffff;fill-opacity:0.99572646;stroke:none;stroke-width:0.52916664;stroke-linecap:round;stroke-linejoin:round;stroke-miterlimit:4;stroke-dasharray:none;stroke-opacity:0.97435895"
       id="path949"
       d="m 3.2235965,293.54552 c -0.00371,-0.004 -0.00742,-0.007 -0.011128,-0.0105 0,0 0.103123,-0.0641 0.103123,-0.0641 v 0 c 0.00398,0.003 0.00796,0.007 0.011941,0.01 0,0 -0.1039344,0.0648 -0.1039344,0.0648 z"
       inkscape:connector-curvature="0" />
    <path
       style="fill:#ffffff;fill-opacity:0.99572646;stroke:none;stroke-width:0.52916664;stroke-linecap:round;stroke-linejoin:round;stroke-miterlimit:4;stroke-dasharray:none;stroke-opacity:0.97435895"
       id="path951"
       d="m 2.3472933,293.14518 c -0.025424,-0.011 -0.048638,-0.0262 -0.071405,-0.0418 0,0 0.1017209,-0.0651 0.1017209,-0.0651 v 0 c 0.022621,0.0148 0.045618,0.0296 0.071382,0.0385 0,0 -0.1016984,0.0685 -0.1016984,0.0685 z"
       inkscape:connector-curvature="0" />
    <path
       style="fill:#ffffff;fill-opacity:0.99572646;stroke:none;stroke-width:0.52916664;stroke-linecap:round;stroke-linejoin:round;stroke-miterlimit:4;stroke-dasharray:none;stroke-opacity:0.97435895"
       id="path953"
       d="m 0.58505663,295.15851 c 0.00361,0.0172 0.001635,0.008 0.005965,0.0275 0,0 -0.10675485,0.0577 -0.10675485,0.0577 v 0 c -0.005079,-0.019 -0.002737,-0.0102 -0.007034,-0.0264 0,0 0.10782384,-0.0588 0.10782385,-0.0588 z"
       inkscape:connector-curvature="0" />
    <path
       style="fill:#ffffff;fill-opacity:0.99572646;stroke:none;stroke-width:0.52916664;stroke-linecap:round;stroke-linejoin:round;stroke-miterlimit:4;stroke-dasharray:none;stroke-opacity:0.97435895"
       id="path955"
       d="m 0.88477428,295.38263 c 0.0194831,0.0407 0.03808,0.0818 0.0585296,0.12203 0,0 -0.10298597,0.0588 -0.10298597,0.0588 v 0 c -0.020556,-0.0399 -0.0390353,-0.081 -0.0615561,-0.11982 0,0 0.10601251,-0.061 0.10601251,-0.061 z"
       inkscape:connector-curvature="0" />
    <path
       style="fill:#ffffff;fill-opacity:0.99572646;stroke:none;stroke-width:0.52916664;stroke-linecap:round;stroke-linejoin:round;stroke-miterlimit:4;stroke-dasharray:none;stroke-opacity:0.97435895"
       id="path957"
       d="m 1.1860715,296.2538 c -8.361e-4,0.004 -0.00167,0.009 -0.00251,0.0134 0,0 -0.1090707,0.0539 -0.1090707,0.0539 v 0 c 3.254e-4,-0.005 6.509e-4,-0.01 9.736e-4,-0.0143 0,0 0.1106043,-0.053 0.1106043,-0.053 z"
       inkscape:connector-curvature="0" />
    <path
       style="fill:#ffffff;fill-opacity:0.99572646;stroke:none;stroke-width:0.52916664;stroke-linecap:round;stroke-linejoin:round;stroke-miterlimit:4;stroke-dasharray:none;stroke-opacity:0.97435895"
       id="path959"
       d="m 1.5614254,296.38523 c 0.00795,0.0344 0.022799,0.0662 0.042025,0.0956 0,0 -0.1038792,0.0607 -0.1038792,0.0607 v 0 c -0.019485,-0.0304 -0.034592,-0.063 -0.045427,-0.0976 0,0 0.1072813,-0.0587 0.1072812,-0.0587 z"
       inkscape:connector-curvature="0" />
    <path
       style="fill:#ffffff;fill-opacity:0.99572646;stroke:none;stroke-width:0.52916664;stroke-linecap:round;stroke-linejoin:round;stroke-miterlimit:4;stroke-dasharray:none;stroke-opacity:0.97435895"
       id="path961"
       d="m 1.3381236,295.77923 c 0.00181,0.005 0.00361,0.009 0.00542,0.0139 0,0 -0.1058505,0.0596 -0.1058505,0.0596 v 0 c -0.00224,-0.005 -0.00449,-0.009 -0.00673,-0.0139 0,0 0.1071621,-0.0595 0.1071621,-0.0595 z"
       inkscape:connector-curvature="0" />
    <path
       style="fill:#ffffff;fill-opacity:0.99572646;stroke:none;stroke-width:0.52916664;stroke-linecap:round;stroke-linejoin:round;stroke-miterlimit:4;stroke-dasharray:none;stroke-opacity:0.97435895"
       id="path963"
       d="m 1.8828528,295.55495 c 0.023948,-1e-5 0.045942,0.0118 0.067536,0.0209 0,0 -0.099889,0.0669 -0.099889,0.0669 v 0 c -0.020747,-0.008 -0.04229,-0.0187 -0.064949,-0.0129 0,0 0.097302,-0.0749 0.097302,-0.0749 z"
       inkscape:connector-curvature="0" />
    <path
       style="fill:#ffffff;fill-opacity:0.99572646;stroke:none;stroke-width:0.52916664;stroke-linecap:round;stroke-linejoin:round;stroke-miterlimit:4;stroke-dasharray:none;stroke-opacity:0.97435895"
       id="path965"
       d="m 2.5800109,296.08919 c 0.014085,0.0168 0.00635,0.008 0.023401,0.0262 0,0 -0.1029209,0.0629 -0.1029209,0.0629 v 0 c -0.018045,-0.0179 -0.00972,-0.01 -0.025013,-0.025 0,0 0.1045337,-0.0641 0.1045329,-0.0641 z"
       inkscape:connector-curvature="0" />
    <path
       style="fill:#ffffff;fill-opacity:0.99572646;stroke:none;stroke-width:0.52916664;stroke-linecap:round;stroke-linejoin:round;stroke-miterlimit:4;stroke-dasharray:none;stroke-opacity:0.97435895"
       id="path967"
       d="m 3.0808591,295.54694 c 0.00732,-0.0164 0.01406,-0.0331 0.021143,-0.0497 0,0 0.1093476,-0.0503 0.1093476,-0.0503 v 0 c -0.00677,0.0161 -0.013271,0.0322 -0.018957,0.0487 0,0 -0.1115335,0.0512 -0.1115335,0.0512 z"
       inkscape:connector-curvature="0" />
    <path
       style="fill:#ffffff;fill-opacity:0.99572646;stroke:none;stroke-width:0.52916664;stroke-linecap:round;stroke-linejoin:round;stroke-miterlimit:4;stroke-dasharray:none;stroke-opacity:0.97435895"
       id="path969"
       d="m 3.3932712,294.72032 c 6.879e-4,-0.0221 3.968e-4,-0.0103 7.937e-4,-0.0352 0,0 0.1075478,-0.0548 0.1075478,-0.0548 v 0 c 4.234e-4,0.0244 1.196e-4,0.0129 7.938e-4,0.0344 0,0 -0.1091607,0.0556 -0.1091607,0.0556 z"
       inkscape:connector-curvature="0" />
    <path
       style="fill:#ffffff;fill-opacity:0.99572646;stroke:none;stroke-width:0.52916664;stroke-linecap:round;stroke-linejoin:round;stroke-miterlimit:4;stroke-dasharray:none;stroke-opacity:0.97435895"
       id="path971"
       d="m 2.6097595,294.34728 c 0.020939,-0.0503 0.047331,-0.0981 0.075005,-0.14501 0.00647,-0.01 0.012933,-0.0198 0.019397,-0.0297 0,0 0.1081328,-0.0474 0.1081328,-0.0474 v 0 c -0.0065,0.01 -0.013004,0.0194 -0.019508,0.0291 -0.027163,0.0453 -0.052987,0.0918 -0.071873,0.14124 0,0 -0.1111546,0.0517 -0.1111546,0.0517 z"
       inkscape:connector-curvature="0" />
    <path
       style="fill:#ffffff;fill-opacity:0.99572646;stroke:none;stroke-width:0.52916664;stroke-linecap:round;stroke-linejoin:round;stroke-miterlimit:4;stroke-dasharray:none;stroke-opacity:0.97435895"
       id="path973"
       d="m 1.820998,293.93013 c -0.00837,-0.0297 -0.016247,-0.0596 -0.024757,-0.0893 0,0 0.1055835,-0.0576 0.1055835,-0.0576 v 0 c 0.00867,0.0295 0.016366,0.0592 0.026997,0.0881 0,0 -0.1078239,0.0588 -0.1078235,0.0588 z"
       inkscape:connector-curvature="0" />
    <path
       style="fill:#ffffff;fill-opacity:0.99572646;stroke:none;stroke-width:0.52916664;stroke-linecap:round;stroke-linejoin:round;stroke-miterlimit:4;stroke-dasharray:none;stroke-opacity:0.97435895"
       id="path975"
       d="m 2.9274645,296.29742 c 0.037347,0.009 0.069397,0.004 0.1042009,-0.0111 0,0 -0.094914,0.0744 -0.094914,0.0744 v 0 c -0.037529,0.0127 -0.071367,0.0152 -0.1102408,0.006 0,0 0.1009539,-0.0696 0.1009539,-0.0696 z"
       inkscape:connector-curvature="0" />
  </g>
</svg>
